<svg width="45" height="45" viewBox="0 0 45 45" fill="none" xmlns="http://www.w3.org/2000/svg">
<path fill-rule="evenodd" clip-rule="evenodd" d="M43.2047 38.2106L38.6247 42.7906L15.3247 19.4906C11.7147 21.2206 7.2547 20.5906 4.2647 17.5906C1.2647 14.6006 0.634704 10.1506 2.3647 6.53064L7.8447 12.0106L12.4247 7.43064L6.9447 1.95064C10.5547 0.220642 15.0147 0.850642 18.0047 3.85064C21.0047 6.85064 21.6347 11.3006 19.9047 14.9106L43.2047 38.2106Z" stroke="#00E122" stroke-opacity="0.57" stroke-width="2" stroke-linecap="round" stroke-linejoin="round"/>
<path fill-rule="evenodd" clip-rule="evenodd" d="M18.678 31.3943L13.021 25.7373L1 37.7583L6.657 43.4153L18.678 31.3943Z" stroke="#00E122" stroke-opacity="0.57" stroke-width="2" stroke-linecap="round" stroke-linejoin="round"/>
<path d="M36.2862 8.13037L26.8262 17.5904" stroke="#00E122" stroke-opacity="0.57" stroke-width="2" stroke-linecap="round" stroke-linejoin="round"/>
<path d="M18.0047 26.4102L16.5547 27.8602" stroke="#00E122" stroke-opacity="0.57" stroke-width="2" stroke-linecap="round" stroke-linejoin="round"/>
<path fill-rule="evenodd" clip-rule="evenodd" d="M43.3561 3.88857L40.5281 1.05957L35.5781 6.00957L38.4061 8.83857L43.3561 3.88857Z" stroke="#00E122" stroke-opacity="0.57" stroke-width="2" stroke-linecap="round" stroke-linejoin="round"/>
</svg>
