<svg width="42" height="42" viewBox="0 0 42 42" fill="none" xmlns="http://www.w3.org/2000/svg">
<path fill-rule="evenodd" clip-rule="evenodd" d="M24.535 17.464L41 21L24.535 24.535L21 41L17.464 24.535L1 21L17.464 17.464L21 1L24.535 17.464Z" stroke="#00E122" stroke-opacity="0.57" stroke-width="2" stroke-linecap="round" stroke-linejoin="round"/>
<path fill-rule="evenodd" clip-rule="evenodd" d="M34.707 7.29251L38 7.99951L34.707 8.70651L34.613 9.14251L34 11.9995L33.293 8.70651L30 7.99951L33.293 7.29251L34 3.99951L34.707 7.29251Z" stroke="#00E122" stroke-opacity="0.57" stroke-width="2" stroke-linecap="round" stroke-linejoin="round"/>
<path fill-rule="evenodd" clip-rule="evenodd" d="M9.94188 32.0576L12 32.4995L9.94188 32.9414L9.88375 33.2139L9.5 34.9995L9.05812 32.9414L7 32.4995L9.05812 32.0576L9.5 29.9995L9.94188 32.0576Z" stroke="#00E122" stroke-opacity="0.57" stroke-width="2" stroke-linecap="round" stroke-linejoin="round"/>
</svg>
