<svg width="43" height="41" viewBox="0 0 43 41" fill="none" xmlns="http://www.w3.org/2000/svg">
<path fill-rule="evenodd" clip-rule="evenodd" d="M27.8819 19.5086C27.8819 19.1766 27.9419 18.8636 28.0629 18.5716C28.1829 18.2796 28.3489 18.0236 28.5619 17.8066C28.7729 17.5886 29.0269 17.4166 29.3179 17.2906C29.6109 17.1646 29.9219 17.1006 30.2539 17.1006C30.5869 17.1006 30.9009 17.1646 31.1939 17.2906C31.4859 17.4166 31.7399 17.5886 31.9589 17.8066C32.1769 18.0236 32.3489 18.2796 32.4759 18.5716C32.6009 18.8636 32.6639 19.1766 32.6639 19.5086C32.6639 19.8536 32.6009 20.1686 32.4759 20.4546C32.3489 20.7416 32.1769 20.9946 31.9589 21.2116C31.7399 21.4306 31.4859 21.5996 31.1939 21.7196C30.9009 21.8406 30.5869 21.8996 30.2539 21.8996C29.9219 21.8996 29.6109 21.8406 29.3179 21.7196C29.0269 21.5996 28.7729 21.4306 28.5619 21.2116C28.3489 20.9946 28.1829 20.7416 28.0629 20.4546C27.9419 20.1686 27.8819 19.8536 27.8819 19.5086ZM18.8669 19.5086C18.8669 19.1766 18.9279 18.8636 19.0489 18.5716C19.1689 18.2796 19.3349 18.0236 19.5469 17.8066C19.7589 17.5886 20.0119 17.4166 20.3039 17.2906C20.5969 17.1646 20.9079 17.1006 21.2419 17.1006C21.5739 17.1006 21.8869 17.1646 22.1789 17.2906C22.4719 17.4166 22.7269 17.5886 22.9449 17.8066C23.1619 18.0236 23.3339 18.2796 23.4599 18.5716C23.5869 18.8636 23.6499 19.1766 23.6499 19.5086C23.6499 19.8536 23.5869 20.1686 23.4599 20.4546C23.3339 20.7416 23.1619 20.9946 22.9449 21.2116C22.7269 21.4306 22.4719 21.5996 22.1789 21.7196C21.8869 21.8406 21.5739 21.8996 21.2419 21.8996C20.9079 21.8996 20.5969 21.8406 20.3039 21.7196C20.0119 21.5996 19.7589 21.4306 19.5469 21.2116C19.3349 20.9946 19.1689 20.7416 19.0489 20.4546C18.9279 20.1686 18.8669 19.8536 18.8669 19.5086ZM9.83594 19.5086C9.83594 19.1766 9.89694 18.8636 10.0169 18.5716C10.1369 18.2796 10.3039 18.0236 10.5149 17.8066C10.7279 17.5886 10.9799 17.4166 11.2729 17.2906C11.5659 17.1646 11.8769 17.1006 12.2109 17.1006C12.5429 17.1006 12.8549 17.1646 13.1479 17.2906C13.4409 17.4166 13.6949 17.5886 13.9139 17.8066C14.1309 18.0236 14.3029 18.2796 14.4299 18.5716C14.5559 18.8636 14.6179 19.1766 14.6179 19.5086C14.6179 19.8536 14.5559 20.1686 14.4299 20.4546C14.3029 20.7416 14.1309 20.9946 13.9139 21.2116C13.6949 21.4306 13.4409 21.5996 13.1479 21.7196C12.8549 21.8406 12.5429 21.8996 12.2109 21.8996C11.8769 21.8996 11.5659 21.8406 11.2729 21.7196C10.9799 21.5996 10.7279 21.4306 10.5149 21.2116C10.3039 20.9946 10.1369 20.7416 10.0169 20.4546C9.89694 20.1686 9.83594 19.8536 9.83594 19.5086Z" fill="#00E122" fill-opacity="0.56"/>
<path fill-rule="evenodd" clip-rule="evenodd" d="M40.22 40C36.3 40.01 32.42 38.1 29.031 35.62C26.64 36.51 24.01 37 21.25 37C10.07 37 1 28.94 1 19C1 9.06 10.07 1 21.25 1C32.43 1 41.5 9.06 41.5 19C41.5 24.45 38.821 29.315 34.52 32.615C35.781 35.485 37.66 38.38 40.22 40Z" stroke="#00E122" stroke-opacity="0.56" stroke-width="2" stroke-linecap="round" stroke-linejoin="round"/>
</svg>
