<svg width="50" height="50" viewBox="0 0 50 50" fill="none" xmlns="http://www.w3.org/2000/svg">
<path fill-rule="evenodd" clip-rule="evenodd" d="M10.6943 9.51772C6.73851 13.43 4.27816 18.9205 4.27816 25C4.27816 36.8805 13.674 46.5116 25.2643 46.5116C25.5536 46.5116 25.8415 46.5056 26.128 46.4937C25.6618 44.3737 25.5987 41.5235 27.0203 38.7774C28.4998 35.9198 31.5629 34.6795 33.8151 34.1121C34.9951 33.8149 36.0882 33.6681 36.8829 33.5951C37.2825 33.5584 37.6117 33.5398 37.8451 33.5302C37.962 33.5256 38.055 33.523 38.1215 33.5219L38.2006 33.5207L38.2199 33.5205C42.0144 33.48 43.724 32.2151 44.6312 31.0084C45.4063 29.9777 45.6989 28.9467 45.9957 27.9012C46.0333 27.7681 46.0712 27.6349 46.11 27.5014C46.2028 26.6807 46.2505 25.846 46.2505 25C46.2505 19.13 43.9567 13.8092 40.238 9.92786C40.2183 10.0071 40.1981 10.0851 40.1774 10.1619C39.8081 11.5408 39.2116 12.9561 38.5634 13.9645C37.9828 14.8677 36.8566 15.7789 35.9219 16.4673C35.3066 16.9204 34.6661 17.3053 34.0851 17.6486C34.015 17.69 33.9458 17.7309 33.8773 17.7712C33.36 18.0762 32.8944 18.3506 32.4463 18.654C31.4667 19.3176 30.7087 20.0317 30.1984 21.11C30.0199 21.4877 30.0142 21.856 30.1199 22.2505C30.2892 22.8819 30.4044 23.5921 30.4063 24.3163C30.4101 25.8256 29.6601 27.0505 28.6961 27.8467C27.7436 28.6337 26.4988 29.0837 25.2457 29.0698C19.6753 29.0072 16.2503 24.3735 15.7986 19.2197C15.6189 17.1696 14.742 15.0958 13.6348 13.2834C12.618 11.6188 11.4723 10.2813 10.6943 9.51772ZM13.342 7.29446C14.2837 8.26656 15.4651 9.70653 16.5192 11.4321C17.7841 13.5027 18.9429 16.1107 19.1881 18.9076C19.5306 22.8151 21.9403 25.5442 25.2829 25.5814C25.7426 25.5867 26.2199 25.4121 26.5607 25.1307C26.8899 24.8588 27.0038 24.5716 27.0031 24.3253C27.0022 23.9637 26.9428 23.564 26.8382 23.174C26.5634 22.1479 26.5242 20.8819 27.1365 19.5877C28.01 17.7417 29.3045 16.6009 30.5705 15.7435C31.113 15.3761 31.6759 15.0446 32.1836 14.7455C32.2521 14.7052 32.3195 14.6654 32.3858 14.6263C32.9648 14.2841 33.4732 13.9753 33.936 13.6343C34.9141 12.9141 35.5328 12.3391 35.7215 12.0453C36.1356 11.4013 36.6011 10.338 36.8956 9.23837C37.1291 8.36714 37.1938 7.69851 37.172 7.28409C33.7888 4.89026 29.6862 3.48837 25.2643 3.48837C20.8359 3.48837 16.728 4.8943 13.342 7.29446ZM49.493 27.8844C49.5992 26.9379 49.6536 25.9756 49.6536 25C49.6536 11.1929 38.7342 0 25.2643 0C11.7945 0 0.875 11.1929 0.875 25C0.875 38.8072 11.7945 50 25.2643 50C37.6527 50 47.8838 40.5323 49.4467 28.2707C49.4882 28.123 49.5241 28 49.5563 27.9072L49.493 27.8844ZM43.1983 36.1781C41.847 36.6858 40.2183 36.9877 38.2555 37.0088H38.2376H38.2317L38.185 37.0095C38.1407 37.0105 38.0713 37.0121 37.9794 37.0158C37.7954 37.0235 37.5234 37.0386 37.1872 37.0695C36.5108 37.1316 35.5956 37.2558 34.6273 37.4998C32.5827 38.0149 30.7888 38.94 30.0265 40.4126C28.993 42.4086 29.1405 44.5805 29.526 46.0679C35.3091 44.8451 40.2226 41.1835 43.1983 36.1781Z" fill="white"/>
</svg>
