<svg width="50" height="40" viewBox="0 0 50 40" fill="none" xmlns="http://www.w3.org/2000/svg">
<path fill-rule="evenodd" clip-rule="evenodd" d="M46.6 23.8C46.6 29.641 44.407 34.972 40.791 39H6.809C3.193 34.972 1 29.641 1 23.8C1 11.206 11.206 1 23.8 1C36.395 1 46.6 11.206 46.6 23.8Z" stroke="#00E122" stroke-opacity="0.51" stroke-width="2" stroke-linecap="round" stroke-linejoin="round"/>
<path fill-rule="evenodd" clip-rule="evenodd" d="M27.057 24.8859C27.057 26.6849 25.599 28.1429 23.8 28.1429C22.001 28.1429 20.543 26.6849 20.543 24.8859C20.543 23.0869 22.001 21.6289 23.8 21.6289C25.599 21.6289 27.057 23.0869 27.057 24.8859Z" stroke="#00E122" stroke-opacity="0.51" stroke-width="2" stroke-linecap="round" stroke-linejoin="round"/>
<path d="M48.4384 32.5665L26.9004 25.8555" stroke="#00E122" stroke-opacity="0.51" stroke-width="2" stroke-linecap="round" stroke-linejoin="round"/>
<path d="M23.8008 1V6.429" stroke="#00E122" stroke-opacity="0.51" stroke-width="2" stroke-linecap="round" stroke-linejoin="round"/>
<path d="M7.67773 7.67773L11.5167 11.5167" stroke="#00E122" stroke-opacity="0.51" stroke-width="2" stroke-linecap="round" stroke-linejoin="round"/>
<path d="M1 23.7998H6.428" stroke="#00E122" stroke-opacity="0.51" stroke-width="2" stroke-linecap="round" stroke-linejoin="round"/>
<path d="M39.923 7.67773L36.084 11.5167" stroke="#00E122" stroke-opacity="0.51" stroke-width="2" stroke-linecap="round" stroke-linejoin="round"/>
<path d="M46.6009 23.7998H41.1719" stroke="#00E122" stroke-opacity="0.51" stroke-width="2" stroke-linecap="round" stroke-linejoin="round"/>
</svg>
