<svg width="56" height="55" viewBox="0 0 56 55" fill="none" xmlns="http://www.w3.org/2000/svg">
<path opacity="0.987" fill-rule="evenodd" clip-rule="evenodd" d="M25.281 3.64718C27.7732 3.36875 29.2479 3.36875 31.9257 3.64718C36.6658 4.34876 41.0598 6.53979 44.4725 9.90343C42.1664 12.0833 39.8906 14.2949 37.6457 16.5378C33.3465 12.8941 28.5477 12.053 23.2494 14.0147C19.3627 15.8022 16.6563 18.6988 15.13 22.7047C12.6359 20.8478 10.1743 18.9478 7.74629 17.0053C7.57755 16.9165 7.38483 16.884 7.19629 16.9125C11.0532 9.47604 17.0802 5.05312 25.2775 3.64374" fill="#F44336"/>
<path opacity="0.997" fill-rule="evenodd" clip-rule="evenodd" d="M7.18926 16.9125C7.38406 16.8827 7.56854 16.9136 7.7427 17.0053C10.1707 18.9477 12.6323 20.8478 15.1265 22.7046C14.734 24.2655 14.4866 25.8592 14.3874 27.4656C14.4722 29.0193 14.7185 30.5444 15.1265 32.0409L7.37489 38.2112C3.99926 31.1575 3.93739 24.0579 7.18926 16.9125Z" fill="#FFC107"/>
<path opacity="0.999" fill-rule="evenodd" clip-rule="evenodd" d="M44.1047 45.6844C41.6911 43.5558 39.1643 41.5592 36.5354 39.7032C39.1708 37.8423 40.7704 35.2894 41.3341 32.0444H28.4194V23.076C35.8674 23.0141 43.3118 23.0771 50.7529 23.265C52.1645 30.9307 50.534 37.8423 45.8613 44C45.3057 44.5907 44.7171 45.1528 44.1047 45.6844Z" fill="#448AFF"/>
<path opacity="0.993" fill-rule="evenodd" clip-rule="evenodd" d="M15.1266 32.0444C17.9453 39.0501 23.113 42.3203 30.6297 41.8551C32.7397 41.6108 34.7628 40.8737 36.5353 39.7032C39.1661 41.564 41.6893 43.5578 44.1047 45.6844C40.2775 49.1235 35.3979 51.1641 30.2619 51.4732C29.095 51.5665 27.9225 51.5665 26.7556 51.4732C18.006 50.4419 11.5458 46.0213 7.375 38.2113L15.1266 32.0444Z" fill="#43A047"/>
</svg>
