<svg width="230" height="221" viewBox="0 0 230 221" fill="none" xmlns="http://www.w3.org/2000/svg">
<circle cx="114.5" cy="110.5" r="36.5" fill="#225557"/>
<path d="M96 106.778C96 108.718 96.3822 110.64 97.1249 112.433C97.8675 114.226 98.9561 115.855 100.328 117.227C101.701 118.6 103.33 119.688 105.123 120.431C106.915 121.173 108.837 121.556 110.778 121.556C112.718 121.556 114.64 121.173 116.433 120.431C118.226 119.688 119.855 118.6 121.227 117.227C122.599 115.855 123.688 114.226 124.431 112.433C125.173 110.64 125.555 108.718 125.555 106.778C125.555 104.837 125.173 102.915 124.431 101.123C123.688 99.3296 122.599 97.7006 121.227 96.3283C119.855 94.9561 118.226 93.8675 116.433 93.1249C114.64 92.3822 112.718 92 110.778 92C108.837 92 106.915 92.3822 105.123 93.1249C103.33 93.8675 101.701 94.9561 100.328 96.3283C98.9561 97.7006 97.8675 99.3296 97.1249 101.123C96.3822 102.915 96 104.837 96 106.778Z" stroke="#00E122" stroke-width="3" stroke-linecap="round" stroke-linejoin="round"/>
<path d="M133.999 130L121.332 117.333" stroke="#00E122" stroke-width="3" stroke-linecap="round" stroke-linejoin="round"/>
</svg>
