<svg width="170" height="150" viewBox="0 0 170 150" fill="none" xmlns="http://www.w3.org/2000/svg">
<g opacity="0.6">
<path fill-rule="evenodd" clip-rule="evenodd" d="M64.7725 83.8109C64.436 84.6996 64.7175 85.6134 65.0142 86.1046C65.188 86.1464 65.5662 86.2627 66.9135 85.9114C66.7235 85.532 66.4809 85.5897 66.4041 83.9827L64.7725 83.8109ZM88.1946 81.3497C87.8741 82.9796 87.3647 84.8898 85.6952 85.7222C86.4409 85.8459 87.1622 85.8863 87.7111 85.8382C88.1261 84.2777 88.1147 82.6209 88.1946 81.3497ZM65.0444 80.2117C64.1697 81.7093 64.4192 81.9682 64.4532 82.6082L66.4215 82.5956C66.4624 81.9583 66.5411 81.1647 67.0473 80.538C65.7447 80.494 65.0444 80.2117 65.0444 80.2117ZM69.8533 78.0983C68.9653 78.7465 68.2645 79.4892 67.8288 80.0484C67.547 81.46 67.6561 85.4713 68.9985 88.0245C70.4373 89.2709 72.6087 90.6528 75.3006 91.2845C71.5164 88.789 68.5987 85.9383 69.8533 78.0983ZM75.5553 77.9567C75.4174 77.9976 75.2757 78.0383 75.1279 78.0683C74.4409 78.2071 74.0193 78.3006 73.7079 78.3473C73.6317 79.8645 74.0303 82.6137 75.6979 84.7301C77.5466 87.0769 81.1333 88.1578 82.2375 88.4069C83.8517 88.7708 85.1866 88.7213 86.2693 88.5743C86.729 88.0855 87.0658 87.5335 87.3224 86.9507C86.0419 86.9595 81.48 86.893 79.1901 84.6185C77.0518 82.495 75.9656 79.3839 75.5553 77.9567ZM72.1581 76.9129C71.7611 77.0319 71.3818 77.1914 71.0185 77.3767C70.6605 78.3556 69.8596 83.3257 72.2833 86.8647C75.2669 91.2207 80.0244 91.464 82.4533 91.1C83.5503 90.76 84.3617 90.2561 85.1598 89.5922C83.6037 89.8952 79.9794 89.9804 76.9927 88.0116C73.6237 85.7907 72.701 83.3194 72.5123 80.1858C72.4711 79.5022 72.4612 78.8078 72.5468 78.1112C72.0877 77.8355 72.186 77.6183 72.1581 76.9129ZM78.0461 76.2427C77.7104 76.6751 77.2339 77.1457 76.5957 77.5141C76.8234 78.1747 77.1292 78.7517 77.6403 79.3312C77.7397 78.7682 77.9201 78.2297 78.1928 77.7376C78.4251 77.3184 78.6221 76.9863 78.7972 76.6979C78.5472 76.5495 78.2961 76.398 78.0461 76.2427ZM78.6116 75.04C78.679 75.0486 78.6378 75.2528 78.4906 75.5513C78.7696 75.669 79.0561 75.7938 79.2807 75.942C79.6108 75.4637 79.7567 75.3394 79.7597 75.3408L78.6116 75.04Z" fill="white"/>
<path fill-rule="evenodd" clip-rule="evenodd" d="M61.4832 83.5055C61.6628 83.5058 61.9189 83.544 62.2949 83.6257C62.8615 83.7494 63.6336 83.8409 64.3884 83.9522C64.3218 84.6829 64.3193 85.3806 64.6558 85.8336C63.3275 85.8174 61.9573 85.4897 61.3061 84.7297C61.0708 84.455 60.8558 84.0471 60.9868 83.8063C61.0926 83.6117 61.1838 83.5053 61.4832 83.5055ZM88.2923 83.141C89.268 83.2532 90.5076 83.5033 91.1038 84.7899C91.5063 85.6588 91.3845 86.0387 90.2534 85.8163C89.7186 85.7113 88.6406 85.3001 87.9806 84.9749C88.1472 84.1675 88.0964 84.3429 88.2923 83.141ZM61.9927 79.7257C62.1043 79.7183 62.2322 79.7307 62.3811 79.7601C63.1858 79.8574 63.9411 80.1664 64.7163 80.3874C64.2787 80.8234 64.1511 81.3564 64.1942 82.2685C63.5278 82.1357 62.7565 81.9373 62.2385 81.4782C61.3332 80.6758 61.2117 79.7788 61.9927 79.7257ZM78.4778 75.6196C78.8427 75.6221 79.1822 75.6303 79.4662 75.6584C78.3631 76.7502 77.3026 78.5953 77.3293 80.0479C77.3965 83.7752 79.5632 85.5115 80.8821 85.9109C84.166 86.906 87.3513 86.5912 88.0909 82.2685C88.0945 82.531 88.0809 82.8257 88.0563 83.119C88.0055 83.6875 87.9428 84.2632 87.7931 84.8157C86.4198 88.7189 84.5348 90.4753 78.5598 91.121C73.9526 91.6191 68.4848 87.933 67.2933 85.3781C66.7759 85.6236 65.9379 85.7671 65.1136 85.8078C64.7735 85.3295 64.6765 84.7635 64.8848 84.0727C65.6133 84.1645 66.3394 84.2238 66.948 84.2101C66.848 83.5927 66.8877 83.0215 67.056 82.3716C66.22 82.4247 65.3857 82.4453 64.5956 82.3372C64.4533 81.3853 64.7627 80.9004 65.1567 80.5034C65.9341 80.703 66.825 80.8877 67.6085 80.9542C67.8074 80.6288 68.0505 80.3115 68.3423 80.0006C69.1373 79.1537 70.1507 78.3215 72.0072 77.4408C72.1063 79.8032 77.3755 78.2204 78.4778 75.6196ZM72.6028 73.3344C73.2103 73.3358 73.9399 73.4795 74.7178 73.7511C75.8044 74.2129 76.7083 74.7737 77.541 75.6196C77.7725 75.6199 77.9946 75.6193 78.2186 75.6196C77.1362 77.5887 72.3713 79.4866 72.292 77.3033C72.8824 77.0342 73.5509 76.7623 74.3209 76.483C73.3244 76.0627 72.3771 75.4511 71.761 74.8592C71.0419 74.1684 70.9629 73.7704 71.6574 73.4891C71.9179 73.3836 72.2384 73.3336 72.6028 73.3344ZM71.1093 59.1646C71.2693 59.147 71.5439 60.0027 71.1914 60.0148C70.698 59.9516 70.9817 59.426 71.1093 59.1646ZM103.065 58.2151C103.452 58.5584 103.217 59.2402 102.784 58.9798C102.512 58.8157 102.541 58.2987 103.065 58.2151ZM83.377 57.8201C85.4879 57.8283 87.6041 58.1345 89.5368 58.6876C93.9344 59.9467 94.0128 62.0482 93.7111 64.3101C93.5067 65.8396 93.4636 66.9183 93.3139 67.8667C91.6964 68.2208 88.2166 68.7964 84.7928 68.1716C79.5853 67.2212 76.0881 64.7153 75.7151 63.9794C75.7151 66.1538 79.5759 72.919 86.7571 73.2959C88.0989 73.3663 88.8266 73.3305 90.1283 72.8063C89.952 73.7995 88.3268 75.6518 86.4419 76.6419C85.7128 77.0246 85.6363 77.7962 85.6045 78.7636C85.6918 78.2957 85.7321 78.3675 85.8634 78.042C86.0855 77.4914 86.4018 78.2745 87.2621 78.1495C89.4733 77.8278 93.3503 75.9574 94.57 72.9608C94.8206 72.3448 94.6308 71.2111 93.888 71.3757C93.4213 71.4794 93.6636 72.3437 93.8534 72.4324C93.8534 72.4324 93.9004 71.8967 94.0349 71.9473C94.1689 71.9976 94.3858 72.2194 94.3413 72.5399C94.2965 72.8602 94.1081 73.4457 93.7802 73.253C93.452 73.06 93.026 72.5086 93.0291 71.7666C93.0321 71.025 93.2089 70.2281 93.8404 70.2033C94.2007 70.189 94.727 70.9554 95.0925 71.5778C96.3196 67.1605 95.4256 62.8383 98.5153 62.051C103.609 60.7524 103.306 62.1049 104.727 63.7433C106.504 65.7929 106.625 66.5362 107.425 67.5574C108.22 68.5735 109.242 70.0134 109.212 71.3329C109.154 73.8993 106.972 75.873 106.972 75.873C103.42 75.9217 98.3656 72.8594 97.3542 70.3449C96.6426 68.5759 96.5688 66.7044 96.5644 66.1313C96.5152 67.3587 95.8842 74.0546 95.8737 74.6187C95.8353 76.5765 96.229 77.3245 96.5169 77.6514C97.3537 78.6019 98.2794 78.9524 99.0463 79.5195C96.5379 80.8294 93.4918 82.064 88.3972 80.8212C87.7386 80.6604 87.3502 81.0876 87.2836 81.8133C87.7113 81.2195 87.929 81.2858 88.0262 81.6544C87.1322 87.2188 82.4126 86.0296 80.8821 85.5156C79.4845 85.0466 77.526 82.8587 77.6531 80.0911C77.807 79.1666 77.7225 78.1096 79.7856 75.7054C80.0853 75.7645 80.3094 75.9225 80.3166 76.0877C80.3312 76.4217 80.1608 76.3888 79.7555 76.4443C80.1058 76.6854 80.5232 76.6455 80.6359 76.4487C80.9318 75.9324 80.5506 74.009 79.8547 72.819C79.3991 72.0402 78.9993 71.3551 78.5253 70.8089C77.5283 69.6604 76.5044 68.4124 74.8734 68.2961C74.5482 68.273 74.1573 68.3392 74.2173 68.6312C74.2883 68.9767 75.0933 69.1433 74.8734 68.8632C74.7198 68.6672 76.0688 68.6095 76.1381 69.052C76.2525 69.7835 73.7957 69.2552 73.4876 68.9319C72.1135 67.4901 74.4612 67.5904 75.7022 67.931C75.1596 67.4739 74.5711 66.9999 73.9106 66.462C70.7568 63.8928 71.6743 61.1812 75.7281 59.3235C77.8816 58.3363 80.4044 57.8621 82.9541 57.8245C83.0947 57.8223 83.2364 57.8195 83.377 57.8201ZM84.0072 56.8321C78.4189 56.8409 76.5025 57.8275 74.0921 58.8465C73.894 58.1991 73.6998 57.4641 72.5423 57.485C71.6513 57.5015 71.1496 58.311 70.9021 58.7778C70.0172 58.7929 69.8667 59.3831 69.7711 59.6456C70.0358 59.3655 70.2913 59.1055 70.7209 59.1302C70.3877 60.3026 70.8811 60.4143 71.1394 60.4659C71.3709 60.5121 72.3036 59.7694 71.1999 58.8724C71.4983 58.4287 71.8315 57.9856 72.5553 58.0177C73.5691 58.0625 73.6379 58.4993 73.731 59.0761C70.6007 61.4789 70.8974 62.9287 70.9107 63.4425C70.9648 65.5114 72.4809 66.081 73.4271 67.1366C72.4997 67.4931 71.7359 68.1999 72.5077 69.1681C73.1824 70.0139 74.1929 70.5961 76.5265 70.1131C79.2825 72.1125 79.5776 73.3891 79.6776 74.6146C79.127 74.619 78.3907 74.5604 77.8128 74.6316C76.2155 73.6961 74.9554 72.425 72.9697 72.4066C71.4883 72.3931 70.2811 72.3893 69.9913 73.648C69.7534 74.6819 71.3032 75.8395 72.2876 76.427C69.841 77.562 68.1992 78.8216 67.1941 80.1166C65.7484 79.9797 62.588 78.8205 61.4316 78.901C60.503 78.9659 60.3547 80.303 60.8486 81.109C61.2644 81.7874 61.9603 82.2262 62.7955 82.638C63.7162 83.0924 64.8589 82.981 65.9551 82.9601C65.933 83.1416 65.9189 83.3211 65.9164 83.5011C64.6486 83.4365 63.0944 83.2367 61.5003 82.7969C59.7591 82.3161 59.4966 85.0801 61.8111 85.9969C63.3601 86.6105 65.1238 86.6762 66.6587 86.3232C68.074 88.9435 71.324 91.0756 74.7007 91.8082C80.3959 93.0439 86.5341 91.2271 88.1384 86.4392C88.4365 85.5494 90.8621 87.29 91.5743 86.8472C92.6995 86.1481 91.9083 82.7213 88.9111 82.4791C88.9119 82.2045 88.8998 81.9342 88.8766 81.6717C90.4112 82.0626 91.9326 82.158 94.3673 81.852C97.2437 81.4903 100.413 80.4773 101.343 79.2576C99.3082 79.1438 98.4988 78.3565 99.3356 73.9658C99.6958 74.3309 102.194 76.4481 107.153 76.7706C107.153 76.7706 108.007 76.4627 109.091 74.7347C109.866 73.499 110.949 70.8779 109.691 69.0221C108.424 67.1533 109.135 67.9613 107.895 66.183C106.773 64.5723 106.277 63.0153 104.438 61.441C105.325 59.9744 105.285 59.097 104.744 58.4944C104.227 57.9185 103.634 57.9418 103.337 57.8932C102.973 57.5039 102.871 57.2744 102.059 57.2315C102.013 57.229 101.97 57.2293 101.926 57.2315C101.255 57.2678 100.821 57.8385 100.549 58.4257C101.105 57.8302 101.969 56.9635 102.927 57.9446C102.504 57.9798 101.851 58.9194 102.75 59.3449C103.536 59.7166 103.725 58.4652 103.484 58.228C104.579 58.413 105.245 59.6819 104.213 61.2519C103.147 60.4088 102.293 60.2713 101.308 60.2941C98.4659 60.3574 96.9848 61.1991 96.2707 62.184C94.959 63.9929 95.0331 66.4493 94.8938 68.8459C94.8684 69.2794 94.8264 69.6937 94.7687 70.0873C94.4093 69.1216 93.8744 69.1953 93.3097 69.4773C92.6191 69.8908 91.9433 72.7931 93.3269 73.7082C93.2423 73.8094 93.155 73.9064 93.0636 74.0002C90.7681 76.3494 88.7039 77.3064 86.9944 77.3547L87.0074 77.3421C88.8368 76.1177 91.0331 74.6217 91.3195 71.7625C87.8527 71.6847 88.1362 70.1533 87.2751 69.1681C89.397 69.1224 90.4435 69.2511 93.7241 68.5196C94.188 65.3442 94.6397 64.152 94.583 61.9605C94.5562 60.9319 93.8089 59.8414 93.0291 59.2718C90.3156 57.2909 87.7762 56.8263 84.0072 56.8321Z" fill="white"/>
<path fill-rule="evenodd" clip-rule="evenodd" d="M85.2369 66.2733C85.0596 66.2653 84.9433 66.3236 84.9391 66.4107C84.9295 66.6169 86.1309 66.6793 86.6097 68.0084C87.2379 67.4163 88.3255 67.1257 88.3924 66.9476C88.4617 66.7626 87.2735 66.8187 86.6787 67.6263C86.3036 66.6213 85.6265 66.2909 85.2369 66.2733ZM91.4744 66.1014C91.747 66.1014 92.0054 66.2636 92.0054 66.5482C92.0054 66.8327 91.7645 67.0163 91.4918 67.0163C91.2186 67.0163 90.9865 66.8582 90.9865 66.574C90.9865 66.2895 91.2014 66.1014 91.4744 66.1014ZM91.4139 65.3969C90.4273 65.4079 90.1268 66.5559 90.6586 67.0636C91.3418 67.7159 92.2302 67.3113 92.2987 66.4063C92.3438 65.8145 92.0374 65.39 91.4139 65.3969ZM81.9649 65.1693C82.237 65.158 82.4108 65.3669 82.4268 65.5602C82.4517 65.8617 82.1061 66.1924 81.7187 66.0242C81.3474 65.8626 81.3311 65.1954 81.9649 65.1693ZM81.7533 64.4521C81.4781 64.4738 81.2259 64.5873 81.093 64.7314C80.7084 65.1473 80.6819 66.328 81.9259 66.475C82.3959 66.5308 82.9337 65.6949 82.8669 65.337C82.7348 64.628 82.2121 64.4161 81.7533 64.4521Z" fill="white"/>
<path fill-rule="evenodd" clip-rule="evenodd" d="M106.577 74.1717C107.18 74.1695 106.866 74.8089 106.478 74.8504C105.692 74.9337 105.966 74.1739 106.577 74.1717ZM106.638 73.5832C105.843 73.6398 104.815 74.7976 106.167 75.1553C106.745 75.3081 107.393 74.6594 107.307 74.1888C107.22 73.7198 106.949 73.5609 106.638 73.5832ZM102.783 72.866C102.692 73.6994 102.716 73.62 103.098 74.6055C103.399 74.3446 103.751 73.9073 103.983 73.579C103.466 73.545 103.501 73.6714 103.189 73.987C103.035 73.5342 102.95 72.9396 102.783 72.866ZM100.141 71.1135C100.6 71.0758 100.82 71.7752 100.089 71.9297C99.8778 71.9742 99.7225 71.677 99.7225 71.5214C99.7225 71.3661 99.8007 71.1413 100.141 71.1135ZM100.072 70.5508C99.6167 70.5508 99.1805 71.0121 99.1957 71.3755C99.2106 71.7328 99.4938 72.2474 99.9944 72.2604C100.446 72.2716 100.954 71.7644 100.927 71.3799C100.899 70.9829 100.632 70.5508 100.072 70.5508Z" fill="white"/>
<path fill-rule="evenodd" clip-rule="evenodd" d="M121.436 101.528L119.287 109.17C119.287 109.17 118.488 107.886 117.505 107.796C116.519 107.705 115.311 108.848 115.311 108.848L118.596 97.1186C118.596 97.1186 118.851 96.9097 119.419 96.8932C119.61 96.8877 119.837 96.9069 120.099 96.9592C121.146 97.1681 122.232 98.6965 121.436 101.528ZM117.908 113.621C116.9 115.957 113.61 115.053 111.577 114.346C109.817 113.733 106.943 111.688 107.885 109.536C108.637 107.82 109.85 108.087 111.132 108.161C112.145 108.219 112.684 107.834 113.002 106.71L114.582 101.121L116.085 101.932L114.582 107.917C114.582 107.917 114.115 109.415 114.259 110.303C114.486 111.721 115.035 112.318 116.853 112.485L117.505 109.574C118.837 109.714 118.657 111.889 117.908 113.621ZM85.7983 117.807C81.3577 117.807 77.1458 116.599 73.3646 114.44C73.9726 114.353 74.5796 114.255 75.1838 114.146C78.4776 115.776 82.0737 116.675 85.8397 116.675C94.5406 116.675 102.334 111.887 107.588 104.33C107.372 105.382 107.173 106.163 106.998 106.792C101.617 113.586 94.1047 117.807 85.7983 117.807ZM106.983 103.4C101.917 110.887 94.3254 115.644 85.8397 115.644C82.7152 115.644 79.7109 114.996 76.9096 113.806C84.5919 112.169 91.4669 109.067 93.2077 107.996C99.8935 103.885 104.625 103.469 106.983 103.4ZM66.8301 113.272C61.1281 112.862 56.0531 111.056 52.8678 109.115C49.6828 107.174 48.1054 105.179 47.2128 102.93C48.5029 99.9531 50.1467 97.5502 50.9064 91.2193C51.2484 91.6644 53.6096 95.881 58.7978 98.0082C58.7984 98.0096 58.7989 98.0107 58.7995 98.012C58.8362 98.0274 58.876 98.0401 58.9136 98.0552C59.0926 98.1269 59.2749 98.1959 59.4608 98.2622C59.5023 98.2773 59.5418 98.2941 59.5838 98.3089C59.5832 98.3078 59.583 98.3064 59.5824 98.3053C59.9996 98.451 60.4333 98.5819 60.8841 98.6971C60.8844 98.6979 60.8847 98.6987 60.885 98.6993C60.9391 98.7136 60.9955 98.7251 61.0502 98.7389C61.1792 98.7702 61.3074 98.8024 61.4392 98.8309C61.611 98.8689 61.7861 98.9024 61.9627 98.9349C63.0926 99.1432 64.3164 99.2515 65.645 99.2188C75.8142 98.9659 76.0849 98.4106 82.7456 96.5966C85.2568 95.9146 90.9755 92.8 95.3736 90.829C99.5703 88.9487 104.551 87.4563 107.145 87.401C107.228 87.3983 107.311 87.401 107.391 87.401C109.644 87.4365 111.489 88.0212 112.903 88.7181C113.023 88.7772 113.141 88.8371 113.254 88.8976C113.285 88.9141 113.317 88.9303 113.348 88.9468C113.494 89.0262 113.636 89.1065 113.771 89.1876C114.104 89.385 114.404 89.5834 114.671 89.7748C114.722 89.8113 114.771 89.8473 114.82 89.8836C114.864 89.9161 114.909 89.9488 114.95 89.9807C115.026 90.0376 115.1 90.0945 115.168 90.15C115.882 90.7199 116.248 91.1506 116.248 91.1506L112.513 104.423C111.809 103.864 111.217 103.109 110.277 102.554C110.255 102.541 110.232 102.528 110.209 102.515C110.146 102.479 110.082 102.444 110.016 102.411C110.003 102.404 109.992 102.397 109.98 102.391C109.98 102.391 109.98 102.391 109.98 102.391C108.969 101.883 107.568 101.615 105.322 101.976C98.8876 103.01 92.3046 106.908 89.7519 108.125C87.6843 109.115 79.2343 112.554 71.2241 113.221C71.1722 113.225 71.1205 113.229 71.0688 113.232C69.627 113.346 68.2007 113.37 66.8301 113.272ZM55.6001 89.8421L55.2023 91.9533C55.2023 91.9533 53.5226 91.1094 53.7132 90.3342C53.8209 89.8998 54.4066 89.7954 54.8959 89.7899C55.2771 89.7844 55.6001 89.8421 55.6001 89.8421ZM51.3404 88.7425C51.5998 87.0712 53.5944 85.2513 55.8929 85.0809C55.9509 85.0782 56.0117 85.0754 56.07 85.0727C56.6024 85.0553 57.0538 85.1447 57.4256 85.3214C57.4543 85.3352 57.4823 85.3492 57.5102 85.3638C57.556 85.3882 57.6008 85.4141 57.6441 85.441C57.6693 85.457 57.6941 85.4729 57.7182 85.4894C57.7607 85.5191 57.8019 85.5499 57.8417 85.582C57.8635 85.6002 57.8856 85.6178 57.9069 85.6365C57.9455 85.6706 57.9823 85.7066 58.0182 85.7434C58.0375 85.7632 58.0572 85.783 58.0754 85.8036C58.1105 85.8427 58.1433 85.8842 58.1757 85.9259C58.1917 85.9468 58.208 85.9675 58.2235 85.9889C58.2555 86.0345 58.2853 86.0824 58.3144 86.131C58.3262 86.1511 58.3389 86.1709 58.3505 86.1918C58.3812 86.2473 58.4091 86.3053 58.4356 86.3644C58.4425 86.3801 58.4505 86.3946 58.4572 86.4106C58.4889 86.4854 58.5177 86.5629 58.5428 86.6432C58.5431 86.6434 58.5434 86.6437 58.5434 86.6442C58.6486 86.9793 58.6964 87.3584 58.6859 87.7721C58.6829 87.9 58.6763 88.0234 58.6677 88.1438C58.6649 88.1839 58.6611 88.2222 58.6575 88.2612C58.6508 88.3401 58.6437 88.4184 58.6345 88.494C58.6293 88.5386 58.6232 88.582 58.6174 88.6254C58.608 88.6936 58.5981 88.761 58.587 88.8264C58.5798 88.8687 58.5724 88.9113 58.5646 88.9528C58.5522 89.0185 58.5387 89.0829 58.5246 89.1461C58.5166 89.1821 58.5088 89.2187 58.5003 89.2538C58.4818 89.3311 58.4616 89.4059 58.4406 89.4793C58.4356 89.4966 58.4312 89.515 58.426 89.532C58.3392 89.8218 58.2353 90.0799 58.1199 90.3094C58.1199 90.31 58.1201 90.3105 58.1201 90.3111C57.8795 90.7922 57.5911 91.1484 57.3104 91.4096C57.2212 91.492 57.1325 91.5668 57.0471 91.6314C57.0466 91.6317 57.0463 91.632 57.046 91.6322C56.9562 91.6999 56.8695 91.7584 56.788 91.8076C56.7877 91.8076 56.788 91.8079 56.788 91.8076C56.4352 92.0237 56.175 92.088 56.175 92.088L56.8267 89.0422C56.6195 89.0147 56.4095 88.9872 56.2023 88.9597C54.2384 88.7024 52.296 88.5322 52.4258 90.8977C52.4258 90.8977 51.1302 90.0758 51.3404 88.7425ZM57.8375 93.3803C58.0602 92.9196 58.2958 92.4286 58.5105 91.9632C58.9343 93.6208 59.4526 95.2276 60.0623 96.7698C59.5791 96.6315 59.1647 96.4924 58.8089 96.3583C58.4506 95.3873 58.1259 94.3944 57.8375 93.3803ZM57.4441 94.1945C57.6334 94.8188 57.8345 95.4352 58.0502 96.0429C57.2278 95.6628 56.9289 95.3813 56.9289 95.3813C56.9289 95.2851 57.1447 94.8186 57.4441 94.1945ZM106.863 85.7959C103.206 85.8671 95.4015 88.7398 88.8181 92.3877C82.2348 96.0358 71.8415 98.4299 65.2858 97.7261C63.6915 97.5543 62.3834 97.3297 61.3124 97.0876C60.4217 94.9557 59.7042 92.6955 59.1873 90.3314C59.6457 89.0169 59.8493 88.099 59.686 86.887C59.5896 86.1591 59.1741 85.2852 58.3511 84.6548C58.2635 83.5442 58.2135 82.4205 58.2135 81.2818C58.2135 62.303 70.5818 46.9198 85.8397 46.9198C101.098 46.9198 113.466 62.303 113.466 81.2818C113.466 83.2463 113.332 85.1741 113.076 87.0494C110.918 85.9719 108.999 85.7541 106.863 85.7959ZM85.7983 44.8389C102.148 44.8389 115.419 61.1842 115.419 81.3231C115.419 83.6512 115.24 85.9262 114.899 88.1325C114.61 87.9341 114.325 87.7504 114.046 87.5827C114.344 85.5378 114.502 83.4318 114.502 81.2818C114.502 61.734 101.67 45.889 85.8397 45.889C70.0102 45.889 57.1775 61.734 57.1775 81.2818C57.1775 82.2234 57.209 83.1566 57.2684 84.0795C56.9609 83.9723 56.6239 83.8901 56.2496 83.8475C56.2032 83.0137 56.1775 82.1725 56.1775 81.3231C56.1775 61.1842 69.4491 44.8389 85.7983 44.8389ZM119.571 95.5022C118.367 95.3758 118.063 95.9696 118.03 96.0685C118.027 96.074 118.024 96.0768 118.027 96.0795C118.027 96.0823 118.027 96.0823 118.024 96.085C117.955 96.3544 117.06 99.8156 116.842 100.181C116.624 100.552 115.132 100.5 115.118 99.3233C115.107 98.1577 117.757 90.4469 117.757 90.4469C116.945 89.6967 116.183 89.0639 115.458 88.5295C115.836 86.1975 116.035 83.7881 116.035 81.3231C116.035 60.8818 102.493 44.2891 85.7983 44.2891C69.1065 44.2891 55.5559 60.8818 55.5559 81.3231C55.5559 82.1621 55.581 82.9934 55.6263 83.818C53.0916 83.8403 50.6586 86.1805 50.1936 89.6772C49.1908 97.1983 46.6216 101.107 46.0801 102.825C47.862 108.384 53.0971 112.065 62.3851 114.253C65.4842 114.984 68.9692 114.982 72.4573 114.558C76.4819 116.988 81.0101 118.357 85.7983 118.357C93.8525 118.357 101.171 114.492 106.593 108.2C106.412 108.854 106.294 109.421 106.264 110.262C106.198 112.092 108.557 114.203 110.322 115.196C112.054 116.169 113.952 116.691 116.162 116.57C118.375 116.449 118.925 114.36 119.287 113.376C119.964 111.531 122.433 102.119 122.735 99.3425C123.03 96.643 120.997 95.6479 119.571 95.5022Z" fill="white"/>
<path fill-rule="evenodd" clip-rule="evenodd" d="M101.474 98.2858L100.935 98.4662C100.921 97.3064 100.794 96.0468 101.777 95.8761C100.864 95.8706 101.13 95.0943 101.103 93.3162C101.596 94.2677 102.468 95.3994 101.941 95.8676C102.37 95.8785 102.798 96.7634 103.227 97.7748C103.027 97.8254 102.823 97.8737 102.601 97.9164L102.571 101.494C103.559 101.264 104.14 101.006 105.912 100.824L106.309 97.2077C106.056 97.2165 105.83 97.2365 105.614 97.2594C105.595 96.063 105.608 95.2216 106.512 95.0214C105.808 94.9882 105.789 94.8106 105.89 92.3711C106.251 92.336 106.65 92.3041 107.125 92.281C107.113 91.4777 107.309 89.7387 107.401 88.4668C106.285 88.4951 105.109 88.4783 103.887 88.7675L103.831 92.6375C104.075 92.5988 104.289 92.5834 104.522 92.5474C104.473 94.4455 104.523 94.843 104.038 95.2749C104.732 95.577 104.471 96.4325 104.44 97.3237C103.725 95.8546 103.555 95.6933 104 95.2664C103.137 95.0393 102.842 93.8913 102.441 92.8093C102.585 92.7681 102.806 92.7076 102.959 92.6678L102.929 88.9737C101.246 89.4564 100.446 89.764 99.3765 90.125L99.2859 93.9477C99.6039 93.8091 99.6915 93.7357 100.076 93.6643C99.9498 96.1917 100.033 95.9786 99.3981 96.5592C100.085 96.389 100.06 96.4501 99.9465 98.7927L99.1779 99.0503L98.9707 102.766C99.531 102.541 100.593 102.201 101.44 101.881L101.474 98.2858Z" fill="white"/>
<path fill-rule="evenodd" clip-rule="evenodd" d="M107.381 94.9826C108.181 95.4466 107.913 95.9398 107.67 97.1174C107.442 97.1067 107.269 97.1166 106.889 97.1001L106.561 100.807C108.354 100.776 109.843 101.102 110.929 101.872L111.658 97.5598C110.774 98.6222 111.013 97.5933 109.228 97.3277L109.336 95.8287C110.175 95.9406 110.872 95.9313 111.119 96.748C111.166 96.1583 111.128 95.884 111.374 94.7292C111.021 95.1162 110.255 94.8402 109.517 94.5917L109.798 92.6933C111.376 93.2623 112.382 93.3473 112.388 94.6434L113.178 90.0688C111.625 89.2813 109.962 88.5929 108.374 88.5654L107.778 92.3538C107.96 92.3755 108.165 92.4049 108.378 92.4354C108.202 93.8698 108.123 95.0544 107.381 94.9826Z" fill="white"/>
<path fill-rule="evenodd" clip-rule="evenodd" d="M63.4458 104.973C63.3093 105.647 63.1281 105.807 62.0385 105.772C62.9383 106.157 63.1289 106.405 63.0488 106.941C62.9626 107.514 62.8991 107.935 62.6816 108.083C62.3844 108.286 59.4054 107.792 59.4314 106.992C59.4397 106.733 59.432 106.601 59.4875 106.249C59.543 105.897 59.4861 105.417 60.5365 105.45C59.8428 104.934 60.0005 103.663 60.2212 103.393C60.2845 103.315 60.432 103.281 60.6312 103.277C60.9636 103.27 61.4368 103.349 61.9092 103.47C62.6648 103.663 62.8921 103.772 63.3596 103.964C63.5358 104.037 63.5419 104.498 63.4458 104.973ZM64.5594 103.736C64.9 100.691 64.4912 100.489 62.6126 100.133C62.0172 100.02 61.4683 99.8241 61.0586 99.8365C60.1574 99.8634 59.6991 100.498 59.4314 102.555C59.2831 103.693 59.3657 104.43 58.4816 104.617C58.9938 105.162 58.6463 106.269 58.4471 107.508C58.2479 108.747 57.9548 110.427 60.5276 111.111C63.1645 111.813 63.5212 110.506 63.7046 108.831C63.9776 106.34 63.9768 106.499 64.7666 106.352C63.9687 105.953 64.4279 104.913 64.5594 103.736Z" fill="white"/>
<path fill-rule="evenodd" clip-rule="evenodd" d="M56.5109 103.547C57.2051 104.328 56.5799 105.491 55.9409 105.459C55.2638 105.504 53.4018 104.137 53.1698 103.844C53.5673 102.9 53.3463 102.532 54.3872 102.456C53.391 101.793 53.8795 100.733 54.098 100.394C55.7056 101.268 57.017 101.605 57.3397 102.486C57.4897 102.897 57.3071 103.795 56.5109 103.547ZM58.3411 102.022C58.5469 100.715 58.5212 99.1227 57.3571 98.3973C55.9246 97.5044 54.2278 96.2699 53.1612 95.1758C52.9277 96.2454 52.5487 97.7378 52.3584 98.8052C52.6946 99.3756 53.2142 99.7443 53.3944 99.9348C53.1532 101.079 53.3013 101.37 52.2678 101.193C52.9565 102.064 52.9335 102.409 52.5526 103.302C52.1965 103.079 51.8465 102.757 51.5812 102.443C51.095 103.695 50.8229 104.617 50.3555 105.467C51.0856 106.563 52.3026 107.437 53.1222 107.916C53.7958 108.308 54.3571 108.977 55.2116 108.951C56.018 108.926 56.4796 108.497 56.9468 107.267C57.162 106.7 57.4084 104.702 58.4232 104.587C57.7723 103.854 58.1798 103.046 58.3411 102.022Z" fill="white"/>
<path fill-rule="evenodd" clip-rule="evenodd" d="M95.9807 100.3L95.834 104.007C96.6758 103.69 97.1313 103.382 98.3375 102.985L98.4499 99.364L97.841 99.5957C97.7073 97.5015 97.8167 97.2217 98.7952 96.6106C97.6695 96.8242 97.9358 96.6227 98.0225 94.3083C98.2659 94.2146 98.4723 94.1662 98.7132 94.0722L98.7952 90.3652C97.9488 90.5827 97.0993 90.9104 96.2525 91.2287L96.0973 95.2018C96.3683 95.0566 96.6045 94.8771 96.9261 94.7421C96.9446 96.3024 97.1885 97.5461 95.9677 97.8606C97.2371 97.7116 96.8959 98.3543 96.8396 99.974L95.9807 100.3Z" fill="white"/>
<path fill-rule="evenodd" clip-rule="evenodd" d="M70.4473 104.239C70.7291 104.217 70.9584 104.215 71.151 104.11C71.1753 102.851 71.2427 101.551 71.3582 100.201C70.2418 100.231 69.452 100.238 68.9453 100.429L68.6215 104.458C68.9525 104.452 69.132 104.407 69.5279 104.338C69.5279 104.338 69.5191 106.359 68.5135 106.451C69.284 106.735 69.1914 107.391 69.1696 107.778C69.1052 108.918 68.4798 108.796 67.7797 108.77C67.0794 108.745 66.299 108.869 66.3164 107.649C66.3274 106.861 66.3208 106.913 67.417 106.404C66.2675 106.192 66.6203 104.964 66.7004 104.492L67.6803 104.484L68.043 100.472C67.1206 100.611 66.2324 100.659 65.3105 100.438L64.9005 104.312L65.7553 104.449C65.7553 104.449 65.8686 106.055 64.7754 106.305C65.7768 106.624 65.2472 107.096 65.2113 109.402C65.1749 111.734 65.765 112.044 67.335 112.129C68.5524 112.194 69.6522 112.294 69.8862 109.578C70.0429 107.759 69.9368 106.704 70.9869 106.266C69.9443 105.774 70.3388 105.424 70.4473 104.239Z" fill="white"/>
<path fill-rule="evenodd" clip-rule="evenodd" d="M72.7176 106.576C72.7209 106.566 73.29 106.315 73.8528 106.314C74.4155 106.312 74.9073 106.563 74.8802 107.263C74.8258 108.663 72.787 108.465 72.506 108.457L72.7176 106.576ZM72.9549 103.728C73.3445 103.627 73.8923 103.516 74.3536 103.5C74.9465 103.48 75.3178 103.614 75.1393 104.149C74.6456 105.628 72.7997 105.39 72.7997 105.39L72.9549 103.728ZM71.0299 106.206C71.883 106.436 71.8443 107.211 71.6642 108.362L71.0211 108.371C71.0211 108.371 70.8899 110.796 70.7578 112.177C71.8247 112.078 73.8992 112.083 75.1393 111.408C75.9084 110.989 76.2314 109.965 76.2701 108.582C76.3449 105.911 75.344 105.833 74.9537 105.674C75.1813 105.568 76.1982 104.748 76.2355 102.504C76.2723 100.319 75.4319 99.855 74.3017 99.8363C74.2263 99.8349 74.1506 99.8382 74.073 99.8407C73.2588 99.8648 72.3303 100.001 71.6946 100.15L71.401 104.02L71.9924 103.96C72.0112 104.518 71.9872 105.965 71.0299 106.206Z" fill="white"/>
<path fill-rule="evenodd" clip-rule="evenodd" d="M93.3383 101.576L92.6391 101.928L92.7557 100.21C93.7154 99.7744 94.3588 98.9604 94.8622 99.922L94.8318 97.2461C94.4207 98.2544 93.4952 98.6465 92.7598 98.8567L92.9109 96.6793C94.923 95.5998 94.9478 95.2622 95.5399 96.5075L95.6435 91.5635C93.9779 92.259 91.8037 93.4897 90.8821 94.0678C90.9144 95.4258 90.6561 96.7953 90.6879 97.9034C90.971 97.7973 91.3437 97.4531 91.5901 97.3577C91.7846 99.8871 91.3749 100.175 90.5671 100.588C91.8197 100.393 91.5144 101.199 91.4995 102.439C91.3194 102.505 90.7205 102.91 90.5196 102.989L90.416 106.554C91.9819 106.024 91.786 105.766 93.2693 105.154L93.3383 101.576Z" fill="white"/>
<path fill-rule="evenodd" clip-rule="evenodd" d="M76.2578 105.412C77.8331 105.524 77.285 106.426 77.2463 107.228C76.9667 107.276 76.8236 107.264 76.5902 107.293L76.4175 111.249C78.124 110.975 79.8885 110.54 81.4549 109.849L81.5024 105.163C81.3946 105.453 81.2145 106.175 80.6565 106.49C80.0981 106.804 79.1652 106.845 78.4118 107.027C78.4284 105.328 78.4654 105.288 79.5254 104.836C78.022 105.042 78.5129 103.344 78.5715 102.701C79.0655 102.635 79.56 102.396 79.56 102.396L79.6766 98.582L76.8623 99.1662L76.6766 102.959L77.5054 102.886C77.4571 103.966 77.6864 105.094 76.2578 105.412Z" fill="white"/>
<path fill-rule="evenodd" clip-rule="evenodd" d="M81.6367 103.925C82.8893 103.73 82.597 104.717 82.5821 105.957C82.402 106.022 82.2345 106.105 82.0337 106.184L81.9865 109.874C83.5523 109.343 85.1389 108.833 86.6221 108.22L86.605 103.766C85.924 105.382 85.7362 104.989 83.5835 105.643L83.6266 103.874C84.459 103.549 85.3281 102.837 85.7588 103.839V101.507C85.3477 102.515 84.3922 102.477 83.6567 102.688L83.6957 101.124C85.7649 100.3 86.0771 99.9082 86.4453 101.253L86.5835 96.2578C84.9179 96.9536 83.2714 97.5649 81.7793 97.916C81.811 99.274 81.8248 100.656 81.8569 101.765C82.1395 101.658 82.3699 101.568 82.6166 101.472C82.7114 103.363 82.1732 103.64 81.6367 103.925Z" fill="white"/>
<path fill-rule="evenodd" clip-rule="evenodd" d="M58.5527 86.6719C58.5926 86.999 58.6409 87.3234 58.6921 87.6478C58.6921 87.2931 58.6438 86.966 58.5527 86.6719Z" fill="white"/>
</g>
</svg>
