<svg width="170" height="150" viewBox="0 0 170 150" fill="none" xmlns="http://www.w3.org/2000/svg">
<g opacity="0.6">
<path fill-rule="evenodd" clip-rule="evenodd" d="M111.18 72.9292H111.148L109.593 77.6956H112.625L111.18 72.9292ZM117.341 88.5576C115.361 88.5576 114.574 90.343 114.574 92.4588C114.574 94.4684 115.361 96.36 117.341 96.36C119.318 96.36 120.109 94.4684 120.109 92.4588C120.109 90.343 119.318 88.5576 117.341 88.5576ZM117.341 88.5576C115.361 88.5576 114.574 90.343 114.574 92.4588C114.574 94.4684 115.361 96.36 117.341 96.36C119.318 96.36 120.109 94.4684 120.109 92.4588C120.109 90.343 119.318 88.5576 117.341 88.5576ZM111.18 72.9292H111.148L109.593 77.6956H112.625L111.18 72.9292ZM111.18 72.9292H111.148L109.593 77.6956H112.625L111.18 72.9292ZM117.341 88.5576C115.361 88.5576 114.574 90.343 114.574 92.4588C114.574 94.4684 115.361 96.36 117.341 96.36C119.318 96.36 120.109 94.4684 120.109 92.4588C120.109 90.343 119.318 88.5576 117.341 88.5576ZM117.341 88.5576C115.361 88.5576 114.574 90.343 114.574 92.4588C114.574 94.4684 115.361 96.36 117.341 96.36C119.318 96.36 120.109 94.4684 120.109 92.4588C120.109 90.343 119.318 88.5576 117.341 88.5576ZM111.18 72.9292H111.148L109.593 77.6956H112.625L111.18 72.9292ZM97.4073 72.8151H96.1592V80.2007H97.4073C99.8169 80.2007 101.163 78.9383 101.163 76.5079C101.163 74.0814 99.7578 72.8151 97.4073 72.8151ZM111.18 72.9292H111.148L109.593 77.6956H112.625L111.18 72.9292ZM117.341 88.5576C115.361 88.5576 114.574 90.343 114.574 92.4588C114.574 94.4684 115.361 96.36 117.341 96.36C119.318 96.36 120.109 94.4684 120.109 92.4588C120.109 90.343 119.318 88.5576 117.341 88.5576ZM117.341 88.5576C115.361 88.5576 114.574 90.343 114.574 92.4588C114.574 94.4684 115.361 96.36 117.341 96.36C119.318 96.36 120.109 94.4684 120.109 92.4588C120.109 90.343 119.318 88.5576 117.341 88.5576ZM111.18 72.9292H111.148L109.593 77.6956H112.625L111.18 72.9292ZM97.4073 72.8151H96.1592V80.2007H97.4073C99.8169 80.2007 101.163 78.9383 101.163 76.5079C101.163 74.0814 99.7578 72.8151 97.4073 72.8151ZM71.0319 72.9292H71.0004L69.4412 77.6956H72.4768L71.0319 72.9292ZM73.3824 88.8722H73.3548L71.7799 93.6425H74.8392L73.3824 88.8722ZM97.4073 72.8151H96.1592V80.2007H97.4073C99.8169 80.2007 101.163 78.9383 101.163 76.5079C101.163 74.0814 99.7578 72.8151 97.4073 72.8151ZM111.18 72.9292H111.148L109.593 77.6956H112.625L111.18 72.9292ZM117.341 88.5576C115.361 88.5576 114.574 90.343 114.574 92.4588C114.574 94.4684 115.361 96.36 117.341 96.36C119.318 96.36 120.109 94.4684 120.109 92.4588C120.109 90.343 119.318 88.5576 117.341 88.5576ZM117.341 88.5576C115.361 88.5576 114.574 90.343 114.574 92.4588C114.574 94.4684 115.361 96.36 117.341 96.36C119.318 96.36 120.109 94.4684 120.109 92.4588C120.109 90.343 119.318 88.5576 117.341 88.5576ZM111.18 72.9292H111.148L109.593 77.6956H112.625L111.18 72.9292ZM97.4073 72.8151H96.1592V80.2007H97.4073C99.8169 80.2007 101.163 78.9383 101.163 76.5079C101.163 74.0814 99.7578 72.8151 97.4073 72.8151ZM73.3824 88.8722H73.3548L71.7799 93.6425H74.8392L73.3824 88.8722ZM71.0319 72.9292H71.0004L69.4412 77.6956H72.4768L71.0319 72.9292ZM57.9839 72.7168H57.0469V75.2337H57.9485C59.0076 75.2337 60.0982 74.9702 60.0982 73.9399C60.0982 72.8151 59.0588 72.7168 57.9839 72.7168ZM58.0351 77.436H57.0469V80.299H57.9997C59.1769 80.299 60.4053 80.1259 60.4053 78.8832C60.4053 77.554 59.1454 77.436 58.0351 77.436ZM71.0319 72.9292H71.0004L69.4412 77.6956H72.4768L71.0319 72.9292ZM73.3824 88.8722H73.3548L71.7799 93.6425H74.8392L73.3824 88.8722ZM97.4073 72.8151H96.1592V80.2007H97.4073C99.8169 80.2007 101.163 78.9383 101.163 76.5079C101.163 74.0814 99.7578 72.8151 97.4073 72.8151ZM111.18 72.9292H111.148L109.593 77.6956H112.625L111.18 72.9292ZM117.341 88.5576C115.361 88.5576 114.574 90.343 114.574 92.4588C114.574 94.4684 115.361 96.36 117.341 96.36C119.318 96.36 120.109 94.4684 120.109 92.4588C120.109 90.343 119.318 88.5576 117.341 88.5576ZM117.341 88.5576C115.361 88.5576 114.574 90.343 114.574 92.4588C114.574 94.4684 115.361 96.36 117.341 96.36C119.318 96.36 120.109 94.4684 120.109 92.4588C120.109 90.343 119.318 88.5576 117.341 88.5576ZM111.18 72.9292H111.148L109.593 77.6956H112.625L111.18 72.9292ZM97.4073 72.8151H96.1592V80.2007H97.4073C99.8169 80.2007 101.163 78.9383 101.163 76.5079C101.163 74.0814 99.7578 72.8151 97.4073 72.8151ZM73.3824 88.8722H73.3548L71.7799 93.6425H74.8392L73.3824 88.8722ZM58.0351 77.436H57.0469V80.299H57.9997C59.1769 80.299 60.4053 80.1259 60.4053 78.8832C60.4053 77.554 59.1454 77.436 58.0351 77.436ZM57.9839 72.7168H57.0469V75.2337H57.9485C59.0076 75.2337 60.0982 74.9702 60.0982 73.9399C60.0982 72.8151 59.0588 72.7168 57.9839 72.7168ZM71.0319 72.9292H71.0004L69.4412 77.6956H72.4768L71.0319 72.9292ZM117.341 88.5576C115.361 88.5576 114.574 90.343 114.574 92.4588C114.574 94.4684 115.361 96.36 117.341 96.36C119.318 96.36 120.109 94.4684 120.109 92.4588C120.109 90.343 119.318 88.5576 117.341 88.5576ZM111.18 72.9292H111.148L109.593 77.6956H112.625L111.18 72.9292ZM97.4073 72.8151H96.1592V80.2007H97.4073C99.8169 80.2007 101.163 78.9383 101.163 76.5079C101.163 74.0814 99.7578 72.8151 97.4073 72.8151ZM73.3824 88.8722H73.3548L71.7799 93.6425H74.8392L73.3824 88.8722ZM71.0319 72.9292H71.0004L69.4412 77.6956H72.4768L71.0319 72.9292ZM58.0351 77.436H57.0469V80.299H57.9997C59.1769 80.299 60.4053 80.1259 60.4053 78.8832C60.4053 77.554 59.1454 77.436 58.0351 77.436ZM57.9839 72.7168H57.0469V75.2337H57.9485C59.0076 75.2337 60.0982 74.9702 60.0982 73.9399C60.0982 72.8151 59.0588 72.7168 57.9839 72.7168ZM71.0319 72.9292H71.0004L69.4412 77.6956H72.4768L71.0319 72.9292ZM73.3824 88.8722H73.3548L71.7799 93.6425H74.8392L73.3824 88.8722ZM97.4073 72.8151H96.1592V80.2007H97.4073C99.8169 80.2007 101.163 78.9383 101.163 76.5079C101.163 74.0814 99.7578 72.8151 97.4073 72.8151ZM111.18 72.9292H111.148L109.593 77.6956H112.625L111.18 72.9292ZM117.341 88.5576C115.361 88.5576 114.574 90.343 114.574 92.4588C114.574 94.4684 115.361 96.36 117.341 96.36C119.318 96.36 120.109 94.4684 120.109 92.4588C120.109 90.343 119.318 88.5576 117.341 88.5576ZM117.341 88.5576C115.361 88.5576 114.574 90.343 114.574 92.4588C114.574 94.4684 115.361 96.36 117.341 96.36C119.318 96.36 120.109 94.4684 120.109 92.4588C120.109 90.343 119.318 88.5576 117.341 88.5576ZM111.18 72.9292H111.148L109.593 77.6956H112.625L111.18 72.9292ZM97.4073 72.8151H96.1592V80.2007H97.4073C99.8169 80.2007 101.163 78.9383 101.163 76.5079C101.163 74.0814 99.7578 72.8151 97.4073 72.8151ZM73.3824 88.8722H73.3548L71.7799 93.6425H74.8392L73.3824 88.8722ZM71.0319 72.9292H71.0004L69.4412 77.6956H72.4768L71.0319 72.9292ZM71.0319 72.9292H71.0004L69.4412 77.6956H72.4768L71.0319 72.9292ZM97.4073 72.8151H96.1592V80.2007H97.4073C99.8169 80.2007 101.163 78.9383 101.163 76.5079C101.163 74.0814 99.7578 72.8151 97.4073 72.8151ZM111.18 72.9292H111.148L109.593 77.6956H112.625L111.18 72.9292ZM117.341 88.5576C115.361 88.5576 114.574 90.343 114.574 92.4588C114.574 94.4684 115.361 96.36 117.341 96.36C119.318 96.36 120.109 94.4684 120.109 92.4588C120.109 90.343 119.318 88.5576 117.341 88.5576ZM117.341 88.5576C115.361 88.5576 114.574 90.343 114.574 92.4588C114.574 94.4684 115.361 96.36 117.341 96.36C119.318 96.36 120.109 94.4684 120.109 92.4588C120.109 90.343 119.318 88.5576 117.341 88.5576ZM111.18 72.9292H111.148L109.593 77.6956H112.625L111.18 72.9292ZM97.4073 72.8151H96.1592V80.2007H97.4073C99.8169 80.2007 101.163 78.9383 101.163 76.5079C101.163 74.0814 99.7578 72.8151 97.4073 72.8151ZM71.0319 72.9292H71.0004L69.4412 77.6956H72.4768L71.0319 72.9292ZM97.4073 72.8151H96.1592V80.2007H97.4073C99.8169 80.2007 101.163 78.9383 101.163 76.5079C101.163 74.0814 99.7578 72.8151 97.4073 72.8151ZM111.18 72.9292H111.148L109.593 77.6956H112.625L111.18 72.9292ZM117.341 88.5576C115.361 88.5576 114.574 90.343 114.574 92.4588C114.574 94.4684 115.361 96.36 117.341 96.36C119.318 96.36 120.109 94.4684 120.109 92.4588C120.109 90.343 119.318 88.5576 117.341 88.5576ZM117.341 88.5576C115.361 88.5576 114.574 90.343 114.574 92.4588C114.574 94.4684 115.361 96.36 117.341 96.36C119.318 96.36 120.109 94.4684 120.109 92.4588C120.109 90.343 119.318 88.5576 117.341 88.5576ZM111.18 72.9292H111.148L109.593 77.6956H112.625L111.18 72.9292ZM97.4073 72.8151H96.1592V80.2007H97.4073C99.8169 80.2007 101.163 78.9383 101.163 76.5079C101.163 74.0814 99.7578 72.8151 97.4073 72.8151ZM111.18 72.9292H111.148L109.593 77.6956H112.625L111.18 72.9292ZM117.341 88.5576C115.361 88.5576 114.574 90.343 114.574 92.4588C114.574 94.4684 115.361 96.36 117.341 96.36C119.318 96.36 120.109 94.4684 120.109 92.4588C120.109 90.343 119.318 88.5576 117.341 88.5576ZM117.341 88.5576C115.361 88.5576 114.574 90.343 114.574 92.4588C114.574 94.4684 115.361 96.36 117.341 96.36C119.318 96.36 120.109 94.4684 120.109 92.4588C120.109 90.343 119.318 88.5576 117.341 88.5576ZM111.18 72.9292H111.148L109.593 77.6956H112.625L111.18 72.9292ZM111.18 72.9292H111.148L109.593 77.6956H112.625L111.18 72.9292ZM111.18 72.9292H111.148L109.593 77.6956H112.625L111.18 72.9292Z" fill="white"/>
<path fill-rule="evenodd" clip-rule="evenodd" d="M132.995 86.9611L132.148 88.6404C129.794 84.5933 127.597 80.6139 127.498 75.997C127.475 74.5812 127.817 72.9689 128.321 71.2582L129.565 72.6543C133.514 77.1925 134.845 81.597 133.518 85.7617C133.416 86.0881 133.219 86.5128 132.995 86.9611ZM133.357 97.8741C132.782 102.184 130.766 105.228 127.195 107.171C124.451 108.661 120.723 109.511 116.092 109.696L112.915 109.794C119.608 105.885 126.317 100.371 130.715 94.1264C131.29 93.3005 131.822 92.4707 132.306 91.6409L132.944 93.9258C133.389 95.3337 133.522 96.6236 133.357 97.8741ZM111.214 92.4585C111.214 88.542 113.317 86.1392 117.341 86.1392C121.364 86.1392 123.467 88.542 123.467 92.4585C123.467 96.3365 121.329 98.7708 117.341 98.7708C113.356 98.7708 111.214 96.3365 111.214 92.4585ZM108.84 80.0043L107.891 82.6077H104.616L109.21 70.4048H113.155L117.821 82.6077H114.277L113.38 80.0043H108.84ZM106.143 98.7708C102.883 98.7708 99.1272 97.123 99.1272 92.5101C99.1272 88.2628 102.1 86.1392 106.128 86.1392C107.372 86.1392 108.576 86.4263 109.75 86.7724L109.486 89.4151C108.435 88.837 107.419 88.5578 106.297 88.5578C103.99 88.5578 102.486 90.237 102.486 92.5101C102.486 94.905 104.179 96.3601 106.561 96.3601C107.624 96.3601 108.714 96.0769 109.608 95.7269L109.769 98.2831C108.84 98.4994 107.809 98.7708 106.143 98.7708ZM101.789 111.866C98.1154 112.527 93.9656 112.865 89.5048 112.865C85.4495 112.865 81.1501 112.578 77.0751 112.036C70.5355 111.162 64.736 108.846 58.9208 104.776L56.342 102.597C56.6845 102.68 57.031 102.762 57.3853 102.841C65.3345 104.619 75.1065 105.48 81.5635 106.526C87.5519 107.501 97.2256 109.92 106.6 110.891L101.789 111.866ZM53.8261 98.5584V86.3555H57.972L62.1021 94.6415H62.1375L62.0824 86.3555H65.0589V98.5584H61.0193L56.7475 90.2213H56.716L56.8184 98.5584H53.8261ZM63.6297 79.0762C63.6297 81.9982 61.0863 82.6077 58.9208 82.6077H53.8261V70.4048H59.3854C61.6375 70.4048 63.3187 71.4037 63.3187 73.4998C63.3187 75.0374 62.5391 75.8947 61.1886 76.3548V76.3863C62.7989 76.7166 63.6297 77.5936 63.6297 79.0762ZM92.9419 82.6077V70.4048H97.3398C101.553 70.4048 104.49 71.734 104.49 76.4571C104.49 81.015 101.458 82.6077 97.3398 82.6077H92.9419ZM79.2445 82.6077V70.4048H83.3549L87.4417 78.6908H87.4811L87.426 70.4048H90.367V82.6077H86.3708L82.1423 74.2702H82.1029L82.2092 82.6077H79.2445ZM64.4683 82.6077L69.059 70.4048H73.008L77.6696 82.6077H74.138L73.2364 80.0043H68.6968L67.744 82.6077H64.4683ZM71.3938 86.3555H75.3861L80.0871 98.5584H76.52L75.6144 95.955H71.0276L70.063 98.5584H66.7558L71.3938 86.3555ZM94.0247 89.1909L90.9025 98.5584H87.9063L84.9377 89.1909H84.9062L84.9692 98.5584H81.784V86.3555H86.9141L89.5048 94.4685H89.5402L92.2529 86.3555H97.1823V98.5584H93.9971L94.0561 89.1909H94.0247ZM49.1803 68.8628C49.1803 68.8628 51.2985 65.7918 52.4481 64.8165C55.9719 61.8199 60.2949 59.3856 64.5785 57.1204C72.9293 52.7001 80.5989 49.0389 89.8946 49.0389C91.5679 49.0389 93.2884 49.1608 95.005 49.3963C97.009 49.672 98.8989 50.0731 100.694 50.6041C102.23 51.0563 103.679 51.7642 105.017 52.649C104.466 52.7749 92.371 55.6614 80.1697 59.2165C74.2089 60.9586 58.2318 65.1744 53.8655 66.8536C52.2828 67.4632 50.7118 68.1278 49.1803 68.8628ZM46.3967 96.9539C45.6683 96.5371 45.0029 96.1202 44.4439 95.7191C39.1799 91.9831 36.4908 88.2078 36.4475 84.5072C36.412 81.3689 38.2822 78.2307 42.0146 75.155L44.1446 73.6295C44.1013 73.7357 44.0619 73.8458 44.0265 73.952C41.1563 82.36 42.9438 91.6449 50.5307 99.3921L46.3967 96.9539ZM119.254 82.6077H122.483V70.4048H119.254V82.6077ZM112.722 53.0305C112.998 53.0226 113.273 53.0147 113.549 53.0147C118.931 53.0147 123.286 54.694 125.487 57.612C126.951 59.5704 127.754 61.6508 127.912 63.9632C127.987 65.1115 127.845 66.2637 127.542 67.3688L127.38 67.9548L127.376 67.9587C125.609 66.0592 123.518 63.8806 121.38 61.8867C118.022 58.7603 113.959 55.6142 110.317 53.3451L112.722 53.0305ZM135.018 86.2375C136.739 80.8341 134.424 75.5762 130.136 70.9357C129.743 70.5149 129.31 70.0351 128.837 69.5278C130.18 64.5531 129.518 60.3687 126.746 56.6682C123.967 52.9833 118.849 51.4417 113.549 51.4417C111.817 51.4417 110.069 51.6069 108.376 51.9136C108.305 51.9293 108.179 51.9525 108.033 51.9844C104.486 50.0024 100.336 48.5434 95.2216 47.8394C93.379 47.5838 91.6112 47.4658 89.8946 47.4658C85.0046 47.4658 80.5831 48.4254 76.3349 49.9394C72.0907 51.4496 68.0196 53.5142 63.8384 55.7283C55.7357 60.0187 48.8692 64.2778 45.3415 70.916C44.2746 71.5571 43.2351 72.2413 42.2508 72.9767C32.4 80.315 32.0103 88.8209 43.5304 97.0011C45.7825 98.6056 49.4677 100.415 52.4757 101.453C52.5584 101.484 52.641 101.508 52.7158 101.535C53.4521 102.239 54.2513 102.99 54.9915 103.655C55.7317 104.32 56.4129 104.898 56.905 105.264C62.1651 109.141 68.5 112.476 76.8665 113.593C80.8312 114.124 85.1581 114.438 89.5048 114.438C96.1586 114.438 102.848 113.699 108.332 111.843C108.947 111.63 109.553 111.414 110.139 111.182C111.368 111.257 112.588 111.3 113.789 111.304H114.124C124.64 111.304 133.546 108.366 134.916 98.0826C135.133 96.4781 134.916 94.9443 134.448 93.4539C134.109 92.3763 133.621 91.3145 133.066 90.2606C133.152 90.0915 133.239 89.9185 133.322 89.7494C133.829 88.719 134.7 87.2478 135.018 86.2375Z" fill="white"/>
</g>
</svg>
