<svg width="170" height="150" viewBox="0 0 170 150" fill="none" xmlns="http://www.w3.org/2000/svg">
<g opacity="0.6">
<path fill-rule="evenodd" clip-rule="evenodd" d="M78.7515 68.377H82.5833V55.1172H78.7515V68.377ZM78.7515 68.377H82.5833V55.1172H78.7515V68.377ZM78.7515 68.377H82.5833V55.1172H78.7515V68.377ZM78.7515 68.377H82.5833V55.1172H78.7515V68.377ZM78.7515 68.377H82.5833V55.1172H78.7515V68.377ZM78.7515 68.377H82.5833V55.1172H78.7515V68.377ZM74.2048 96.1006L72.5605 99.0536H75.7918L74.2048 96.1006ZM78.7515 68.377H82.5833V55.1172H78.7515V68.377ZM74.2048 96.1006L72.5605 99.0536H75.7918L74.2048 96.1006ZM78.7515 68.377H82.5833V55.1172H78.7515V68.377ZM72.5605 99.0536H75.7918L74.2048 96.1006L72.5605 99.0536ZM78.7515 68.377H82.5833V55.1172H78.7515V68.377ZM78.7515 68.377H82.5833V55.1172H78.7515V68.377ZM74.2048 96.1006L72.5605 99.0536H75.7918L74.2048 96.1006ZM78.7515 68.377H82.5833V55.1172H78.7515V68.377ZM74.2048 96.1006L72.5605 99.0536H75.7918L74.2048 96.1006ZM78.7515 68.377H82.5833V55.1172H78.7515V68.377ZM78.7515 68.377H82.5833V55.1172H78.7515V68.377ZM78.7515 68.377H82.5833V55.1172H78.7515V68.377ZM78.7515 68.377H82.5833V55.1172H78.7515V68.377ZM78.7515 68.377H82.5833V55.1172H78.7515V68.377ZM78.7515 68.377H82.5833V55.1172H78.7515V68.377ZM78.7515 68.377H82.5833V55.1172H78.7515V68.377ZM78.7515 68.377H82.5833V55.1172H78.7515V68.377Z" fill="white"/>
<path fill-rule="evenodd" clip-rule="evenodd" d="M97.3395 106.336L84.8004 111.238L72.2613 106.336H97.3395ZM60.7659 95.9862V100.573H66.1275V98.9535H63.3252V97.7207H67.8004V100.215C67.8004 101.577 67.3571 101.935 65.9703 101.935H60.8803C59.4934 101.935 59.0501 101.591 59.0501 100.215V96.4019C59.0501 95.0401 59.4934 94.6817 60.8803 94.6817H65.9703C67.3142 94.6817 67.8004 95.0257 67.8004 96.3302V96.5022L66.1275 96.8033V95.9862H60.7659ZM90.5338 90.7969H95.4379V50.5446H90.5338V90.7969ZM79.3243 101.949H77.3941L76.5077 100.358H71.8323L70.9745 101.949H69.2587L73.4337 94.696H75.0922L79.3243 101.949ZM78.7667 72.95V90.7969H74.0914V50.5446H82.8988C87.2453 50.5446 87.2596 54.8021 87.2596 54.8021V68.6782C87.2596 72.9357 82.9846 72.95 82.9131 72.95H78.7667ZM88.7465 97.4483L85.9728 101.075H85.6296L82.8559 97.434C82.6843 97.2046 82.527 96.9753 82.4126 96.6886C82.4412 96.9896 82.4555 97.219 82.4555 97.4627V101.949H81.0687V94.696H82.4555L85.9299 99.0825L89.3328 94.696H90.7053V101.949H89.1183V97.4627C89.1183 97.3193 89.1326 97.0756 89.1755 96.6886C89.0182 97.0183 88.8752 97.2763 88.7465 97.4483ZM98.0115 97.52V98.7528H94.6086V100.545H100.428V101.906H92.8929V94.6674H100.442V95.9002H94.6086V97.52H98.0115ZM109.035 100.559V98.8962H104.431C103.044 98.8962 102.601 98.5521 102.601 97.176V96.3732C102.601 95.0114 103.044 94.653 104.431 94.653H108.62C109.936 94.653 110.451 94.9971 110.451 96.2442V96.4019L108.935 96.7459V95.9145H104.102V97.4913H108.706C110.093 97.4913 110.551 97.8354 110.551 99.2115V100.215C110.551 101.577 110.093 101.935 108.706 101.935H104.145C102.758 101.935 102.301 101.591 102.301 100.215V100.014L103.816 99.6989V100.559H109.035ZM111.866 54.8021V61.3961H107.205V55.1318H103.516C103.488 55.1318 103.43 55.1318 103.387 55.1461V86.2241H107.219V80.0888H111.852V86.5395C111.852 90.7826 107.591 90.8113 107.505 90.8113H103.416C98.7121 90.8113 98.6978 86.5624 98.6978 86.5108V54.8021C98.6978 50.5446 103.416 50.5446 103.416 50.5446H107.505C111.866 50.5446 111.866 54.8021 111.866 54.8021ZM57.5632 54.8021C57.5632 52.5228 58.8929 51.4477 60.0081 50.946C61.1948 50.4012 62.3815 50.4012 62.4244 50.4012H70.9316V55.2751H62.5102V68.2052H68.8298V73.1507H62.5102V86.0808H70.9316V90.9546H62.4244C60.8946 90.9546 59.6935 90.5246 58.85 89.6645C57.5632 88.36 57.5632 86.5825 57.5632 86.5108V54.8021ZM116.098 49.5268C115.641 48.4374 114.983 47.4626 114.154 46.6168C113.324 45.7711 112.352 45.1117 111.265 44.653C110.136 44.1656 108.949 43.9219 107.72 43.9219H61.8811C60.6515 43.9219 59.4648 44.1656 58.3353 44.653C57.2486 45.1117 56.2764 45.7711 55.4471 46.6168C54.6178 47.4626 53.9601 48.4374 53.5026 49.5268C53.0165 50.6593 52.7734 51.8634 52.7734 53.0962V103.799C52.7734 104.487 53.1881 105.089 53.8172 105.347L84.1999 117.23C84.3857 117.302 84.6002 117.345 84.8004 117.345C85.0005 117.345 85.2007 117.302 85.4009 117.23L115.784 105.347C116.413 105.103 116.827 104.487 116.827 103.799V53.0962C116.827 51.8634 116.584 50.6593 116.098 49.5268Z" fill="white"/>
</g>
</svg>
