<svg width="170" height="150" viewBox="0 0 170 150" fill="none" xmlns="http://www.w3.org/2000/svg">
<g opacity="0.6">
<path fill-rule="evenodd" clip-rule="evenodd" d="M28.7614 62.411C27.3226 62.4536 26.2371 61.8279 26.2111 60.9529C26.1919 60.3132 27.5976 58.3161 28.455 57.9928C29.0409 57.7722 31.8953 56.6926 36.653 56.5516C38.416 56.4996 41.4102 56.7151 43.9383 57.0882C58.655 59.2606 74.104 70.4374 74.3996 80.35C74.6009 87.0943 68.7507 93.4214 57.3303 93.7597C54.3226 93.8485 51.5231 93.4793 48.9768 92.8137C48.9218 94.4691 49.0458 95.3459 46.6879 95.4158C45.2462 95.4582 44.6842 93.1321 44.4722 91.2396C37.5778 88.1926 33.4238 83.2434 33.3652 81.2904C33.2786 78.3814 38.5891 75.9553 44.7999 74.9952C44.8874 72.587 45.2966 66.4553 46.5729 66.4175C47.0859 66.4023 48.1483 67.5875 48.5496 69.4003C48.9141 71.0473 48.952 74.0509 48.9559 74.586L49.4248 74.5691C58.1394 74.3112 63.3624 77.025 63.4582 80.2393C63.5323 82.7308 61.3178 84.0066 60.156 84.041C58.9942 84.0754 57.6328 83.417 57.6221 83.0589C57.6014 82.3732 60.1016 82.212 60.0682 81.1037C60.0184 79.4313 53.0897 78.6979 48.821 78.6718C48.8146 80.1127 48.7959 81.8526 48.8309 83.0216C48.8642 84.1449 48.9345 87.0466 48.969 89.4677C50.9056 89.8761 52.9011 90.0965 54.8569 90.0386C59.4593 89.9025 69.9724 88.2311 69.7375 80.365C69.4098 69.3764 47.5937 59.2809 35.9083 59.6267C31.306 59.7628 28.5438 60.2546 28.5574 60.7044C28.5661 61.0042 30.7986 61.1199 30.8164 61.7132C30.8339 62.3061 29.5483 62.3877 28.7614 62.411ZM44.7532 78.8388C40.3845 79.1628 34.7971 79.9706 34.8425 81.4945C34.89 83.0887 39.008 86.1514 44.4153 88.1463C44.6667 84.8839 44.7291 81.426 44.7532 78.8388Z" fill="white"/>
<path fill-rule="evenodd" clip-rule="evenodd" d="M77.7318 74.4201C78.4835 74.3979 79.5614 76.1949 79.595 77.3179C79.6285 78.4412 79.8984 84.3112 79.9771 86.0025C80.0561 87.694 80.0002 89.3138 79.8899 90.0635C79.7792 90.8131 79.5057 91.1831 78.2138 91.2211C76.9222 91.2591 76.3205 90.493 76.2109 89.3601C76.1012 88.2267 76.0052 85.0121 76.0616 83.4012C76.1177 81.7911 76.1941 78.709 76.4049 76.7795C76.6156 74.8499 77.1347 74.4378 77.7318 74.4201Z" fill="white"/>
<path fill-rule="evenodd" clip-rule="evenodd" d="M74.5371 67.5475C74.4574 67.4158 74.382 67.2066 74.3723 66.8802C74.3507 66.1609 75.5976 63.4047 78.7349 63.1783C77.9356 63.7243 77.1272 64.4236 76.3274 65.3187C75.5752 66.1606 74.9769 66.9015 74.5371 67.5475ZM77.2731 69.0332C77.9205 68.1228 81.2771 63.6463 84.7366 63.5439C85.7521 63.5139 86.0197 64.1395 86.0404 64.8308C86.0725 65.9073 84.1145 69.0533 79.7057 69.1839C78.7391 69.2124 77.9246 69.14 77.2731 69.0332ZM85.2104 61.233C84.996 60.6998 84.2769 59.6223 81.7099 59.6981C76.1173 59.8635 71.8148 63.9894 71.9118 67.2405C71.9431 68.2969 72.4551 69.2224 73.2071 69.9807C73.0114 70.5119 72.9914 70.8672 72.9975 71.0701C73.0143 71.6349 73.8678 73.1257 74.5228 73.1064C75.0771 73.0899 75.4554 72.573 75.9895 71.7357C76.9011 72.0863 77.8099 72.2647 78.5307 72.2437C83.7892 72.088 88.5603 67.18 88.4667 64.0403C88.4234 62.5947 87.4828 61.1972 85.2104 61.233Z" fill="white"/>
<path fill-rule="evenodd" clip-rule="evenodd" d="M91.373 74.1191C94.4517 74.0281 98.3087 74.4254 98.3379 75.4058C98.3551 75.9796 98.0534 77.1772 96.4107 77.3428C94.4731 77.5387 84.6996 77.952 84.7353 79.1535C84.754 79.7891 87.6911 79.9298 90.3852 80.0925C93.1523 80.2593 97.5976 80.3629 97.7303 84.8239C97.8354 88.3457 96.4973 89.0903 95.8951 89.3707C95.1305 89.7269 92.5616 90.6997 90.5921 90.7579C84.6563 90.9334 82.2091 87.5363 82.1576 85.8097C82.1119 84.2767 83.6955 82.9167 86.3583 82.838C89.0209 82.7593 93.1443 83.7155 93.1769 84.8065C93.2031 85.6905 91.3846 86.145 90.5802 86.169C86.9467 86.2765 87.1249 84.8058 85.0307 84.8678C83.838 84.9031 82.1642 87.4271 88.1415 87.2501C93.4671 87.0927 95.0809 85.3445 95.0527 84.4053C95.0155 83.1624 91.1943 82.5566 88.9839 82.4423C86.7733 82.3281 83.4563 82.3433 82.3244 81.6302C81.1927 80.9174 81.3515 79.3043 81.7433 77.9704C82.5626 75.1816 88.294 74.2101 91.373 74.1191Z" fill="white"/>
<path fill-rule="evenodd" clip-rule="evenodd" d="M101.888 75.273C103.968 75.2115 108.329 84.6066 109.064 84.5848C109.799 84.5633 109.253 82.3902 108.789 79.9899C107.738 74.5609 106.1 71.7616 107.639 71.7161C108.777 71.6824 112.507 75.2768 112.714 82.2374C112.811 85.4693 112.354 89.6991 109.414 89.786C106.626 89.8684 103.45 81.1018 102.729 81.1231C102.34 81.1345 102.307 86.5541 102.204 88.1885C102.1 89.8226 101.529 90.6967 100.613 90.7238C99.2267 90.7647 98.618 89.4417 98.5399 86.8316C98.4621 84.2214 99.322 75.3487 101.888 75.273Z" fill="white"/>
<path fill-rule="evenodd" clip-rule="evenodd" d="M123.041 80.3562C124.026 80.3271 124.896 80.1632 124.809 81.4375C124.722 82.7119 124.668 83.2249 123.642 83.2552L118.377 83.4109C118.203 83.9939 117.753 85.4966 117.55 86.131C117.296 86.9264 118.096 86.7506 119.128 86.4574C120.161 86.1642 122.963 85.639 124.114 85.6051C125.265 85.5709 126.125 87.3978 125.463 88.0257C124.802 88.6535 121.241 91.6479 117.524 91.7579C115.929 91.8048 113.764 90.4177 113.69 87.9317C113.65 86.6157 114.181 84.8494 114.689 83.478C114.565 83.4 114.471 83.2191 114.398 82.8235C114.232 81.93 113.828 80.9467 115.322 80.778C115.442 80.7646 115.593 80.7504 115.768 80.7361L117.002 78.2046C116.501 78.1315 116.068 78.0215 115.735 77.8629C114.828 77.4315 114.121 76.3211 114.106 75.8237C114.073 74.7327 122.105 74.0804 123.963 74.0254C125.96 73.9663 126.527 74.3504 127.165 75.2579C127.802 76.1651 128.044 76.8077 128.051 77.0564C128.059 77.3048 127.827 77.9198 125.414 77.9913C124.18 78.0278 122.184 78.2351 120.269 78.3053L119.435 80.5189C121.298 80.4271 123.041 80.3562 123.041 80.3562Z" fill="white"/>
<path fill-rule="evenodd" clip-rule="evenodd" d="M134.317 86.6009C136.95 81.4733 139.665 78.5505 140.62 78.5224C142.275 78.4733 140.874 85.9304 134.317 86.6009ZM128.483 87.919C126.326 92.1561 124.875 96.6457 124.976 100.025C125.089 103.833 127.437 105.253 128.151 105.232C128.864 105.211 128.9 104.084 129.028 103.244C129.754 98.4895 131.006 94.2757 132.433 90.7348C132.998 90.8767 133.558 90.9423 134.077 90.9268C138.449 90.7975 143.517 85.5941 143.352 80.0539C143.265 77.1287 142.142 75.0541 140.259 75.1098C137.506 75.1912 133.548 79.3365 130.369 84.5394C130.085 82.4282 131.757 79.1772 133.182 76.9045C134.183 75.3084 134.008 73.4106 133.592 73.4229C133.009 73.4401 127.369 78.1963 127.563 84.7203C127.601 85.9876 127.933 87.0513 128.483 87.919Z" fill="white"/>
</g>
</svg>
