<svg width="170" height="150" viewBox="0 0 170 150" fill="none" xmlns="http://www.w3.org/2000/svg">
<g opacity="0.6">
<path fill-rule="evenodd" clip-rule="evenodd" d="M133.483 65.5186C135.16 66.6127 136.5 68.2556 137.712 69.8261C138.166 70.1738 138.617 70.5195 139.067 70.8687C140.426 72.5684 142.136 73.9068 143.456 75.6545C143.962 76.1345 144.468 76.6111 144.973 77.0928C145.613 77.9391 146.26 78.6686 146.889 79.5665C147.092 79.859 147.395 80.0655 147.526 80.4438H147.608V77.4918C147.214 76.857 147.747 75.5858 147.687 75.0164C147.581 73.9876 147.587 72.8487 147.526 71.6634C147.502 71.45 147.472 71.2402 147.446 71.0253C147.713 69.6644 147.789 68.247 147.526 66.8741C147.608 66.8483 147.687 66.8226 147.765 66.795C148.035 66.6231 150.418 66.592 150.638 66.6367C150.68 66.7572 150.694 66.7708 150.718 66.9534C150.202 67.693 150.401 69.3324 150.638 70.3079C150.7 70.5624 150.889 70.9616 150.8 71.3452C150.559 72.3619 150.556 73.7174 150.8 74.7772C150.927 75.3381 150.645 75.732 150.559 76.0537C150.401 76.654 150.774 78.3519 150.878 78.93C150.976 79.4529 150.752 81.6137 150.638 82.1195C150.322 83.5129 150.559 85.3071 150.559 86.8296H150.48V86.7505C147.997 84.4127 145.211 82.3087 143.138 79.5665C142.631 78.8956 141.809 78.4052 141.303 77.7327C140.536 76.7143 139.642 75.751 138.748 74.8563C138.35 74.4848 137.953 74.1131 137.554 73.7381C137.124 73.1172 136.814 72.4033 136.195 71.9834V72.7025C136.77 73.6263 135.851 75.553 136.116 76.7727C136.438 78.2522 136.541 80.2236 136.515 81.8822V83.6367C136.36 84.3455 136.154 85.044 136.116 85.7907C135.81 85.9849 135.571 86.0435 134.998 86.0314C134.734 85.8576 134.03 85.8697 133.64 85.8715V85.7149C132.752 84.5296 133.681 82.037 133.325 80.3648C133.241 79.9794 133.103 78.9214 133.163 78.5274C133.261 77.9115 133.719 77.055 133.564 76.2929C133.468 75.8249 133.604 75.0267 133.483 74.459C133.388 74.0116 133.519 73.248 133.404 72.7025C133.208 71.7924 133.217 70.621 133.404 69.7505C133.378 69.2448 133.347 68.739 133.325 68.2314C133.378 67.3284 133.43 66.4233 133.483 65.5186Z" fill="white"/>
<path fill-rule="evenodd" clip-rule="evenodd" d="M65.8179 66.1567C68.3013 66.1067 70.7899 67.3421 71.084 69.4287C71.0308 69.4923 70.9808 69.6077 70.924 69.6696C70.5319 70.0738 69.6686 70.7137 69.0099 70.786C68.8069 70.5453 68.272 69.7178 68.0519 69.5905C67.6805 69.3721 67.297 69.4115 66.855 69.2706C65.8179 68.9385 65.3844 68.9436 64.4627 69.5097C64.1737 69.6867 63.8985 69.6764 63.7438 69.9877C63.4136 70.4077 63.1694 71.192 63.0232 71.7425C63.5839 72.3549 64.1429 72.969 64.7018 73.5798C65.2022 73.9066 65.9297 73.7311 66.5351 73.9788C67.008 74.1733 67.3864 74.7566 67.813 75.0162C68.3444 75.1763 68.8758 75.3346 69.4073 75.4962C70.126 76.427 70.8467 77.3576 71.5639 78.2901V79.6456C71.6533 80.0585 72.0007 80.9616 71.882 81.4019C71.7788 81.7805 71.2903 82.3396 71.084 82.6767C70.6849 83.3373 70.5663 84.0943 70.126 84.6723C69.6239 85.338 68.9152 85.3708 68.0519 85.7148C67.5704 85.9059 67.0251 86.2945 66.5351 86.4304C65.983 86.5852 63.6269 86.3582 63.1848 86.1913C62.4608 85.9213 61.5785 84.7514 60.9509 84.2749C60.7598 84.1322 60.4641 84.0496 60.3127 83.8776C60.2319 83.5835 60.1511 83.291 60.0719 82.9984C59.8742 82.5151 58.9971 81.3918 59.1948 80.9221C59.2224 80.8413 59.2499 80.7638 59.2739 80.6848C60.0978 80.4972 60.9234 80.3131 61.7471 80.1257C62.1048 80.2444 62.146 81.0562 62.3078 81.4019C62.4694 81.7512 63.5082 83.1756 63.902 83.2393C64.1358 83.3941 66.1292 83.7158 66.3768 83.5575C68.838 82.7593 69.5017 79.0434 67.1748 77.5709C66.7759 77.4644 66.3768 77.3576 65.9762 77.251C65.2676 76.9533 64.5367 76.4389 63.902 76.0536C63.0679 75.5478 62.098 75.3465 61.3498 74.7771C60.937 74.4657 60.9249 73.948 60.7118 73.4198C60.4864 72.8693 60.0789 72.1261 59.9138 71.5859C59.7469 71.0372 60.1115 70.5246 60.2319 70.2286C60.4124 69.7797 60.4021 69.3617 60.631 68.9522C60.8666 68.5256 61.3826 68.2125 61.6679 67.834C61.8365 67.607 61.9862 67.2509 62.227 67.115C62.7771 66.8019 63.4204 66.8449 64.0636 66.6368C64.3406 66.5471 64.7397 66.3133 65.0217 66.2358C65.3054 66.1585 65.6235 66.2772 65.8179 66.1567Z" fill="white"/>
<path fill-rule="evenodd" clip-rule="evenodd" d="M76.8294 66.5558C77.6324 66.5523 78.4511 66.6023 79.1443 66.6367C79.1701 66.7159 79.1976 66.7967 79.2234 66.874C79.4917 67.3094 79.2165 68.2831 79.3042 68.8697C79.4728 69.9947 79.4642 71.2575 79.4642 72.5424C79.4642 77.0928 79.5329 81.5912 79.4642 85.8714C79.3455 85.9401 79.2355 86.0141 79.1443 86.1123H76.5113C76.3909 85.8886 76.3477 85.7166 76.353 85.3123C76.7693 84.6379 76.5284 81.9715 76.432 80.922C76.353 80.1256 76.2704 79.3256 76.1914 78.5274C76.4734 77.2802 76.635 75.0799 76.432 73.7381V71.4242C76.2755 70.3886 76.1896 67.3558 76.6728 66.7159C76.7296 66.647 76.7708 66.6263 76.8294 66.5558Z" fill="white"/>
<path fill-rule="evenodd" clip-rule="evenodd" d="M104.599 66.5557C105.45 66.5814 106.3 66.609 107.153 66.6365C107.344 66.9428 107.402 67.1801 107.392 67.7546C107.777 68.3809 107.26 71.1041 107.471 72.0624C107.578 73.0997 107.684 74.1404 107.789 75.176C107.75 75.4479 107.463 75.8641 107.392 76.1343C107.337 76.3424 107.454 76.609 107.471 76.6899C107.497 77.5706 107.524 78.4499 107.55 79.3272C107.535 81.3125 107.394 83.5248 107.392 85.7112C107.199 85.818 107.165 85.8556 106.833 85.8712C106.47 86.1051 105.366 85.9606 104.838 85.9503C104.455 85.2743 104.173 82.4529 104.439 81.2418C104.571 80.6415 104.498 79.7383 104.518 79.009C104.592 76.5351 103.945 72.8192 104.518 70.3884C104.838 69.0311 104.068 67.5948 104.599 66.5557Z" fill="white"/>
<path fill-rule="evenodd" clip-rule="evenodd" d="M36.4545 77.4113V78.6103C36.3358 78.9063 35.9178 79.2262 35.7373 79.4843C35.3848 79.9901 35.2041 80.7264 34.7795 81.1633C33.9247 82.039 32.4594 82.5981 31.1884 83.0797C30.7413 83.2448 29.8743 83.8471 29.2743 83.7196C28.913 83.6388 28.4917 83.262 28.1564 83.159H26.4794C25.881 82.9559 25.236 82.1542 24.8044 81.7206C24.1939 81.1118 23.2462 80.4717 22.8903 79.6459C21.9254 77.4182 22.5169 72.918 23.7673 71.2665C24.1972 70.7004 26.6273 69.4016 27.4374 69.1092C27.8209 68.9733 28.5381 69.1521 28.8751 68.9526C30.1977 68.9491 31.3517 68.9612 32.3045 69.3501C33.2264 69.7269 34.9342 71.6913 35.6565 72.4637C35.9953 72.9023 35.8337 73.742 36.0556 74.2975C36.2033 74.671 36.5835 75.0682 36.6936 75.4157C36.869 75.9576 36.5507 76.9469 36.4545 77.4113ZM38.5286 71.743C38.0934 70.7092 37.28 70.2223 36.5335 69.5117C36.1604 69.0317 35.789 68.5519 35.4174 68.0719C33.6788 66.8643 31.0439 66.1863 28.1564 66.1572C27.446 66.7077 25.2893 67.0224 24.3245 67.4335C22.4104 68.2542 21.3872 69.7337 20.3362 71.4248C20.2211 71.6104 19.9338 71.8549 19.8581 72.0629C19.803 72.5687 19.7515 73.0763 19.6965 73.5803C19.5761 74.0808 19.2906 74.7414 19.2201 75.1768C19.1358 75.6808 19.3542 76.7644 19.4574 77.253C19.4849 77.7295 19.5125 78.2096 19.54 78.6896C20.0767 80.704 21.1085 82.0373 22.1713 83.4789C22.2763 83.6198 22.2866 83.8418 22.4121 83.9554C22.9228 84.4302 23.7983 84.5453 24.407 84.9135C24.954 85.2473 25.5594 85.7806 26.1613 86.0317C27.4339 86.5635 31.3138 86.4824 32.7844 86.0317C33.2625 85.8839 34.1001 85.6069 34.5386 85.3127C35.0425 84.9756 35.4106 84.3236 35.8956 83.9554C39.2337 81.435 40.5321 76.5048 38.5286 71.743Z" fill="white"/>
<path fill-rule="evenodd" clip-rule="evenodd" d="M96.6977 77.4921C96.493 78.3987 96.3572 79.7991 95.9015 80.4441C95.6435 81.1065 93.9614 81.5726 93.5847 82.6014C92.8746 82.6203 89.6826 82.9867 89.2784 83.2397C88.8313 83.2551 88.2103 83.3135 88.0005 83.0779C87.7889 82.6203 88.2173 81.0067 88.0005 80.1259C87.9058 79.7388 87.6274 79.1729 87.7614 78.6068C87.8957 78.1045 88.028 77.5972 88.1605 77.0931C88.102 76.6853 87.7872 76.1916 87.6806 75.8166C87.2507 74.2596 87.6875 71.9356 88.0005 70.7864C88.0969 70.4319 87.8596 69.9468 88.0798 69.5907C88.1055 69.5099 88.133 69.4291 88.1605 69.3498C88.3393 69.3172 88.7384 69.2829 88.8793 69.19C89.8098 69.2708 90.7419 69.3498 91.6706 69.4291C92.0594 69.5667 92.5133 70.014 92.8678 70.2291C93.4885 70.6041 94.2555 70.6917 94.8626 71.1046C95.8482 71.7808 96.1198 73.1071 96.6187 74.2975C96.6702 74.4197 96.9418 74.7929 96.9385 74.9358C96.9161 75.5964 96.8542 76.7972 96.6977 77.4921ZM99.8897 74.2975V73.5028C99.7572 73.0846 99.3462 72.627 99.1725 72.2245C96.9865 67.1652 92.2553 66.3739 84.9685 66.4771C84.6487 67.2271 85.2798 67.9961 85.0493 68.9526C84.6194 70.7278 84.5487 74.0189 84.9685 75.9732C85.1955 77.0328 84.726 77.8464 84.5677 78.4487C84.4354 78.9663 84.7999 79.5168 84.8878 79.885V83.7162C84.8878 84.1221 84.8034 84.8069 84.9685 85.0735C84.9633 85.6463 85.0407 85.8579 85.2076 86.1917H89.1976C89.729 86.0713 90.9724 85.7771 91.4333 85.7943C91.6946 85.8011 92.326 85.9973 92.7095 85.8718C93.3853 85.6498 93.977 84.9927 94.6236 84.7536C95.0295 84.6074 95.6195 84.7311 95.9805 84.516C97.1519 84.5145 97.5146 83.3274 97.9738 82.6014C98.1526 82.3193 98.4742 82.0441 98.6136 81.7206C98.8286 81.2201 98.8251 80.716 99.0917 80.286C99.3068 79.9383 99.7539 79.5754 99.8897 79.1661V78.3711C100.199 76.9898 100.186 75.6066 99.8897 74.2975Z" fill="white"/>
<path fill-rule="evenodd" clip-rule="evenodd" d="M123.508 78.6896C122.844 78.6999 121.348 78.9098 120.875 78.6105H117.685C118.287 77.3719 118.717 75.975 119.279 74.6985C119.668 73.8212 120.419 72.7993 120.557 71.743C121.322 72.3554 121.632 74.093 121.993 75.1768C122.07 75.4106 122.397 75.9682 122.392 76.2141C122.337 76.3225 122.285 76.4275 122.234 76.5323C122.306 76.7886 123.36 78.1803 123.589 78.3696C123.561 78.5537 123.549 78.5658 123.508 78.6896ZM128.296 82.3607C127.935 81.535 127.507 80.8125 127.178 80.0451C126.506 78.4626 126.117 76.9641 125.264 75.5758C124.753 74.7414 124.036 73.9071 123.668 72.9404C123.537 72.3021 123.403 71.6639 123.269 71.0256C123.025 70.3031 122.53 69.5549 122.234 68.8736C122.062 68.4814 122.12 68.0857 121.914 67.6746C121.795 67.4337 121.434 67.1756 121.274 66.9572C120.982 66.5476 120.81 65.9593 120.316 65.7598C120.082 66.5752 119.449 67.2428 119.121 67.9928C118.712 68.9251 118.591 69.9074 118.161 70.869C117.795 71.6915 117.026 72.4243 116.567 73.1811C116.056 74.0207 116.206 75.2164 115.769 76.1349C115.621 76.4429 115.186 76.6889 115.052 77.0141C114.945 77.5439 114.838 78.0772 114.732 78.6105C114.543 79.0886 114.023 79.4585 113.774 79.8868C113.562 80.2517 113.678 80.7161 113.535 81.1633C113.411 81.5471 113.088 81.8171 112.895 82.1216C112.412 82.887 112.027 83.515 111.7 84.4355C111.579 84.7708 111.189 85.4625 111.38 85.791V85.9511C111.997 85.963 113.66 86.1799 114.013 85.9511C114.513 85.7738 114.477 85.3299 114.732 84.9137C115.406 83.816 115.98 82.4501 116.648 81.3234C118.321 80.9913 120.564 81.2443 122.392 81.2443C122.949 81.2443 124.077 81.0774 124.466 81.3234C124.958 81.511 124.977 82.1267 125.183 82.5981C125.503 83.3274 126.53 85.791 127.178 86.0319C127.373 86.1678 128.182 86.1678 128.377 86.0319C128.805 86.037 129.345 86.0559 129.653 85.9511C129.574 84.5385 128.76 83.4135 128.296 82.3607Z" fill="white"/>
<path fill-rule="evenodd" clip-rule="evenodd" d="M51.9351 81.8801C51.622 82.3877 50.9634 82.9036 50.3391 83.0791C49.4981 83.3165 48.1703 82.8245 47.4669 83.2374C47.1074 83.2167 47.0834 83.1531 46.8272 83.0791C46.8272 82.0521 46.6035 81.1781 46.8272 80.1253C46.8873 79.8519 47.013 79.162 46.908 78.768C46.7858 78.3069 46.7325 78.1178 46.7482 77.4915C47.706 77.4625 48.664 77.4365 49.6218 77.4107C50.0225 77.5362 51.4655 78.314 51.6942 78.6097C52.3117 79.3978 52.4321 81.0751 51.9351 81.8801ZM46.8272 69.9086C46.8272 69.5283 46.8719 69.401 46.9888 69.1894C49.025 69.3081 50.0157 69.6609 50.5799 71.3449C50.7054 71.7252 50.9719 72.3272 50.7382 72.8606C50.7139 72.9207 50.0571 74.0992 50.0209 74.1388C49.6907 74.488 49.0493 74.562 48.664 74.8562C48.2374 74.8663 47.4257 74.9593 47.1471 74.7769C46.9751 74.5224 47.0817 74.1749 46.9888 73.8204C46.8186 73.1684 46.5571 70.3214 46.8272 69.9086ZM55.3661 79.6455C55.2578 79.1534 55.3729 78.7749 55.2061 78.369C54.8107 77.409 53.1319 75.6269 51.9351 75.4961C52.2756 75.0332 53.0822 74.7908 53.2902 74.2179C53.3177 73.8464 53.3435 73.4729 53.371 73.1015C53.4657 72.7126 53.9231 71.6098 53.8509 71.2659C53.7358 70.7257 52.9618 68.9245 52.6523 68.4705C52.3582 68.0369 51.672 67.8028 51.2178 67.5157C50.9495 67.3435 50.6589 66.9806 50.3391 66.8773H49.302C47.7645 66.5298 45.8108 66.6554 44.0358 66.4766C43.766 67.0528 44.435 67.3831 44.2732 68.1521C44.1906 68.5581 43.8346 69.1104 43.7177 69.5902C43.5113 70.428 44.0841 71.1644 43.9551 71.904C43.6971 73.3818 43.6455 75.2449 43.9551 76.6933C43.9018 77.7289 43.8485 78.768 43.7968 79.8071V81.2435C43.6867 81.7271 43.3514 82.6594 43.4769 83.2374C43.5113 83.3871 43.6799 83.7293 43.7177 83.8758C43.8346 84.3523 43.6541 84.8821 43.876 85.2331C43.8725 85.7353 43.9447 85.8401 44.1166 86.1121C45.3395 86.1379 46.5606 86.1636 47.785 86.1894C48.019 86.1894 48.4833 86.2858 48.5848 86.2702C50.6107 85.9588 53.1837 85.355 54.169 83.9548C54.6471 83.0791 55.1271 82.2 55.6052 81.321C55.7564 80.8427 55.4522 80.0377 55.3661 79.6455Z" fill="white"/>
<path fill-rule="evenodd" clip-rule="evenodd" d="M150.317 88.1866V88.8247C149.638 89.0537 148.434 88.9108 147.607 88.904C146.998 89.2807 145.674 88.8161 144.891 88.983C143.851 89.2085 142.554 88.9848 141.462 88.983H138.827C138.502 88.9143 137.763 88.811 137.312 88.904C136.55 89.0656 135.355 88.983 134.28 88.983H127.977C124.362 89.0913 120.74 89.1964 117.125 89.3029C115.336 88.9108 113.023 88.983 110.822 88.983H99.5693C97.7875 89.0123 96.0075 89.0381 94.224 89.0638C92.764 88.7474 90.7293 88.983 89.1162 88.983C86.2339 88.983 83.3462 88.8247 80.6581 88.8247C78.5325 88.9315 76.4034 89.0381 74.2744 89.1431C73.1806 89.1567 72.2879 88.5651 71.084 88.8247C69.3936 89.1911 67.1147 89.2772 65.419 88.904H63.8231C62.3061 88.9315 60.7911 88.9555 59.2742 88.983C57.2276 88.9555 55.1777 88.9315 53.1311 88.904C52.2591 88.904 51.1567 88.8231 50.4188 88.983H46.1865C45.1976 89.1999 43.2715 89.2014 42.2773 88.983C41.2024 88.7492 39.8266 89.1173 38.8481 88.904H37.092C35.5564 88.904 33.8761 88.9555 32.4641 88.983C31.1623 88.9555 29.8586 88.9315 28.555 88.904C26.8557 88.904 25.2254 89.0123 23.767 88.8247C23.6019 88.8007 23.3164 88.904 23.0498 88.904C21.8512 88.9315 20.6541 88.9555 19.459 88.983V88.2656C20.3067 88.2656 21.3301 88.2742 22.092 88.1075C23.0723 87.8888 25.1204 88.0919 25.9219 88.2656C26.6134 88.2381 27.3046 88.2123 27.996 88.1866C29.0503 88.1866 30.261 88.1916 31.188 88.1075C32.0736 88.0249 33.1435 88.1934 33.9001 88.0265C35.4961 88.0815 37.092 88.1333 38.688 88.1866C41.7477 88.159 44.8054 88.1333 47.865 88.1075C48.5787 88.2623 49.6483 88.1866 50.4981 88.1866H55.5233H62.865C64.3992 88.1866 65.7664 88.3174 67.0941 88.0265C67.8749 87.8527 70.7281 87.956 71.4039 88.1075H72.5202C73.7963 88.3843 76.1352 88.2381 77.4662 87.9457C78.5171 87.7169 79.6539 88.2381 80.4193 88.1075C84.2492 88.1333 88.0791 88.159 91.9092 88.1866C92.4818 88.061 93.3916 88.2502 94.0642 88.1075C95.1769 87.8666 98.9397 87.8613 100.049 88.1075C101.65 88.4567 103.982 87.8408 105.554 88.1866H114.972C115.88 87.9888 117.83 87.624 118.962 87.8666C119.829 88.0558 122.102 88.2434 123.11 88.0265C123.354 87.9732 123.937 87.8666 124.305 87.9457C125.69 88.2451 129.491 88.4378 131.007 88.1075C137.444 88.1333 143.882 88.159 150.317 88.1866Z" fill="white"/>
<path fill-rule="evenodd" clip-rule="evenodd" d="M95.1825 89.7019C95.205 90.1183 95.2479 90.3075 95.1825 90.6585C95.0038 90.7221 94.7491 90.741 94.4635 90.7393C94.3312 90.5534 94.1987 90.3661 94.0664 90.1802C94.1144 90.0426 94.0818 90.1027 94.1454 90.0201C94.2333 89.7931 94.1593 89.8739 94.3863 89.781C94.5428 89.6762 94.9023 89.6933 95.1825 89.7019Z" fill="white"/>
<path fill-rule="evenodd" clip-rule="evenodd" d="M73.9574 91.9366H73.56C73.4603 91.7543 73.4277 91.7561 73.3984 91.4601C73.4621 91.3776 73.4277 91.4377 73.481 91.2985C73.665 91.2468 73.8524 91.1917 74.0382 91.1402C74.0313 90.8356 74.0485 90.5346 74.1156 90.342C74.2962 90.2697 74.3237 90.1991 74.4355 90.2611C74.6832 90.3437 74.6678 90.3384 74.7536 90.5793C74.8276 90.693 74.843 91.0266 74.9154 91.1402C75.0735 91.221 75.7442 91.1677 76.0315 91.2192C76.1295 91.3983 76.1638 91.3965 76.1931 91.6975C75.6377 92.1672 75.3161 91.8008 74.8362 92.0967C74.7589 92.2101 74.7571 92.3581 74.7536 92.5748C74.8723 92.7692 74.7692 93.2975 74.7536 93.6914C74.8362 93.7207 74.9154 93.7482 74.9944 93.7722C75.1096 93.848 75.2557 93.8513 75.4743 93.853C75.6634 93.6414 75.851 93.4401 76.1931 93.373C76.2739 93.4401 76.2138 93.4005 76.3514 93.4556C76.4201 93.6844 76.4632 93.6586 76.5114 93.9323C76.3738 94.0785 76.2825 94.3002 76.1931 94.4914C75.6084 94.5464 75.0184 94.6187 74.3563 94.5704C74.1414 93.896 73.8834 92.7366 73.9574 91.9366Z" fill="white"/>
<path fill-rule="evenodd" clip-rule="evenodd" d="M44.7527 90.2617C44.7802 90.5541 44.806 90.8466 44.8317 91.139H46.0306C46.0975 91.2577 46.175 91.3695 46.2697 91.4607C46.2248 91.5811 46.2146 91.5933 46.1871 91.7773C45.8895 91.939 45.4252 91.9476 44.9127 91.9372V92.0165H44.8317C44.8852 92.4137 44.8113 93.267 44.9127 93.7728H45.0726C45.2068 93.8639 45.4631 93.8589 45.7107 93.8536C45.8413 93.5493 45.8448 93.415 46.2697 93.3755C46.3384 93.4925 46.4123 93.6043 46.507 93.6937C46.4277 93.9586 46.3487 94.2253 46.2697 94.492C46.12 94.5435 45.9566 94.5692 45.7107 94.571C45.5128 94.7018 45.0004 94.6622 44.6737 94.6536C44.5687 94.516 44.3657 94.4644 44.2763 94.3336C43.9496 93.8692 44.0304 92.8061 44.0355 92.0165C43.7088 91.8943 43.547 91.8582 43.4766 91.4607C43.5402 91.3781 43.5041 91.4385 43.5558 91.2991C43.7861 91.2319 43.7621 91.189 44.0355 91.139C44.0612 90.8723 44.0888 90.6074 44.1147 90.3425H44.2763C44.3882 90.2635 44.5343 90.2635 44.7527 90.2617Z" fill="white"/>
<path fill-rule="evenodd" clip-rule="evenodd" d="M144.494 91.22H145.608C145.711 91.3645 145.768 91.3576 145.849 91.54H145.928V91.619H145.849C145.761 91.8463 145.837 91.7655 145.608 91.8582C145.295 92.0526 144.753 91.8342 144.415 91.9374C144.53 92.5291 144.421 93.1124 144.415 93.773H144.494V93.8538C144.731 93.8796 144.97 93.9053 145.211 93.9329C145.35 93.6801 145.63 93.3068 145.928 93.4564C146.207 93.5632 146.176 93.6387 146.169 94.0139C146.014 94.1995 145.976 94.351 145.77 94.492C145.158 94.9944 143.885 94.4886 143.696 94.0139V92.3347C143.761 92.242 143.756 92.2041 143.775 92.0165C143.407 91.9374 143.352 91.822 143.137 91.619C143.188 91.4799 143.154 91.5417 143.216 91.4609C143.319 91.2612 143.18 91.4041 143.378 91.2991C143.47 91.2337 143.51 91.2372 143.696 91.22C143.687 90.9723 143.682 90.716 143.775 90.5801C143.869 90.2945 143.899 90.2877 144.255 90.2617C144.358 90.4562 144.399 90.4872 144.415 90.821C144.485 90.9241 144.485 91.017 144.494 91.22Z" fill="white"/>
<path fill-rule="evenodd" clip-rule="evenodd" d="M104.917 91.0596C105.158 91.0853 105.395 91.1111 105.634 91.1386C105.823 91.352 106.007 91.5654 106.195 91.777C106.425 92.2964 106.462 93.9686 106.272 94.3333C106.195 94.5517 106.159 94.5088 106.033 94.6499C105.798 94.5982 105.741 94.6052 105.634 94.409C105.307 93.9547 105.43 92.7335 105.476 92.176C105.359 92.109 105.247 92.0333 105.158 91.9368C104.057 92.1932 103.985 92.9106 104.04 94.3333C103.98 94.4194 103.994 94.4055 103.959 94.5706C103.821 94.6224 103.882 94.5863 103.801 94.6499C102.905 94.4486 103.209 92.4409 103.242 91.3778H103.321V91.3005C103.509 91.2729 103.693 91.2472 103.88 91.2197C103.949 91.3348 104.023 91.4467 104.121 91.5361C104.32 91.2934 104.687 91.2712 104.917 91.0596Z" fill="white"/>
<path fill-rule="evenodd" clip-rule="evenodd" d="M35.0192 91.1387C35.3648 91.1644 35.7107 91.192 36.0563 91.2195C36.4983 92.1707 36.5137 92.8952 36.6152 94.3333C36.4741 94.4399 36.3883 94.5757 36.2971 94.7305C36.1543 94.6808 36.2196 94.7151 36.1353 94.6497C35.843 94.5449 35.764 94.3866 35.7364 94.0116C35.893 93.6417 35.7003 92.8487 35.7364 92.176C35.4613 92.1089 35.3873 92.0349 35.0192 92.0177C34.8301 92.2121 34.5825 92.3101 34.4585 92.575C34.2109 92.9502 34.2899 93.8121 34.302 94.4124C34.1336 94.5018 34.1541 94.526 33.9031 94.5707C33.7878 94.5742 33.707 94.6361 33.5833 94.4124C33.2978 93.9616 33.4904 91.9558 33.5023 91.3796C33.7052 91.2677 33.7827 91.2248 34.1422 91.2195C34.2212 91.4018 34.2005 91.4397 34.3813 91.5361C34.56 91.2917 34.7751 91.3159 35.0192 91.1387Z" fill="white"/>
<path fill-rule="evenodd" clip-rule="evenodd" d="M66.4566 92.5748C66.1229 92.6024 66.1521 92.6059 65.8186 92.5748C65.7618 92.315 65.7187 92.2016 65.4986 92.0983C65.4041 92.0312 65.3645 92.0347 65.1805 92.0158C64.3499 92.8587 64.1881 92.6231 64.2226 94.4122C64.1588 94.493 64.1934 94.4329 64.1434 94.5705C64.004 94.6185 63.8924 94.6427 63.6635 94.6496C63.464 94.3536 63.3454 94.3261 63.3436 93.7721C63.1338 93.4264 63.3333 92.0105 63.3436 91.3776C63.4607 91.3087 63.5724 91.2365 63.6635 91.14C63.8046 91.1883 63.7427 91.1557 63.8253 91.2193C64.1487 91.3398 64.0454 91.4567 64.2226 91.6976C64.4117 91.3809 65.239 90.8201 65.8186 91.2193C66.006 91.3259 66.19 91.4309 66.3776 91.5393C66.4326 91.9986 66.4806 92.1104 66.4566 92.5748Z" fill="white"/>
<path fill-rule="evenodd" clip-rule="evenodd" d="M95.1828 91.2195C95.2121 92.2001 95.2861 92.9639 95.1828 93.8533C95.4494 93.8791 95.716 93.9048 95.9791 93.9324V94.0924C96.1528 94.347 95.9947 94.5604 95.7418 94.6533C95.4254 94.8546 94.0925 94.6636 93.6659 94.5707C93.6144 94.4725 93.58 94.4056 93.5078 94.3333V94.1715C93.8191 93.9616 93.8759 93.8482 94.4639 93.8533C94.4623 93.1513 94.4088 92.5389 94.4639 92.016C94.199 91.9902 93.9325 91.9627 93.6659 91.9369C93.6315 91.5688 93.5628 91.3811 93.9049 91.2195C94.0322 91.1731 94.7976 91.2127 95.1828 91.2195Z" fill="white"/>
<path fill-rule="evenodd" clip-rule="evenodd" d="M115.529 91.1387C116.606 91.4089 116.475 93.5076 116.248 94.5707H116.09C115.684 94.8391 115.569 94.3161 115.608 93.8533C115.388 93.4833 115.615 92.6061 115.449 92.097C115.309 92.1485 115.373 92.1142 115.289 92.176C115.043 92.4634 115.148 94.0374 115.053 94.5707C114.859 94.6378 114.92 94.6033 114.812 94.7305C114.611 94.6394 114.511 94.6154 114.412 94.4124C114.05 93.831 114.525 92.6937 114.331 92.097H114.171C113.878 92.5717 113.92 93.4439 113.933 94.2525C113.878 94.3161 113.83 94.4295 113.775 94.4916C113.669 94.5603 113.576 94.5621 113.374 94.5707C113.292 94.5071 113.356 94.5432 113.218 94.4916V94.3333C113.082 94.1285 113.094 91.6187 113.135 91.5361C113.225 91.3089 113.149 91.3915 113.374 91.2988C113.999 90.9374 114.928 91.5291 115.529 91.1387Z" fill="white"/>
<path fill-rule="evenodd" clip-rule="evenodd" d="M133.483 91.1387C133.722 91.2609 133.808 91.4293 134.042 91.5361C134.355 91.0854 135.101 91.2367 135.717 91.2988C136.178 92.0728 136.202 93.074 136.195 94.4124C136.006 94.5156 135.971 94.5535 135.639 94.5707V94.4124C135.304 93.948 135.39 92.8573 135.399 92.097C135.32 92.0695 135.237 92.0452 135.158 92.0177C135.072 91.9558 135.084 91.9695 134.917 91.9369C134.031 92.6129 133.834 92.2483 133.88 93.9325C134.006 94.1199 133.928 94.2747 133.88 94.4916C133.722 94.5174 133.564 94.5449 133.404 94.5707C133.378 94.5174 133.347 94.4641 133.324 94.4124C132.944 93.9255 133.11 91.949 133.242 91.2988C133.343 91.247 133.409 91.2127 133.483 91.1387Z" fill="white"/>
<path fill-rule="evenodd" clip-rule="evenodd" d="M24.2448 92.6542C24.2484 92.4376 24.2484 92.2896 24.3256 92.1777C24.4082 91.9954 24.4615 92.004 24.5647 91.8596H25.6018C25.6982 92.0005 25.7755 92.0831 25.9216 92.1777C25.9166 92.4237 25.8941 92.5838 25.8408 92.7351C25.3248 92.7403 24.6318 92.7883 24.2448 92.6542ZM24.4857 93.4525C25.1564 93.4593 26.1057 93.554 26.6388 93.3734C26.6818 92.7058 26.7868 92.1073 26.4015 91.6977C26.1332 91.1543 25.2733 91.1644 24.5647 91.0596C24.4615 91.1232 24.2413 91.0646 24.0866 91.1386C23.4347 91.457 23.1648 93.4851 23.7685 94.0924C23.9129 94.4262 24.9431 95.0007 25.4435 94.6499H26.558C26.6131 94.5123 26.5752 94.5742 26.6388 94.4916C26.5856 94.1338 26.4616 94.0166 26.319 93.7707C25.7376 93.7777 24.9345 93.8464 24.4857 93.6934C24.4599 93.6401 24.4324 93.5866 24.4031 93.535H24.4857V93.4525Z" fill="white"/>
<path fill-rule="evenodd" clip-rule="evenodd" d="M54.1682 92.6543C54.1939 92.496 54.2214 92.3379 54.2472 92.1778C54.3934 92.1089 54.6067 92.0333 54.7271 91.9369C55.2567 91.9283 55.4014 91.9988 55.6851 92.1778V92.6543C55.2706 92.5821 54.7581 92.6508 54.1682 92.6543ZM56.4814 93.3735C56.4935 93.0139 56.55 92.3997 56.4021 92.1778C56.3849 91.5189 56.1029 91.5154 55.8432 91.1387C53.6403 91.0889 53.3186 91.6669 53.3702 93.6934C53.6075 93.9222 53.9102 94.3007 54.0891 94.5707C54.6996 94.5793 55.5594 94.4485 56.1615 94.6499C56.263 94.5242 56.3299 94.4881 56.4814 94.409C56.466 94.2025 56.447 94.1389 56.4021 94.0116C56.237 93.9772 56.0393 93.9376 55.9224 93.8533C55.3393 93.8618 54.6875 93.8861 54.3264 93.6934C54.354 93.5111 54.3643 93.4939 54.4072 93.3735H56.4814Z" fill="white"/>
<path fill-rule="evenodd" clip-rule="evenodd" d="M124.146 92.1774C124.254 92.0484 124.194 92.0845 124.387 92.0173C124.519 91.9469 124.624 92.0312 124.786 91.9365C125.192 91.959 125.243 92.0466 125.503 92.1774V92.6539C125.006 92.6161 124.478 92.5954 123.988 92.6539C124.019 92.4269 124.039 92.31 124.146 92.1774ZM125.424 93.7721C124.875 93.7825 124.316 93.7875 123.988 93.6122V93.3746C124.686 93.4006 125.573 93.5519 126.141 93.2938C126.375 92.7469 126.426 92.1602 126.062 91.6974C125.664 91.1744 124.863 91.1865 123.905 91.2191C123.716 91.4188 123.532 91.4704 123.429 91.7767C122.925 92.5198 123.343 93.841 123.589 94.3329C123.84 94.3966 124.125 94.5049 124.306 94.6529C125.131 94.6718 125.814 94.7062 126.222 94.3329C126.165 94.0355 126.103 94.0473 125.983 93.8529C125.75 93.8547 125.549 93.8564 125.424 93.7721Z" fill="white"/>
<path fill-rule="evenodd" clip-rule="evenodd" d="M85.3678 93.6934C85.2285 93.7434 85.2903 93.7088 85.2095 93.7725C84.8415 93.7795 84.4219 93.7795 84.1709 93.6934C84.1896 93.2891 84.2345 93.3374 84.4098 93.1343C84.6455 93.1583 85.1873 93.1773 85.3678 93.2944C85.4468 93.3219 85.5261 93.3477 85.6086 93.3735C85.5261 93.4783 85.4468 93.5884 85.3678 93.6934ZM86.1658 91.5361C86.0351 91.347 85.9507 91.2833 85.6859 91.2197C85.5829 91.1647 84.4787 91.1215 84.3307 91.2197H84.0127C83.9594 91.3573 83.9955 91.2988 83.9319 91.3778C83.9352 91.6255 83.9594 91.7891 84.0127 91.9386C84.2275 91.9833 84.3823 92.0626 84.5716 91.9386C85.1219 91.9268 85.3128 91.9904 85.6086 92.176V92.4169C85.0926 92.379 84.3068 92.1967 83.9319 92.4962C83.5363 92.6371 83.5017 92.9795 83.2129 93.2169C83.2301 93.8103 83.3815 94.1974 83.6928 94.4899C84.3222 94.9921 85.5604 94.5432 86.085 94.65C86.1951 94.533 86.3446 94.4194 86.4839 94.3333C86.491 93.4972 86.546 92.0659 86.1658 91.5361Z" fill="white"/>
<path fill-rule="evenodd" clip-rule="evenodd" d="M19.3789 96.4077V95.7678C20.7616 95.7436 22.146 95.7145 23.5289 95.6885C23.847 95.6628 24.1668 95.6353 24.4867 95.6095C25.3276 95.7264 26.8774 95.8933 27.8369 95.6885C29.0098 95.4358 32.9687 95.4375 34.1418 95.6885C35.9491 95.6353 37.7584 95.582 39.5677 95.5269C41.3356 95.9105 43.8139 95.8072 45.4718 95.4479C46.7857 95.1623 47.8607 95.9002 49.2209 95.6095C50.0052 95.4393 52.3116 95.336 53.2126 95.5269C55.5636 96.0327 58.4822 95.6113 60.7919 95.6095C62.6527 95.606 65.0431 95.9966 66.8559 95.6095C67.8465 95.3961 69.3117 95.5923 70.1269 95.7678C70.8441 95.7436 71.5646 95.7145 72.2818 95.6885C73.7283 95.6782 75.5341 95.8865 76.8307 95.6095C78.4267 95.6353 80.0226 95.6628 81.6186 95.6885H92.3898C93.6145 95.7436 94.8371 95.7953 96.0599 95.8486C96.5295 95.7471 97.324 95.8916 97.895 95.7678C98.9646 95.539 102.411 95.539 103.481 95.7678H106.833C107.536 95.9191 109.602 96.0241 110.422 95.8486C111.959 95.5201 114.089 96.1118 115.69 95.7678C116.624 95.5681 118.161 95.4822 119.121 95.6885H123.747C132.384 95.6885 141.447 95.7332 150.16 95.7678C150.229 95.9638 150.242 96.2615 150.239 96.566H150.32V96.6451H150.239V96.7259C149.358 96.437 147.849 96.6451 146.81 96.6451C144.6 96.6211 142.393 96.5935 140.185 96.566C139.384 96.738 138.214 96.4542 137.313 96.6451C137.205 96.6691 136.904 96.7759 136.673 96.7259C134.647 96.3044 131.78 96.566 129.493 96.566H127.259C126.399 96.3837 125.333 96.5693 124.306 96.566C122.894 96.566 121.324 96.3595 119.998 96.6451C118.829 96.5936 117.657 96.5385 116.488 96.4868C113.879 96.5127 111.273 96.5385 108.668 96.566H101.646C100.519 96.3251 96.7875 96.3251 95.6608 96.566C94.3143 96.8567 92.77 96.3577 91.4318 96.6451C90.443 96.8584 88.976 96.6622 88.1608 96.4868C87.5469 96.3527 86.5787 96.4938 86.0867 96.566C84.7987 96.762 83.2628 96.3974 82.095 96.6451C81.3041 96.8155 80.2324 96.6175 79.6238 96.4868C78.6675 96.5127 77.7097 96.5385 76.7517 96.566H71.164C69.9585 96.8274 68.2868 96.9186 67.0175 96.6451H62.3878H58.3189C57.1786 96.891 54.8343 96.9082 53.6099 96.6451C53.1146 96.5403 52.4113 96.6504 52.014 96.566C50.9787 96.5935 49.9398 96.6211 48.9028 96.6451C46.323 96.6744 43.7417 96.7001 41.1619 96.7259C33.8753 96.633 26.5161 96.5968 19.3789 96.4077Z" fill="white"/>
<path fill-rule="evenodd" clip-rule="evenodd" d="M153.43 66.582V66.9467H152.923V68.7719H152.464V66.9467H151.953V66.582H153.43Z" fill="white"/>
<path fill-rule="evenodd" clip-rule="evenodd" d="M153.633 68.7733V66.585H154.372L154.711 68.0713H154.72L155.081 66.585H155.795V68.7733H155.347V67.0839H155.342L154.923 68.7733H154.486L154.083 67.0839H154.08V68.7733H153.633Z" fill="white"/>
</g>
</svg>
