<svg width="170" height="150" viewBox="0 0 170 150" fill="none" xmlns="http://www.w3.org/2000/svg">
<g opacity="0.6">
<path fill-rule="evenodd" clip-rule="evenodd" d="M33.7984 75.7673H37.0753C38.3463 75.7673 39.1904 76.1336 39.1904 77.152C39.1904 78.4477 38.375 78.8154 37.0753 78.8154H33.7984V75.7673ZM27.5898 91.1154H39.0236C42.5823 91.1154 46.0819 89.0253 46.0819 84.992C46.0819 82.0302 44.3882 80.5937 42.5823 79.9702C44.079 79.1544 45.0654 78.0527 45.0654 76.0244C45.0654 73.9646 43.9382 70.9756 38.6296 70.9756H27.5898V91.1154ZM33.7984 82.5672H37.6978C39.1644 82.5672 39.8704 83.2137 39.8704 84.4016C39.8704 85.9515 38.7417 86.3193 37.4419 86.3193H33.7984V82.5672Z" fill="white"/>
<path fill-rule="evenodd" clip-rule="evenodd" d="M62.7365 85.0471C62.7365 79.3517 60.2246 76.1084 54.4084 76.1084C49.7757 76.1084 46.6699 79.5758 46.6699 83.8362C46.6699 88.7157 50.2014 91.4808 54.8886 91.4808C58.2187 91.4808 61.2987 90.0143 62.426 86.8541H57.205C56.7521 87.5594 55.7628 87.8955 54.857 87.8955C53.1115 87.8955 52.151 86.712 52.0072 85.0471H62.7365ZM52.0346 82.1427C52.2919 80.5641 53.2495 79.6893 54.9175 79.6893C56.3567 79.6893 57.3732 80.7882 57.3732 82.1427H52.0346Z" fill="white"/>
<path fill-rule="evenodd" clip-rule="evenodd" d="M69.7449 72.0166H64.1545V76.4737H61.6699V79.9154H64.1545V86.9122C64.1545 90.9154 66.7801 91.2817 69.1539 91.2817C70.3388 91.2817 71.6113 91.1136 72.7398 91.1136V86.8821C72.3158 86.9409 71.8931 86.9681 71.4674 86.9681C70.0583 86.9681 69.7449 86.3735 69.7449 85.019V79.9154H72.7398V76.4737H69.7449V72.0166Z" fill="white"/>
<path fill-rule="evenodd" clip-rule="evenodd" d="M73.666 91.114H79.2549V83.3861C79.2549 81.0419 80.5259 80.5635 81.4894 80.5635C83.1228 80.5635 83.3212 81.7485 83.3212 83.4393V91.114H88.9145V81.0691C88.9145 77.7137 86.5118 76.1093 83.8847 76.1093C81.5166 76.1093 80.2716 76.9251 79.3096 78.0527H79.2549V70.9756H73.666V91.114Z" fill="white"/>
<path fill-rule="evenodd" clip-rule="evenodd" d="M105.708 85.0471C105.708 79.3517 103.196 76.1084 97.3765 76.1084C92.7438 76.1084 89.6367 79.5758 89.6367 83.8362C89.6367 88.7157 93.1695 91.4808 97.8584 91.4808C101.187 91.4808 104.27 89.7457 105.393 86.5855H100.173C99.7231 87.2937 98.7339 87.8955 97.828 87.8955C96.0783 87.8955 95.1148 86.712 94.9768 85.0471H105.708ZM95.0042 82.1427C95.2573 80.5641 96.2205 79.6893 97.8871 79.6893C99.3263 79.6893 100.341 80.7882 100.341 82.1427H95.0042Z" fill="white"/>
<path fill-rule="evenodd" clip-rule="evenodd" d="M119.775 80.7336C119.637 76.9817 115.822 76.1055 112.662 76.1055C109.723 76.1055 105.741 77.0665 105.741 80.7623C105.741 83.2718 107.464 84.6263 111.728 85.3588C114.324 85.8098 114.805 86.0641 114.805 86.9117C114.805 87.7576 113.648 88.0406 112.916 88.0406C112.237 88.0406 111.701 87.8683 111.419 87.6155C110.994 87.252 110.771 87.0968 110.744 86.5855H105.406C105.487 90.3675 109.274 91.4822 112.713 91.4822C116.274 91.4822 120.174 90.382 120.174 86.3213C120.174 83.9195 118.534 82.8208 116.669 82.2289C114.805 81.6069 112.687 81.4962 111.757 81.0971C111.448 80.9592 111.106 80.7623 111.106 80.3357C111.106 79.3791 112.01 79.2125 112.802 79.2125C113.252 79.2125 113.707 79.3517 114.042 79.6319C114.411 79.8875 114.666 80.2539 114.695 80.7336H119.775Z" fill="white"/>
<path fill-rule="evenodd" clip-rule="evenodd" d="M130.866 83.7811C130.866 85.5278 130.415 87.4195 128.412 87.4195C126.407 87.4195 125.953 85.5278 125.953 83.7811C125.953 82.0603 126.407 80.1686 128.412 80.1686C130.415 80.1686 130.866 82.0603 130.866 83.7811ZM136.258 70.9756H130.671V78.0814H130.613C129.766 76.8418 128.27 76.1064 126.603 76.1064C121.69 76.1064 120.361 80.2806 120.361 83.7222C120.361 87.3908 122.367 91.4832 126.518 91.4832C129.256 91.4832 130.103 90.4388 130.809 89.5052H130.866V91.1154H136.258V70.9756Z" fill="white"/>
<path fill-rule="evenodd" clip-rule="evenodd" d="M152.18 81.8338C152.18 79.0127 152.233 76.1055 145.231 76.1055C141.757 76.1055 137.862 76.7834 137.69 80.9002H142.884C142.916 80.2824 143.255 79.4063 144.976 79.4063C145.883 79.4063 146.812 79.774 146.812 80.7623C146.812 81.693 146.047 81.9171 145.287 82.0579C142.434 82.5922 137.018 82.4227 137.018 87.0551C137.018 90.1276 139.355 91.4808 142.182 91.4808C143.993 91.4808 145.711 91.0844 146.897 89.7312H146.953C146.926 90.1276 147.008 90.7209 147.152 91.1145H152.856C152.233 90.1851 152.18 88.9396 152.18 87.8394V81.8338ZM146.812 85.8946C146.726 87.4171 145.741 88.177 144.467 88.177C143.455 88.177 142.719 87.5033 142.719 86.8282C142.719 85.8385 143.367 85.5268 144.609 85.2466C145.374 85.0758 146.136 84.8789 146.812 84.5415V85.8946Z" fill="white"/>
<path fill-rule="evenodd" clip-rule="evenodd" d="M151.507 73.5548H151.759C152.049 73.5548 152.289 73.4515 152.289 73.1814C152.289 72.9874 152.153 72.8006 151.759 72.8006C151.646 72.8006 151.566 72.8065 151.507 72.8164V73.5548ZM151.507 74.7628H151.158V72.5809C151.339 72.5552 151.517 72.5278 151.776 72.5278C152.104 72.5278 152.325 72.5982 152.456 72.6916C152.587 72.7907 152.657 72.9385 152.657 73.1441C152.657 73.4327 152.467 73.6065 152.227 73.6769V73.6956C152.419 73.7286 152.554 73.9025 152.597 74.2242C152.649 74.566 152.699 74.6953 152.736 74.7628H152.37C152.318 74.6953 152.262 74.4942 152.222 74.2084C152.168 73.9312 152.029 73.8249 151.751 73.8249H151.507V74.7628ZM151.871 71.972C151.008 71.972 150.305 72.7102 150.305 73.6238C150.305 74.5574 151.008 75.2871 151.882 75.2871C152.753 75.2943 153.448 74.5574 153.448 73.6339C153.448 72.7102 152.753 71.972 151.882 71.972H151.871ZM151.882 71.666C152.952 71.666 153.806 72.5364 153.806 73.6238C153.806 74.7311 152.952 75.5931 151.871 75.5931C150.799 75.5931 149.93 74.7311 149.93 73.6238C149.93 72.5364 150.799 71.666 151.871 71.666H151.882Z" fill="white"/>
<path fill-rule="evenodd" clip-rule="evenodd" d="M15.5566 79.7473H24.1852V70.9521H15.5566V79.7473ZM18.5949 76.6505H21.1442V74.0518H18.5949V76.6505Z" fill="white"/>
</g>
</svg>
