<svg width="170" height="150" viewBox="0 0 170 150" fill="none" xmlns="http://www.w3.org/2000/svg">
<g opacity="0.6">
<path fill-rule="evenodd" clip-rule="evenodd" d="M29.896 85.1123C29.896 85.1123 31.0781 79.9642 31.223 80.4064C31.3717 80.847 32.5522 84.9649 32.5522 84.9649L29.896 85.1123ZM21.334 93.642H26.9439L28.4195 90.2588L34.1766 90.4069L35.8002 93.7878H41.4109L31.3717 65.9932L21.334 93.642Z" fill="white"/>
<path fill-rule="evenodd" clip-rule="evenodd" d="M44.9534 84.083C44.9534 76.8753 52.9259 80.4066 52.9259 80.4066L56.174 76.7286C53.369 74.0801 49.0876 74.2291 49.0876 74.2291C46.873 74.2291 40.5256 74.9637 39.6387 84.6703C43.1834 100.113 56.3211 91.878 56.3211 91.878L53.0731 88.2001C53.0731 88.2001 44.9534 91.2885 44.9534 84.083Z" fill="white"/>
<path fill-rule="evenodd" clip-rule="evenodd" d="M114.044 72.7583L111.681 68.0509H85.6992L80.3845 82.0235L74.3315 67.9043H47.9073L45.1016 72.7583H57.0588V93.6423H62.6687V72.7583H70.3445L80.2373 97.7594L89.9799 72.7583H114.044Z" fill="white"/>
<path fill-rule="evenodd" clip-rule="evenodd" d="M65.4141 93.788H70.4927V74.5215H65.4739L65.4141 93.788Z" fill="white"/>
<path fill-rule="evenodd" clip-rule="evenodd" d="M89.9199 93.788H94.9986V74.5215H89.9789L89.9199 93.788Z" fill="white"/>
<path fill-rule="evenodd" clip-rule="evenodd" d="M107.932 93.788H113.01V74.5215H107.991L107.932 93.788Z" fill="white"/>
<path fill-rule="evenodd" clip-rule="evenodd" d="M102.971 78.6401H106.218L106.367 74.6696L100.61 74.5215C100.61 74.5215 96.6241 74.5215 96.6241 78.1994C96.6241 81.8774 101.348 87.0239 101.348 87.0239C101.348 87.0239 102.528 88.0534 101.938 88.9355C101.348 89.8183 96.4746 89.231 96.4746 89.231V93.6421H103.562C103.562 93.6421 107.4 94.0828 107.4 89.9649C107.4 85.8478 102.086 80.4065 102.086 80.4065C101.275 79.5374 101.704 78.6401 102.971 78.6401Z" fill="white"/>
<path fill-rule="evenodd" clip-rule="evenodd" d="M124.376 89.0831C124.376 89.0831 119.209 89.8185 119.209 84.0831C119.209 78.347 124.082 79.0825 124.082 79.0825C124.082 79.0825 128.363 79.3757 128.51 83.2011C129.101 88.7883 124.376 89.0831 124.376 89.0831ZM124.229 73.9344C124.229 73.9344 113.599 73.6396 113.895 84.2298C114.191 94.8192 123.344 94.3777 124.229 94.3777C125.116 94.3777 133.973 93.4942 133.824 83.6417C133.677 73.7878 124.229 73.9344 124.229 73.9344Z" fill="white"/>
<path fill-rule="evenodd" clip-rule="evenodd" d="M144.158 74.5216L143.716 80.9939L134.711 73.9336L134.858 93.6423H140.173V86.2886L148.884 93.6423V74.5216H144.158Z" fill="white"/>
<path fill-rule="evenodd" clip-rule="evenodd" d="M153.654 90.8659H154.248C154.503 90.8659 154.678 90.8842 154.775 90.9224C154.974 91.0018 155.074 91.1431 155.074 91.3477C155.074 91.6761 154.813 91.8396 154.287 91.8396H153.654V90.8659ZM153.654 93.6801V92.2894H153.962C154.145 92.2894 154.284 92.3276 154.384 92.4024C154.527 92.5109 154.709 92.7652 154.935 93.1638L155.224 93.6801H155.867L155.466 93.0393C155.278 92.7384 155.116 92.5238 154.982 92.3925C154.915 92.3253 154.821 92.268 154.703 92.2184C154.966 92.1993 155.185 92.1107 155.36 91.9457C155.544 91.7724 155.639 91.5562 155.639 91.2989C155.639 91.1316 155.586 90.9705 155.484 90.8208C155.36 90.6421 155.174 90.5237 154.925 90.4634C154.78 90.4321 154.551 90.4145 154.241 90.4145H153.118V93.6801H153.654ZM152.952 89.3614C152.476 89.618 152.097 89.9899 151.819 90.4695C151.542 90.9499 151.402 91.4646 151.402 92.0076C151.402 92.5299 151.535 93.0332 151.805 93.5159C152.067 93.9848 152.437 94.3552 152.919 94.6332C153.392 94.9035 153.902 95.0394 154.449 95.0394C154.975 95.0394 155.482 94.905 155.967 94.6362C156.434 94.3788 156.804 94.013 157.08 93.5342C157.355 93.0577 157.491 92.5483 157.491 92.0076C157.491 91.4799 157.355 90.9705 157.085 90.4848C156.822 90.0204 156.453 89.6523 155.976 89.3805C155.499 89.1071 154.989 88.9727 154.449 88.9727C153.937 88.9727 153.438 89.1025 152.952 89.3614ZM155.694 89.802C156.089 90.0174 156.403 90.3244 156.636 90.7238C156.867 91.1247 156.985 91.5532 156.985 92.0076C156.985 92.4436 156.873 92.8599 156.653 93.2539C156.433 93.6503 156.124 93.9619 155.724 94.1902C155.326 94.4193 154.9 94.5339 154.449 94.5339C154.011 94.5339 153.59 94.4201 153.187 94.1948C152.795 93.9787 152.485 93.6732 152.255 93.2791C152.025 92.8835 151.911 92.4597 151.911 92.0076C151.911 91.5685 152.023 91.1446 152.252 90.7383C152.469 90.3504 152.776 90.0441 153.174 89.8165C153.573 89.5905 153.996 89.4767 154.449 89.4767C154.873 89.4767 155.29 89.5859 155.694 89.802Z" fill="white"/>
</g>
</svg>
