<svg width="170" height="150" viewBox="0 0 170 150" fill="none" xmlns="http://www.w3.org/2000/svg">
<g opacity="0.6">
<path d="M121.441 108.719C121.633 108.719 121.729 108.719 121.729 108.527C121.729 108.431 121.537 108.335 121.441 108.335H121.249V108.719H121.441ZM121.441 108.815H121.249V109.295H121.057V108.143H121.537C121.825 108.143 122.017 108.239 122.017 108.527C122.017 108.719 121.921 108.815 121.729 108.815L122.017 109.295H121.825L121.441 108.815ZM122.305 108.719C122.305 108.239 121.921 107.855 121.537 107.855C121.057 107.855 120.769 108.239 120.769 108.719C120.769 109.199 121.153 109.583 121.537 109.583C121.921 109.583 122.305 109.199 122.305 108.719ZM121.537 107.759C122.113 107.759 122.593 108.239 122.593 108.815C122.593 109.391 122.113 109.871 121.537 109.871C120.961 109.871 120.481 109.391 120.481 108.815C120.481 108.143 120.865 107.759 121.537 107.759ZM103.393 68.687C102.241 68.687 101.089 68.783 99.9367 68.591C95.6167 67.727 99.3607 62.9269 100.225 60.9109C102.049 62.5429 104.065 66.191 103.393 68.687ZM91.0086 79.7271C90.9126 80.4952 90.6246 80.8792 90.1446 81.4552C89.2806 81.4552 88.4166 81.0712 88.2246 80.2071C87.9366 79.5351 88.2246 78.5751 88.2246 77.9031C88.4166 75.4071 88.6086 72.4311 89.4726 70.223C90.3366 72.1431 90.0486 74.2551 90.4326 76.3671C90.6246 77.4231 91.2006 78.4791 91.0086 79.7271ZM72.8644 71.663C75.1684 72.8151 75.9364 74.7351 75.8404 75.6951C75.8404 75.9831 75.6484 76.2711 75.6484 76.2711C75.6484 76.2711 75.0724 76.4631 74.4004 76.1751C72.5764 75.5031 72.8644 73.5831 72.8644 71.663ZM69.4084 64.463C69.2164 64.559 68.9283 64.367 68.7363 64.271C66.2403 63.3109 67.2963 61.6789 68.1603 59.9509C70.0804 60.7189 70.4644 63.983 69.4084 64.463ZM56.4482 78.5751C54.5282 78.9591 53.1842 76.7511 54.0482 75.2151C54.4322 74.5431 55.0082 74.2551 55.5842 73.8711C56.3522 73.9671 57.0242 73.9671 57.6002 74.4471C59.2322 75.7911 58.3682 78.1911 56.4482 78.5751ZM111.361 73.4871C110.977 71.663 112.897 70.031 112.033 68.207C111.169 66.383 106.753 66.479 106.657 64.271C106.561 61.7749 110.209 63.0229 111.745 63.1189C111.745 59.0869 110.209 55.7269 105.889 58.4149C105.121 58.4149 104.161 58.2229 103.873 57.6469C102.625 55.2469 106.561 54.7668 106.657 52.8468C106.753 51.7908 105.409 51.0228 104.929 50.1588C104.641 49.5828 104.929 48.8148 104.929 48.1428C104.929 47.8548 104.641 47.8548 104.449 47.8548C103.681 47.6628 102.913 48.1428 102.049 47.9508C101.089 47.7588 100.609 46.8948 99.7447 46.5107C99.7447 46.8948 99.1687 47.2788 98.9767 47.5668C98.4007 48.4308 96.1927 51.4068 94.8487 50.0628C94.3687 49.5828 94.3686 48.6228 94.5607 47.9508C95.3287 42.7667 93.4086 42.2867 88.8966 41.5187C87.8406 41.3267 84.9605 40.6547 83.7125 41.0387C83.7125 41.9027 84.8645 48.0468 82.8485 47.7588C80.4485 47.7588 81.7925 41.6147 78.3365 40.8467C77.7605 41.0387 76.9924 41.1347 76.7044 41.7107C76.2244 42.3827 77.1844 44.5907 77.3764 45.3587C77.6644 46.4147 77.5685 47.8548 77.1844 48.7188V48.9108C73.3444 48.9108 73.7284 40.3667 67.6803 44.5907C67.6803 46.8948 73.1524 49.7748 71.2324 52.2708C70.9444 52.6548 70.3684 53.0388 69.8884 53.1348C66.9123 53.5188 65.7603 47.1828 62.4963 47.7588C61.9203 47.8548 61.4403 48.2388 61.2483 48.7188C60.4802 50.2548 64.1283 52.3668 64.6083 53.9028C64.8963 54.6708 64.6083 55.4389 64.5123 56.2069C61.7283 56.2069 58.4642 52.2708 55.9682 54.7668C55.5842 55.1508 55.1042 55.7269 55.2962 56.3029C55.5842 57.3589 57.4082 57.1669 57.9842 58.1269C57.9842 58.1269 57.9842 58.2229 58.0802 58.2229C59.0402 60.4309 56.8322 62.0629 56.8322 64.079C56.8322 65.039 57.6002 65.615 57.3122 66.767C56.2562 70.511 52.7042 66.383 50.9761 67.919C49.4401 69.359 51.1681 72.3351 51.2641 73.9671C51.3601 75.0231 50.6881 75.8871 50.6881 76.9431C50.5921 77.9031 51.3601 78.6711 51.5521 79.5351C51.8401 80.6871 51.5521 82.0312 52.2242 83.0872C54.1442 86.0632 57.4082 77.9991 58.8482 81.3592C60.0002 84.0472 54.0482 83.9512 53.9522 85.9672C53.7602 87.9832 57.4082 89.9033 58.7522 91.2473C60.0002 92.3993 60.8643 93.9353 61.0563 95.5673C61.2483 97.1994 60.3842 98.9274 60.0002 100.367C60.5763 100.367 61.0563 100.655 61.7283 100.463C64.7043 99.5994 66.5283 94.7993 66.0483 91.8233C65.6643 89.3273 64.2243 87.2152 64.1283 84.6232C63.9363 82.0312 66.4323 77.7111 64.0323 75.8871C63.9363 75.7911 63.8403 75.7911 63.7443 75.6951C63.7443 75.9831 63.1683 76.0791 62.8803 76.0791C62.4003 76.0791 61.9203 75.8871 61.5363 75.5991C61.0563 75.2151 60.6723 74.5431 61.1523 73.9671C61.7283 73.1031 63.3603 73.2951 63.5523 72.1431C63.9363 69.647 58.6562 69.167 61.9203 65.999C62.4963 65.423 63.3603 64.943 64.2243 65.039C65.6643 65.135 69.3124 66.191 69.1203 68.111C69.0243 68.975 68.2563 69.743 68.6403 70.703C68.9283 71.663 70.4644 71.567 70.8484 72.5271C71.3284 73.7751 70.2724 74.7351 70.3684 75.9831C70.3684 76.2711 70.5604 76.3671 70.7524 76.5591C71.2324 76.9431 72.0964 77.0391 72.3844 77.6151C73.0564 79.0551 71.2324 80.8792 73.6324 81.7432C73.6324 80.6872 73.4404 79.2471 74.3044 78.7671C74.3044 79.0551 74.7844 79.3431 74.9764 79.6311C75.7444 80.7831 76.0324 81.9352 77.5685 82.3192C77.6645 80.1111 76.3204 78.1911 76.3204 78.0951C77.4725 78.0951 78.1445 79.5351 79.3925 79.2471C80.5445 78.9591 79.4885 77.7111 79.2965 77.1351C78.5285 75.5991 79.5845 74.3511 79.2005 73.0071C78.7205 71.471 74.6884 70.511 73.4404 69.263C73.0564 68.879 72.5764 68.207 72.7684 67.631C73.5364 65.327 76.3204 66.671 78.2405 66.095C79.1045 65.807 79.8725 65.231 80.4485 64.463C81.3125 63.503 81.9845 61.8709 81.4085 60.5269C81.1205 59.7589 80.5445 59.0869 80.6405 58.1269C81.2165 53.9028 88.0326 54.1908 91.0086 55.7269C92.5446 56.4949 93.9846 58.3189 93.1206 60.1429C92.4486 61.7749 90.5286 60.8149 89.0886 61.3909C87.9366 61.8709 86.3046 64.271 85.9206 65.423C85.3445 67.151 86.9766 68.399 87.1686 70.127C87.3606 73.7751 85.7285 77.1351 84.9605 80.3991C84.8645 80.9752 85.3445 81.8392 85.0565 82.3192C84.5765 83.1832 83.4245 82.8952 82.5605 83.1832C81.8885 83.4712 81.6005 83.9512 81.0245 84.3352C79.7765 85.1032 78.2405 85.4872 78.1445 87.2152C78.9125 87.2152 79.4885 86.8312 80.3525 86.7352C80.4485 86.7352 80.5445 86.8312 80.5445 86.9272C80.5445 87.0232 80.5445 87.0232 80.5445 87.1192C80.3525 88.6552 79.1045 89.9033 79.8725 91.4393C80.9285 91.4393 81.2165 88.9432 82.9445 89.6153C83.1365 89.6153 83.1365 89.6153 83.1365 89.8073C83.5205 90.9593 83.6165 91.9193 84.2885 92.9753C84.4805 92.9753 85.0565 92.7833 84.9605 92.3993C84.9605 91.3433 84.7685 89.7113 85.1525 88.8473C85.6325 87.5032 86.5926 87.6952 86.4006 85.8712C86.6886 85.8712 86.9766 85.3912 87.2646 85.2952C89.4726 84.5272 89.7606 83.2792 92.5446 83.3752C93.2166 83.3752 93.8886 83.4712 94.4647 83.6632C94.9447 83.6632 94.7527 82.8952 94.5607 82.3192C93.6006 79.1511 92.3526 75.8871 92.3526 72.2391H92.8326C92.8326 72.6231 94.4646 74.8311 94.7527 75.4071C95.1367 76.0791 96.4807 79.1511 97.6327 78.4791C98.2087 78.1911 98.4967 74.3511 98.8807 73.4871C100.033 70.319 103.393 69.647 105.313 72.7191C107.137 75.5991 105.985 81.6472 103.681 83.8552C102.721 84.7192 101.473 84.7192 100.513 85.4872C99.5527 86.3512 100.417 87.8872 100.225 89.0392C100.129 90.0953 99.3607 91.0553 98.5927 91.7273C96.8647 93.3593 94.6567 94.1273 92.9286 95.6633C92.1606 96.3353 92.0646 97.3913 91.1046 97.7754C90.2406 98.1594 89.1846 97.6794 88.2246 97.9674C87.5526 98.3514 86.8806 98.8314 86.2086 99.2154C84.9605 99.8874 82.9445 100.943 82.2725 101.135C82.2725 103.727 88.6086 102.383 89.8566 101.711C90.8166 101.231 91.0086 99.9834 91.9686 99.5994C92.9286 99.2154 93.7926 100.175 94.8487 99.7914C95.8087 99.4074 96.7687 98.6394 97.6327 98.0634C99.2647 96.9113 101.089 95.9513 102.625 94.7033C103.105 94.2233 103.969 93.6473 104.161 92.9753C104.545 91.8233 102.817 89.1353 105.889 89.6153C108.289 89.9033 110.689 85.1032 111.169 83.3752C111.457 82.0312 111.745 80.6872 111.937 79.3431C112.321 78.5751 112.609 77.7111 112.897 76.9431C113.473 74.9271 111.649 74.9271 111.361 73.4871ZM109.633 114.768L112.801 111.12L109.825 107.855H113.761L115.009 109.679L116.257 107.855H120.193L117.217 111.12L120.481 114.768H116.449L115.105 112.848L113.761 114.768H109.633ZM104.065 112.944C105.313 112.944 105.889 112.368 105.889 111.216C105.889 110.16 105.313 109.487 104.065 109.487C102.817 109.487 102.241 110.063 102.241 111.216C102.241 112.368 102.721 112.944 104.065 112.944ZM104.065 107.471C107.617 107.471 109.249 108.623 109.249 111.216C109.249 113.808 107.713 114.96 104.065 114.96C100.513 114.96 98.8807 113.808 98.8807 111.216C98.8807 108.719 100.417 107.471 104.065 107.471ZM92.6406 109.775C91.4886 109.775 90.9126 110.447 90.9126 111.312C90.9126 112.272 91.3926 112.848 92.6406 112.848C93.8886 112.848 94.3687 112.272 94.3687 111.312C94.3687 110.351 93.8886 109.775 92.6406 109.775ZM94.4647 114C93.8886 114.672 93.0246 115.056 91.5846 115.056C89.5686 115.056 87.6486 113.904 87.6486 111.312C87.6486 108.719 89.5686 107.567 91.5846 107.567C92.9286 107.567 93.7926 107.855 94.3687 108.527V105.263H97.5367V114.672H94.4647V114ZM83.1365 111.6C82.5605 111.696 81.6965 111.792 80.5445 111.888C79.9685 111.984 79.6805 112.176 79.6805 112.56C79.6805 113.04 80.0645 113.328 80.8325 113.328C81.8885 113.328 83.0405 113.04 83.0405 111.888L83.1365 111.6ZM76.8004 109.871C76.9924 108.911 77.3764 108.335 78.1445 107.951C78.9125 107.567 80.0645 107.471 81.7925 107.471C85.0565 107.471 86.3046 108.239 86.3046 110.256V113.616C86.3046 114.192 86.4006 114.48 86.5926 114.672H83.3285C83.2325 114.48 83.2325 114.288 83.2325 114C82.5605 114.672 81.4085 114.96 79.7765 114.96C77.6644 114.96 76.3204 114.384 76.3204 112.656C76.3204 111.408 77.1844 110.544 79.5845 110.448L82.2725 110.351C82.9445 110.351 83.1365 110.16 83.1365 109.775C83.1365 109.295 82.5605 109.103 81.6965 109.103C80.9285 109.103 80.2565 109.199 80.0645 109.871H76.8004ZM68.5443 107.759H71.6164V109.103C72.4804 108.047 73.4404 107.567 74.5924 107.567C74.9764 107.567 75.2644 107.567 75.6484 107.663V110.544C75.0724 110.448 74.5924 110.256 74.0164 110.256C72.8644 110.256 71.7124 110.64 71.7124 112.08V114.672H68.5443V107.759ZM63.7443 111.6C63.1683 111.696 62.3043 111.792 61.1523 111.888C60.5763 111.984 60.2882 112.176 60.2882 112.56C60.2882 113.04 60.6723 113.328 61.4403 113.328C62.4963 113.328 63.6483 113.04 63.6483 111.888L63.7443 111.6ZM57.4082 109.871C57.6002 108.911 57.9842 108.335 58.7522 107.951C59.5202 107.567 60.6723 107.471 62.4003 107.471C65.6643 107.471 66.9123 108.239 66.9123 110.256V113.616C66.9123 114.192 67.0083 114.48 67.2003 114.672H63.9363C63.8403 114.48 63.8403 114.288 63.8403 114C63.1683 114.672 62.0163 114.96 60.3842 114.96C58.2722 114.96 56.9282 114.384 56.9282 112.656C56.9282 111.408 57.7922 110.544 60.1922 110.448L62.8803 110.351C63.5523 110.351 63.7443 110.16 63.7443 109.775C63.7443 109.295 63.1683 109.103 62.3043 109.103C61.5363 109.103 60.8643 109.199 60.6723 109.871H57.4082ZM50.9761 112.848C52.1281 112.848 52.7042 112.176 52.7042 111.312C52.7042 110.351 52.2241 109.775 50.9761 109.775C49.7281 109.775 49.2481 110.351 49.2481 111.312C49.2481 112.272 49.8241 112.848 50.9761 112.848ZM46.0801 107.759H49.1521V108.623C49.7281 107.951 50.5921 107.567 52.0321 107.567C54.0482 107.567 55.9682 108.719 55.9682 111.312C55.9682 113.904 54.0482 115.056 52.0321 115.056C50.6881 115.056 49.8241 114.768 49.2481 114.096V117.264H46.0801V107.759ZM117.025 118.128H120.193V118.8H117.985V119.472H120.097V120.048H117.985V120.816H120.193V121.488H117.025V118.128ZM109.153 118.128H110.113L111.073 120.72L112.033 118.128H112.993L111.457 121.488H110.497L109.153 118.128ZM104.353 121.488H105.313V118.128H104.353V121.488ZM98.1127 118.8H96.8647V118.128H100.321V118.8H99.0727V121.488H98.1127V118.8ZM92.0646 119.376C91.9686 118.896 91.5846 118.608 91.1046 118.608C90.2406 118.608 90.0486 119.28 90.0486 119.76C90.0486 120.24 90.2406 120.912 91.1046 120.912C91.5846 120.912 91.9686 120.72 92.0646 120.144H93.0246C92.9286 121.104 92.0646 121.488 91.0086 121.488C89.7606 121.488 88.9926 121.008 88.9926 119.664C88.9926 118.416 89.7606 117.84 91.0086 117.84C91.7766 117.84 92.8326 118.032 93.0246 119.184L92.0646 119.376ZM83.2325 118.8L82.6565 120.144H83.7125L83.2325 118.8ZM84.0005 120.816H82.4645L82.1765 121.488H81.2165L82.6565 118.128H83.8085L85.2485 121.488H84.2885L84.0005 120.816ZM74.7844 119.568H76.0324C76.2244 119.568 76.5124 119.472 76.5124 119.184C76.5124 118.896 76.2244 118.8 76.0324 118.8H74.8804L74.7844 119.568ZM73.9204 118.128H76.4164C77.3764 118.128 77.4724 118.704 77.4724 119.088C77.4724 119.472 77.2804 119.76 76.8964 119.856C77.2804 119.952 77.3764 120.432 77.3764 120.72C77.3764 120.912 77.3765 121.296 77.5685 121.488H76.6084C76.5124 121.296 76.5124 121.2 76.5124 120.816C76.5124 120.336 76.3204 120.24 76.0324 120.24H74.8804V121.488H73.9204V118.128ZM66.5283 118.128H69.6964V118.8H67.4883V119.472H69.6004V120.048H67.4883V120.816H69.6964V121.488H66.5283V118.128ZM60.3842 118.8H59.1362V118.128H62.5923V118.8H61.3443V121.488H60.3842V118.8ZM54.2402 118.128H55.1042V121.488H54.1442L52.3202 119.184V121.488H51.4561V118.128H52.5122L54.2402 120.432V118.128ZM46.1761 121.488H47.1361V118.128H46.1761V121.488Z" fill="white"/>
</g>
</svg>
