<svg width="170" height="150" viewBox="0 0 170 150" fill="none" xmlns="http://www.w3.org/2000/svg">
<g opacity="0.6">
<path fill-rule="evenodd" clip-rule="evenodd" d="M99.7686 89.6149L107.871 106.835H93.121L88.8963 96.0627L84.2036 99.2896L81.7953 106.835H70.6993L77.4264 85.8089H52.9645C56.6269 74.9985 64.5228 71.7217 71.718 70.2656L80.5942 68.4801C82.1015 68.1948 83.1025 67.4712 83.4793 66.2946C84.0004 64.6797 82.2222 64.0296 79.5844 64.0296C76.5079 64.0296 73.3048 64.309 71.8063 67.9565H59.6504C63.5954 58.2819 73.2901 56.9876 80.4647 56.9876C89.703 56.9876 97.852 58.6054 95.3408 66.4622C93.6274 71.8011 87.4331 73.9513 83.1349 74.7132L72.3509 76.6193C69.7808 77.0664 68.2823 77.7077 67.2519 78.7666H90.7923L87.6039 88.6707L101.085 78.7666H115.79L99.7686 89.6149ZM127.431 52.543H64.0429C62.5768 52.543 61.0459 53.5107 60.6219 54.702L40.317 108.467C39.9019 109.658 40.741 110.626 42.2042 110.626H108.203C109.669 110.626 111.197 109.658 111.624 108.467L129.321 54.702C129.742 53.5107 128.894 52.543 127.431 52.543Z" fill="white"/>
</g>
</svg>
