<svg width="170" height="150" viewBox="0 0 170 150" fill="none" xmlns="http://www.w3.org/2000/svg">
<g opacity="0.6">
<path fill-rule="evenodd" clip-rule="evenodd" d="M116.281 81.1348H121.357V78.4824H116.281V81.1348Z" fill="white"/>
<path fill-rule="evenodd" clip-rule="evenodd" d="M97.8164 81.1348H102.893V78.4824H97.8164V81.1348Z" fill="white"/>
<path fill-rule="evenodd" clip-rule="evenodd" d="M37.5826 84.3968V75.3472H29.073V84.3968H31.8414V82.8823H34.8166V84.3968H37.5826ZM37.3734 72.9229C39.9071 72.9229 40.7161 73.6078 40.7161 76.2633V83.7127C40.7161 86.3698 39.9071 87.0539 37.3734 87.0539H34.8166V88.988H31.8414V87.0539H29.2822C26.7493 87.0539 25.9395 86.3698 25.9395 83.7127V76.2633C25.9395 73.6078 26.7493 72.9229 29.2822 72.9229H37.3734Z" fill="white"/>
<path fill-rule="evenodd" clip-rule="evenodd" d="M53.7908 84.3968H46.3249V72.9229H43.1914V83.7127C43.1914 86.3698 44.0012 87.0539 46.5334 87.0539H53.5816C56.1145 87.0539 56.9236 86.3698 56.9236 83.7127V72.9229H53.7908V84.3968Z" fill="white"/>
<path fill-rule="evenodd" clip-rule="evenodd" d="M63.3893 81.4123L66.2166 75.661L68.9452 81.4123H63.3893ZM64.8889 72.9229L57.7109 87.0539H60.6607L62.1356 83.959H70.1751L71.6993 87.0539H75.0182L67.7408 72.9229H64.8889Z" fill="white"/>
<path fill-rule="evenodd" clip-rule="evenodd" d="M79.3846 79.3035V75.3599H84.9699C85.9348 75.3599 86.3795 75.5522 86.3795 76.4834V78.1815C86.3795 79.1127 85.9348 79.3035 84.9699 79.3035H79.3846ZM86.3795 81.7135C88.4431 81.7135 89.4096 80.9467 89.4096 78.9753V75.661C89.4096 73.6896 88.4431 72.9229 86.3795 72.9229H76.3027V87.0539H79.3846V81.7135H81.464L86.327 87.0539H90.5759L85.1711 81.7135H86.3795Z" fill="white"/>
<path fill-rule="evenodd" clip-rule="evenodd" d="M113.691 75.3337H122.515V72.9229H110.559V87.0539H122.646V84.3968H113.691V75.3337Z" fill="white"/>
<path fill-rule="evenodd" clip-rule="evenodd" d="M135.419 80.3444C135.419 80.7822 135.472 81.6046 135.549 82.7814C135.079 82.2069 127.095 72.9229 127.095 72.9229H124.953V87.0539H127.773V79.4139C127.773 79.0023 127.747 78.2625 127.644 77.1676C128.008 77.6054 136.098 87.0539 136.098 87.0539H138.239V72.9229H135.419V80.3444Z" fill="white"/>
<path fill-rule="evenodd" clip-rule="evenodd" d="M140.832 87.0539H143.966V72.9229H140.832V87.0539Z" fill="white"/>
<path fill-rule="evenodd" clip-rule="evenodd" d="M155.399 79.4139L160.985 72.9229H157.56L153.661 77.7159L149.563 72.9229H145.615L151.799 79.7969L145.715 87.0539H149.24L153.56 81.5768L158.254 87.0539H162.304L155.399 79.4139Z" fill="white"/>
<path fill-rule="evenodd" clip-rule="evenodd" d="M95.2245 75.3337H104.048V72.9229H92.0918V87.0539H104.178V84.3968H95.2245V75.3337Z" fill="white"/>
<path fill-rule="evenodd" clip-rule="evenodd" d="M8.5918 84.3968C8.5918 86.4747 9.62756 87.0539 11.929 87.0539H20.3328C22.8649 87.0539 23.701 86.3698 23.701 83.7127V81.7683C23.701 79.1127 22.8649 78.4278 20.3328 78.4278H11.9234V75.3495H20.7504V76.6487L23.518 76.6471V76.0178C23.518 73.58 22.5777 72.9229 20.1761 72.9229H12.5248C9.9919 72.9229 9.18286 73.6078 9.18286 76.2633V77.8247C9.18286 80.481 9.9919 81.166 12.5248 81.166H20.9326V84.3968H8.5918Z" fill="white"/>
<path fill-rule="evenodd" clip-rule="evenodd" d="M167.859 87.0539H167.468V85.0856H167.458L166.683 87.0539H166.439L165.665 85.0856H165.653V87.0539H165.264V84.6963H165.865L166.571 86.4873L167.264 84.6963H167.859V87.0539ZM164.782 85.0117H164.044V87.0539H163.654V85.0117H162.916V84.6963H164.782V85.0117Z" fill="white"/>
</g>
</svg>
