<svg width="170" height="150" viewBox="0 0 170 150" fill="none" xmlns="http://www.w3.org/2000/svg">
<g clip-path="url(#clip0_744_5743)">
<g opacity="0.6">
<path d="M103.441 80.9613C101.942 84.5608 99.3936 87.6254 96.1276 89.7555C92.8617 91.8857 89.0299 92.9827 85.1315 92.9036C70.44 92.1685 66.1728 75.2241 75.9863 69.105L76.4159 69.5441C75.7416 70.2785 75.1845 71.1124 74.7644 72.0166C73.8545 73.7844 73.4171 75.7575 73.4947 77.7443C74.2584 89.5911 90.8497 92.0063 96.5679 80.2931C103.833 64.2078 84.5588 47.8552 67.4425 60.3607L67.0415 59.9693C71.5951 52.9146 80.3489 49.7644 88.7782 51.8646C91.7961 52.5854 94.6207 53.9556 97.055 55.8796C99.4893 57.8036 101.475 60.2352 102.873 63.005C104.272 65.7748 105.05 68.8162 105.153 71.9174C105.256 75.0185 104.681 78.1048 103.47 80.9613M89.7328 80.7036C89.1003 81.6207 88.2456 82.3624 87.2485 82.8593C86.2514 83.3562 85.1446 83.5921 84.0315 83.5449C82.9185 83.4977 81.8356 83.169 80.8841 82.5895C79.9327 82.01 79.1437 81.1987 78.5911 80.2314C78.0385 79.2641 77.7402 78.1724 77.7242 77.0585C77.7083 75.9445 77.9751 74.8448 78.4997 73.862C79.0243 72.8792 79.7897 72.0456 80.7241 71.439C81.6586 70.8324 82.7316 70.4728 83.8428 70.3937C84.9181 70.3362 85.9857 70.6049 86.9058 71.1644C87.8258 71.7239 88.5555 72.5483 88.9991 73.5295C89.4428 74.5107 89.5798 75.603 89.3922 76.6634C89.2045 77.7237 88.7011 78.7027 87.9477 79.4721L89.7328 80.7036ZM66.736 76.3601C66.5372 77.5972 66.4955 78.8546 66.6119 80.1022L66.0296 80.3122C65.4956 79.0426 65.1515 77.7013 65.0082 76.3314C64.6905 72.5363 65.8304 68.7627 68.1961 65.7782C70.5617 62.7937 73.9754 60.8223 77.7428 60.2652C85.1411 59.1865 92.2148 63.7687 93.8758 70.1932L93.2935 70.4128C92.803 69.7586 92.2671 69.1398 91.6898 68.5608C82.7641 59.6065 68.7789 63.7209 66.736 76.3696M109.045 72.0643C108.52 46.3851 74.3825 36.8198 61.2374 60.8762L63.204 62.289C62.2303 64.3195 61.5428 66.4752 61.1611 68.6945C60.5679 71.9905 60.6669 75.3739 61.4518 78.6295C62.2367 81.8852 63.6904 84.942 65.7205 87.6055C67.7506 90.269 70.3126 92.481 73.2437 94.101C76.1748 95.7209 79.4109 96.7133 82.7462 97.015C86.0815 97.3168 89.4432 96.9213 92.6174 95.8538C95.7917 94.7862 98.7091 93.07 101.184 90.814C103.659 88.5581 105.638 85.8119 106.995 82.75C108.351 79.6881 109.056 76.3774 109.064 73.0284C109.064 72.7039 109.064 72.3793 109.064 72.0738" fill="white"/>
<path d="M122.305 104.473H118.486V115.394H115.508V104.473H111.632V101.609H122.352L122.305 104.473ZM104.005 104.473V107.652H109.847V109.905H104.052V115.365H101.064V101.638H110.487V104.501L104.005 104.473ZM96.7687 108.52C96.7687 106.038 95.1936 104.234 92.7975 104.234C92.2298 104.213 91.6639 104.311 91.1362 104.521C90.6085 104.732 90.1306 105.05 89.7332 105.456L90.2009 105.924C89.7523 106.274 89.3937 106.726 89.1546 107.242C88.9155 107.758 88.803 108.324 88.8263 108.893C88.8181 109.412 88.9159 109.928 89.1138 110.408C89.3117 110.888 89.6055 111.323 89.9772 111.686C90.349 112.049 90.7908 112.332 91.2757 112.518C91.7607 112.704 92.2785 112.789 92.7975 112.768C95.1936 112.768 96.7687 110.964 96.7687 108.492V108.52ZM99.7948 108.52C99.8316 109.455 99.6766 110.386 99.3395 111.258C99.0023 112.13 98.4901 112.924 97.8345 113.59C97.1789 114.256 96.3937 114.781 95.5274 115.133C94.6611 115.484 93.732 115.654 92.7975 115.632C91.8938 115.675 90.9909 115.534 90.1434 115.217C89.296 114.9 88.5216 114.415 87.8674 113.79C87.2131 113.165 86.6925 112.414 86.3372 111.582C85.9818 110.75 85.7991 109.855 85.8001 108.95C85.7598 107.969 85.9444 106.992 86.3399 106.094C86.7353 105.195 87.3311 104.399 88.0817 103.766L87.6044 103.289C89.0217 102.002 90.8842 101.318 92.7975 101.38C93.7313 101.361 94.6591 101.533 95.5241 101.885C96.3892 102.238 97.1732 102.763 97.8283 103.428C98.4833 104.094 98.9956 104.887 99.3338 105.757C99.6719 106.628 99.8288 107.558 99.7948 108.492V108.52ZM81.3898 107.203C83.7477 108.024 84.9696 109.112 84.9696 111.212C84.9696 114.076 82.7835 115.632 80.1965 115.632C79.1547 115.714 78.1135 115.466 77.2207 114.923C76.3279 114.38 75.6289 113.569 75.223 112.606L77.6095 110.859C77.7971 111.428 78.1551 111.926 78.635 112.284C79.1148 112.643 79.6933 112.845 80.292 112.864C81.2466 112.864 81.9817 112.339 81.9817 111.451C81.9817 110.563 81.4471 110.115 79.4806 109.408C77.3613 108.645 75.7862 107.585 75.7862 105.303C75.7862 103.022 77.6095 101.437 80.2729 101.437C82.373 101.437 84.0054 102.277 84.7691 103.948L82.3921 105.599C82.243 105.131 81.9493 104.721 81.5532 104.43C81.157 104.138 80.6788 103.979 80.187 103.976C79.2801 103.976 78.6119 104.473 78.6119 105.179C78.6119 105.886 79.366 106.478 81.4757 107.203H81.3898ZM71.1754 115.394H74.1633V101.638H71.1754V115.394ZM65.0276 112.768C66.3068 112.768 67.0323 112.177 67.0323 111.041C67.0323 109.905 66.3068 109.313 65.0276 109.313H63.3762V112.768H65.0276ZM63.3762 104.272V107.184H64.9131C65.1142 107.2 65.3165 107.175 65.5072 107.109C65.6979 107.043 65.8729 106.939 66.0213 106.802C66.1696 106.665 66.2879 106.499 66.3689 106.314C66.4498 106.129 66.4916 105.93 66.4916 105.728C66.4916 105.526 66.4498 105.327 66.3689 105.142C66.2879 104.957 66.1696 104.791 66.0213 104.654C65.8729 104.518 65.6979 104.413 65.5072 104.347C65.3165 104.282 65.1142 104.256 64.9131 104.272H63.3762ZM70.0585 111.308C70.0585 113.685 68.1492 115.394 65.1804 115.394H60.4073V101.638H64.9799C67.6433 101.638 69.3902 102.917 69.3902 104.96C69.442 105.581 69.2939 106.202 68.9676 106.732C68.6413 107.263 68.1538 107.675 67.5765 107.909C68.3109 108.114 68.9543 108.561 69.4016 109.178C69.8489 109.796 70.0738 110.546 70.0394 111.308H70.0585ZM58.9085 101.638V109.905C58.9085 113.179 56.8943 115.632 53.1808 115.632C49.4674 115.632 47.4531 113.169 47.4531 109.905V101.638H50.4411V109.656C50.4411 111.661 51.3957 112.797 53.1331 112.797C54.8705 112.797 55.8251 111.661 55.8251 109.656V101.638H58.9085Z" fill="white"/>
</g>
</g>
<defs>
<clipPath id="clip0_744_5743">
<rect width="169.92" height="149.998" fill="white"/>
</clipPath>
</defs>
</svg>
