<svg width="170" height="150" viewBox="0 0 170 150" fill="none" xmlns="http://www.w3.org/2000/svg">
<g opacity="0.6">
<path fill-rule="evenodd" clip-rule="evenodd" d="M76.6647 104.668C76.7516 105.526 76.2287 106.311 75.3224 106.603C74.4306 106.891 73.5348 106.879 72.7164 106.368C71.4974 105.606 71.4715 104.016 72.6455 103.187C73.6591 102.472 75.3243 102.6 76.2126 103.464C76.263 103.513 76.3026 103.573 76.3493 103.631C76.0457 103.875 75.8029 103.966 75.4421 103.674C74.8141 103.166 73.7788 103.181 73.1038 103.619C72.2139 104.198 72.2448 105.407 73.1632 105.935C74.0732 106.459 75.3487 106.208 75.8017 105.415C75.8255 105.374 75.8394 105.327 75.8861 105.214H75.033H74.153V104.668H76.6647Z" fill="white"/>
<path fill-rule="evenodd" clip-rule="evenodd" d="M51.9888 103.444V106.079C52.7216 106.079 53.4374 106.126 54.144 106.065C54.8261 106.006 55.2636 105.428 55.2479 104.756C55.2318 104.08 54.7782 103.507 54.1165 103.456C53.4198 103.402 52.716 103.444 51.9888 103.444ZM51.3496 106.615V102.816C52.4059 102.856 53.4572 102.822 54.4875 102.954C55.4173 103.073 55.9507 103.885 55.9241 104.863C55.9006 105.712 55.2633 106.523 54.3938 106.596C53.3929 106.678 52.3793 106.615 51.3496 106.615Z" fill="white"/>
<path fill-rule="evenodd" clip-rule="evenodd" d="M106.238 105.225C105.907 104.601 105.607 104.037 105.272 103.406C104.928 104.051 104.626 104.618 104.304 105.225H106.238ZM107.65 106.652C107.016 106.713 106.998 106.721 106.753 106.175C106.623 105.885 106.457 105.781 106.137 105.797C105.571 105.827 105.001 105.828 104.435 105.797C104.087 105.778 103.867 105.879 103.773 106.214C103.648 106.663 103.348 106.77 102.893 106.641C102.923 106.555 102.943 106.465 102.985 106.385C103.572 105.278 104.159 104.171 104.751 103.065C104.911 102.765 105.612 102.741 105.77 103.035C106.385 104.183 106.992 105.336 107.602 106.488C107.623 106.528 107.628 106.576 107.65 106.652Z" fill="white"/>
<path fill-rule="evenodd" clip-rule="evenodd" d="M96.5491 102.883V103.407H94.7343V106.659H94.1078V103.438H92.3008V102.883H96.5491Z" fill="white"/>
<path fill-rule="evenodd" clip-rule="evenodd" d="M115.043 102.872H115.652V106.101H118.605V106.648H115.043V102.872Z" fill="white"/>
<path fill-rule="evenodd" clip-rule="evenodd" d="M84.2988 106.659H84.9021V102.864H84.2988V106.659Z" fill="white"/>
<path fill-rule="evenodd" clip-rule="evenodd" d="M63.5742 106.662H64.1336V102.881H63.5742V106.662Z" fill="white"/>
<path fill-rule="evenodd" clip-rule="evenodd" d="M138.214 101.928C138.118 101.965 137.964 101.965 137.884 101.909C137.027 101.339 136.074 101.296 135.103 101.407C134.825 101.438 134.677 101.355 134.522 101.145C134.114 100.594 133.759 99.9897 133.112 99.6538C133.041 99.6169 133.029 99.4166 133.029 99.2964C133.029 96.2152 133.035 93.134 133.044 90.0528C133.051 88.1178 133.072 86.1829 133.072 84.2509C133.072 83.872 133.029 83.4899 132.976 83.1109C132.859 82.2697 132.352 81.7706 131.535 81.5795C131.189 81.4994 130.83 81.4347 130.475 81.4193C129.832 81.3854 129.445 81.6905 129.318 82.319C129.256 82.6302 129.228 82.9538 129.228 83.2711C129.21 86.4879 129.198 89.7047 129.191 92.9214C129.191 93.8181 129.207 94.7178 129.241 95.6144C129.25 95.9194 129.318 96.2245 129.39 96.5203C129.423 96.6589 129.501 96.8037 129.603 96.8962C129.689 96.9794 129.844 97.0379 129.958 97.0225C130.02 97.0163 130.094 96.8315 130.097 96.7236C130.113 96.1967 130.104 95.6668 130.104 95.1461C130.583 95.0844 130.602 95.0998 130.654 95.5158C130.843 96.9547 131.031 98.3936 131.208 99.7524C130.521 99.9805 129.869 100.212 129.201 100.406C129.053 100.449 128.839 100.399 128.697 100.322C127.763 99.8017 126.78 99.4659 125.698 99.5275C125.231 99.5553 124.77 99.6631 124.303 99.697C124.126 99.7093 123.913 99.6693 123.765 99.5768C123.199 99.2256 122.648 98.8558 122.107 98.4707C122.021 98.409 121.974 98.2211 121.993 98.104C122.191 96.7914 122.404 95.4788 122.615 94.1693C122.643 93.9906 122.676 93.815 122.714 93.6085C122.893 93.6424 123.035 93.6702 123.211 93.7041C123.211 94.2032 123.205 94.6931 123.214 95.183C123.217 95.3525 123.214 95.5497 123.298 95.6822C123.381 95.8178 123.57 95.8855 123.712 95.9811C123.802 95.8517 123.957 95.7253 123.966 95.5897C124.012 95.0875 124.019 94.5791 124.022 94.0769C124.024 91.6366 124.024 89.1963 124.022 86.756C124.022 85.9302 124.037 85.1044 124 84.2818C123.932 82.7905 123.499 81.3793 122.977 79.9958C122.859 79.6846 122.847 79.5028 123.184 79.3149C123.672 79.0437 123.715 78.7017 123.406 78.2395C123.316 78.107 123.23 77.9622 123.109 77.8636C122.76 77.5801 122.747 77.2905 122.924 76.8746C123.82 74.767 124.108 72.5547 124.071 70.2746C124.034 67.859 124.065 65.4433 124.065 63.0277C124.065 62.5747 124.062 62.1187 124.056 61.6658C124.049 61.4532 123.981 61.2282 123.734 61.2714C123.617 61.2899 123.459 61.5025 123.443 61.6411C123.394 62.1279 123.397 62.6209 123.381 63.1139C123.375 63.2587 123.378 63.4066 123.378 63.5545C123.014 63.6223 122.884 63.5145 122.844 63.1509C122.68 61.6011 122.476 60.0512 122.296 58.5969C122.933 58.4028 123.533 58.2117 124.142 58.0423C124.263 58.0084 124.445 58.0084 124.541 58.0762C125.326 58.6462 126.232 58.8126 127.163 58.8557C128.372 58.9081 129.587 58.8434 130.793 58.9481C133.604 59.1946 135.898 60.3932 137.42 62.8366C137.986 63.7425 138.223 64.7593 138.221 65.8285C138.214 69.2424 138.23 72.6564 138.196 76.0673C138.174 77.9776 137.145 79.3179 135.595 80.3255C135.472 80.4056 135.345 80.4796 135.221 80.5597C135.212 80.5658 135.206 80.5782 135.19 80.5966C135.769 81.2406 136.362 81.8507 136.9 82.507C137.763 83.5608 138.186 84.747 138.165 86.1459C138.109 89.9666 138.134 93.7873 138.131 97.6079C138.131 97.8267 138.128 98.0609 138.205 98.2581C138.26 98.3998 138.449 98.4861 138.579 98.597C138.657 98.4614 138.793 98.3289 138.802 98.1872C138.829 97.685 138.811 97.1796 138.811 96.6404C138.991 96.6774 139.133 96.7082 139.306 96.7421C139.504 98.2611 139.702 99.7833 139.893 101.25C139.321 101.484 138.771 101.715 138.214 101.928ZM120.778 94.6377C120.002 94.2371 119.176 94.1508 118.329 94.2956C117.321 94.4682 116.347 94.3881 115.379 94.0522C114.832 93.8643 114.263 93.6979 113.694 93.6394C113.258 93.5962 112.794 93.701 112.361 93.8088C112.129 93.8643 111.984 93.852 111.801 93.7071C111.449 93.4206 111.065 93.171 110.707 92.8906C110.639 92.8382 110.583 92.715 110.593 92.6349C110.722 91.424 110.868 90.2161 111.007 89.0114C111.471 88.922 111.468 88.9313 111.461 89.3719C111.452 89.8279 111.455 90.2839 111.504 90.7369C111.52 90.8694 111.706 90.9803 111.814 91.1035C111.91 90.9803 112.058 90.8724 112.092 90.7338C112.142 90.5243 112.114 90.2932 112.114 90.0713C112.111 87.175 112.123 84.2787 112.098 81.3854C112.086 80.2331 111.833 79.1146 111.366 78.0547C111.257 77.8112 111.251 77.6449 111.464 77.4446C111.938 76.9978 111.95 76.853 111.526 76.3662C111.279 76.0827 111.245 75.8639 111.427 75.525C111.922 74.613 112.142 73.6177 112.148 72.5824C112.16 69.6245 112.163 66.6665 112.17 63.7086C112.17 63.5853 112.194 63.4498 112.148 63.3419C112.098 63.2248 111.972 63.04 111.897 63.0492C111.773 63.0615 111.631 63.1879 111.564 63.305C111.499 63.4097 111.511 63.5638 111.508 63.6994C111.501 64.0907 111.504 64.4851 111.504 64.8764C111.474 64.9041 111.44 64.9318 111.406 64.9596C111.294 64.861 111.103 64.7716 111.087 64.6576C110.939 63.5484 110.818 62.433 110.691 61.3207C110.685 61.2621 110.691 61.2005 110.691 61.1851C111.162 60.9509 111.603 60.7198 112.058 60.5134C112.151 60.4703 112.306 60.4641 112.392 60.5134C113.493 61.1296 114.674 61.2067 115.88 61.0064C116.891 60.84 117.84 61.0002 118.78 61.3546C119.272 61.5394 119.758 61.7921 120.314 61.675C120.326 61.6719 120.342 61.675 120.351 61.6688C121.053 61.2529 121.575 61.6134 122.083 62.0632C122.2 62.168 122.333 62.2604 122.488 62.3837C121.947 63.3912 122.037 64.4943 122.033 65.585C122.033 66.645 121.996 67.7049 122.039 68.7648C122.067 69.4088 122.225 70.0497 122.306 70.6968C122.321 70.8447 122.306 71.0788 122.209 71.1528C121.168 71.9662 120.716 73.0477 120.7 74.3449C120.419 74.3973 120.305 74.2925 120.289 74.0275C120.221 72.7211 119.646 71.6458 118.728 70.7399C118.58 70.592 118.561 70.4687 118.641 70.29C118.966 69.5567 119.087 68.7833 119.074 67.9853C119.052 66.8668 119.071 65.7453 118.997 64.6268C118.932 63.6901 118.418 63.2248 117.571 63.1879C117.089 63.1663 116.74 63.3512 116.594 63.8134C116.477 64.1954 116.396 64.6052 116.393 65.0027C116.366 68.0839 116.359 71.1651 116.356 74.2463C116.356 74.6222 116.418 75.0043 116.477 75.3802C116.505 75.5435 116.573 75.7191 116.675 75.8516C116.87 76.1043 117.144 76.2152 117.457 76.0981C117.763 75.9841 117.899 75.7314 117.831 75.4202C117.754 75.0751 117.602 74.7454 117.525 74.4004C117.352 73.6331 117.513 73.3281 118.236 73.0015C118.381 72.9368 118.533 72.8875 118.675 72.832C118.703 72.8659 118.731 72.8906 118.725 72.8967C118.357 73.5253 118.678 73.969 119.111 74.3911C119.464 74.73 119.745 75.1152 119.829 75.6113C119.94 76.2398 119.609 76.6342 119.08 76.9331C119.433 77.2474 119.773 77.5463 120.144 77.8759C119.76 78.0824 119.411 78.2734 119.043 78.4737C119.21 78.6616 119.368 78.8188 119.501 78.9913C120.039 79.7 119.94 80.5627 119.256 81.1235C119.074 81.2714 118.882 81.407 118.7 81.5518C118.246 81.9123 118.208 82.0725 118.446 82.5933C118.481 82.6703 118.518 82.7473 118.555 82.8336C117.692 82.6949 117.176 81.8969 117.417 81.0711C117.503 80.7784 117.661 80.5073 117.763 80.2177C117.961 79.66 117.782 79.2132 117.306 79.0191C116.907 78.8558 116.554 78.9944 116.477 79.4104C116.39 79.9034 116.338 80.4118 116.334 80.914C116.322 84.217 116.322 87.5201 116.322 90.8201C116.322 91.9539 117.244 92.6534 118.354 92.3298C118.551 92.2713 118.787 92.031 118.836 91.8338C118.95 91.3747 119 90.8909 119.009 90.4164C119.034 89.2825 119.05 88.1456 119.006 87.0148C118.978 86.3431 118.827 85.6775 118.728 85.0089C118.7 84.8117 118.663 84.6423 118.889 84.5036C119.94 83.8565 120.366 82.8644 120.426 81.6751C120.428 81.5795 120.426 81.4809 120.426 81.3854C120.688 81.293 120.775 81.3639 120.793 81.6165C120.821 82.0109 120.867 82.4022 120.957 82.7843C121.164 83.6871 121.619 84.4512 122.333 85.049C122.488 85.1753 122.559 85.2862 122.466 85.4803C122.03 86.4078 121.937 87.3876 121.965 88.3982C122.005 89.8125 121.99 91.2299 122.049 92.6472C122.067 93.1618 122.234 93.6732 122.343 94.234C121.993 94.3788 121.601 94.5575 121.195 94.6962C121.078 94.7393 120.898 94.7024 120.778 94.6377ZM109.909 64.7901C109.751 64.7809 109.621 64.7716 109.445 64.7593V63.6069C109.442 63.4837 109.464 63.3512 109.427 63.2403C109.389 63.1417 109.287 63.0646 109.214 62.9784C109.136 63.0585 109.009 63.1324 108.994 63.2218C108.926 63.61 108.889 64.0044 108.852 64.3957C108.691 66.0472 108.533 67.7018 108.379 69.3564C108.252 70.669 108.073 71.9755 108.029 73.2911C108.001 74.0768 108.19 74.8718 108.264 75.6636C108.277 75.7869 108.252 75.9656 108.168 76.0395C107.621 76.5325 107.454 76.7143 108.162 77.4538C108.249 77.5432 108.329 77.6325 108.441 77.7496C107.339 78.8743 107.281 80.3347 107.12 81.7644C106.935 83.4129 106.743 85.0644 106.557 86.7159C106.372 88.3397 106.189 89.9666 106.007 91.5934C105.982 91.8122 105.963 92.034 105.926 92.2528C105.914 92.3268 105.877 92.4223 105.818 92.4623C105.463 92.7212 105.095 92.9646 104.693 93.2419C104.096 92.7581 103.335 92.6996 102.547 92.792C102.402 92.8105 102.237 92.8198 102.117 92.8937C101.712 93.1433 101.418 93.0354 101.168 92.6657C101.1 92.5671 101.01 92.4593 100.902 92.41C100.491 92.2189 100.463 91.8861 100.435 91.4825C100.206 88.1425 99.9833 84.7994 99.6837 81.4655C99.5875 80.4118 99.2941 79.3703 99.0309 78.3381C98.9165 77.8944 98.6416 77.4939 98.4314 77.0502C98.9879 76.2213 98.9879 76.2213 98.3541 75.565C98.5489 75.032 98.7437 74.5205 98.9165 74.006C98.966 73.8581 98.9691 73.6886 98.957 73.5284C98.8238 71.504 98.6815 69.4766 98.5424 67.4523C98.4403 65.9147 98.3386 64.3803 98.2332 62.8459C98.2301 62.7966 98.2332 62.7442 98.2242 62.698C98.1747 62.47 98.15 62.1803 97.8436 62.1926C97.5192 62.205 97.5467 62.4946 97.5467 62.7288C97.5439 63.1725 97.5467 63.6162 97.5467 64.0876C97.411 64.0937 97.2966 64.0999 97.1451 64.1092C96.8977 62.8305 96.65 61.5702 96.4215 60.3932C96.8943 60.0789 97.3148 59.7955 97.748 59.5243C97.8219 59.4812 97.9641 59.475 98.0415 59.5151C99.2291 60.1067 100.454 60.0512 101.687 59.7215C101.928 59.6599 102.092 59.6938 102.293 59.8479C102.649 60.119 103.042 60.3408 103.468 60.6151V64.3741H103.082C103.023 63.915 102.967 63.4652 102.906 63.0184C102.893 62.9198 102.881 62.8181 102.834 62.7349C102.791 62.661 102.704 62.6086 102.636 62.547C102.59 62.6271 102.507 62.7041 102.507 62.7812C102.51 63.3481 102.522 63.912 102.553 64.4758C102.634 66.0257 102.714 67.5755 102.819 69.1223C102.912 70.4965 102.977 71.8769 103.177 73.2357C103.28 73.9228 103.635 74.5791 103.911 75.2323C103.994 75.4356 104.01 75.5712 103.855 75.7222C103.802 75.7746 103.759 75.8362 103.716 75.8947C103.342 76.3692 103.317 76.5233 103.694 76.9916C103.926 77.2782 103.957 77.5247 103.818 77.8605C103.496 78.6524 103.635 79.4874 103.666 80.3101C103.697 81.2437 103.753 82.1773 103.783 83.114C103.79 83.3574 103.87 83.4591 104.142 83.3944C104.17 83.0031 104.207 82.6025 104.229 82.2019C104.282 81.1543 104.352 80.1098 104.368 79.0653C104.371 78.6062 104.275 78.1378 104.185 77.6849C104.142 77.4723 104.124 77.309 104.285 77.1488C104.686 76.7575 104.696 76.3292 104.365 75.8947C104.161 75.6297 104.152 75.374 104.3 75.0782C104.962 73.7656 104.996 72.3267 105.129 70.9094C105.29 69.2178 105.454 67.5262 105.614 65.8377C105.698 64.9657 105.781 64.0968 105.861 63.2279C105.868 63.1663 105.89 63.0924 105.865 63.0431C105.793 62.9044 105.704 62.7719 105.624 62.6363C105.506 62.7565 105.314 62.8582 105.28 62.9999C105.169 63.4744 105.117 63.9643 105.03 64.4974C104.856 64.4881 104.723 64.4789 104.563 64.4666V60.6397C104.953 60.4302 105.324 60.2176 105.71 60.0327C105.818 59.9803 106.001 59.9557 106.093 60.0112C106.938 60.5134 107.816 60.5843 108.725 60.2515C108.978 60.1591 109.158 60.193 109.365 60.3593C109.699 60.6305 110.06 60.8647 110.453 61.142C110.28 62.3128 110.098 63.533 109.909 64.7901ZM99.2693 83.7579C98.9075 84.6977 98.7712 85.6806 98.7962 86.6882C98.8268 87.9422 98.821 89.1993 98.8952 90.4534C98.9258 91.0203 99.1116 91.5811 99.2381 92.1943C98.7931 92.4069 98.317 92.6349 97.8377 92.8506C97.757 92.8845 97.6271 92.8783 97.5532 92.8352C96.8699 92.4593 96.1494 92.4901 95.4255 92.6472C94.3467 92.8783 93.2982 92.6688 92.2407 92.4747C91.5449 92.3452 90.8279 92.3021 90.1198 92.2805C89.8662 92.2713 89.5941 92.41 89.3526 92.527C89.1179 92.6441 88.9661 92.5948 88.762 92.4438C88.3508 92.1388 87.9058 91.88 87.3953 91.5534C87.5162 90.515 87.6461 89.3596 87.7818 88.1795C87.9182 88.1702 88.0357 88.1641 88.1962 88.1579C88.1962 88.6108 88.1962 89.0391 88.1931 89.4674C88.1931 89.6769 88.2119 89.8926 88.4717 89.9111C88.7249 89.9296 88.8022 89.7416 88.8115 89.5198C88.8242 89.3349 88.8458 89.1531 88.8458 88.9683C88.8489 86.0966 88.8304 83.2249 88.8548 80.3532C88.8672 78.9235 88.6758 77.5586 87.8468 76.36C87.8746 76.3199 87.8839 76.2953 87.9027 76.283C88.6476 75.7068 88.6724 75.5373 88.0635 74.8102C87.9241 74.6468 87.8904 74.5174 87.9831 74.3202C88.6665 72.906 88.8984 71.4147 88.8613 69.8433C88.8056 67.4184 88.8489 64.9904 88.8458 62.5624C88.8458 62.3775 88.8548 62.1803 88.7933 62.0139C88.7469 61.8784 88.5985 61.7767 88.4964 61.6596C88.4003 61.7798 88.2333 61.8969 88.2209 62.0293C88.1807 62.4176 88.1996 62.815 88.1931 63.2094C88.1931 63.268 88.1872 63.3296 88.1838 63.4097H87.8409C87.7389 62.2235 87.6368 61.0495 87.5407 59.9341C88.0014 59.703 88.4126 59.4843 88.8335 59.2902C88.951 59.2347 89.1238 59.1916 89.2289 59.2378C90.373 59.7462 91.5298 59.74 92.6921 59.3487C92.9642 59.2563 93.1714 59.2871 93.4157 59.435C93.7991 59.6722 94.2103 59.8571 94.6649 60.0913C94.5845 60.6859 94.5013 61.3422 94.4116 61.9985C94.3498 62.4484 94.2601 62.8952 94.2199 63.3481C94.1952 63.6131 94.0653 63.6069 93.8427 63.5607C93.8427 63.2618 93.8489 62.9691 93.8362 62.6733C93.8303 62.5038 93.8362 62.3067 93.753 62.1742C93.6664 62.0417 93.4806 61.9092 93.3353 61.9061C93.2304 61.903 93.0941 62.1002 93.0233 62.2327C92.9676 62.3467 92.9766 62.4977 92.9766 62.6333C92.9676 65.4895 92.9488 68.3489 92.9583 71.2082C92.9642 72.3575 93.1253 73.4883 93.6231 74.5483C93.6664 74.6376 93.6074 74.7824 93.5672 74.8933C93.5458 74.958 93.4716 75.0043 93.4221 75.0597C93.0261 75.5188 93.0078 75.753 93.4373 76.1597C93.6943 76.4031 93.6943 76.5911 93.5579 76.89C93.1222 77.8328 92.9518 78.8342 92.9518 79.8695C92.9518 82.7658 92.9518 85.6621 92.9552 88.5554C92.9583 88.8388 92.98 89.1254 93.0291 89.3996C93.0662 89.5876 93.1312 89.7971 93.2487 89.9388C93.7777 90.5705 94.5013 90.5058 95.2001 90.3856C95.7907 90.2839 96.1277 89.8895 96.1336 89.2209C96.1494 87.3291 96.3473 85.4249 95.7783 83.57C95.7165 83.3728 95.7316 83.228 95.9051 83.0862C96.8293 82.319 97.2375 81.3084 97.2684 80.1314C97.2749 79.9003 97.3275 79.7678 97.59 79.8756C97.6583 80.2793 97.6985 80.6829 97.7941 81.0742C98.0136 81.9431 98.4839 82.6734 99.1395 83.2834C99.2941 83.4221 99.3525 83.5423 99.2693 83.7579ZM86.6319 75.0844C86.2701 75.525 86.267 75.6421 86.6288 76.0673C86.7398 76.1967 86.8607 76.3199 86.938 76.4031C86.7027 77.1734 86.4371 77.9098 86.2577 78.6678C86.1433 79.1639 86.1155 79.6908 86.1124 80.2053C86.1 82.4731 86.1059 84.7409 86.1059 87.0086C86.109 88.7341 85.5926 90.2531 84.331 91.4763C83.8057 91.9878 83.2086 92.41 82.4854 92.5917C82.2875 92.641 82.0089 92.6534 81.8515 92.5517C80.9981 92.0063 80.1106 92.0772 79.2727 92.4777C78.7192 92.7396 78.2461 92.715 77.7173 92.5116C76.9938 92.2343 76.3441 91.843 75.7817 91.31C74.9932 90.5705 74.6129 89.68 74.6221 88.5831C74.6469 85.6745 74.6221 82.7658 74.6345 79.8572C74.6376 78.8558 74.4026 77.9314 73.8674 77.0902C73.7316 76.8776 73.7316 76.7421 73.9323 76.6003C73.9913 76.5603 74.0408 76.4986 74.09 76.4463C74.4552 76.058 74.4552 75.8917 74.0869 75.5127C73.9759 75.3987 73.855 75.2908 73.7192 75.1583C74.4363 74.1107 74.6311 72.9614 74.6311 71.7598C74.628 69.2455 74.6778 66.7282 74.6129 64.217C74.5696 62.5686 75.2619 61.3114 76.4156 60.2607C76.8886 59.8325 77.4823 59.5151 78.0572 59.2255C78.2736 59.1145 78.645 59.1299 78.8673 59.2439C79.8351 59.7493 80.7999 59.7061 81.7553 59.2778C82.1576 59.096 82.5348 59.0622 82.9365 59.1762C84.5475 59.6291 86.1433 60.9016 86.1155 63.1879C86.0812 66.0103 86.0935 68.8326 86.1279 71.655C86.1402 72.7057 86.3409 73.7379 87.006 74.6407C86.882 74.7886 86.7553 74.9334 86.6319 75.0844ZM73.0637 63.9582C73.0637 63.5515 73.0885 63.1601 73.0513 62.775C73.039 62.6302 72.9617 62.4053 72.8936 62.2882C72.8844 62.2697 72.8748 62.2574 72.8655 62.245C72.8596 62.2389 72.8531 62.2327 72.8473 62.2265C72.8349 62.2142 72.8287 62.2111 72.8194 62.2111C72.5071 62.2296 72.5628 62.5377 72.5408 62.7534C72.3185 65.0089 72.099 67.2612 71.8887 69.5167C71.7833 70.6197 71.641 71.7228 71.6228 72.8259C71.6104 73.5407 71.7678 74.2617 71.8918 74.9735C71.9255 75.1737 71.9196 75.3001 71.765 75.4171L71.7372 75.4449C71.159 76.0426 71.1648 76.2152 71.7867 76.7914C71.8699 76.8653 71.9536 76.9362 72.0619 77.0286C71.53 77.7065 71.1435 78.4398 71.0044 79.2594C70.8621 80.0975 70.7817 80.9417 70.6887 81.786C70.5034 83.4498 70.3303 85.1137 70.1475 86.7775C69.9623 88.4506 69.7734 90.1268 69.5696 91.7999C69.5539 91.9262 69.4395 92.0556 69.3408 92.1542C69.087 92.4038 68.8244 92.6472 68.5523 92.8752C68.4781 92.9399 68.3235 93.0015 68.2555 92.9676C67.3433 92.5055 66.4652 92.6719 65.5901 93.0693C65.4788 93.1186 65.3705 93.1803 65.284 93.2234C64.9191 92.9646 64.5635 92.7242 64.2292 92.4593C64.1492 92.3976 64.1148 92.2466 64.1056 92.1326C63.9479 90.0467 63.8152 87.9576 63.6359 85.8747C63.4689 83.9644 63.2834 82.054 63.0422 80.1529C62.9278 79.2471 62.6031 78.3905 62.0094 77.6387C62.1115 77.5 62.2135 77.3645 62.3094 77.2227C62.5907 76.816 62.5842 76.6157 62.1854 76.323C61.9228 76.1289 61.9133 75.9872 62.0898 75.7283C62.6337 74.9211 62.5784 74.009 62.5103 73.0939C62.3557 71.0418 62.2225 68.9929 62.0802 66.9408C62.0029 65.8131 61.929 64.6823 61.8517 63.5515C61.8394 63.4066 61.836 63.2433 61.771 63.1201C61.7033 62.9968 61.5639 62.9167 61.4528 62.8181C61.3508 62.9352 61.1681 63.0492 61.156 63.1755C61.1189 63.6038 61.156 64.0383 61.1279 64.4666C61.122 64.5898 61.02 64.7778 60.9241 64.8086C60.6829 64.8825 60.7042 64.6545 60.6764 64.5066C60.4634 63.459 60.2497 62.4114 60.0398 61.3638C60.0209 61.2775 60.0209 61.1882 60.0209 61.1882C60.4788 60.8338 60.8681 60.5226 61.2735 60.2268C61.3632 60.1591 61.5209 60.0882 61.6105 60.1221C62.7825 60.5504 63.9231 60.3686 65.0456 59.9495C65.4138 59.8109 65.6952 59.7585 66.0381 60.0481C66.2982 60.2669 66.6723 60.347 67.0341 60.5042V64.2817C66.7586 64.4111 66.6383 64.3248 66.6133 64.0229C66.5857 63.6562 66.5332 63.2896 66.471 62.926C66.4494 62.7935 66.3631 62.6733 66.3071 62.547C66.2611 62.547 66.2144 62.5501 66.1683 62.5501C66.1371 62.7257 66.0721 62.8982 66.0752 63.0708C66.0941 63.7487 66.1278 64.4265 66.1683 65.1013C66.3041 67.3999 66.4559 69.6954 66.5885 71.9939C66.6507 73.0939 66.9444 74.123 67.501 75.0751C67.6306 75.3001 67.6154 75.448 67.4577 75.6236C67.4017 75.6852 67.3523 75.7592 67.3031 75.83C66.9503 76.3384 66.9379 76.4617 67.3368 76.93C67.535 77.1642 67.5474 77.3614 67.4825 77.6572C67.3588 78.2025 67.2629 78.7664 67.2691 79.321C67.2873 80.6213 67.3739 81.9246 67.433 83.2249C67.6773 83.3143 67.7948 83.2865 67.804 83.0092C67.8597 81.6196 67.9494 80.23 67.9831 78.8404C67.9923 78.3936 67.8968 77.9376 67.7948 77.5C67.7422 77.2782 67.7577 77.121 67.9027 76.967C68.3046 76.5418 68.3111 76.1012 67.9494 75.6482C67.7883 75.448 67.7546 75.2354 67.869 74.995C68.5956 73.5037 68.6139 71.8799 68.7654 70.2777C68.9296 68.5153 69.0934 66.7497 69.2539 64.9873C69.3219 64.2386 69.3934 63.4898 69.4336 62.7411C69.4429 62.6055 69.313 62.4607 69.2481 62.319C69.1182 62.4391 68.9017 62.5408 68.8674 62.6826C68.753 63.1817 68.7004 63.6994 68.6231 64.2293H68.1287V60.4394C68.5335 60.1714 68.9017 59.9095 69.2882 59.6753C69.3934 59.6106 69.5727 59.5644 69.6714 59.6106C70.5282 60.0173 71.3754 59.968 72.2041 59.5551C72.5285 59.3918 72.7758 59.4072 73.0696 59.6322C73.3482 59.8479 73.6821 59.9896 74.0408 60.193C73.8674 61.3977 73.688 62.6487 73.5028 63.9181C73.3636 63.9304 73.2431 63.9397 73.0637 63.9582ZM59.8202 84.1123C59.4117 85.0829 59.2973 86.0997 59.3317 87.1473C59.3719 88.4506 59.3499 89.757 59.4117 91.0604C59.4365 91.6397 59.6007 92.2128 59.7182 92.8783C59.378 93.0909 58.9544 93.359 58.5243 93.6116C58.4535 93.6517 58.3295 93.6424 58.2463 93.6147C57.3895 93.3405 56.5546 93.4699 55.7479 93.7842C54.6963 94.1909 53.6419 94.2956 52.5194 94.157C51.5334 94.0399 50.5127 93.9814 49.6286 94.6377C49.5482 94.6993 49.35 94.6685 49.239 94.613C48.8309 94.4127 48.4413 94.1847 47.9709 93.929C48.0266 93.3651 48.0884 92.7212 48.1599 92.0772C48.2183 91.5133 48.2956 90.9525 48.3547 90.3918C48.3949 90.0005 48.3853 90.0005 48.8525 90.0128C48.8525 90.4842 48.8401 90.9587 48.8587 91.4332C48.868 91.652 48.7505 92.0032 49.1246 92.0125C49.474 92.0186 49.4799 91.692 49.4799 91.4301C49.4771 88.4106 49.4895 85.3941 49.4552 82.3745C49.4428 81.1975 49.1926 80.0543 48.6698 78.9852C48.5801 78.8095 48.5677 78.6678 48.7192 78.5261C48.7814 78.4675 48.8309 78.3967 48.8862 78.3289C49.2576 77.8513 49.2727 77.7619 48.846 77.3306C48.599 77.081 48.5801 76.8715 48.7257 76.5634C49.239 75.4788 49.474 74.3326 49.4675 73.1309C49.4493 70.2592 49.4493 67.3906 49.4397 64.519C49.4397 64.482 49.4462 64.445 49.4397 64.408C49.4091 64.2293 49.4988 63.9613 49.2109 63.9428C48.9082 63.9212 48.8089 64.1708 48.7996 64.4142C48.7814 64.8918 48.7938 65.3724 48.7938 65.8716C48.6543 65.8962 48.5368 65.9178 48.3887 65.9486C48.2372 64.7131 48.0884 63.5083 47.9434 62.3529C48.4196 62.0109 48.8587 61.6812 49.3129 61.3761C49.4122 61.3114 49.5819 61.2868 49.6905 61.3207C50.8219 61.6966 51.9288 61.5055 52.9863 61.0957C54.0503 60.6829 55.1171 60.5781 56.2176 60.7969C56.9229 60.9386 57.5661 60.8647 58.1597 60.4549C58.3542 60.3193 58.5339 60.3193 58.7408 60.4394C59.0596 60.6243 59.3901 60.7876 59.7429 60.9787C59.7027 61.0988 59.6501 61.2097 59.6313 61.3237C59.5203 61.9369 59.3499 62.5501 59.3317 63.1694C59.2915 64.6206 59.2973 66.078 59.3409 67.5293C59.3564 68.1147 59.5014 68.694 59.613 69.2732C59.6625 69.5321 59.6684 69.7354 59.4584 69.9388C58.5769 70.7861 58.0883 71.8245 58.0327 73.0477C58.0203 73.3004 57.943 73.4144 57.6403 73.3743C57.5843 71.9878 57.0373 70.8262 55.853 69.9942C56.6196 68.0777 56.354 66.0904 56.3014 64.1184C56.298 64.0075 56.2702 63.8996 56.2423 63.7918C56.0849 63.1632 55.8033 62.8736 55.3178 62.8366C54.6038 62.7812 54.0627 63.0585 53.8738 63.6716C53.7349 64.1215 53.6607 64.6114 53.6542 65.0828C53.6295 67.0178 53.6388 68.9528 53.6453 70.8878C53.6515 72.1295 53.6666 73.3743 53.6913 74.6191C53.6978 74.8625 53.738 75.109 53.803 75.3432C53.9297 75.7992 54.2232 75.9718 54.6344 75.8639C54.9808 75.7715 55.2439 75.3216 55.1419 74.9519C55.0457 74.6006 54.9158 74.2555 54.8048 73.9074C54.6533 73.439 54.854 73.0847 55.1975 72.8012C55.4446 72.5979 55.7201 72.4315 56.0447 72.2065C56.02 72.3329 56.02 72.3883 55.9981 72.4315C55.7414 72.9584 55.9427 73.3312 56.3632 73.6824C57.4362 74.576 57.4517 75.2847 56.4217 76.2768C56.7683 76.511 57.1081 76.7421 57.4699 76.9886C57.0927 77.2751 56.7405 77.537 56.3261 77.8513C56.4034 77.8975 56.4684 77.9252 56.524 77.9684C57.3187 78.5785 57.4115 79.4967 56.7463 80.2485C56.5178 80.5073 56.2612 80.7415 56.02 80.991C55.559 81.4625 55.5438 81.5672 55.8311 82.1526C55.8558 82.2019 55.8747 82.2543 55.9025 82.319C54.9471 82.1896 54.474 81.6196 54.743 80.7815C54.8633 80.4087 55.0302 80.0513 55.1326 79.6723C55.2686 79.1762 55.0769 78.828 54.6715 78.7448C54.2266 78.6524 53.8583 78.9051 53.7751 79.3981C53.7192 79.7247 53.6913 80.0574 53.6913 80.3902C53.6855 83.7764 53.6855 87.1658 53.6886 90.5551C53.6886 91.8245 54.0967 92.1604 55.3583 91.9293C55.918 91.8276 56.1746 91.5904 56.289 91.0234C56.3385 90.7738 56.3694 90.5119 56.3722 90.2562C56.3818 88.9498 56.4093 87.6433 56.3694 86.3369C56.3509 85.7299 56.2086 85.1229 56.0973 84.519C56.0383 84.214 56.0661 83.989 56.3227 83.7703C57.362 82.8891 57.7791 81.7274 57.7884 80.3871C57.9 80.3686 57.9956 80.3532 58.11 80.3317C58.1196 80.3871 58.1378 80.4333 58.1378 80.4765C58.1474 81.1728 58.2711 81.8445 58.5834 82.4762C58.8276 82.9753 59.174 83.3882 59.6501 83.6748C59.8449 83.7888 59.913 83.8966 59.8202 84.1123ZM47.2972 78.6308C47.3432 78.6863 47.3714 78.7664 47.4298 78.8065C47.9434 79.1855 47.863 79.6076 47.6525 80.1468C47.1426 81.4563 46.9938 82.8398 46.9972 84.2386C47.0034 87.2952 47.0186 90.3517 47.0034 93.4052C46.9938 94.8842 46.6475 96.2861 45.7941 97.5247C44.6871 99.127 43.095 100.008 41.215 100.313C39.9067 100.526 38.5648 100.56 37.2382 100.655C36.66 100.698 36.0759 100.698 35.4977 100.729C34.7061 100.769 34.0258 101.114 33.3762 101.53C33.1384 101.684 32.9526 101.666 32.6993 101.54C32.2355 101.302 31.7374 101.13 31.1811 100.899C31.311 99.4135 31.447 97.8267 31.5859 96.2306C31.7374 96.206 31.8583 96.1875 32.0191 96.1628C32.0191 96.6158 32.0129 97.0564 32.0191 97.4939C32.0249 97.7528 32.0219 98.0177 32.084 98.2642C32.118 98.4029 32.2881 98.6216 32.3778 98.6124C32.5602 98.5939 32.8137 98.4861 32.8818 98.3413C32.9931 98.1102 33.0021 97.8175 33.0021 97.5525C33.0021 93.6209 32.9962 89.6923 32.9866 85.7607C32.9838 84.9319 32.8663 84.1154 32.5506 83.3451C32.3713 82.9137 32.1551 82.4977 31.9198 82.0972C31.8054 81.8969 31.7776 81.7398 31.9263 81.5611C31.9322 81.5518 31.9418 81.5426 31.9476 81.5333C32.6557 80.5073 32.6189 80.5874 31.9263 79.6969C31.7562 79.4812 31.793 79.2933 31.9016 79.0838C32.3836 78.1378 32.7578 77.1519 32.8787 76.0858C32.9093 75.83 32.9312 75.5712 32.9312 75.3124C32.9281 71.4208 32.9217 67.5262 32.9124 63.6346C32.9124 63.5607 32.9343 63.4744 32.9034 63.4159C32.8261 63.268 32.7519 63.0431 32.6313 63.0092C32.3901 62.9414 32.2569 63.1324 32.2259 63.3697C32.2043 63.5052 32.1765 63.6377 32.1737 63.7733C32.1675 64.18 32.1675 64.5837 32.1675 64.9904C32.1641 65.4864 32.1675 65.4864 31.6075 65.5327C31.4189 64.1122 31.2306 62.6949 31.0605 61.4162C31.6913 60.8985 32.2324 60.4394 32.789 60.005C32.9281 59.8972 33.1288 59.8294 33.3082 59.817C33.5373 59.8047 33.7751 59.8479 34.0039 59.9002C35.0988 60.1437 36.0942 59.8355 37.096 59.4319C38.9083 58.7047 40.7942 58.3997 42.7456 58.5722C44.7957 58.751 46.3878 60.0635 46.8145 61.9338C46.9042 62.3251 46.9323 62.738 46.9385 63.1417C46.9509 64.5066 46.9413 65.8747 46.9444 67.2427C46.9478 69.1284 46.9413 71.0141 46.9691 72.8967C46.9907 74.2216 47.1886 75.5157 47.8228 76.7143C47.8754 76.8129 47.8476 77.0009 47.7857 77.1056C47.6401 77.3614 47.4546 77.5956 47.2783 77.8328C47.0745 78.107 47.0622 78.3689 47.2972 78.6308ZM141.612 102.664C141.35 100.624 141.078 98.5908 140.821 96.5511C140.709 95.6514 140.722 95.6483 139.837 95.4542C139.804 95.4449 139.773 95.4295 139.723 95.4141C139.717 95.3556 139.705 95.294 139.705 95.2354C139.708 92.4254 139.677 89.6153 139.729 86.8053C139.764 85.0767 139.553 83.4406 138.527 81.9924C138.307 81.6843 138.066 81.3916 137.821 81.0742C139.015 80.2392 139.519 79.0345 139.674 77.6664C139.76 76.9115 139.769 76.1443 139.773 75.3802C139.785 72.2867 139.779 69.1962 139.788 66.1027C139.791 64.8702 139.522 63.6963 138.907 62.6363C137.015 59.3672 134.061 57.8081 130.37 57.5277C129.189 57.4384 127.998 57.4846 126.814 57.4384C126.106 57.4137 125.466 57.2258 124.977 56.6403C124.64 56.2398 124.222 55.9101 123.824 55.5342C123.623 55.8947 123.416 56.2552 123.214 56.6218C122.917 57.158 122.862 57.1795 122.25 57.0162C121.675 56.8653 121.099 56.7174 120.49 56.5571C120.503 56.6804 120.509 56.742 120.518 56.8006C120.63 57.728 120.744 58.6554 120.846 59.586C120.858 59.6938 120.84 59.8787 120.775 59.9126C120.364 60.1344 119.992 60.424 119.445 60.1806C118.047 59.5582 116.591 59.4072 115.067 59.6784C114.241 59.8263 113.419 59.6815 112.735 59.0991C112.466 58.868 112.167 58.6739 111.857 58.4459C111.548 58.8002 111.26 59.1361 110.963 59.4627C110.679 59.777 110.534 59.7554 110.345 59.3734C110.057 58.8095 109.776 58.2426 109.476 57.6479C109.077 58.0176 108.716 58.3504 108.357 58.6862C107.785 59.2255 107.244 59.2162 106.659 58.6616C106.227 58.2487 105.784 57.8451 105.32 57.4137C105.11 57.8451 104.928 58.2333 104.739 58.6185C104.464 59.1854 104.464 59.1731 103.833 59.1392C103.539 59.1207 103.379 59.0005 103.267 58.7232C103.054 58.1778 102.797 57.6479 102.532 57.0501C102.148 57.4137 101.811 57.7372 101.471 58.0577C101.292 58.2241 101.115 58.5014 100.914 58.526C100.12 58.6185 99.3064 58.6924 98.5826 58.2087C98.0755 57.8666 97.5776 57.5092 97.0458 57.1395C96.8665 57.5986 96.6871 58.0145 96.539 58.4428C96.4676 58.6431 96.3566 58.7047 96.1525 58.6924C95.7224 58.6616 95.2867 58.6801 94.86 58.6123C94.6435 58.5784 94.3993 58.4521 94.2505 58.2919C93.988 58.0053 93.7898 57.6633 93.5579 57.3305C92.7045 57.768 91.9534 58.3196 90.9512 58.2672C89.9618 58.2117 89.2694 57.5585 88.425 57.1518C88.2333 57.4784 88.0357 57.7896 87.8687 58.1162C87.7324 58.3812 87.5407 58.4829 87.2472 58.4736C86.78 58.4552 86.3131 58.4675 85.8276 58.4675C85.8434 58.6801 85.8524 58.8341 85.8647 59.019C85.8032 58.9882 85.7568 58.9759 85.7225 58.9481C84.4519 58.0577 83.0388 57.6725 81.4928 57.7742C81.3598 57.7835 81.196 57.8358 81.1091 57.9252C80.7473 58.3011 80.1289 58.3196 79.7643 57.9529C79.6898 57.8759 79.5602 57.8143 79.452 57.8081C78.5302 57.7742 77.5998 57.8297 76.7801 58.2703C76.072 58.6524 75.3457 58.7017 74.5785 58.7201C74.192 58.7294 73.979 58.6185 73.8213 58.2641C73.6017 57.7804 73.3262 57.3213 73.0544 56.819C72.6181 57.2812 72.2257 57.6941 71.8358 58.1039C71.3566 58.6123 70.7907 58.6462 70.2437 58.2025C69.8046 57.8482 69.3686 57.4907 68.8952 57.1056C68.6729 57.5986 68.4503 58.033 68.2799 58.489C68.1442 58.8619 67.9463 59.0745 67.5257 58.9974C67.4667 58.9882 67.4018 58.9913 67.3402 59.0067C67.0925 59.0622 66.9692 58.9481 66.8702 58.7263C66.6352 58.1933 66.3721 57.6694 66.1 57.0994C65.655 57.5739 65.2373 57.993 64.8573 58.4397C64.6346 58.6986 64.3904 58.8495 64.0499 58.8958C63.2398 59.0098 62.4609 59.0437 61.7463 58.5229C61.4034 58.2734 61.0104 58.0977 60.6239 57.879C60.3984 58.4736 60.1879 59.0283 59.9436 59.6784C59.6715 59.096 59.443 58.6031 59.2018 58.0823C58.6823 58.4521 58.1845 58.7725 57.7235 59.1423C57.3558 59.4381 56.9847 59.4966 56.5268 59.4072C55.584 59.2255 54.6313 59.2193 53.6944 59.4565C53.1474 59.5952 52.6215 59.8201 52.0745 59.968C51.2767 60.1899 50.4944 60.2114 49.7709 59.7C49.5761 59.5613 49.3442 59.472 49.1181 59.3518C48.7907 59.7986 48.4784 60.2145 48.1657 60.6366C48.1132 60.5904 48.0857 60.5781 48.0795 60.5565C47.0282 58.2764 45.1049 57.3552 42.7239 57.1426C41.3013 57.0162 39.9098 57.2535 38.5431 57.5739C37.6622 57.7835 36.8118 58.1347 35.9553 58.4397C35.173 58.7171 34.4059 58.677 33.6424 58.3843C33.1786 58.2087 32.7176 58.0207 32.2386 57.8297C32.0713 58.2549 31.8985 58.6246 31.7841 59.0129C31.614 59.5829 31.2086 59.8325 30.6706 59.9588C30.2192 60.0635 29.7711 60.1868 29.2949 60.307C29.6041 62.6302 29.9099 64.9103 30.2133 67.1996C30.6304 67.1287 30.9767 67.0671 31.3574 66.9993C31.3574 68.1178 31.3605 69.2024 31.3574 70.2839C31.3574 72.2928 31.3697 74.3018 31.345 76.3076C31.3326 77.3398 31.0853 78.3073 30.3308 79.0838C30.1047 79.3179 29.9223 79.5953 29.7151 79.8541C30.1236 80.193 30.5005 80.5073 30.9149 80.8493C30.4758 81.2837 30.0769 81.6751 29.6969 82.051C29.8976 82.2636 30.0741 82.4916 30.2906 82.6703C30.8317 83.1201 31.1285 83.6994 31.2488 84.3711C31.3292 84.8302 31.4034 85.2985 31.4065 85.7638C31.4282 88.4845 31.4282 91.2083 31.4313 93.9321C31.4313 94.2402 31.5178 94.6253 31.3663 94.8256C31.2306 95.0043 30.8252 95.0074 30.5349 95.0321C30.1885 95.0659 30.1081 95.2354 30.0834 95.5559C29.9347 97.4724 29.7587 99.3827 29.5949 101.296C29.5482 101.838 29.5111 102.384 29.4681 102.982C30.0556 102.8 30.5778 102.658 31.0853 102.476C31.4158 102.359 31.5893 102.461 31.7315 102.757C31.9294 103.176 32.1551 103.579 32.3932 104.032C32.9467 103.545 33.4445 103.068 33.9887 102.652C34.2608 102.442 34.6041 102.251 34.9346 102.211C35.7667 102.113 36.6074 102.082 37.4454 102.063C38.9946 102.033 40.5347 101.925 42.0341 101.521C44.5573 100.84 46.5489 99.4566 47.7084 97.0441C47.8878 96.6743 48.0266 96.2892 48.2059 95.8609C48.466 96.3231 48.701 96.7452 48.9576 97.2043C49.2699 96.8869 49.5915 96.6374 49.8169 96.32C50.3673 95.5404 51.1221 95.4049 51.9938 95.525C53.2554 95.6945 54.5234 95.7099 55.7167 95.2138C56.623 94.8379 57.5011 94.7979 58.4099 95.1245C58.549 95.1738 58.7037 95.183 58.8369 95.2447C59.1461 95.3895 59.2915 95.2601 59.4272 94.9827C59.5942 94.6346 59.7274 94.2463 60.1696 94.1169C60.9674 93.8797 61.7621 93.6332 62.5753 93.3867C62.6186 93.5839 62.6557 93.7472 62.6959 93.929C63.0604 93.9105 63.4009 93.892 63.7626 93.8735C64.0471 94.5791 64.3285 95.2816 64.6284 96.0334C65.1788 95.4418 65.6856 94.8903 66.1992 94.3449C66.5483 93.9721 67.1609 93.9844 67.4979 94.3573C67.9896 94.9026 68.4874 95.4449 69.0192 96.0334C69.2199 95.4449 69.4583 94.9273 69.5662 94.3819C69.7208 93.6178 70.0984 93.2511 70.8961 93.3867C70.9147 93.3898 70.9394 93.3651 70.9948 93.3374C71.0662 92.7273 71.1435 92.0926 71.2115 91.4579C71.4184 89.5629 71.6228 87.668 71.8327 85.77C72.0464 83.8257 72.2536 81.8815 72.4824 79.9373C72.5439 79.4289 72.6679 78.9297 72.7635 78.4244C72.8129 78.4306 72.8624 78.4336 72.915 78.4398C72.9586 78.8003 73.039 79.1639 73.0418 79.5244C73.0544 82.6919 73.0325 85.8593 73.0727 89.0268C73.0792 89.6122 73.2214 90.2315 73.4471 90.7738C74.35 92.9184 77.2133 94.3696 79.7025 93.9875C79.7767 93.9783 79.8509 93.9105 79.9035 93.8489C80.2062 93.4791 80.6483 93.4791 80.9823 93.8365C81.0689 93.9259 81.1987 94.0399 81.3073 94.0399C82.6799 94.0214 83.9758 93.7318 85.0793 92.8506C85.2652 92.6996 85.4535 92.5517 85.6764 92.3761V93.0693C86.131 93.0693 86.5605 93.0847 86.9937 93.0662C87.3706 93.0508 87.618 93.1772 87.776 93.5408C87.9584 93.9629 88.1931 94.3634 88.4157 94.7917C88.8829 94.4836 89.3251 94.2279 89.7209 93.9197C90.1198 93.6116 90.5496 93.5654 91.0134 93.6363C91.3161 93.6794 91.6194 93.741 91.9191 93.8088C93.2304 94.0984 94.5446 94.3018 95.8804 93.9875C96.3813 93.8674 96.8235 93.966 97.2626 94.2094C97.6058 94.3973 97.9676 94.5483 98.3324 94.7209C98.5736 94.385 98.799 94.0769 99.0155 93.7657C99.2662 93.4113 99.6404 93.5099 99.9681 93.5377C100.076 93.5469 100.2 93.778 100.262 93.9321C100.503 94.5329 100.723 95.143 100.967 95.7993C101.505 95.2878 102.006 94.8164 102.501 94.3419C102.843 94.0153 103.487 94.043 103.781 94.4035C104.223 94.9458 104.662 95.4942 105.107 96.0396C105.178 96.129 105.262 96.2091 105.37 96.3231C105.676 95.4696 105.96 94.6746 106.239 93.8982H107.334C107.367 93.6578 107.402 93.4391 107.426 93.2203C107.615 91.5719 107.803 89.9203 107.989 88.2688C108.199 86.4232 108.4 84.5775 108.623 82.7319C108.746 81.6843 108.91 80.6398 109.056 79.5922C109.136 79.0037 109.541 78.7602 110.067 78.6123C110.407 79.4135 110.512 80.2454 110.524 81.0804C110.552 82.9538 110.537 84.8271 110.54 86.7005V87.5078C110.194 87.4924 109.894 87.48 109.584 87.4646C109.334 89.5999 109.087 91.6859 108.842 93.7903C109.275 93.9074 109.677 94.0245 110.082 94.1231C110.429 94.2094 110.67 94.3912 110.818 94.727C111.041 95.2262 111.291 95.7161 111.545 96.2368C112.061 95.8393 112.528 95.4603 113.02 95.1122C113.153 95.0197 113.366 94.9612 113.521 94.9951C114.099 95.1122 114.68 95.2447 115.24 95.4295C116.282 95.7715 117.339 95.8671 118.418 95.7038C119.105 95.6021 119.767 95.5774 120.401 95.9194C120.596 96.0242 120.707 96.1043 120.645 96.3631C120.546 96.7945 120.496 97.2351 120.431 97.6726C120.336 98.3012 120.243 98.9267 120.15 99.5491C120.889 99.7771 121.653 99.6169 122.302 100.045C122.952 100.473 123.094 101.247 123.598 101.795C123.839 101.65 124.099 101.527 124.318 101.355C124.964 100.852 125.685 100.806 126.458 100.923C127.45 101.074 128.298 101.546 129.114 102.079C129.408 102.27 129.603 102.279 129.816 101.989C130.317 101.302 130.994 101.17 131.792 101.367C132.16 101.456 132.54 101.487 132.93 101.546C132.951 101.407 132.97 101.299 132.989 101.194C133.032 101.185 133.075 101.179 133.116 101.173C133.341 101.952 133.57 102.735 133.802 103.542C134.334 103.302 134.85 103.071 135.367 102.84C135.979 102.562 136.909 102.75 137.367 103.24C137.722 103.629 138.084 104.014 138.462 104.42C138.727 104.008 138.966 103.635 139.204 103.262C139.479 102.834 139.739 102.726 140.23 102.827C140.685 102.92 141.143 103.003 141.644 103.099C141.631 102.926 141.631 102.794 141.612 102.664Z" fill="white"/>
<path fill-rule="evenodd" clip-rule="evenodd" d="M133.116 64.3034C133.112 68.3922 133.112 72.481 133.091 76.5729C133.088 77.032 133.001 77.5034 132.88 77.9502C132.729 78.5079 132.358 78.7698 131.786 78.7483C131.369 78.7298 130.945 78.6774 130.546 78.5696C129.646 78.3231 129.238 77.7068 129.235 76.6345C129.229 74.4684 129.235 72.2992 129.235 70.1331H129.266C129.266 67.9763 129.263 65.8225 129.266 63.6656C129.266 63.4561 129.285 63.2466 129.319 63.0401C129.464 62.1589 130.147 61.6813 131.032 61.8323C132.414 62.0665 133.119 62.8953 133.116 64.3034Z" fill="white"/>
<path fill-rule="evenodd" clip-rule="evenodd" d="M41.6907 91.7511C41.6907 93.1068 41.6907 94.4595 41.6784 95.8152C41.6753 96.0463 41.632 96.2805 41.5763 96.5054C41.3599 97.3497 40.8092 97.741 39.7517 97.8334C38.6481 97.9259 38.1719 97.5654 38.11 96.453C38.0386 95.1897 38.0386 93.9172 38.0327 92.6508C38.0235 89.8654 38.0204 87.0799 38.0327 84.2945C38.0386 83.1544 38.3821 82.0883 38.8707 81.0715C39.0065 80.788 38.9697 80.6309 38.7285 80.4584C38.5615 80.3382 38.4128 80.1841 38.2739 80.027C37.9338 79.6418 37.9242 79.5586 38.2705 79.192C38.5244 78.9239 38.815 78.6959 39.0995 78.4401C38.5244 77.6359 38.2028 76.8225 38.076 75.9351C38.0327 75.6301 37.9891 75.3219 37.9891 75.0169C37.9768 71.3317 37.9554 67.6466 37.9802 63.9645C37.9833 63.376 38.1193 62.7597 38.3327 62.2113C38.6635 61.3639 39.8787 60.9018 40.7476 61.1945C41.1558 61.3331 41.3877 61.6413 41.4496 62.0326C41.5485 62.6858 41.6348 63.3483 41.6413 64.0076C41.666 67.3847 41.6595 70.7617 41.6719 74.1357C41.6753 75.3805 41.3781 76.5483 40.8311 77.6575C40.6824 77.9595 40.6765 78.1721 40.9208 78.4432C41.5946 79.1981 41.5763 79.2875 40.8899 80.0362C40.7662 80.1718 40.6363 80.3012 40.4876 80.4584C41.3351 81.5984 41.6907 82.8617 41.6842 84.2452C41.6719 86.7472 41.6873 89.2491 41.6907 91.7511Z" fill="white"/>
<path fill-rule="evenodd" clip-rule="evenodd" d="M81.7626 80.2794C81.7687 83.1234 81.7656 85.9704 81.7656 88.8175C81.7656 88.8791 81.7626 88.9408 81.7626 89.0024C81.7254 90.3365 80.9153 90.5646 79.898 90.4043C79.3569 90.3211 79.06 89.9298 78.9982 89.3321C78.9703 89.0517 78.9518 88.7651 78.9518 88.4847C78.9484 86.069 78.9608 83.6534 78.9456 81.2377C78.9363 79.8449 79.1435 78.4923 79.6352 77.1889C79.7462 76.89 79.7248 76.6836 79.5053 76.4309C78.9673 75.8178 78.9796 75.6606 79.5486 75.066C79.7214 74.8842 79.7403 74.7609 79.6104 74.5329C79.0786 73.5931 78.9608 72.5517 78.9549 71.501C78.9394 68.6169 78.9518 65.736 78.9518 62.8519C78.9518 62.7657 78.9518 62.6794 78.958 62.5931C79.0504 61.6164 79.5019 61.2189 80.4886 61.2497C81.3572 61.2774 81.7409 61.6349 81.7502 62.4976C81.7687 64.0382 81.7561 65.5788 81.7561 67.1195H81.7656C81.7656 68.3396 81.7347 69.5598 81.7718 70.7769C81.8151 72.0494 81.5461 73.2449 81.0575 74.4035C80.937 74.69 80.937 74.878 81.172 75.1091C81.6914 75.6329 81.6883 75.8147 81.1627 76.3262C80.9555 76.5265 80.9431 76.6651 81.0761 76.9147C81.6296 77.9654 81.7595 79.1116 81.7626 80.2794Z" fill="white"/>
</g>
</svg>
