<svg width="170" height="150" viewBox="0 0 170 150" fill="none" xmlns="http://www.w3.org/2000/svg">
<g opacity="0.6">
<path fill-rule="evenodd" clip-rule="evenodd" d="M24.4761 90.421C24.6496 90.3712 24.9878 90.3101 25.2275 90.2852C25.5032 90.2566 25.8369 90.1812 26.1364 90.0798L26.6095 89.9196L27.145 89.8811L27.6805 89.8426L28.007 89.6481L28.3335 89.4536L28.763 89.367C29.0197 89.3152 29.3712 89.1993 29.6369 89.0788C29.8813 88.968 30.1633 88.8638 30.2635 88.8474C30.4737 88.8128 32.9422 87.5984 33.3835 87.3125C33.5464 87.2069 33.7534 87.0541 33.8437 86.9727C33.9339 86.8914 34.3438 86.5978 34.7546 86.3202C35.1654 86.0426 35.6486 85.6853 35.8285 85.5262C36.0083 85.3671 36.2491 85.1585 36.3637 85.0626C36.5544 84.9028 36.6258 84.7507 36.5361 84.6951C36.421 84.6237 35.2445 85.0997 35.1664 85.2493C35.1437 85.2928 35.1103 85.4003 35.0921 85.4882C35.0307 85.786 34.9266 85.9443 34.7099 86.0694C34.5941 86.1362 34.391 86.2889 34.2585 86.4087C33.9475 86.6897 31.8305 87.7507 31.22 87.9313C30.9946 87.9981 30.5777 88.1754 30.2937 88.3253C29.7287 88.6237 29.1036 88.8646 28.1228 89.1618C27.7721 89.2681 27.3382 89.42 27.1586 89.4994C26.7522 89.6792 26.5902 89.6848 26.4636 89.5235C26.3576 89.3884 26.3404 89.2198 26.4261 89.1559C26.4574 89.1325 26.606 89.0764 26.7563 89.0313C26.9067 88.9862 27.1494 88.8859 27.296 88.8083L27.5623 88.6674L27.5343 88.4921L27.5064 88.3168L27.6189 88.204C27.7543 88.0682 27.9668 88.0564 28.3297 88.1645C28.6913 88.2721 28.934 88.2324 29.3204 88.0022C29.5009 87.8947 29.6486 87.7783 29.6486 87.7434V87.6802H29.3161C28.9625 87.6802 28.8743 87.6382 28.8743 87.4704C28.8743 87.3521 28.9527 87.3148 29.2016 87.3148C29.3023 87.3148 29.557 87.261 29.7676 87.1951L30.1504 87.0755L30.47 87.1586L30.7896 87.2417L31.1178 87.1853C31.4943 87.1206 31.6527 87.0348 31.6527 86.8957V86.7984L31.0553 86.8271C30.4303 86.857 30.2863 86.8297 30.2863 86.681C30.2863 86.5059 30.4334 86.4454 30.9292 86.4166C31.1894 86.4014 31.4364 86.3714 31.4782 86.35C31.52 86.3285 31.5673 86.2512 31.5833 86.1783C31.6457 85.8935 31.7587 85.8621 33.0875 85.761C33.8442 85.7034 34.1533 85.6533 34.3613 85.5543C34.5532 85.463 34.5719 85.4144 34.508 85.1741C34.4722 85.0399 34.4711 84.9584 34.5042 84.904C34.5869 84.7679 35.9835 84.0868 36.2573 84.0491C36.3917 84.0305 36.5809 83.9874 36.6776 83.9532C36.918 83.8681 37.9582 83.282 38.7377 82.7924C39.0917 82.5701 39.4921 82.3381 39.6277 82.277C39.7632 82.2158 39.9561 82.0839 40.0563 81.9839C40.1564 81.8839 40.4126 81.6632 40.6256 81.4935C41.2938 80.961 41.7643 80.4589 41.7643 80.2781C41.7643 80.131 41.6647 80.1801 41.3012 80.5066C40.3924 81.323 38.8859 82.3187 37.8017 82.8196C36.3451 83.4925 36.0773 83.6196 35.7862 83.7762C35.5945 83.8793 35.4322 83.9361 35.3548 83.9272L35.2307 83.9127L35.1839 83.7528C35.1064 83.4879 35.0882 83.4758 34.8165 83.5078L34.5697 83.5369L34.5409 83.4616C34.4926 83.3353 34.5973 83.2666 35.0679 83.1161L35.5195 82.9716L35.5506 82.7633L35.5818 82.5551L35.7879 82.4637C35.9324 82.3997 36.1354 82.3651 36.467 82.3481L36.94 82.3239L37.1887 82.1454C37.3255 82.0472 37.4373 81.9371 37.4373 81.9009V81.8349H37.1413H36.8452V81.6972V81.5595L36.9933 81.4653L37.1413 81.371L37.7378 81.3951L38.3343 81.4192L38.4859 81.3417C38.5693 81.299 38.6596 81.2275 38.6865 81.1828L38.7354 81.1016L38.6671 81.056C38.6295 81.0309 38.5128 81.0223 38.4076 81.0369L38.2165 81.0634L38.123 80.9697C38.0045 80.8509 38.0057 80.8173 38.1339 80.6679L38.2384 80.5461L38.5097 80.5307C39.5216 80.4736 39.88 80.3992 40.0326 80.2148L40.0934 80.1413L40.0384 80.0862C40.0016 80.0493 39.852 80.0354 39.5871 80.0443C39.3692 80.0516 39.0583 80.0619 38.8962 80.0671L38.6015 80.0767L38.5577 79.9525L38.5139 79.8283L38.5973 79.7359C38.7161 79.6043 38.948 79.5522 39.4187 79.5513C39.7125 79.5507 39.9897 79.5121 40.3979 79.415C41.1063 79.2464 41.5831 79.1753 41.8776 79.1944L42.1047 79.209L42.2113 79.4031C42.347 79.6505 42.437 79.651 42.7026 79.4055C42.9244 79.2006 43.0397 79.0181 43.0397 78.8722C43.0397 78.7587 42.9415 78.7377 42.6526 78.7895C42.386 78.8374 41.8679 78.8059 41.8 78.7379C41.7741 78.7119 41.7654 78.6406 41.7807 78.5796L41.8085 78.4686L42.1533 78.3179C42.5954 78.1246 42.9031 77.9285 42.9031 77.8401C42.9031 77.7359 42.7738 77.7565 42.4754 77.9081C42.1555 78.0708 41.9709 78.084 41.8991 77.9495L41.8483 77.8544L41.9658 77.6845C42.0385 77.5793 42.0833 77.4524 42.0833 77.3513C42.0833 77.1328 42.1593 77.0817 42.5486 77.0388L42.878 77.0026L43.0044 76.8607C43.074 76.7827 43.1309 76.6676 43.1309 76.605V76.4912L42.9473 76.4175C42.666 76.3047 42.5997 76.1328 42.7893 76.0082L42.9031 75.9334L43.128 76.0072C43.3934 76.0942 43.4549 76.0974 43.5994 76.0313C43.7321 75.9708 43.8696 75.7491 43.8334 75.6544C43.8187 75.6162 43.7213 75.5578 43.6168 75.5247C43.4775 75.4805 43.423 75.4371 43.4124 75.3617C43.3949 75.2383 43.4979 75.1908 43.9348 75.1208C44.3467 75.0549 44.5246 74.9715 44.6328 74.7936C44.7654 74.5755 44.7492 74.4969 44.5511 74.3955C44.3329 74.2839 44.2381 74.1762 44.3019 74.1123C44.3275 74.0866 44.5101 74.0533 44.7076 74.0385L45.0666 74.0114L45.2147 73.8634C45.2961 73.782 45.3627 73.6712 45.3627 73.6172C45.3627 73.4862 45.1214 73.3866 44.8039 73.3866C44.538 73.3866 44.4518 73.3335 44.4518 73.1697C44.4518 73.09 44.4931 73.0449 44.612 72.9952L44.7722 72.928L45.1804 72.9805L45.5886 73.033L45.7034 72.9576C45.7826 72.9056 45.8182 72.841 45.8182 72.7493C45.8182 72.6023 45.7912 72.5881 45.4261 72.5417C45.1695 72.5092 44.8912 72.3648 44.9171 72.2778C44.9262 72.2472 45.0661 72.1538 45.2279 72.0703L45.5221 71.9186L45.7431 71.9469C46.0033 71.9804 46.183 71.8916 46.1818 71.7302C46.1807 71.5598 46.1244 71.5213 45.7999 71.4694C45.4533 71.4138 45.2113 71.3093 45.2372 71.2262C45.2466 71.1963 45.3859 71.1013 45.5468 71.0153L45.8394 70.8588L46.2728 70.8245C46.5113 70.8057 46.901 70.7389 47.139 70.6762L47.5717 70.5622L47.6628 70.621C47.8803 70.7615 47.7522 71.3615 47.3602 72.0395C47.2295 72.2656 47.0438 72.6318 46.9475 72.8533C46.7549 73.2966 46.7105 73.3729 46.4103 73.7748C46.2975 73.9258 46.1348 74.2238 46.0487 74.4372L45.8921 74.8251L45.5229 75.1904C45.3198 75.3914 45.0871 75.6497 45.0058 75.7644C44.8815 75.94 44.37 76.4388 43.37 77.3597C43.0599 77.6452 43.149 77.7566 43.5552 77.5913C44.0312 77.3976 44.7535 76.7835 45.1704 76.2179C45.3092 76.0296 45.5427 75.7487 45.6891 75.5937C45.8548 75.4185 46.0059 75.1989 46.0892 75.0128C46.1629 74.8482 46.4169 74.3879 46.6538 73.9898C47.1438 73.1661 47.3559 72.7541 47.822 71.7198C48.0031 71.3179 48.2003 70.9052 48.2601 70.8025C48.3199 70.6998 48.3688 70.5742 48.3688 70.5233V70.4308L48.042 70.3218C47.8623 70.2619 47.6948 70.1793 47.6699 70.1383C47.5908 70.0083 47.728 69.7769 48.1401 69.3451C48.6555 68.8051 48.6446 68.8219 48.71 68.466C48.7412 68.2966 48.8082 68.055 48.8589 67.9295C49.2361 66.9955 49.4401 66.1312 49.3433 65.8782C49.2613 65.664 48.9461 65.8808 48.4239 66.5103C47.9791 67.0465 47.299 67.7934 46.8609 68.2263C46.6704 68.4147 46.4173 68.6983 46.2984 68.8567C46.1796 69.015 45.9194 69.2798 45.7202 69.445C45.4456 69.6727 45.3254 69.81 45.2239 70.0116C45.1502 70.1579 44.998 70.3815 44.8856 70.5083C44.7732 70.6351 44.6477 70.8055 44.6066 70.8868C44.4925 71.1128 44.4112 71.1876 44.0886 71.3645C43.9057 71.4647 43.616 71.6979 43.3358 71.9705C43.0853 72.2142 42.7166 72.5452 42.5165 72.706C42.3164 72.8669 41.6707 73.469 41.0817 74.0441C40.4928 74.6192 39.7444 75.3206 39.4187 75.6027C38.8304 76.1124 38.0392 76.8961 37.9539 77.0539C37.9293 77.0992 37.8213 77.1667 37.7138 77.2038C37.4554 77.2931 36.9684 77.7295 36.8045 78.0188C36.6394 78.3102 36.325 78.6093 34.5848 80.1302C34.3312 80.352 33.8253 80.8143 33.4607 81.1575C33.0961 81.5008 32.5658 81.9756 32.2823 82.2127C31.7285 82.6758 31.3639 83.0435 31.2838 83.2198C31.2564 83.2802 31.1753 83.3581 31.1038 83.3929C30.9292 83.4776 28.5547 85.8341 28.1182 86.3557C27.9277 86.5832 27.6055 86.9178 27.402 87.0993C27.1986 87.2806 26.8471 87.6065 26.621 87.8235C25.8045 88.6072 25.4752 88.9024 25.136 89.1549C24.7371 89.4517 23.9553 90.2582 23.9553 90.3728C23.9553 90.5399 24.0356 90.5473 24.4761 90.421ZM32.0768 80.1152C32.061 80.0738 32.0739 79.9762 32.1057 79.8983C32.1375 79.8204 32.1933 79.6348 32.2298 79.4859C32.2663 79.337 32.3962 79.0287 32.5185 78.8009C32.8403 78.201 33.2374 77.2335 33.7943 75.6923C34.086 74.8848 34.3728 74.4323 34.5496 74.5003L34.6269 74.5301L34.5981 74.8828C34.5822 75.0769 34.5385 75.3486 34.5008 75.4868C34.4632 75.625 34.4113 75.9051 34.3857 76.1093C34.3601 76.3137 34.2983 76.5994 34.2486 76.7444C34.1988 76.8895 34.1581 77.0756 34.1581 77.1581C34.1581 77.8734 34.8827 76.3558 35.2987 74.7688L35.3972 74.3932L35.5546 74.3636C35.745 74.3278 35.7973 74.2521 35.9776 73.7515C36.0545 73.538 36.1684 73.3017 36.2307 73.2263L36.344 73.0893L36.4165 73.1807L36.489 73.272L36.4633 73.5314C36.4492 73.6741 36.3545 74.01 36.2529 74.2778C36.0629 74.7788 35.9777 75.1672 36.0579 75.1672C36.1455 75.1672 36.2488 75.002 36.3866 74.642C36.4678 74.4299 36.6695 74.066 36.8676 73.7743C37.1193 73.4038 37.2615 73.1327 37.4095 72.7412C37.754 71.8297 37.8734 71.7485 37.865 72.4316L37.8597 72.861L37.7142 73.2856C37.5531 73.7555 37.5445 73.957 37.6854 73.957C37.8247 73.957 38.2771 73.2901 38.3979 72.9067C38.4533 72.7309 38.6391 72.302 38.8107 71.9537C38.9824 71.6054 39.1228 71.2815 39.1228 71.234C39.1228 71.1866 39.2327 71.0279 39.367 70.8814C39.5013 70.735 39.6299 70.5816 39.6528 70.5406C39.7089 70.44 39.8957 70.4232 39.9543 70.5135C40.0282 70.6272 39.9661 70.7831 39.6631 71.2453C39.2382 71.8935 39.1814 72.0749 39.3505 72.2445C39.5036 72.3979 39.6073 72.3587 39.8221 72.066C40.0687 71.7302 40.4113 71.0682 40.5067 70.7435C40.5833 70.4826 41.119 69.4599 41.4249 68.9906C41.5262 68.8352 41.6764 68.6688 41.7587 68.6206L41.9082 68.533L41.9778 68.6027C42.0682 68.6934 42.0342 68.7931 41.7916 69.1491C41.5302 69.5323 41.4683 69.6591 41.2869 70.1817C41.202 70.4261 41.0698 70.7457 40.9931 70.892C40.7197 71.4131 40.8745 71.5459 41.2789 71.1371C41.4309 70.9834 41.6068 70.7251 41.7688 70.4179C41.9078 70.1541 42.1719 69.6631 42.3555 69.3268C42.5392 68.9905 42.7561 68.5568 42.8376 68.3631C43.0672 67.8171 43.1679 67.64 43.2966 67.5555L43.4154 67.4774L43.4782 67.5635C43.5599 67.6756 43.5576 67.7708 43.4698 67.8964C43.4307 67.9524 43.3483 68.147 43.2867 68.3289C43.2252 68.5109 43.106 68.7727 43.022 68.9109C42.727 69.3957 42.6122 69.6789 42.6601 69.8039C42.6944 69.8936 42.7828 69.8868 42.9961 69.7776C43.2264 69.6598 43.3642 69.4472 43.5432 68.9337C43.7346 68.3845 43.9135 68.0562 44.2219 67.6879C44.4869 67.3717 44.5908 67.3109 44.7046 67.4057C44.8133 67.4961 44.7811 67.6217 44.5858 67.8694C44.3942 68.1124 44.3038 68.2666 44.2496 68.4428L44.218 68.5455H44.3182C44.3733 68.5455 44.487 68.503 44.5708 68.451C44.7654 68.3305 44.9702 68.3472 44.9898 68.4852C45.0099 68.6266 44.6754 69.1366 44.4556 69.2996C44.2845 69.4265 44.2257 69.5318 44.1614 69.8259C44.1442 69.9047 44.0008 70.0432 43.7132 70.2586C43.4807 70.4329 43.0957 70.7635 42.8577 70.9933C42.6197 71.223 42.1407 71.6398 41.7932 71.9194C41.4457 72.1989 40.9845 72.5919 40.7684 72.7927C40.5522 72.9935 40.158 73.3376 39.8924 73.5574C38.7731 74.4836 37.9248 75.2266 37.3471 75.7869C37.0085 76.1152 36.4856 76.5759 36.185 76.8107C35.8844 77.0455 35.4949 77.3748 35.3196 77.5426C35.1442 77.7104 34.878 77.9153 34.7281 77.998C34.4409 78.1564 33.9539 78.5862 32.9297 79.5854C32.3096 80.1902 32.1447 80.2927 32.0768 80.1152ZM15.2516 96.3317C15.6599 96.2352 16.0359 96.0214 16.2545 95.7615C16.3563 95.6404 16.5573 95.4738 16.7011 95.3913C16.8449 95.3089 17.0806 95.1326 17.2249 94.9996C17.3692 94.8665 17.636 94.6631 17.8177 94.5474C17.9995 94.4318 18.3429 94.1388 18.5809 93.8964C18.8189 93.654 19.2186 93.2929 19.4691 93.0939C19.7196 92.8948 20.1406 92.5148 20.4046 92.2494C21.2586 91.3908 22.3075 90.4549 23.0182 89.9174C24.4471 88.8365 24.7908 88.5239 25.3027 87.8396C25.5094 87.5633 25.7592 87.2755 25.8577 87.2002C25.9563 87.1248 26.339 86.7961 26.7081 86.4696C27.0773 86.143 27.5877 85.703 27.8423 85.4916C29.0213 84.5128 29.3898 84.167 32.1998 81.4006C33.5538 80.0676 34.203 79.4755 35.1602 78.7003C35.4733 78.4466 35.8525 78.1087 36.0028 77.9491C36.1531 77.7895 36.4503 77.512 36.6633 77.3323C36.9483 77.0918 39.2023 74.8257 40.0649 73.9125C40.0946 73.8811 40.2264 73.8411 40.3577 73.8236L40.5966 73.7918L40.8048 73.5612C40.9194 73.4343 41.177 73.1949 41.3774 73.0291C41.7491 72.7217 43.1017 71.4018 44.8491 69.6415C46.2799 68.2001 46.3699 68.1024 46.6609 67.6779C46.8073 67.4644 47.0225 67.1766 47.1393 67.0385C47.42 66.7063 47.5178 66.5505 47.4821 66.4926C47.4303 66.4086 47.3261 66.441 47.1508 66.5956C47.0567 66.6785 46.8056 66.8814 46.5927 67.0465C46.3797 67.2116 46.1664 67.3904 46.1188 67.4438C46.0255 67.5481 45.7561 67.579 45.7022 67.4915C45.6357 67.3835 45.9971 66.966 46.3864 66.7008C46.7882 66.4272 47.0026 66.2152 47.0026 66.0916C47.0026 66.0518 47.1358 65.8915 47.2987 65.7354C47.5817 65.4639 47.6824 65.2576 47.5318 65.2576C47.3891 65.2576 46.8114 65.5117 46.3422 65.7811C45.5796 66.2187 45.0097 66.4932 44.6648 66.5891C44.301 66.6901 43.968 66.8504 43.6715 67.067C43.4349 67.2399 43.3808 67.2533 43.3409 67.149C43.2835 66.999 43.3187 66.8699 43.4954 66.5819C43.7872 66.1064 43.7468 66.0687 43.2736 66.3757C43.0999 66.4884 42.6614 66.722 42.2992 66.8949C41.5779 67.2391 41.3214 67.4013 40.6715 67.924C40.4044 68.1389 40.0646 68.3574 39.7833 68.4951C39.2548 68.754 38.1254 69.6309 37.3693 70.3696C36.7951 70.9305 36.6859 71.0115 36.5034 71.0115C36.1945 71.0115 36.0735 71.0669 35.8325 71.3182C35.7007 71.4554 35.4758 71.6485 35.3326 71.747C35.1784 71.8531 34.9622 72.0701 34.8022 72.2793C34.6537 72.4737 34.4556 72.7046 34.3619 72.7925C34.2682 72.8804 34.0077 73.1989 33.7829 73.5003C33.5581 73.8017 33.1959 74.2332 32.978 74.4593C32.599 74.8524 31.5387 76.1887 30.938 77.0302C30.782 77.2488 30.4657 77.7461 30.2351 78.1355C29.232 79.8292 28.9436 80.1267 28.6198 79.8021L28.5057 79.6877L28.5194 79.4726L28.5331 79.2574L28.4577 79.242C28.4083 79.2318 28.2961 79.3408 28.1305 79.56C27.9919 79.7435 27.6876 80.1098 27.4542 80.3741C26.9139 80.986 26.7846 81.1547 26.5971 81.4919C26.3693 81.9017 25.6148 82.9606 25.3256 83.2765C25.1858 83.4292 24.8774 83.871 24.6403 84.2583C24.4031 84.6457 23.9957 85.2793 23.7349 85.6664C23.474 86.0536 23.1981 86.5057 23.1218 86.6711C23.0455 86.8366 22.9076 87.0849 22.8154 87.2231C22.7232 87.3612 22.6141 87.54 22.5729 87.6204C22.4787 87.8042 22.4728 88.0118 22.5625 87.9913C22.598 87.9832 23.0233 87.5854 23.5076 87.1073L24.3882 86.2381L24.8051 85.5318C25.3363 84.6318 25.4732 84.3659 25.646 83.8982C25.8066 83.4633 26.0528 83.1588 26.2438 83.1588C26.4886 83.1588 26.4533 83.4542 26.1357 84.0629C25.8169 84.6737 25.8463 84.9962 26.1937 84.6998C26.4865 84.4499 27.5444 82.6274 27.9157 81.7332C28.0751 81.3495 28.2932 81.105 28.4892 81.0905L28.6195 81.0809L28.6648 81.2067L28.7102 81.3324L28.3823 82.0058C28.2019 82.3762 28.0417 82.746 28.0261 82.8277L27.9979 82.9761H28.0945C28.1477 82.9761 28.2681 82.9078 28.3621 82.8243C28.4561 82.7408 28.6663 82.5985 28.8291 82.508C29.1624 82.3228 29.9977 81.6381 30.1215 81.4486C30.1661 81.3803 30.2746 81.2943 30.3625 81.2575L30.5224 81.1905L30.5905 81.2473C30.6676 81.3114 30.6415 81.6158 30.5382 81.8573C30.4622 82.0349 29.695 82.7195 28.9361 83.2866C28.6067 83.5329 28.2378 83.8498 28.1163 83.9911C27.9948 84.1324 27.7417 84.3656 27.5538 84.5095C27.1881 84.7894 26.5335 85.3502 25.1853 86.5384C24.7218 86.9468 24.1377 87.445 23.8872 87.6453C23.6367 87.8456 22.9431 88.4899 22.3458 89.0769L21.2597 90.1444L21.1707 90.4421L21.0816 90.7398L20.913 90.827C20.8203 90.875 20.6624 90.9995 20.5622 91.1037C20.462 91.2078 20.3185 91.3226 20.2434 91.3586C20.1682 91.3947 19.912 91.6008 19.674 91.8167C19.436 92.0326 18.9851 92.4208 18.672 92.6795C18.3588 92.9382 17.7542 93.4825 17.3283 93.8891C16.9025 94.2957 16.2568 94.866 15.8935 95.1563C15.1203 95.7745 14.6638 96.2067 14.6638 96.3207C14.6638 96.424 14.8466 96.4274 15.2516 96.3317ZM13.3508 97.3268C13.3283 97.2828 13.2961 97.1885 13.279 97.1172L13.248 96.9876L13.4933 96.6834C13.6282 96.5161 13.8232 96.2626 13.9267 96.1202C14.0301 95.9778 14.2331 95.769 14.3779 95.6562C14.5226 95.5435 14.7537 95.3343 14.8915 95.1914C15.0293 95.0484 15.3265 94.782 15.5519 94.5995C15.7774 94.4169 16.0233 94.2012 16.0985 94.1202C16.1737 94.0391 16.5836 93.6937 17.0095 93.3526C17.4353 93.0114 17.9789 92.5459 18.2173 92.3181C18.4558 92.0902 18.835 91.7482 19.06 91.5581C19.285 91.3679 19.4668 91.1813 19.464 91.1434C19.4612 91.1055 19.3178 90.8759 19.1451 90.6333C17.8559 88.8207 16.935 86.7309 16.5153 84.6656C16.3365 83.7859 16.263 83.2138 16.2051 82.2531L16.152 81.3702L16.2053 80.5177C16.2878 79.1976 16.4697 78.1244 16.8073 76.967C18.4217 71.4318 22.9574 67.1857 28.6013 65.9264C32.2122 65.1206 36.1456 65.6272 39.3977 67.3168C39.5865 67.415 39.7741 67.4952 39.8145 67.4952C39.855 67.4952 39.9928 67.374 40.1208 67.2259C40.353 66.9572 40.7818 66.6392 41.5616 66.1575C42.0859 65.8335 43.0299 65.1699 43.3725 64.8842L43.6367 64.6639L43.9419 64.6693C44.1096 64.6722 44.3065 64.6877 44.3792 64.7036L44.5116 64.7324L44.5883 64.9608C44.6304 65.0863 44.6773 65.2524 44.6924 65.3298L44.7198 65.4706L44.4834 65.7874C44.2047 66.1608 44.0558 66.4283 44.1014 66.474C44.1557 66.5285 44.5029 66.3085 44.8026 66.0299C45.0106 65.8364 45.2325 65.6955 45.6452 65.495C46.3811 65.1373 47.4148 64.7284 47.8059 64.64C47.9778 64.6013 48.2414 64.5094 48.3917 64.4358C48.542 64.3623 48.7982 64.2793 48.9611 64.2514C49.4089 64.1747 49.8634 63.9369 50.138 63.6358C50.3555 63.3971 50.6491 63.2164 50.7339 63.2689C50.8267 63.3264 50.8138 63.4855 50.7032 63.6478C50.4915 63.9586 50.3352 64.3598 50.217 64.8962L50.1004 65.4253L50.1475 65.8013L50.1944 66.1772L50.125 66.4492C50.0868 66.5989 49.9643 66.9444 49.8529 67.217C49.7415 67.4898 49.636 67.7923 49.6184 67.8894C49.6009 67.9866 49.5137 68.1665 49.4247 68.2892C49.3081 68.45 49.2533 68.5833 49.2286 68.7661L49.1942 69.0197L48.9637 69.2322C48.7978 69.3851 48.7332 69.4786 48.7332 69.5659C48.7332 69.7242 48.8354 69.7245 49.1383 69.5669C49.2655 69.5007 49.4467 69.4442 49.5411 69.4413L49.7125 69.4361L49.7271 69.5889L49.7416 69.7418L49.5417 69.9999C49.1668 70.4839 48.6909 71.3835 48.62 71.7422C48.6026 71.8301 48.516 72.0254 48.4274 72.1761L48.2665 72.4501L48.2126 72.8666C48.1427 73.4072 47.9977 73.6909 47.3327 74.5868C47.0508 74.9665 46.8202 75.3124 46.8202 75.3553C46.8202 75.3982 46.8902 75.6172 46.9757 75.8419C47.4513 77.0915 47.7857 78.5753 47.9176 80.0226C47.9865 80.7778 47.9455 82.7649 47.8464 83.4785C47.3578 86.9941 45.8019 90.1307 43.3158 92.6119C39.2597 96.66 33.3668 98.2022 27.8013 96.6722C25.4727 96.0321 23.2735 94.8276 21.4391 93.1877L20.9953 92.7909L20.9153 92.8341C20.8713 92.8579 20.7841 92.9333 20.7215 93.0018C20.6589 93.0702 20.3719 93.3005 20.0838 93.5136C19.4952 93.949 19.1968 94.219 19.0998 94.4041C19.0609 94.4783 18.9275 94.5839 18.7732 94.6625C18.6298 94.7356 18.4407 94.8711 18.353 94.9637C18.2653 95.0562 17.9476 95.3089 17.647 95.5253C17.3464 95.7417 16.9877 96.0241 16.8499 96.153C16.4908 96.4889 15.5643 96.9923 15.1244 97.0906C14.9336 97.1331 14.5959 97.2217 14.3739 97.2873C14.1247 97.3611 13.8596 97.4067 13.6809 97.4067H13.3915L13.3508 97.3268Z" fill="white"/>
<path fill-rule="evenodd" clip-rule="evenodd" d="M103.369 89.621C103.403 89.6138 103.447 89.7643 103.583 90.2675C103.69 90.6658 103.879 91.3353 104.003 91.7559L104.228 92.5208H103.274H102.319L102.35 92.4181C102.387 92.2978 103.261 89.866 103.337 89.6738C103.349 89.6437 103.358 89.6235 103.369 89.621ZM87.2942 88.7762H87.7881C88.4419 88.7762 88.6958 88.8538 88.9751 89.1344C89.2574 89.418 89.3673 89.7444 89.3666 90.306C89.366 90.6282 89.3428 90.7803 89.2569 91.0082C89.1193 91.3738 88.8072 91.7028 88.4969 91.8088C88.3501 91.8589 88.1227 91.8815 87.7881 91.8815H87.2942V90.3289V88.7762ZM152.016 88.3652V89.2786V90.1919H152.166H152.314L152.542 89.5069L152.768 88.8219H153.555H154.341L154.329 92.0956L154.317 95.3692L153.816 95.5591L153.315 95.7474L153.3 95.893L153.286 96.0371H154.792H156.298V95.8887V95.7403L155.785 95.5519L155.273 95.3636L155.262 92.0928L155.25 88.8219H156.017H156.785L157.008 89.5055L157.232 90.189L157.402 90.1905L157.573 90.1919V89.2786V88.3653H154.795L152.016 88.3652ZM142.725 88.3652V88.4937C142.725 88.609 142.764 88.6399 143.135 88.8219L143.545 89.0246L143.543 92.1998L143.54 95.3749L143.131 95.569C142.747 95.75 142.72 95.7711 142.733 95.8887L142.748 96.0143L143.852 96.0271L144.957 96.0399V95.8901L144.955 95.7403L144.535 95.5547L144.114 95.3678L144.103 92.498C144.096 90.9197 144.098 89.6375 144.107 89.6482C144.116 89.6588 145.092 91.1206 146.275 92.8976L148.427 96.1284H148.582H148.737V92.5765V89.0245L149.147 88.8219C149.517 88.6399 149.557 88.609 149.557 88.4937V88.3652H148.441H147.325V88.4965C147.325 88.6179 147.358 88.6436 147.758 88.8276L148.191 89.026V91.559V94.0906L147.275 92.7235C146.771 91.9718 145.907 90.6834 145.357 89.8608L144.356 88.3652H143.54H142.725ZM134.794 88.3652L134.808 88.5079C134.821 88.6376 134.855 88.6649 135.187 88.8162C135.387 88.9076 135.577 88.9986 135.608 89.0189C135.653 89.0477 135.665 89.7358 135.665 92.204V95.3521L135.232 95.5548C134.824 95.7462 134.8 95.7649 134.8 95.8973V96.0371H137.211H139.621L139.646 95.9115C139.66 95.8425 139.693 95.4982 139.72 95.1466C139.747 94.795 139.778 94.4611 139.79 94.4045C139.809 94.3142 139.793 94.3018 139.66 94.3018H139.51L139.216 94.9397L138.922 95.579H137.749L136.576 95.5804V93.9593V92.3368L137.542 92.3496L138.509 92.361L138.67 92.8747C138.824 93.365 138.836 93.3879 138.956 93.3885L139.081 93.3899V92.1341V90.8783H138.954C138.834 90.8783 138.82 90.9012 138.667 91.3692L138.506 91.8601L137.541 91.8715L136.576 91.8844V90.3303V88.7776H137.708H138.839L139.085 89.4156C139.319 90.0224 139.338 90.0549 139.457 90.0549H139.582V89.2101V88.3652H137.188H134.794ZM123.914 88.3652V88.4937C123.914 88.609 123.953 88.6399 124.324 88.8219L124.734 89.0246V92.1883V95.3521L124.324 95.5576C123.945 95.7484 123.914 95.7753 123.914 95.9015V96.0371H125.03H126.146V95.8987C126.146 95.7669 126.122 95.7477 125.713 95.5576L125.28 95.3564L125.283 92.4195C125.285 90.3473 125.301 89.5176 125.334 89.5982C125.36 89.661 125.45 89.9076 125.534 90.1462C125.617 90.3849 125.791 90.878 125.919 91.2422C126.139 91.8653 127.399 95.4673 127.545 95.8887C127.616 96.0953 127.748 96.1524 127.808 96.0029C127.847 95.9072 128.244 94.7926 128.423 94.279C128.493 94.0781 128.779 93.2766 129.059 92.498C129.34 91.7194 129.707 90.7022 129.873 90.2375L130.177 89.3927L130.188 92.3382C130.195 93.9582 130.192 95.3053 130.182 95.3307C130.173 95.3562 129.978 95.4589 129.75 95.559L129.335 95.7403L129.334 95.8887V96.0371H130.632H131.93V95.8887V95.7403L131.509 95.549L131.088 95.3578L131.076 92.2026L131.065 89.0488L131.498 88.839C131.897 88.6465 131.93 88.6205 131.93 88.4979V88.3652L130.962 88.3666H129.994L129.797 88.9261C129.688 89.2334 129.334 90.2238 129.008 91.128C128.683 92.0322 128.313 93.0597 128.187 93.4113C128.061 93.7629 127.945 94.0664 127.928 94.0849C127.903 94.1121 126.504 90.278 125.979 88.742L125.85 88.3652H124.882H123.914ZM114.343 88.3652L114.358 88.4908C114.37 88.5979 114.431 88.6467 114.77 88.8219L115.169 89.0274L115.167 92.2012L115.165 95.3749L114.755 95.569C114.371 95.75 114.344 95.7711 114.358 95.8887L114.372 96.0143L115.476 96.0271L116.581 96.0399V95.8987C116.581 95.7653 116.558 95.7466 116.148 95.5547L115.715 95.3521V92.4909V89.6282L117.885 92.879L120.054 96.1284H120.208H120.361V92.5765V89.0246L120.771 88.8219C121.142 88.6399 121.181 88.609 121.181 88.4937V88.3652H120.065H118.949V88.4966C118.949 88.6169 118.984 88.6427 119.382 88.8277L119.813 89.0274L119.815 91.5619V94.0949L119.559 93.7082C119.327 93.3589 118.834 92.6213 116.659 89.3813L115.977 88.3652H115.16H114.343ZM108.883 88.3652V88.4966C108.883 88.6169 108.918 88.6427 109.316 88.8277L109.747 89.0274L109.749 92.1926V95.3579L109.316 95.5591C108.909 95.7486 108.883 95.7683 108.883 95.8987V96.0371H110.207H111.531L111.517 95.8916C111.503 95.7537 111.477 95.7336 111.083 95.5605L110.663 95.375L110.661 92.1983L110.66 89.0217L111.092 88.8248C111.493 88.6427 111.525 88.618 111.525 88.4966V88.3652H110.204H108.883ZM92.9876 88.3652V89.2786V90.1919H93.1584H93.3292L93.5569 89.5069L93.7832 88.8219H94.5703H95.3574L95.346 92.0941L95.3332 95.3664L94.8322 95.5548L94.3312 95.7446L94.3169 95.8916L94.3027 96.0371H95.8115H97.3202L97.306 95.8887L97.2917 95.7403L96.7907 95.5505L96.2897 95.3607L96.2783 92.0913L96.2669 88.8219H97.0313H97.797L98.0219 89.5069L98.2482 90.1919H98.3962H98.5442V89.2786V88.3652H95.7659H92.9876ZM77.5927 88.3652V88.5037C77.5927 88.6341 77.6192 88.6551 78.0268 88.8448L78.4595 89.046L78.4481 92.1998L78.4353 95.355L78.0154 95.5477C77.6127 95.7329 77.5955 95.7463 77.5941 95.8887L77.5927 96.0371H80.0067C81.9067 96.0371 82.421 96.0249 82.4221 95.9801C82.4228 95.9486 82.4529 95.625 82.4889 95.2608C82.584 94.3009 82.5843 94.3018 82.4277 94.3018C82.3057 94.3018 82.2803 94.3399 81.995 94.9412L81.6919 95.5805H80.5076H79.3234V93.9594V92.3382H80.3013H81.2791L81.4471 92.8634L81.615 93.3885H81.7446H81.8741V92.1327V90.8769H81.7446C81.6204 90.8769 81.6086 90.8979 81.4442 91.3792L81.272 91.8815H80.2984H79.3235V90.3289V88.7763H80.4763H81.6278L81.689 88.9475C81.7225 89.0417 81.8309 89.3294 81.9296 89.5868C82.1005 90.0329 82.1157 90.0549 82.2427 90.0549H82.3751V89.2101V88.3653H79.9838L77.5927 88.3652ZM69.4853 88.3652V89.2814V90.1976L69.6518 90.1833L69.8169 90.169L70.0475 89.4955L70.2767 88.8219H71.0666H71.8552L71.8438 92.0927L71.831 95.3635L71.3071 95.5576L70.7833 95.7531L70.7691 95.8958L70.7549 96.0371H72.2864H73.8179L73.8037 95.8972C73.7884 95.7463 73.7909 95.7479 73.0835 95.4763L72.7874 95.3621L72.776 92.0927L72.7646 88.8219H73.5289H74.2947L74.5182 89.5069L74.7431 90.1919H74.8925H75.0419V89.2786V88.3652H72.2636H69.4853ZM60.2393 88.3652V88.4937C60.2393 88.609 60.2787 88.6399 60.6492 88.8219L61.0591 89.0246V92.1883V95.3521L60.6492 95.5576C60.2703 95.7484 60.2393 95.7753 60.2393 95.9015V96.0371H61.3552H62.4711V95.8987C62.4711 95.7683 62.4456 95.7486 62.0384 95.559L61.6057 95.3578V92.5151C61.6057 90.8739 61.6223 89.6902 61.6455 89.7153C61.6676 89.7391 62.5831 91.1041 63.6795 92.7492C64.7759 94.3943 65.7333 95.8276 65.806 95.9343C65.9112 96.089 65.965 96.1284 66.0721 96.1284H66.2059V92.5907V89.0517L66.6158 88.8448C66.9947 88.654 67.0258 88.6285 67.0258 88.5023V88.3652H65.9326H64.8395V88.4952C64.8395 88.6134 64.8761 88.641 65.2708 88.8262L65.7007 89.0274L65.7035 91.5576L65.7049 94.0878L65.5768 93.9094C65.5064 93.8114 65.3052 93.5152 65.1299 93.2515C64.8747 92.8678 63.2603 90.4564 62.064 88.6735L61.8562 88.3652H61.0477H60.2393ZM52.314 88.3652V88.5023C52.314 88.6302 52.3416 88.6521 52.7467 88.8419L53.1795 89.0446V92.1983V95.3522L52.7467 95.5548C52.3381 95.7463 52.314 95.765 52.314 95.8973V96.0371H54.728C56.0557 96.0371 57.1429 96.0217 57.1435 96.0029C57.144 95.984 57.175 95.6604 57.2118 95.2837C57.3074 94.3033 57.3061 94.3018 57.1492 94.3018C57.0276 94.3018 57.0024 94.3402 56.7193 94.9412L56.4176 95.5805H55.2319H54.0448V93.9594V92.3382H55.0227H56.0005L56.1656 92.8634L56.3307 93.3885H56.4631H56.5955V92.1327V90.8769H56.4631H56.3307L56.1628 91.3792L55.9962 91.8815H55.0212H54.0448V90.3289V88.7763H55.1963H56.3478L56.5812 89.4042L56.8161 90.0321L56.957 90.0463L57.0965 90.0606V89.2129V88.3653H54.7053L52.314 88.3652ZM85.5179 88.361V88.4952C85.5179 88.6195 85.5473 88.6414 85.9505 88.8248L86.3832 89.0217V92.1883V95.3564L85.9505 95.5576C85.5421 95.7477 85.5179 95.7669 85.5179 95.8987V96.0371H86.8415H88.1653L88.151 95.8901C88.1376 95.7507 88.1126 95.7316 87.7169 95.5591L87.297 95.3749L87.2956 93.8551L87.2942 92.3339L87.5091 92.3482L87.724 92.361L88.8613 94.2005L89.9985 96.0399L90.7757 96.0271L91.5528 96.0143V95.8844C91.5528 95.7632 91.5209 95.7393 91.1201 95.559C90.6556 95.3502 90.6409 95.3349 90.2675 94.7285C90.1618 94.5567 89.757 93.9022 89.368 93.2743L88.6606 92.1341L88.8542 92.0813C89.3534 91.9481 89.7023 91.7242 89.963 91.3692C90.6368 90.4514 90.3466 88.9829 89.3993 88.5165L89.1388 88.3881L87.3283 88.3752L85.5179 88.361ZM103.579 88.2739C103.391 88.2739 103.33 88.2918 103.305 88.3539C103.274 88.432 101.99 91.9416 101.179 94.1634C100.955 94.7779 100.754 95.3019 100.732 95.3279C100.71 95.3538 100.527 95.4572 100.325 95.5576C99.9785 95.73 99.9583 95.7493 99.9577 95.8901L99.9563 96.04L101.038 96.0271L102.12 96.0143L102.134 95.893C102.147 95.7832 102.113 95.7502 101.815 95.5862C101.632 95.4855 101.454 95.3854 101.418 95.3636C101.365 95.3309 101.425 95.1117 101.755 94.1277L102.157 92.9319H103.264H104.371L104.604 93.6739C104.731 94.082 104.897 94.6093 104.972 94.8441C105.047 95.0789 105.101 95.2896 105.093 95.3136C105.085 95.3376 104.916 95.4453 104.716 95.5519C104.388 95.7268 104.35 95.7589 104.337 95.8916L104.323 96.0386L105.59 96.0271L106.857 96.0143L106.871 95.8944C106.883 95.7852 106.846 95.7504 106.485 95.5462L106.084 95.3193L105.758 94.2975C105.578 93.7353 105.1 92.2469 104.696 90.9911C104.292 89.7353 103.929 88.6101 103.89 88.4909L103.821 88.2739H103.579ZM99.1364 67.9527H100.661C101.773 67.9527 102.328 67.9725 102.72 68.024C104.395 68.244 105.502 69.0745 106.333 70.7354C106.93 71.9288 107.222 73.2211 107.275 74.8938C107.363 77.6936 106.708 79.7377 105.214 81.3256C104.499 82.0856 103.788 82.4942 102.803 82.7141C102.448 82.7933 102.174 82.8093 100.765 82.8283L99.1364 82.8497V75.4019L99.1364 67.9527ZM56.0034 67.9441L57.7911 67.9669C59.1939 67.9843 59.6519 68.005 59.919 68.0625C60.9897 68.2929 61.7819 68.7451 62.3857 69.471C63.234 70.4911 63.7885 71.8299 64.0438 73.4782C64.1449 74.1305 64.1846 75.8208 64.115 76.5178C63.9221 78.4498 63.3155 79.9536 62.2348 81.1786C61.3575 82.1729 60.4542 82.641 59.1234 82.7926C58.8979 82.8183 58.1037 82.8397 57.3584 82.8397H56.0034V75.3919V67.9441ZM125.44 67.0622L125.427 67.349C125.415 67.6111 125.422 67.6374 125.518 67.6744C125.576 67.6966 126.006 67.9011 126.476 68.1281L127.33 68.5406V75.3876C127.33 81.0794 127.32 82.2435 127.269 82.286C127.235 82.3141 126.81 82.5224 126.324 82.7483L125.44 83.1593L125.427 83.4562L125.413 83.753H130.195C133.854 83.753 134.985 83.7405 135.01 83.6988C135.037 83.6553 135.383 79.9923 135.39 79.6759C135.392 79.6038 135.356 79.5955 135.093 79.6074L134.794 79.6202L134.635 79.9856C134.547 80.1865 134.228 80.9109 133.927 81.5953L133.379 82.8397H131.311H129.243V75.6787V68.5177L130.202 68.0682L131.16 67.6201L131.147 67.3404L131.133 67.0621H128.286L125.44 67.0622ZM95.3332 67.0622L95.3204 67.3405L95.3076 67.6173L96.2655 68.0711L97.2234 68.5235L97.212 75.4104L97.2007 82.296L96.2556 82.7355L95.3105 83.175V83.4333C95.3105 83.5757 95.3258 83.7084 95.3446 83.7273C95.3634 83.7462 97.0082 83.7528 98.9998 83.7416C102.037 83.7244 102.703 83.7086 103.129 83.6459C104.745 83.4081 105.863 82.8598 106.887 81.8065C107.555 81.1191 107.862 80.6944 108.249 79.9185C108.727 78.9583 108.978 78.1396 109.185 76.8603C109.282 76.2631 109.32 74.5047 109.251 73.815C109.091 72.2132 108.641 70.881 107.862 69.7108C106.817 68.142 105.639 67.426 103.646 67.1464C103.141 67.0755 102.636 67.0668 99.2047 67.065L95.3332 67.0622ZM137.669 67.0393V67.3361V67.6316L138.424 67.9954C138.838 68.1954 139.258 68.3954 139.357 68.4393L139.537 68.5192V75.4033V82.2874L139.138 82.4744C138.919 82.577 138.504 82.7688 138.216 82.9011L137.692 83.1422L137.679 83.4476L137.665 83.7544L140.503 83.743L143.34 83.7302V83.4405V83.1508L142.406 82.7256L141.472 82.2988L141.461 75.4119L141.451 68.5235L142.076 68.2309C142.42 68.0696 142.852 67.866 143.035 67.7785L143.367 67.6187L143.354 67.3405L143.34 67.0622L140.504 67.0508L137.669 67.0393ZM82.3751 67.0393V67.3504V67.6615L83.3088 68.0925L84.2439 68.5235L84.2311 75.4161L84.2198 82.3088L83.6504 82.5685C83.3373 82.7108 82.9222 82.9016 82.7281 82.9924L82.3751 83.1565V83.4548V83.753H87.6116H92.8466L92.8722 83.6046C92.8857 83.523 92.9575 82.737 93.0331 81.8579C93.1087 80.9788 93.1809 80.2031 93.1925 80.134L93.2138 80.0084H92.9149H92.6174L92.3071 80.6592C91.8004 81.7241 91.4404 82.4874 91.3578 82.6685L91.2795 82.8383L88.7175 82.8397H86.1555V79.2549V75.6702H88.2705H90.3856L90.7614 76.8347L91.1372 77.9991H91.4019H91.6667V75.2592V72.5192H91.4033H91.14L90.9877 72.9873C90.9039 73.2447 90.7338 73.7482 90.6091 74.1061L90.3814 74.7569H88.2691H86.1555L86.1669 71.3662L86.1783 67.9755L88.6606 67.9654L91.1429 67.9541L91.587 69.1071C91.8307 69.7412 92.0658 70.3564 92.1093 70.4756L92.1876 70.6926H92.4736H92.7598V68.866V67.0393H87.5674H82.3751ZM52.2188 67.0322L52.233 67.3405L52.2458 67.6472L53.1681 68.0854L54.0905 68.5235V75.4047V82.286L53.6919 82.4744C53.4727 82.5779 53.0577 82.7711 52.7696 82.9039L52.2458 83.1451L52.233 83.4533L52.2188 83.7616L55.854 83.7416C58.8964 83.724 59.5713 83.7083 59.9959 83.646C61.6051 83.4098 62.7095 82.8769 63.7492 81.8365C64.9587 80.6263 65.726 78.9931 66.048 76.9488C66.1485 76.3104 66.1887 74.5247 66.1192 73.7836C65.8624 71.0465 64.4994 68.6949 62.6205 67.7486C61.9933 67.4327 61.348 67.2532 60.3759 67.125C60.1289 67.0924 58.5832 67.0671 56.1045 67.0536L52.2188 67.0322ZM153.491 66.831C152.886 66.8348 152.311 66.8641 151.954 66.918C150.213 67.1808 149.014 67.7403 147.96 68.7846C147.167 69.571 146.575 70.4988 146.118 71.6715C145.071 74.3625 145.15 78.0285 146.308 80.3409C147.078 81.8806 148.234 82.9937 149.611 83.5247C150.108 83.7162 150.954 83.8953 151.63 83.9514C152.518 84.025 153.864 83.9532 154.909 83.7758C155.416 83.6897 157.264 83.2115 157.324 83.1508C157.338 83.1373 157.619 79.7303 157.619 79.5803C157.619 79.5201 157.564 79.5061 157.309 79.5061H156.997L156.297 81.1457L155.598 82.7855L155.162 82.8425C154.923 82.8737 154.317 82.8979 153.816 82.8968C151.266 82.891 149.821 82.2477 148.756 80.6449C147.927 79.3977 147.5 77.8995 147.432 76.0126C147.352 73.7613 147.858 71.701 148.856 70.2288C149.178 69.753 149.344 69.5642 149.781 69.1728C150.539 68.4934 151.457 68.0929 152.7 67.8998C153.158 67.8286 155.359 67.821 155.638 67.8898L155.82 67.9341L156.322 69.5538L156.826 71.172H157.144H157.46L157.472 69.2655L157.484 67.3575L157.377 67.3176C157.179 67.242 156.191 67.0334 155.571 66.9365C155.096 66.8624 154.269 66.826 153.491 66.831ZM73.2729 66.811L73.1732 67.0735C73.1186 67.218 72.607 68.6205 72.0359 70.1902C71.4649 71.76 70.6348 74.041 70.1913 75.2592C69.7478 76.4773 69.0788 78.3165 68.7039 79.3462C68.329 80.376 67.9393 81.4501 67.8385 81.7323L67.6549 82.2461L66.8179 82.6913L65.981 83.1365L65.9796 83.422V83.7074H68.3267H70.6752L70.661 83.422L70.6482 83.1365L69.7828 82.6941C69.2445 82.4185 68.9222 82.2286 68.9316 82.1918C68.9486 82.1245 70.1872 78.5227 70.4204 77.8621C70.5046 77.6235 70.6887 77.0892 70.8303 76.6748C71.1004 75.8846 71.6741 74.2232 72.2494 72.5649C72.4367 72.0249 72.7245 71.1926 72.8885 70.7154C73.2477 69.6698 73.2647 69.6254 73.287 69.648C73.322 69.6834 74.1434 72.2835 74.9452 74.8939C75.3965 76.3632 75.8925 77.9763 76.0469 78.4786C76.2012 78.9809 76.5202 80.0153 76.7557 80.7762C76.9912 81.5371 77.1833 82.1843 77.1827 82.2146C77.1822 82.245 76.8029 82.4641 76.3401 82.7027L75.4989 83.1365V83.422L75.4975 83.7074H78.2303H80.9631V83.4205V83.1337L80.6329 82.9653C79.9048 82.5937 79.3472 82.2887 79.2964 82.2346C79.2669 82.2032 78.5619 80.0507 77.7307 77.4511C76.8996 74.8516 76.0372 72.1545 75.8135 71.4575C74.7828 68.2459 74.586 67.629 74.4656 67.2348L74.3361 66.8124H73.8052L73.2729 66.811ZM116.41 66.7168L116.044 67.7343C115.843 68.2939 115.285 69.8306 114.805 71.1492C114.324 72.4678 113.535 74.6358 113.051 75.967C112.567 77.2981 111.973 78.9318 111.73 79.5974C111.487 80.263 111.178 81.1132 111.044 81.4868C110.91 81.8605 110.795 82.1721 110.788 82.1789C110.769 82.1966 109.931 82.6524 109.487 82.8867L109.111 83.0837V83.3734V83.6617H111.457H113.803V83.3762L113.801 83.0908L112.954 82.657C112.488 82.4184 112.098 82.2011 112.087 82.1732C112.07 82.1289 112.414 81.1121 114.137 76.1268C114.755 74.3377 115.291 72.787 115.367 72.5649C115.633 71.7843 116.404 69.5773 116.414 69.5666C116.432 69.5488 117.195 71.9428 117.835 74.0262C118.124 74.968 118.802 77.1704 119.339 78.9195C119.877 80.6687 120.316 82.1205 120.316 82.1461C120.316 82.1965 120.06 82.345 119.188 82.7983L118.631 83.088V83.3748V83.6617H121.363H124.096V83.3705V83.0794L123.256 82.6385L122.418 82.1975L122.19 81.5025C122.065 81.1206 121.784 80.2527 121.568 79.5746C121.352 78.8964 121.087 78.0642 120.978 77.7251C120.869 77.386 120.603 76.5538 120.386 75.8756C120.169 75.1975 119.809 74.0775 119.587 73.3868C119.365 72.6961 118.833 71.0316 118.404 69.6879C117.975 68.3442 117.587 67.1318 117.543 66.9936L117.462 66.7425L116.937 66.7296L116.41 66.7168Z" fill="white"/>
</g>
</svg>
