<svg width="170" height="150" viewBox="0 0 170 150" fill="none" xmlns="http://www.w3.org/2000/svg">
<g opacity="0.6">
<path fill-rule="evenodd" clip-rule="evenodd" d="M95.3984 68.7365L83.8176 87.1074H70.9718L73.9354 82.5017H81.6347L84.5757 77.8983H66.7764L63.8359 82.5017H68.0525L62.2022 91.6972H86.6176L95.6355 77.529L98.9237 82.5017H95.9588L93.1511 87.1074H101.931L104.979 91.6972H110.58L95.3984 68.7365ZM91.527 68.6926H72.5831L69.7088 73.2943H88.631L91.527 68.6926ZM100.273 69.0862H100.278L100.759 70.4194H101.006L101.486 69.0862H101.493V70.4194H101.778V68.694H101.359L100.895 70.0435H100.887L100.411 68.694H99.9848V70.4194H100.273V69.0862ZM98.9362 70.4194H99.24V68.9529H99.7878V68.6939H98.3897V68.9529H98.9363L98.9362 70.4194ZM85.8535 115.003C67.3703 115.003 52.3333 100.023 52.3333 81.6092C52.3333 63.1954 67.3703 48.2149 85.8535 48.2149C104.336 48.2149 119.374 63.1955 119.374 81.6092C119.374 100.023 104.336 115.003 85.8535 115.003ZM85.8535 43.2461C64.6201 43.2461 47.3457 60.4556 47.3457 81.6092C47.3457 102.763 64.6201 119.972 85.8535 119.972C107.087 119.972 124.361 102.763 124.361 81.6092C124.361 60.4556 107.087 43.2461 85.8535 43.2461Z" fill="white"/>
</g>
</svg>
