<svg width="170" height="150" viewBox="0 0 170 150" fill="none" xmlns="http://www.w3.org/2000/svg">
<g opacity="0.6">
<path fill-rule="evenodd" clip-rule="evenodd" d="M65.0568 83.8946C65.5708 82.7162 65.887 81.0513 65.887 80.2067C65.8892 77.5544 64.7895 75.1304 63.0262 73.3938C61.2651 71.6579 58.8067 70.5742 56.1193 70.5742C53.4326 70.5742 50.9758 71.6579 49.217 73.3938C47.4529 75.1304 46.3555 77.5544 46.3555 80.2067C46.3555 82.856 47.4567 85.2784 49.217 87.015C53.3494 91.0909 56.7723 88.4179 56.7723 91.963V93.2193H62.2472V91.4994C62.2472 85.6373 57.4634 84.8912 56.0674 84.5605C55.2464 84.3658 51.8228 83.7105 51.8228 80.2067C51.8228 79.0482 52.3016 77.9851 53.0836 77.2077C53.8672 76.4356 54.9272 75.9667 56.1193 75.9667C57.3145 75.9667 58.3699 76.4356 59.158 77.2077C59.9408 77.9851 60.3998 79.0268 60.4189 80.2067C60.4487 82.0044 58.9801 83.5479 58.3936 83.8946H65.0568Z" fill="white"/>
<path fill-rule="evenodd" clip-rule="evenodd" d="M40.2217 71.2734V76.5086H30.7656V78.1039V81.8117V87.1293H36.1443V81.8117H40.2217V87.1293H45.6012V81.8117V76.5086V71.2734H40.2217Z" fill="white"/>
<path fill-rule="evenodd" clip-rule="evenodd" d="M65.3325 83.8991C65.8526 82.7207 66.1726 81.0544 66.1726 80.2112C66.1756 77.5589 65.0614 75.1373 63.2713 73.4014C61.4843 71.6632 58.9908 70.5795 56.2629 70.5811C53.5388 70.5795 51.0453 71.6632 49.2606 73.4014C47.4705 75.1373 46.3555 77.5589 46.3555 80.2112C46.3555 82.8597 47.4735 85.2845 49.2606 87.0196C53.454 91.0924 56.9273 88.4217 56.9273 91.9645V93.2208H62.4816V91.5009C62.4816 85.6419 57.6276 84.8957 56.2125 84.5643C55.377 84.3688 51.9037 83.7151 51.9037 80.2112C51.9037 79.055 52.3909 77.9897 53.1829 77.2115C53.981 76.4401 55.0539 75.972 56.2629 75.9712C57.4764 75.972 58.5509 76.4401 59.3474 77.2115C60.1417 77.9897 60.6068 79.0321 60.6266 80.2112C60.6549 82.009 59.1664 83.5509 58.5708 83.8991H65.3325Z" fill="white"/>
<path fill-rule="evenodd" clip-rule="evenodd" d="M30.7578 71.249H14.7012V76.5414H20.0447V87.13H25.4143V76.5414H30.7578V71.249Z" fill="white"/>
<path fill-rule="evenodd" clip-rule="evenodd" d="M77.7097 71.2031V78.8523L71.9904 71.2031H67.002V87.1682H71.7705V78.8683L78.0419 87.1682H82.6905V71.2031H77.7097Z" fill="white"/>
<path fill-rule="evenodd" clip-rule="evenodd" d="M92.2818 70.8809C87.2719 70.8809 83.3496 74.5145 83.3496 79.154V79.1998C83.3496 83.8133 87.2521 87.4278 92.2344 87.4278C97.2443 87.4278 101.169 83.7942 101.169 79.154V79.1104C101.169 74.4962 97.2641 70.8809 92.2818 70.8809ZM96.269 79.154V79.1998C96.269 81.4954 94.5553 83.2267 92.2818 83.2267C90.0327 83.2267 88.2709 81.4382 88.2709 79.154V79.1104C88.2709 76.814 89.9754 75.0819 92.2344 75.0819C94.4965 75.0819 96.269 76.8705 96.269 79.154Z" fill="white"/>
<path fill-rule="evenodd" clip-rule="evenodd" d="M116.369 76.7657V76.7214C116.369 75.1512 115.878 73.8835 114.912 72.9548C113.755 71.7925 111.968 71.2021 109.6 71.2021H101.893V87.229H106.621V82.4643H108.695L110.814 87.229H116.268L113.348 81.5044C115.382 80.6009 116.369 79.0506 116.369 76.7657ZM111.619 76.658V76.7023C111.619 77.7783 110.787 78.4213 109.394 78.4213H106.621V74.9389H109.371C110.211 74.9389 111.619 75.1627 111.619 76.658Z" fill="white"/>
<path fill-rule="evenodd" clip-rule="evenodd" d="M124.007 71.2031H117.43V87.2659H123.912C129.683 87.2659 133.561 84.0202 133.561 79.1898V79.1448C133.561 74.3213 129.811 71.2031 124.007 71.2031ZM128.525 79.212V79.257C128.525 81.6627 126.862 83.0977 124.078 83.0977H122.346V75.3714H124.078C126.821 75.3714 128.525 76.8438 128.525 79.212Z" fill="white"/>
<path fill-rule="evenodd" clip-rule="evenodd" d="M134.178 87.2023H139.131V71.2021H134.178V87.2023Z" fill="white"/>
<path fill-rule="evenodd" clip-rule="evenodd" d="M152.161 81.2349L152.074 81.338C151.12 82.4522 150.145 83.193 148.498 83.193C146.325 83.193 144.747 81.4892 144.747 79.1431V79.0981C144.747 76.8139 146.36 75.0917 148.498 75.0917C149.86 75.0917 150.927 75.6431 151.956 76.8788L152.047 76.988L155.688 74.2792L155.601 74.1616C153.917 71.9155 151.608 70.8242 148.545 70.8242C143.547 70.8242 139.777 74.4006 139.777 79.1431V79.1882C139.777 83.9048 143.467 87.4605 148.358 87.4605C151.566 87.4605 153.835 86.3478 155.716 83.8544L155.809 83.7329L152.161 81.2349Z" fill="white"/>
</g>
</svg>
