<svg width="170" height="150" viewBox="0 0 170 150" fill="none" xmlns="http://www.w3.org/2000/svg">
<g opacity="0.6">
<path d="M111.975 107.948C111.975 107.853 111.975 107.662 111.975 107.567C111.975 107.471 111.975 107.471 111.975 107.376C111.975 103.366 111.975 99.2614 111.975 95.252C111.975 95.1566 111.975 95.0611 111.975 94.9657C111.975 94.2974 111.975 93.6292 111.975 92.961C111.975 92.77 111.975 92.6746 111.975 92.4836C111.975 76.5415 111.975 60.5994 111.975 44.6573C111.975 44.5618 111.975 44.4664 111.975 44.3709C111.975 43.6072 111.594 43.1299 110.925 42.939C110.83 42.939 110.734 42.939 110.639 42.8435C110.353 42.8435 110.066 42.8435 109.78 42.8435C107.775 42.8435 105.866 42.8435 103.861 42.8435C103.766 42.8435 103.575 42.939 103.479 42.748C103.288 42.939 103.002 42.8435 102.716 42.8435C102.62 42.939 102.429 42.939 102.334 42.939C97.5608 42.939 92.6922 42.939 87.9191 42.939C87.8236 42.939 87.7282 42.939 87.5373 42.8435C87.4418 42.8435 87.3463 42.939 87.2509 42.939C86.7736 42.939 86.3917 42.939 85.9144 42.939C85.819 42.939 85.7235 42.939 85.628 42.8435C85.5326 42.939 85.4371 42.939 85.3416 42.939C84.4825 42.939 83.6233 42.939 82.7642 42.939C82.6687 42.939 82.5732 42.939 82.4778 42.8435C82.3823 42.8435 82.3823 42.8435 82.2869 42.8435C82.0959 42.939 82.0005 42.939 81.8096 42.939C79.6139 42.939 77.3229 42.939 75.1272 42.939C74.9363 42.939 74.7454 42.939 74.6499 43.0344C74.6499 43.0344 74.6499 43.0344 74.5545 43.0344C74.5545 43.1299 74.5545 43.2254 74.6499 43.3208C74.7454 43.5117 74.9363 43.7027 75.0318 43.9891C75.1272 44.18 75.3182 44.2754 75.6045 44.2754C76.0818 44.2754 76.4637 44.18 76.941 44.18C85.819 44.18 94.6014 44.18 103.479 44.18C104.911 44.18 106.248 44.0845 107.68 44.18C108.157 44.18 108.634 44.2754 109.112 44.2754C109.78 44.2754 110.162 44.6573 110.257 45.3255C110.257 45.7074 110.353 46.1847 110.353 46.5665C110.353 53.8216 110.353 61.1722 110.353 68.4273C110.353 68.7137 110.257 69 110.257 69.3819C110.353 70.241 110.353 71.1002 110.353 71.9594C110.353 77.4007 110.353 82.842 110.353 88.2833C110.353 89.6198 110.448 91.0517 110.257 92.3882C110.257 92.5791 110.353 92.6746 110.353 92.8655C110.353 94.011 110.353 95.0611 110.353 96.2067C110.353 96.3976 110.257 96.684 110.353 96.8749C110.353 97.3522 110.448 97.8295 110.448 98.3068C110.448 102.698 110.448 107.089 110.448 111.481C110.448 112.244 110.353 113.008 110.257 113.772C110.162 114.344 109.78 114.535 109.207 114.631C109.016 114.631 108.825 114.631 108.634 114.631C92.5013 114.631 76.3682 114.631 60.3307 114.631C60.1397 114.631 59.9488 114.631 59.7579 114.631C59.2806 114.535 58.8987 114.249 58.7078 113.772C58.7078 113.294 58.5169 112.817 58.5169 112.34C58.5169 107.185 58.4214 102.125 58.5169 96.9703C58.4214 97.0658 58.326 97.1613 58.326 97.3522C58.326 97.4477 58.326 97.5431 58.326 97.6386V113.581C58.326 113.676 58.326 113.772 58.326 113.867C58.2305 113.676 58.2305 113.581 58.2305 113.39C58.2305 108.139 58.2305 102.794 58.2305 97.5431C58.2305 90.288 58.2305 82.9375 58.2305 75.6824C58.2305 65.6589 58.2305 55.6354 58.2305 45.6119C58.2305 45.421 58.2305 45.2301 58.326 45.1346C58.326 44.8482 58.5169 44.5618 58.8033 44.4664C58.8987 44.4664 58.9942 44.4664 58.9942 44.5618C59.376 44.4664 59.4715 44.3709 59.6624 44.3709C59.7579 44.3709 59.8533 44.2754 60.0443 44.2754H60.1397C60.2352 44.2754 60.4261 44.2754 60.5216 44.2754C60.7125 44.2754 60.808 44.2754 60.9989 44.2754H60.5216C60.3307 44.2754 60.0443 44.2754 59.8533 44.2754C60.0443 44.18 60.1397 44.18 60.3307 44.18C63.7673 44.18 67.2994 44.18 70.736 44.18C70.8314 44.18 70.9269 44.18 71.1178 44.18C70.8314 43.7027 70.6405 43.3208 70.4496 42.939C69.8768 42.939 69.3041 42.939 68.7313 42.939C66.4402 42.939 64.1491 42.939 61.858 42.939C61.7626 42.939 61.6671 42.939 61.6671 42.939C61.5717 42.939 61.5717 42.939 61.5717 42.8435C61.2853 42.748 61.2853 42.8435 61.2853 42.8435C61.2853 42.8435 61.2853 42.8435 61.1898 42.8435H61.0943C60.9989 42.8435 60.9989 42.939 60.9034 42.939C60.2352 42.939 59.4715 42.939 58.8033 42.939C58.5169 42.939 58.2305 43.0344 58.0396 43.2254C57.6577 43.4163 57.4668 43.7981 57.4668 44.2754C57.4668 44.3709 57.4668 44.4664 57.4668 44.5618V114.535C57.4668 114.631 57.4668 114.631 57.4668 114.726C57.4668 115.394 57.7532 115.872 58.4214 116.063C58.7078 116.158 58.8987 116.158 59.1851 116.158L59.2806 116.063C59.4715 115.967 59.6624 115.967 59.8533 115.967C66.9175 115.967 73.9817 115.967 80.9504 115.967C81.1413 115.967 81.3322 115.967 81.5232 116.063C81.5232 116.063 81.5232 116.063 81.5232 116.158C81.5232 116.063 81.6186 116.063 81.7141 116.063C81.7141 116.063 81.8096 116.063 81.8096 116.158C81.905 116.158 82.0959 116.158 82.1914 116.158C91.3557 116.158 100.52 116.158 109.684 116.158C109.78 116.158 109.971 116.158 110.066 116.158C110.257 116.158 110.544 116.158 110.734 116.063C111.307 115.967 111.88 115.49 111.88 114.631C111.88 112.531 111.88 110.43 111.88 108.33C111.975 108.235 111.975 108.139 111.975 107.948Z" fill="white"/>
<path d="M81.6184 101.408C81.3321 101.408 81.0457 101.408 80.7593 101.408C80.6638 101.408 80.5684 101.504 80.5684 101.599C80.5684 102.172 80.5684 102.84 80.5684 103.508C80.7593 103.317 80.9502 103.031 81.0457 102.84C81.1411 102.649 81.3321 102.458 81.6184 102.458C82.0003 102.554 82.0957 102.172 82.1912 101.886C82.1912 101.695 81.9048 101.408 81.6184 101.408Z" fill="white"/>
<path d="M84.1009 110.095C84.1963 110.095 84.2918 110.095 84.3872 110.095C84.8646 110.19 85.1509 110.381 85.2464 110.858C85.3419 111.336 85.3419 111.718 85.2464 112.195C85.0555 112.672 84.4827 113.054 83.9099 112.863C83.8145 112.863 83.8145 112.768 83.8145 112.672C83.8145 112.29 83.8145 111.908 83.8145 111.431C83.8145 111.049 83.8145 110.667 83.8145 110.286C83.9099 110.095 84.0054 110.095 84.1009 110.095ZM83.3372 113.531C83.719 113.531 84.1009 113.531 84.4827 113.531C85.3419 113.436 85.9146 112.959 86.1056 112.099C86.201 111.718 86.201 111.24 86.1056 110.858C86.0101 109.999 85.5328 109.617 84.6736 109.522C84.1963 109.426 83.8145 109.522 83.3372 109.522C83.0508 109.522 83.0508 109.522 83.0508 109.808C83.0508 110.381 83.0508 110.954 83.0508 111.527V112.481C83.0508 112.768 83.0508 113.054 83.0508 113.436C83.1462 113.436 83.1462 113.531 83.3372 113.531Z" fill="white"/>
<path d="M96.2247 112.386C96.1292 112.767 95.8428 112.863 95.461 112.863C95.1746 112.863 94.9837 112.767 94.7928 112.481C94.5064 111.813 94.5064 111.144 94.7928 110.572C94.8882 110.285 95.1746 110.094 95.461 110.094C95.8428 110.094 96.0337 110.285 96.1292 110.572C96.2247 110.858 96.2247 111.144 96.2247 111.526C96.4156 111.813 96.3201 112.099 96.2247 112.386ZM96.4156 109.617C95.5564 109.14 94.5064 109.522 94.1245 110.381C93.9336 110.763 93.9336 111.144 93.9336 111.526C93.9336 111.908 93.9336 112.29 94.1245 112.576C94.22 112.958 94.4109 113.245 94.7928 113.34C95.6519 113.817 96.702 113.436 97.0838 112.576C97.3702 111.813 97.3702 111.049 97.0838 110.19C96.8929 109.999 96.702 109.713 96.4156 109.617Z" fill="white"/>
<path d="M80.1873 109.427C79.9964 109.427 79.9009 109.427 79.9009 109.713C79.9009 110.095 79.9009 110.572 79.9009 110.954C79.9009 111.336 79.9009 111.718 79.9009 112.004C79.9009 112.195 79.9009 112.291 79.9009 112.482C79.8055 112.863 79.6146 112.959 79.1372 112.959C78.7554 112.959 78.5645 112.768 78.5645 112.386C78.5645 112.195 78.5645 112.1 78.5645 111.909C78.5645 111.241 78.5645 110.572 78.5645 109.904C78.5645 109.331 78.6599 109.427 78.0872 109.427C77.8008 109.427 77.8008 109.427 77.8008 109.713C77.8008 110.572 77.8008 111.336 77.8008 112.195C77.8008 112.291 77.8008 112.482 77.8008 112.577C77.8962 113.054 78.1826 113.436 78.6599 113.532C78.8509 113.627 79.1372 113.627 79.3282 113.627C80.0919 113.627 80.5692 113.245 80.6646 112.482C80.6646 112.386 80.6646 112.195 80.6646 112.1C80.6646 111.432 80.6646 110.668 80.6646 110C80.6646 109.427 80.7601 109.427 80.1873 109.427Z" fill="white"/>
<path d="M101.187 112.863C100.996 112.958 100.71 112.958 100.519 112.863C100.233 112.863 99.8508 112.767 99.5645 112.672C99.5645 112.863 99.5645 113.054 99.5645 113.149C99.5645 113.34 99.5645 113.436 99.7554 113.436C100.233 113.531 100.615 113.531 101.092 113.531C101.283 113.531 101.474 113.436 101.665 113.34C102.142 113.149 102.333 112.767 102.333 112.29C102.333 111.813 102.142 111.526 101.76 111.24C101.569 111.145 101.283 111.049 100.996 110.954C100.805 110.858 100.615 110.858 100.519 110.763C100.233 110.572 100.328 110.285 100.615 110.095C100.71 109.999 100.901 109.999 100.996 109.999C101.378 109.999 101.665 110.095 102.046 110.095C102.142 109.904 102.046 109.713 102.046 109.522C102.046 109.426 101.951 109.426 101.951 109.331C101.378 109.235 100.805 109.14 100.233 109.426C99.8508 109.617 99.5645 109.904 99.5645 110.381C99.5645 110.858 99.7554 111.24 100.137 111.431C100.328 111.526 100.615 111.622 100.805 111.717C100.996 111.813 101.092 111.813 101.283 111.908C101.474 112.004 101.569 112.195 101.569 112.386C101.569 112.672 101.378 112.863 101.187 112.863Z" fill="white"/>
<path d="M67.395 113.532C67.8723 113.627 68.4451 113.627 68.9224 113.436C69.3997 113.245 69.6861 112.863 69.6861 112.386C69.6861 111.909 69.4952 111.527 69.0179 111.336C68.827 111.241 68.5406 111.145 68.3497 111.05C68.1587 110.954 68.0633 110.954 67.8723 110.859C67.586 110.668 67.6814 110.286 67.9678 110.19C68.0633 110.095 68.2542 110.095 68.3497 110.095C68.7315 110.095 69.0179 110.095 69.3997 110.19C69.4952 110 69.3997 109.809 69.3997 109.713C69.3997 109.618 69.3043 109.522 69.2088 109.522C68.827 109.427 68.4451 109.427 68.0633 109.427C67.8723 109.427 67.6814 109.522 67.4905 109.522C67.1086 109.713 66.8223 110 66.8223 110.477C66.8223 110.954 67.0132 111.241 67.395 111.527C67.586 111.622 67.8723 111.718 68.0633 111.813C68.2542 111.909 68.3497 111.909 68.5406 112.004C68.7315 112.1 68.827 112.291 68.827 112.482C68.827 112.672 68.636 112.768 68.4451 112.863C68.2542 112.959 67.9678 112.959 67.7769 112.863C67.4905 112.863 67.2041 112.672 66.8223 112.672C66.8223 112.768 66.8223 112.768 66.8223 112.863C66.9177 113.532 66.7268 113.436 67.395 113.532Z" fill="white"/>
<path d="M89.0635 113.531C89.7317 113.531 90.3045 113.531 90.9727 113.531C91.3546 113.531 91.45 113.531 91.3546 113.054C91.3546 112.959 91.2591 112.863 91.1636 112.863C90.9727 112.863 90.7818 112.863 90.5909 112.863C90.4954 112.863 90.3999 112.863 90.3999 112.672C90.3999 111.813 90.3999 111.049 90.3999 110.19C90.3999 110.095 90.4954 109.999 90.5909 109.999C90.6863 109.999 90.8773 109.999 90.9727 109.999C91.2591 109.999 91.2591 109.999 91.2591 109.713C91.2591 109.713 91.2591 109.713 91.2591 109.618C91.2591 109.331 91.2591 109.331 90.9727 109.331C90.3045 109.331 89.7317 109.331 89.0635 109.331C88.6816 109.331 88.6816 109.236 88.6816 109.808C88.6816 109.904 88.7771 109.999 88.8726 109.999C89.0635 109.999 89.2544 109.999 89.3499 109.999C89.5408 109.999 89.5408 110.095 89.5408 110.19C89.5408 110.572 89.5408 110.954 89.5408 111.336C89.5408 111.718 89.5408 112.1 89.5408 112.481C89.5408 112.768 89.5408 112.768 89.2544 112.768C89.1589 112.768 88.968 112.768 88.8726 112.768C88.6816 112.768 88.6816 112.863 88.6816 112.959V113.054C88.7771 113.531 88.7771 113.531 89.0635 113.531Z" fill="white"/>
<path d="M74.4593 110.095C74.6502 110.095 74.8411 110.095 75.0321 110.095C75.1275 110.095 75.223 110.095 75.223 110.095C75.3185 109.904 75.3185 109.713 75.223 109.618C75.223 109.522 75.0321 109.522 74.9366 109.522C74.1729 109.522 73.4092 109.522 72.6455 109.522C72.2637 109.522 72.2637 109.522 72.2637 109.904C72.2637 110 72.3591 110.095 72.4546 110.095C72.6455 110.095 72.9319 110.095 73.1228 110.095C73.4092 110.095 73.4092 110.095 73.4092 110.382C73.4092 110.859 73.4092 111.336 73.4092 111.814C73.4092 112.195 73.4092 112.577 73.4092 112.959C73.4092 113.532 73.4092 113.532 73.982 113.532C74.0774 113.532 74.1729 113.532 74.1729 113.341C74.1729 113.245 74.1729 113.15 74.1729 112.959C74.1729 112.1 74.1729 111.241 74.1729 110.382C74.1729 110.095 74.1729 110.095 74.4593 110.095Z" fill="white"/>
<path d="M60.0444 109.427C59.949 109.427 59.949 109.427 59.8535 109.522C59.8535 109.618 59.949 109.713 59.949 109.713C60.0444 109.713 60.0444 109.618 60.0444 109.522C60.1399 109.427 60.0444 109.427 60.0444 109.427Z" fill="white"/>
<path d="M68.1582 35.0628C68.3492 34.9673 68.3492 34.9673 68.4446 35.1582C68.6356 35.5401 68.9219 35.9219 69.1129 36.3038C69.2083 36.3992 69.3038 36.5902 69.3038 36.6856C69.3038 36.6856 69.3038 36.7811 69.3992 36.7811C69.3992 36.8765 69.3038 36.972 69.2083 36.972C69.1129 36.972 69.1129 36.972 69.0174 36.972C69.0174 36.972 69.0174 36.8765 68.9219 36.8765C68.6356 36.3038 68.2537 35.8265 67.9673 35.2537C68.0628 35.1582 68.0628 35.1582 68.1582 35.0628ZM69.972 38.1176C70.0675 38.0221 70.1629 38.0221 70.2584 38.1176C70.3539 38.213 70.3539 38.3085 70.4493 38.4039C72.0722 41.1723 73.695 43.9407 75.3179 46.6137C76.2725 48.332 77.3226 49.9548 78.2772 51.6731C78.3727 51.7686 78.3727 51.864 78.3727 51.9595C78.3727 52.055 78.3727 52.1504 78.2772 52.1504C78.1817 52.2459 78.0863 52.1504 78.0863 52.1504C77.9908 52.055 77.9908 51.9595 77.8953 51.8641C75.8906 48.4274 73.886 44.9908 71.8813 41.5542C71.3085 40.5996 70.7357 39.5495 70.1629 38.5949C70.0675 38.4994 70.0675 38.4039 70.0675 38.3085C69.8766 38.3085 69.8766 38.213 69.972 38.1176ZM80.3774 54.0597C80.4728 53.9642 80.5683 53.8687 80.6637 53.8687C80.6637 53.9642 80.5683 54.0597 80.3774 54.0597C80.2819 54.2506 80.091 54.4415 79.9 54.537C79.2318 55.0143 78.5636 55.3961 77.7999 55.4916C77.7044 55.4916 77.5135 55.4916 77.418 55.4916C76.9407 55.3961 76.8453 55.1098 77.0362 54.7279C77.1317 54.7279 77.1317 54.8234 77.2271 54.8234C77.3226 55.0143 77.5135 55.1098 77.7999 55.1098C78.1817 55.1098 78.5636 55.0143 78.9454 54.9188C79.2318 54.8234 79.5182 54.6324 79.8046 54.537C79.9955 54.3461 80.1864 54.1551 80.3774 54.0597ZM67.2036 36.3992C67.3946 36.5902 67.5855 36.972 67.6809 37.1629C67.7764 37.3539 67.9673 37.4493 68.2537 37.4493C68.3492 37.4493 68.4446 37.4493 68.5401 37.4493C68.6356 37.4493 68.6356 37.4493 68.731 37.5448C68.8265 37.6402 68.9219 37.8312 69.0174 38.0221C69.0174 38.213 68.9219 38.213 68.8265 38.3085C68.731 38.4994 68.6356 38.6903 68.8265 38.9767C68.8265 39.0722 68.9219 39.0722 68.9219 39.1676C70.8312 42.4133 72.7404 45.659 74.6496 49.0002C74.936 49.4775 75.2224 49.8594 75.4133 50.3367C75.6997 51.1004 76.0816 51.8641 76.5589 52.5323C76.5589 52.5323 76.6543 52.5323 76.6543 52.4368L76.7498 52.5323C76.8453 52.8187 77.0362 52.8187 77.2271 52.9141C77.5135 52.9141 77.7044 52.9141 77.9908 52.8187C78.4681 52.6277 78.85 52.4368 79.2318 52.1504C79.3273 52.055 79.3273 52.055 79.4227 52.055C79.4227 52.1504 79.3273 52.2459 79.2318 52.2459C78.659 52.7232 78.0863 53.1051 77.3226 53.296C77.1317 53.3914 76.9407 53.3914 76.6543 53.3914C76.4634 53.3914 76.368 53.3914 76.2725 53.2005L76.177 53.1051C76.177 53.1051 76.177 53.1051 76.177 53.0096C75.9861 53.1051 75.9861 53.2005 76.0816 53.3914C76.177 53.6778 76.368 53.9642 76.4634 54.1551C76.6543 54.4415 76.5589 54.6324 76.368 54.7279C76.2725 54.8234 76.177 54.8234 76.0816 54.9188C75.6997 55.3007 75.3179 55.6825 75.127 56.2553C74.7451 56.7326 74.4587 57.3054 74.4587 57.9736C74.3633 57.9736 74.3633 58.0691 74.4587 58.1645C74.5542 58.7373 74.8406 59.0237 75.3179 59.2146C76.0816 59.5965 76.9407 59.5965 77.7999 59.4055C81.141 58.6418 83.814 57.019 85.6278 54.1551C85.7232 53.7733 85.9141 53.3914 85.9141 53.0096C85.7232 52.5323 85.4368 52.1504 85.055 51.9595C84.9595 51.864 84.7686 51.864 84.5777 51.9595C84.3867 51.9595 84.1958 51.8641 83.9094 51.8641H83.814C82.7639 51.8641 81.8093 51.864 80.8547 52.2459H80.7592C80.5683 52.3414 80.3774 52.2459 80.2819 52.055C80.1864 51.8641 80.091 51.6731 79.9955 51.4822C79.8046 51.1958 79.5182 50.9094 79.1364 50.9094C78.85 50.9094 78.659 50.7185 78.5636 50.5276C77.7044 49.0957 76.7498 47.6637 75.9861 46.2318C75.0315 44.5135 74.0769 42.8906 73.0268 41.1723C72.7404 40.695 72.454 40.1223 72.0722 39.6449C71.9767 39.5495 71.9767 39.454 71.8813 39.3586C71.5949 38.7858 71.213 38.213 70.9266 37.6402C70.8312 37.3539 70.6403 37.2584 70.2584 37.3539C70.1629 37.3539 70.0675 37.4493 70.0675 37.3539C69.972 37.2584 69.8766 37.0675 69.7811 36.8765C69.6856 36.7811 69.8766 36.6856 69.972 36.5902C70.1629 36.3992 70.1629 36.2083 69.972 35.9219C69.7811 35.6355 69.5902 35.4446 69.4947 35.1582C69.3038 34.8719 69.1129 34.5855 69.0174 34.2991C68.9219 34.1082 68.731 34.0127 68.4446 34.0127C67.7764 34.1082 67.2036 34.49 66.7263 35.0628C66.6309 35.2537 66.6309 35.3492 66.6309 35.5401C66.8218 35.8265 67.0127 36.1129 67.2036 36.3992Z" fill="white"/>
<path d="M71.7868 60.2645C71.5004 60.3599 71.3095 60.2645 71.1186 60.169C71.0231 60.169 70.8322 60.0736 70.7367 60.0736C69.3048 59.1189 67.8729 58.2598 66.25 57.4961C66.25 57.5916 66.25 57.687 66.3455 57.687C66.5364 57.9734 66.7273 58.1643 67.0137 58.4507C67.3001 58.7371 67.6819 59.0235 67.9683 59.4053C68.3502 59.8826 68.732 60.2645 69.2093 60.6463C69.3048 60.7418 69.4002 60.9327 69.5912 61.0282C70.3549 61.7919 71.1185 62.4601 71.6913 63.3193C71.8822 63.4147 71.9777 63.4147 72.1686 63.2238V63.1283C72.0732 62.9374 72.0732 62.7465 72.1686 62.4601C72.1686 61.9828 72.1686 61.5055 72.2641 61.0282C72.2641 60.8373 72.2641 60.7418 72.2641 60.5509C72.0732 60.2645 71.9777 60.169 71.7868 60.2645Z" fill="white"/>
<path d="M86.1061 54.4412C86.0106 54.6321 85.9151 54.8231 85.8197 55.014C85.7242 55.3004 85.6288 55.4913 85.4378 55.6822C85.1515 56.0641 84.7696 56.4459 84.3878 56.8278C84.3878 56.8278 84.2923 56.8278 84.2923 56.9232C83.4331 57.7824 82.3831 58.4506 81.333 59.0234C80.2829 59.5962 79.1374 60.0735 77.8964 60.2644C77.61 60.3599 77.3236 60.3599 77.0372 60.3599C76.7508 60.3599 76.5599 60.3599 76.2735 60.3599C76.178 60.3599 76.0826 60.3599 75.9871 60.2644C75.6053 60.2644 75.3189 60.1689 75.0325 59.978C74.8416 59.8825 74.7461 59.8825 74.6507 60.0735C74.4597 60.4553 74.3643 60.7417 74.3643 61.1235C74.3643 61.219 74.3643 61.3145 74.3643 61.4099C74.2688 61.5054 74.1733 61.5054 73.9824 61.5054C73.9824 61.6009 73.9824 61.6963 74.0779 61.7918C74.5552 62.6509 75.2234 63.4146 75.7007 64.2738L75.7962 64.3692C75.8917 64.4647 75.9871 64.4647 76.0826 64.4647C76.369 64.4647 76.369 64.4647 76.4644 64.7511C76.4644 64.8466 76.5599 64.942 76.5599 64.942C76.5599 65.2284 76.6554 65.5148 76.9417 65.8012C77.419 66.3739 77.8964 66.8513 78.2782 67.424C78.4691 67.615 78.4691 67.615 78.6601 67.424C79.0419 66.8513 79.4237 66.3739 79.7101 65.8012C79.8056 65.6103 79.9011 65.5148 79.9965 65.3239C79.9965 65.2284 80.092 65.1329 80.092 65.1329C80.1874 65.0375 80.1874 64.942 80.2829 64.8466C80.4738 64.6556 80.5693 64.4647 80.6647 64.2738C80.9511 63.8919 81.1421 63.4146 81.4284 63.1282C81.5239 63.0328 81.5239 62.9373 81.6194 62.8419C81.8103 62.5555 81.9058 62.3646 82.0967 62.1736C82.1921 61.9827 82.2876 61.7918 82.3831 61.6963C82.4785 61.6009 82.4785 61.6009 82.4785 61.5054C82.6694 61.0281 82.9558 60.6462 83.2422 60.2644C83.3377 60.1689 83.4331 59.978 83.4331 59.8825C83.815 59.4052 84.0059 58.9279 84.2923 58.3552C84.3878 58.0688 84.4832 57.7824 84.4832 57.496C84.4832 57.4005 84.4832 57.3051 84.4832 57.2096C84.4832 57.1142 84.4832 57.0187 84.5787 57.0187C84.6741 57.0187 84.6741 57.1142 84.6741 57.2096C84.6741 57.4005 84.7696 57.496 84.7696 57.6869C84.7696 58.2597 84.9605 58.737 85.3424 59.2143C85.5333 59.4052 85.6288 59.6916 85.7242 59.8825C85.9151 60.1689 86.1061 60.4553 86.297 60.7417C86.297 60.7417 86.297 60.7417 86.3925 60.8372C86.3925 60.9326 86.4879 60.9326 86.4879 61.0281C86.8698 61.7918 87.3471 62.46 87.8244 63.1282C87.8244 63.1282 87.8244 63.1282 87.9198 63.2237C87.9198 63.3192 88.0153 63.4146 88.0153 63.4146C88.3972 63.9874 88.779 64.5602 89.1608 65.1329C89.1608 65.2284 89.2563 65.2284 89.2563 65.3239C89.7336 65.9921 90.1155 66.6603 90.5928 67.3286C90.8792 67.8059 90.8792 67.8059 91.261 67.3286C91.5474 66.9467 91.7383 66.6603 92.0247 66.3739C92.1202 66.2785 92.3111 66.0876 92.3111 65.9921C92.5975 65.8012 92.7884 65.5148 92.7884 65.1329C92.7884 64.942 92.8839 64.7511 92.9793 64.5602C93.4566 64.5602 93.4566 64.5602 93.743 64.1783C93.9339 63.8919 94.0294 63.6056 94.3158 63.4146C94.4112 63.3192 94.4112 63.3192 94.4112 63.2237C94.7931 62.7464 94.984 62.1736 95.3659 61.6963C95.2704 61.5054 95.1749 61.5054 94.984 61.6009C94.8886 61.6963 94.7931 61.6963 94.6976 61.7918C94.6022 61.6963 94.6022 61.6963 94.6022 61.6009C94.4112 61.7918 94.3158 62.1736 94.1249 62.3646C94.1249 62.2691 94.1249 62.1736 94.1249 62.0782C94.0294 61.6009 93.9339 61.0281 93.8385 60.5508C93.8385 60.3599 93.8385 60.1689 93.6476 59.978C93.743 59.8825 93.6476 59.7871 93.6476 59.6916C93.3612 58.737 92.9793 57.8778 92.502 57.1142C92.502 56.9232 92.4065 56.8278 92.3111 56.6368C91.8338 55.9686 91.261 55.3958 90.5928 54.8231C90.02 54.3458 89.4472 53.9639 88.8745 53.4866C88.6835 53.3911 88.4926 53.3911 88.3017 53.2957C88.0153 52.9138 87.538 52.8184 87.1562 52.532C87.0607 52.4365 86.9652 52.4365 86.7743 52.532C86.6788 52.532 86.5834 52.532 86.3925 52.4365C86.297 52.4365 86.297 52.4365 86.297 52.532C86.297 52.532 86.297 52.6274 86.3925 52.6274C86.3925 52.6274 86.3925 52.6274 86.3925 52.7229V52.8184C86.3925 53.0093 86.3925 53.1048 86.4879 53.2957V53.3911C86.4879 53.4866 86.4879 53.4866 86.4879 53.5821C86.4879 53.5821 86.4879 53.5821 86.4879 53.4866C86.4879 53.4866 86.4879 53.4866 86.4879 53.5821C86.2015 53.9639 86.1061 54.2503 86.1061 54.4412Z" fill="white"/>
<path d="M85.9147 71.8155C85.8192 71.6246 85.7237 71.4336 85.6283 71.2427C85.4373 70.67 85.0555 70.1926 84.8646 69.7153C84.7691 69.6199 84.6737 69.5244 84.5782 69.5244C84.4827 69.5244 84.3873 69.6199 84.2918 69.7153C84.1964 69.8108 84.1963 70.0017 84.1009 70.0972C83.91 70.479 83.719 70.7654 83.5281 71.1473C83.4327 71.3382 83.3372 71.5291 83.2417 71.72C83.1463 71.8155 83.0508 72.0064 83.0508 72.1019C82.8599 72.2928 82.7644 72.5792 82.669 72.7701C82.478 73.0565 82.3826 73.3429 82.2871 73.7247C82.2871 74.0111 82.3826 74.1066 82.5735 74.2975C82.669 74.393 82.8599 74.2975 82.9553 74.202C83.4327 73.9157 83.8145 73.6293 84.2918 73.3429C84.5782 73.2474 84.7691 73.152 84.96 73.3429C85.4374 73.6293 85.8192 73.9157 86.2965 74.202C86.4874 74.2975 86.4874 74.2975 86.6784 74.1066C86.9647 73.8202 86.8693 73.4383 86.7738 73.152C86.6784 72.7701 86.392 72.4837 86.2965 72.1973C86.201 72.1019 86.0101 72.0064 85.9147 71.8155Z" fill="white"/>
<path d="M84.1963 59.6914C84.0054 59.8823 83.9099 60.1687 83.8145 60.4551C83.6236 60.9324 83.4326 61.3143 83.0508 61.6961C83.0508 61.6961 83.0508 61.7916 82.9553 61.7916C82.8599 61.7916 82.8599 61.887 82.8599 61.9825C82.7644 62.0779 82.7644 62.0779 82.7644 62.1734C82.6689 62.3643 82.5735 62.5553 82.3826 62.8416C82.1916 63.2235 81.9052 63.5099 81.7143 63.8917C81.5234 64.1781 81.3325 64.4645 81.1416 64.8463C80.7597 65.3237 80.3779 65.8964 80.1869 66.4692L80.0915 66.5647C79.8051 66.9465 79.6142 67.2329 79.3278 67.6147C79.2323 67.8057 79.0414 67.9966 78.9459 68.092C78.755 68.3784 78.755 68.4739 78.9459 68.6648C79.1369 68.8557 79.3278 69.0467 79.4232 69.2376C79.5187 69.1421 79.6142 69.0467 79.6142 68.9512C80.1869 68.1875 80.7597 67.5193 81.4279 66.851C81.6189 66.6601 81.8098 66.4692 82.0007 66.2783C82.0962 66.1828 82.1916 66.0873 82.2871 65.9919C82.478 65.801 82.5735 65.5146 82.7644 65.4191C83.0508 65.2282 83.1462 65.0373 83.2417 64.7509C83.4326 64.56 83.5281 64.2736 83.719 64.0826C83.8145 63.8917 83.9099 63.7963 83.9099 63.6053C84.0054 63.4144 84.1963 63.4144 84.1963 63.2235C84.2918 63.128 84.2918 63.0326 84.2918 62.8416C84.3873 61.7916 84.2918 60.8369 84.2918 59.7869C84.2918 59.7869 84.2918 59.7869 84.1963 59.6914Z" fill="white"/>
<path d="M84.3863 64.3694C84.1953 64.5604 84.0999 64.8468 83.909 65.0377C83.5271 65.515 83.3362 65.9923 83.1453 66.4696C82.9543 66.9469 82.7634 67.3288 82.5725 67.8061C82.3816 68.2834 82.1907 68.6652 81.9997 69.1425C81.7133 69.6198 81.427 70.1926 81.3315 70.7654C81.3315 70.9563 81.236 71.0518 81.3315 71.2427C81.5224 71.1472 81.6179 71.0518 81.7133 70.9563C81.8088 70.7654 81.9997 70.6699 82.0952 70.5745C82.3816 70.2881 82.668 70.0017 83.0498 69.8108C83.1453 69.7153 83.2407 69.7153 83.3362 69.5244C83.3362 69.5244 83.4317 69.5244 83.4317 69.4289C83.5271 69.4289 83.6226 69.3335 83.6226 69.3335C83.909 69.1425 84.0999 68.8562 84.2908 68.4743C84.3863 68.3788 84.3863 68.2834 84.3863 68.1879C84.3863 68.1879 84.3863 68.0925 84.4817 68.0925C84.5772 68.0925 84.6727 68.0925 84.7681 68.1879C84.959 68.6652 85.15 69.0471 85.6273 69.3335C85.7227 69.5244 85.9137 69.6198 86.1046 69.8108C86.5819 70.2881 87.1547 70.6699 87.632 71.1472C87.7274 71.2427 87.7274 71.3382 87.9184 71.2427C87.8229 70.479 87.441 69.7153 87.0592 69.0471C86.8683 68.6652 86.7728 68.2834 86.5819 67.997C86.2955 67.4242 86.1046 66.8515 85.8182 66.2787C85.6273 65.515 85.15 64.9422 84.6727 64.3694C84.5772 64.274 84.4817 64.274 84.3863 64.3694Z" fill="white"/>
<path d="M77.7054 80.1199C77.6099 80.1199 77.6099 80.0245 77.5145 80.0245C76.7508 79.4517 76.0826 78.8789 75.4143 78.1152C75.2234 77.9243 75.0325 77.8289 74.7461 77.7334C74.7461 77.9243 74.8416 78.1152 74.937 78.2107C75.1279 78.4016 75.2234 78.5926 75.4143 78.7835C75.8916 79.4517 76.4644 79.8336 77.1326 80.3109C77.3236 80.5018 77.419 80.4063 77.6099 80.3109C77.7054 80.2154 77.8009 80.1199 77.7054 80.1199Z" fill="white"/>
<path d="M91.8325 80.3116C92.2143 80.0252 92.5962 79.7388 92.978 79.4524C93.4553 79.0706 93.7417 78.5933 94.1236 78.116C94.219 78.0205 94.219 77.8296 94.3145 77.6387C94.1236 77.7341 93.8372 77.8296 93.7417 78.0205C93.0735 78.6888 92.4052 79.357 91.6416 79.9298C91.5461 79.9298 91.5461 80.0252 91.4506 80.0252C91.4506 80.0252 91.3552 80.1207 91.4506 80.1207C91.5461 80.4071 91.737 80.4071 91.8325 80.3116Z" fill="white"/>
<path d="M96.3193 69.4288C96.2239 69.2379 96.1284 69.1424 96.0329 68.9515C95.7465 68.3787 95.3647 67.8059 94.9829 67.3286C94.601 66.9468 94.2192 66.5649 93.9328 66.0876C93.8373 65.9922 93.7418 65.8967 93.6464 65.8012C93.4555 65.7058 93.36 65.7058 93.2645 65.9922C93.2645 66.1831 93.1691 66.374 93.1691 66.5649C92.9782 67.0422 92.7872 67.5195 92.6918 67.9014C92.5008 68.2832 92.3099 68.6651 92.119 69.0469C91.9281 69.4288 91.6417 69.9061 91.4508 70.2879C91.3553 70.4789 91.2598 70.5743 91.2598 70.8607C90.7825 71.5289 90.4007 72.1017 89.8279 72.6745C89.8279 72.6745 89.7325 72.7699 89.7325 72.8654C89.4461 73.1518 89.0642 73.4382 88.7778 73.82C88.3005 74.2019 87.8232 74.6792 87.3459 75.061C87.155 75.252 86.8686 75.3474 86.6777 75.5383C86.6777 75.5383 86.6777 75.5383 86.6777 75.6338C86.3913 75.7293 86.2004 75.7293 86.0094 75.5383L85.914 75.4429C85.8185 75.3474 85.7231 75.3474 85.7231 75.1565C85.5321 74.7746 85.2458 74.3928 84.9594 74.011C84.7684 73.7246 84.5775 73.7246 84.3866 74.011C84.1957 74.2973 83.9093 74.5837 83.7184 74.8701C83.6229 74.8701 83.6229 74.9656 83.6229 75.061C83.6229 75.252 83.5274 75.3474 83.3365 75.4429C82.9547 75.6338 82.6683 75.5383 82.3819 75.3474C82.191 75.1565 82 75.061 81.8091 74.9656C81.3318 74.4883 80.8545 74.1064 80.3772 73.6291C80.2817 73.4382 80.1863 73.3427 79.9954 73.2473C79.8999 73.1518 79.8044 73.0563 79.709 72.9609C79.0407 72.2926 78.468 71.5289 78.0861 70.6698C78.0861 70.5743 78.0861 70.4789 77.9907 70.3834C77.7997 69.9061 77.5133 69.5242 77.3224 69.0469C77.3224 68.9515 77.227 68.856 77.227 68.7606C77.036 68.3787 76.8451 67.9969 76.6542 67.615C76.6542 67.5195 76.5587 67.3286 76.5587 67.2332C76.3678 66.8513 76.1769 66.374 76.1769 65.9922C76.1769 65.7058 75.986 65.7058 75.795 65.8012C75.6996 65.8967 75.5086 65.9922 75.4132 66.1831C75.3177 66.374 75.1268 66.4695 75.0313 66.6604C74.3631 67.4241 73.6949 68.2832 73.313 69.2379C73.1221 69.4288 72.9312 69.6197 72.8357 69.9061C72.5493 70.5743 72.2629 71.338 72.072 72.1017C71.9766 72.2926 71.9766 72.4836 71.9766 72.6745C71.9766 73.2473 72.072 73.9155 72.2629 74.4883V74.5837C72.3584 75.3474 72.6448 76.1111 72.9312 76.8748C72.9312 76.9703 73.0266 76.9703 73.0266 76.9703C73.2176 77.3521 73.4085 77.734 73.6949 78.1158C74.0767 78.6886 74.4586 79.2613 74.9359 79.7387C75.3177 80.1205 75.6041 80.5978 76.0814 80.8842C76.0814 80.8842 76.0814 80.8842 76.1769 80.8842C76.3678 80.8842 76.4633 81.0751 76.5587 81.266C76.7496 81.457 76.9406 81.6479 77.227 81.7434C77.4179 81.8388 77.4179 81.8388 77.4179 81.6479C77.4179 81.5524 77.4179 81.3615 77.5133 81.266C77.6088 81.1706 77.6088 81.0751 77.5133 80.9797C77.3224 80.7887 77.1315 80.6933 76.9406 80.5023C76.7497 80.5023 76.6542 80.4069 76.6542 80.216L76.5587 80.1205C76.2723 79.7387 75.8905 79.4523 75.6041 79.0704C75.2223 78.5931 74.8404 78.1158 74.4586 77.6385C74.2676 77.1612 74.0767 76.7793 73.8858 76.302C73.7903 75.9202 73.7903 75.5383 73.7903 75.1565C73.7903 74.9656 73.8858 74.8701 74.0767 74.8701C74.2676 74.8701 74.4586 74.8701 74.554 74.8701C74.9359 74.8701 75.2223 74.8701 75.6041 74.9656C75.8905 74.9656 76.1769 74.9656 76.4633 75.061C76.7497 75.061 77.036 75.1565 77.3224 75.252C77.5133 75.252 77.7997 75.252 77.9907 75.4429C78.468 75.6338 78.9453 75.9202 79.4226 76.0156C80.0908 76.3975 80.8545 76.5884 81.5227 76.9703C81.8091 77.1612 82.191 77.3521 82.4774 77.543C82.7637 77.734 83.0501 77.8294 83.3365 78.1158C83.3365 78.3067 83.5274 78.4022 83.6229 78.4977C83.9093 78.784 84.1002 79.0704 84.3866 79.2613C84.673 79.5477 84.8639 79.5477 85.1503 79.2613C85.3412 78.975 85.6276 78.784 85.8185 78.4977C86.0094 78.3067 86.1049 78.1158 86.2004 77.9249C86.8686 77.6385 87.4414 77.2567 88.0141 76.8748C88.0141 76.8748 88.0141 76.8748 88.0141 76.7793C88.1096 76.7793 88.2051 76.7793 88.2051 76.6839C88.3005 76.5884 88.396 76.5884 88.4914 76.493C88.8733 76.3975 89.1597 76.2066 89.4461 76.1111C89.5415 76.0156 89.637 76.0156 89.7325 76.0156C89.8279 76.0156 89.9234 76.0156 90.0188 75.9202C90.5916 75.7293 91.1644 75.4429 91.8326 75.252C92.3099 75.1565 92.8827 74.9656 93.36 74.9656C93.9328 74.8701 94.5055 74.8701 95.0783 74.7746C95.2692 74.7746 95.3647 74.7746 95.5556 74.7746C95.7465 74.7746 95.842 74.8701 95.842 75.061C95.842 75.5383 95.9375 76.0156 95.7466 76.3975C95.7466 76.5884 95.7465 76.6839 95.6511 76.7793C95.4602 77.0657 95.3647 77.3521 95.1738 77.6385C94.8874 78.1158 94.5055 78.4977 94.1237 78.975C93.9328 79.1659 93.7419 79.3568 93.5509 79.6432C93.1691 80.025 92.7872 80.3114 92.4054 80.5978C92.3099 80.6933 92.2145 80.7887 92.119 80.8842C92.119 80.9797 92.0235 80.9797 92.119 81.0751C92.3099 81.266 92.3099 81.457 92.3099 81.6479C92.4054 81.6479 92.5009 81.6479 92.5009 81.5524C92.9782 81.1706 93.36 80.8842 93.8373 80.5023C94.0282 80.3114 94.2192 80.1205 94.4101 79.9296C94.9829 79.4523 95.3647 78.8795 95.7466 78.3067C96.0329 77.9249 96.3193 77.543 96.5102 77.0657C96.7966 76.3975 97.083 75.7293 97.2739 74.9656C97.3694 74.6792 97.4649 74.2973 97.4649 74.011C97.5603 73.5336 97.6558 72.9609 97.6558 72.3881C97.6558 72.1972 97.6558 72.1017 97.5603 71.9108C97.2739 71.1471 97.083 70.3834 96.7966 69.6197C96.5102 69.6197 96.4148 69.4288 96.3193 69.4288Z" fill="white"/>
<path d="M82.0955 80.502C82.0955 80.5975 82.0955 80.6929 82.0955 80.7884C82.0955 80.8838 82.1909 80.8838 82.2864 80.8838C82.3818 80.8838 82.4773 80.9793 82.5728 81.0748C83.1455 81.4566 83.7183 81.8385 84.2911 82.2203C84.482 82.3158 84.5775 82.3158 84.7684 82.2203C85.4366 81.8385 86.1049 81.4566 86.6776 80.9793C86.964 80.8838 86.964 80.8838 86.964 80.5975C86.964 80.1202 86.964 79.6428 86.964 79.1655C86.964 79.0701 86.964 78.9746 86.8686 78.9746C86.7731 78.9746 86.6776 79.0701 86.6776 79.0701C86.4867 79.261 86.2958 79.5474 86.1049 79.8338C85.9139 80.1202 85.723 80.3111 85.5321 80.5975C85.3412 80.6929 85.2457 80.8838 85.1502 81.0748C84.9593 81.3612 84.6729 81.3612 84.3865 81.3612C84.1956 81.3612 84.1002 81.2657 83.9092 81.1702C83.8138 81.0748 83.7183 80.9793 83.6228 80.8838C83.5274 80.6929 83.4319 80.502 83.241 80.4065C82.9546 80.0247 82.6682 79.5474 82.2864 79.1655C82.1909 79.0701 82.1909 78.9746 82.0955 79.0701C82 79.0701 82 79.261 82 79.3565C82.0955 79.5474 82.0955 80.0247 82.0955 80.502Z" fill="white"/>
<path d="M96.2244 61.5049C96.0335 61.8867 95.7471 62.364 95.5562 62.7459C95.4607 63.0323 95.2698 63.2232 95.1743 63.5096C95.0789 63.605 95.0789 63.605 95.0789 63.7005C94.888 63.9869 94.697 64.3687 94.5061 64.7506C94.3152 65.037 94.3152 65.3234 94.6016 65.6097C94.697 65.7052 94.7925 65.8007 94.888 65.9916C95.1743 66.278 95.3653 66.5644 95.6516 66.8507C95.7471 66.9462 95.7471 67.0417 95.8426 67.0417C95.938 67.0417 95.938 66.8507 95.938 66.8507C96.0335 66.5644 96.0335 66.278 96.129 65.8961C96.129 65.8007 96.2244 65.7052 96.2244 65.7052C96.2244 65.1324 96.3199 64.6551 96.3199 64.0824C96.3199 63.796 96.3199 63.5096 96.3199 63.3187C96.3199 62.8413 96.3199 62.364 96.3199 61.8867C96.3199 61.6958 96.3199 61.6003 96.2244 61.5049Z" fill="white"/>
<path d="M96.7972 69.1424C96.8926 69.4288 97.0836 69.7152 97.0836 70.0016C97.179 70.288 97.2745 70.288 97.5609 70.288C97.7518 70.288 97.8473 70.288 97.9427 70.4789C98.0382 70.7653 98.2291 70.9562 98.3246 71.2426C98.6109 71.8153 98.8973 72.3881 99.0883 73.0563C99.1837 73.2473 99.1837 73.4382 99.3746 73.6291C99.3746 73.2473 99.3746 72.9609 99.3746 72.6745C99.3746 72.2927 99.3746 71.8153 99.2792 71.4335C99.2792 71.2426 99.1837 70.9562 99.1837 70.7653C99.1837 70.3834 99.0883 70.097 98.8973 69.8106C98.8973 69.7152 98.8019 69.6197 98.8019 69.5243C98.6109 69.2379 98.5155 68.9515 98.42 68.6651C98.42 68.5696 98.3246 68.4742 98.3246 68.3787C98.3246 68.3787 98.3246 68.2833 98.42 68.2833C98.5155 68.2833 98.5155 68.2833 98.5155 68.3787C98.6109 68.5696 98.8019 68.6651 98.8973 68.856C98.9928 68.9515 98.9928 69.047 99.1837 69.047C99.2792 69.047 99.2792 68.9515 99.2792 68.856C99.2792 68.0923 99.2792 67.3286 99.2792 66.6604V66.5649C99.2792 66.4695 99.2792 66.4695 99.1837 66.374C99.0883 66.374 99.0883 66.374 98.9928 66.4695L98.8973 66.5649C98.8973 66.6604 98.8019 66.7559 98.7064 66.8513C98.1336 67.4241 97.6563 68.0923 97.0836 68.5696C96.7017 68.7606 96.7017 68.856 96.7972 69.1424Z" fill="white"/>
<path d="M69.8775 73.6291C69.973 73.4382 70.0684 73.2473 70.0684 72.9609C70.3548 72.1017 70.7367 71.2426 71.214 70.4789C71.3094 70.3834 71.4049 70.288 71.5004 70.288C71.7867 70.288 71.8822 70.288 71.9777 69.9061C72.0731 69.6197 72.1686 69.3333 72.2641 69.1424C72.3595 68.856 72.3595 68.856 72.1686 68.5696C72.0731 68.4742 71.9777 68.4742 71.8822 68.3787C71.7867 68.1878 71.5958 68.0923 71.5004 67.9014C71.1185 67.4241 70.6412 66.9468 70.1639 66.4695C70.1639 66.374 70.0684 66.374 69.973 66.374C69.8775 66.374 69.8775 66.4695 69.8775 66.5649C69.8775 66.7559 69.973 66.9468 69.8775 67.0423C69.8775 67.2332 69.8775 67.3286 69.8775 67.5196C69.8775 67.9014 69.8775 68.1878 69.8775 68.5696C69.8775 68.7606 69.8775 68.856 69.973 69.047C70.2594 68.856 70.4503 68.5696 70.7367 68.1878C70.7367 68.3787 70.7367 68.4742 70.7367 68.6651C70.6412 68.856 70.6412 69.047 70.5457 69.2379C70.4503 69.4288 70.3548 69.6197 70.2594 69.8106C70.0684 70.097 69.973 70.288 70.0684 70.6698C70.0684 70.7653 70.0684 70.8607 70.0684 70.9562C69.973 71.338 69.973 71.8153 69.973 72.1972C69.973 72.579 69.973 72.9609 69.973 73.4382C69.782 73.5337 69.6866 73.6291 69.8775 73.6291Z" fill="white"/>
<path d="M74.7452 64.8467C74.4588 64.1785 74.0769 63.6057 73.6951 63.0329C73.5042 62.5556 73.2178 62.0783 72.9314 61.601C72.9314 61.601 72.8359 61.5056 72.8359 61.601C72.8359 61.601 72.8359 61.6965 72.8359 61.7919C72.8359 62.6511 72.9314 63.5103 72.9314 64.274C72.9314 64.3694 72.9314 64.3694 73.0269 64.4649C73.0269 65.1331 73.0269 65.8013 73.2178 66.3741C73.2178 66.565 73.3132 66.8514 73.4087 67.1378C73.7906 66.565 74.3633 66.0877 74.7452 65.515C74.7452 65.2286 74.8406 65.0376 74.7452 64.8467Z" fill="white"/>
<path d="M89.9236 84.4159C89.7327 84.3205 89.7327 84.225 89.6372 84.0341C89.6372 83.9386 89.5418 83.8431 89.5418 83.7477C89.4463 83.5568 89.2554 83.5568 89.1599 83.7477C89.0645 83.8431 89.0645 84.0341 89.0645 84.1295C89.1599 84.5114 89.3508 84.8932 89.5418 85.2751C89.6372 85.466 89.9236 85.466 90.0191 85.2751C90.1145 85.1796 90.1145 84.9887 90.1145 84.7978C90.1145 84.7023 90.0191 84.5114 89.9236 84.4159Z" fill="white"/>
<path d="M88.1107 84.416C87.7288 84.5115 87.2515 84.416 86.8696 84.416C86.6787 84.416 86.5833 84.5115 86.5833 84.7024C86.5833 84.8933 86.4878 84.9888 86.4878 85.1797C86.3923 85.4661 86.2969 85.657 86.2969 86.0389C86.7742 85.9434 87.156 85.9434 87.6333 85.7525C87.8243 85.657 88.1106 85.7525 88.3016 85.8479C88.588 86.0389 88.7789 86.2298 89.0653 86.4207C89.1607 86.5162 89.2562 86.6116 89.3516 86.5162C89.3516 86.4207 89.3516 86.3253 89.3516 86.3253C89.1607 85.657 88.7789 85.1797 88.4925 84.6069C88.3016 84.416 88.2061 84.416 88.1107 84.416Z" fill="white"/>
<path d="M90.4964 88.2346C90.4009 88.0437 90.21 88.1391 90.1145 88.0437C89.9236 87.8527 89.7327 87.9482 89.5418 88.2346C89.4463 88.3301 89.4463 88.4255 89.4463 88.521C89.3508 88.9983 89.2554 89.5711 89.0645 90.0484C89.0645 90.0484 89.0645 90.1438 89.1599 90.2393C89.3508 90.1438 89.4463 89.9529 89.5418 89.8574C89.7327 89.6665 89.9236 89.4756 90.21 89.2847C90.4009 89.1892 90.4964 89.0937 90.4964 88.9028C90.4964 88.521 90.5918 88.4255 90.4964 88.2346Z" fill="white"/>
<path d="M80.281 87.1838C80.1855 87.2793 80.1855 87.3748 80.1855 87.4702C80.281 87.7566 80.3765 88.1385 80.5674 88.4249C80.6629 88.5203 80.7583 88.5203 80.8538 88.4249C80.9492 88.3294 80.9492 88.2339 81.0447 88.043C81.1402 87.8521 81.1402 87.6612 81.3311 87.5657C81.9993 87.1838 82.8585 86.9929 83.5267 86.6111C83.6222 86.5156 83.6222 86.5156 83.6222 86.4202C83.5267 86.2292 83.4313 85.9428 83.3358 85.7519C83.2403 85.4655 83.1449 85.4655 82.9539 85.561C82.4766 85.7519 82.0948 85.9428 81.6175 86.0383C81.0447 86.2292 80.5674 86.6111 80.281 87.1838Z" fill="white"/>
<path d="M86.2002 87.1841C86.2957 86.9932 86.4866 86.9932 86.6775 87.1841C86.6775 87.1841 86.6775 87.2796 86.773 87.375C86.8684 87.4705 87.0594 87.5659 87.1548 87.4705C87.3457 87.375 87.5367 87.2796 87.7276 87.1841C87.8231 87.1841 87.8231 87.0886 87.8231 86.9932C87.8231 86.8023 87.5367 86.6113 87.4412 86.6113C87.1548 86.6113 86.8684 86.6113 86.4866 86.6113C86.1047 86.6113 86.0093 86.6113 85.9138 86.9932C85.9138 87.0886 85.8184 87.0886 85.8184 87.1841C85.9138 87.375 86.1047 87.2796 86.2002 87.1841Z" fill="white"/>
<path d="M85.3423 93.5801C85.4378 93.6756 85.5332 93.771 85.4378 93.962C85.3423 94.1529 85.2469 94.1529 85.0559 94.1529C84.9605 94.1529 84.865 94.1529 84.7695 94.1529C84.4832 94.1529 84.4832 94.0574 84.4832 93.771C84.7695 93.5801 85.0559 93.3892 85.3423 93.5801ZM85.0559 91.3845C85.0559 91.3845 85.0559 91.289 85.1514 91.289C85.3423 91.0981 85.5332 91.1936 85.7242 91.3845C85.7242 91.6709 85.7242 91.7663 85.4378 91.6709C85.3423 91.6709 85.3423 91.6709 85.2469 91.6709C85.0559 91.5754 84.9605 91.5754 85.0559 91.3845ZM87.9198 93.962L87.8243 93.8665C87.8243 93.8665 87.8243 93.962 87.9198 93.962ZM84.0059 89.1889C84.2922 89.0934 84.4832 89.0934 84.6741 89.1889C84.865 89.2843 85.0559 89.2843 85.1514 89.2843C85.5332 89.2843 85.9151 89.1889 86.3924 89.0934C86.5833 89.0934 86.6788 89.0934 86.8697 88.9979C87.4425 88.6161 87.9198 88.3297 88.3971 87.9479L88.4926 87.8524C88.4926 87.6615 88.2062 87.566 88.0152 87.6615C87.8243 87.7569 87.6334 87.8524 87.4425 87.9479C87.347 88.0433 87.1561 88.1388 87.0606 88.0433C86.7742 87.9479 86.4879 88.0433 86.2015 87.9479C86.106 87.9479 86.0106 87.9479 85.9151 87.9479C85.0559 87.9479 84.1013 88.0433 83.2422 87.8524C83.1467 87.8524 82.9558 87.7569 82.8603 87.8524C82.7649 87.9479 82.5739 88.0433 82.4785 88.0433C82.1921 88.1388 82.0012 88.2342 81.7148 88.4252C81.3329 88.6161 81.3329 88.6161 81.5238 88.9025C81.8102 89.2843 81.9057 89.6662 82.4785 89.7616C82.5739 89.7616 82.5739 89.8571 82.6694 89.8571C82.6694 89.9526 82.6694 89.9526 82.6694 90.048C82.5739 90.1435 82.383 90.1435 82.383 90.2389C82.383 90.3344 82.4785 90.5253 82.383 90.6208C82.2875 90.7163 82.2875 90.8117 82.1921 90.9072C82.0966 91.0026 82.0966 91.0981 82.0966 91.1936C81.9057 91.4799 81.9057 91.5754 82.0966 91.8618C82.1921 91.9573 82.2875 92.0527 82.2875 92.1482C82.6694 92.6255 82.9558 93.1028 83.3376 93.5801C83.5285 93.962 83.8149 94.1529 84.0059 94.5347C84.2922 94.9166 84.6741 95.012 85.0559 95.203C85.1514 95.2984 85.3423 95.203 85.4378 95.1075C85.7242 94.9166 86.106 94.9166 86.4879 94.8211C86.6788 94.8211 86.8697 94.8211 87.0606 94.8211C87.1561 94.8211 87.347 94.7256 87.347 94.6302C87.4425 94.6302 87.5379 94.5347 87.5379 94.6302C87.6334 94.7256 87.5379 94.8211 87.5379 94.9166C87.5379 94.9166 87.5379 94.9166 87.5379 95.012C87.347 95.2984 87.0606 95.5848 86.5833 95.5848C86.3924 95.5848 86.2969 95.5848 86.106 95.5848C85.7242 95.5848 85.6287 95.7757 85.7242 96.1576C85.7242 96.253 85.8196 96.3485 85.9151 96.3485C86.2969 96.253 86.6788 96.1576 87.0606 96.1576C87.347 96.1576 87.5379 95.9667 87.6334 95.6803C87.7289 95.4893 87.8243 95.2984 88.0152 95.1075C88.3016 94.8211 88.2062 94.4393 88.3016 94.0574C88.1107 94.2483 88.0153 94.4393 87.6334 94.3438C87.5379 94.1529 87.6334 93.962 87.7289 93.771C88.0152 93.5801 88.1107 93.2937 88.0152 92.9119C88.0152 92.4346 87.9198 91.9573 87.9198 91.4799C87.9198 91.3845 87.9198 91.289 87.8243 91.1936C87.8243 91.0981 87.7289 91.0026 87.6334 91.0026C87.2516 90.8117 86.7742 90.7163 86.2969 90.9072C86.106 90.9072 86.0106 91.0026 85.8196 91.0026C85.5332 91.0981 85.3423 91.0981 85.1514 90.9072C85.0559 90.8117 85.0559 90.8117 84.9605 90.8117C84.4832 90.7163 84.1013 90.5253 83.7195 90.3344C83.624 90.2389 83.4331 90.2389 83.3376 90.2389C82.9558 90.2389 82.8603 90.048 82.9558 89.7616C83.5285 89.3798 83.8149 89.2843 84.0059 89.1889Z" fill="white"/>
<path d="M79.4221 84.3206C79.3266 84.5115 79.3266 84.607 79.5175 84.7979C79.613 84.8933 79.7085 84.8933 79.7085 84.7979C79.8994 84.416 80.0903 84.0342 80.2812 83.6523C79.8994 83.8433 79.613 84.0342 79.4221 84.3206Z" fill="white"/>
<path d="M80.7593 89.3799C80.5684 89.3799 80.5684 89.4753 80.5684 89.5708C80.5684 89.7617 80.8547 89.9527 81.0457 89.8572C81.1411 89.8572 81.1411 89.7617 81.1411 89.7617C81.1411 89.6663 80.9502 89.4753 80.7593 89.3799Z" fill="white"/>
<path d="M97.6561 105.322C97.847 105.895 98.038 106.372 98.2289 106.945C98.2289 107.04 98.3243 107.136 98.3243 107.231C98.2289 107.326 98.038 107.231 97.9425 107.231C97.3697 107.231 96.797 107.231 96.3196 107.231C96.0333 107.231 96.0333 107.231 95.9378 106.945C95.8423 106.754 95.8423 106.563 95.7469 106.276C95.7469 106.085 95.6514 106.085 95.4605 106.085C94.7923 106.085 94.124 106.085 93.4558 106.085C93.3603 106.085 93.2649 106.085 93.1694 106.276C93.0739 106.563 92.9785 106.754 92.9785 107.04C92.9785 107.136 92.883 107.231 92.7876 107.231C92.1193 107.231 91.4511 107.231 90.7829 107.231C90.6874 107.136 90.7829 107.04 90.7829 106.945C91.642 104.558 92.4057 102.076 93.2649 99.6895C93.3603 99.4031 93.3603 99.4031 93.6467 99.4031C94.2195 99.4031 94.7923 99.4031 95.365 99.4031C95.7469 99.4031 95.6514 99.4031 95.8423 99.6895C96.4151 101.599 97.0833 103.508 97.6561 105.322ZM99.6608 107.04C99.6608 106.754 99.6608 106.563 99.6608 106.276V99.9759C99.6608 99.8804 99.6608 99.785 99.6608 99.6895C99.6608 99.594 99.7563 99.4986 99.8517 99.4986C100.424 99.4986 100.997 99.4986 101.475 99.4986C101.666 99.4986 101.666 99.594 101.761 99.6895C102.429 100.453 103.002 101.217 103.67 101.981C103.861 102.267 104.148 102.553 104.434 102.84C104.529 102.649 104.529 102.553 104.529 102.458C104.529 101.599 104.529 100.644 104.529 99.785C104.529 99.4986 104.529 99.4986 104.816 99.4986C105.389 99.4986 105.961 99.4986 106.534 99.4986C106.82 99.4986 106.82 99.4986 106.82 99.785C106.82 101.503 106.82 103.317 106.82 105.035C106.82 105.704 106.82 106.372 106.82 106.945C106.82 107.231 106.82 107.231 106.534 107.231C106.152 107.231 105.77 107.231 105.389 107.231C105.198 107.231 105.007 107.136 104.911 107.04C104.052 106.181 103.288 105.226 102.429 104.367C102.334 104.176 102.143 104.081 101.952 103.89C101.856 103.985 101.856 104.176 101.856 104.272C101.856 105.226 101.856 106.085 101.856 107.04C101.856 107.326 101.856 107.326 101.57 107.326C100.997 107.326 100.425 107.326 99.7563 107.326C99.7563 107.231 99.6608 107.231 99.6608 107.04ZM109.398 88.3296C109.398 88.425 109.493 88.425 109.398 88.3296C109.398 88.425 109.398 88.425 109.398 88.3296ZM88.7782 107.231C88.1099 107.231 87.5372 107.231 86.8689 107.231C86.7735 107.231 86.678 107.136 86.678 107.04C86.678 106.945 86.678 106.849 86.678 106.849C86.678 105.704 86.678 104.558 86.678 103.413C86.678 102.267 86.678 101.121 86.678 99.9759C86.678 99.8804 86.678 99.785 86.678 99.785C86.678 99.6895 86.678 99.594 86.8689 99.594C87.5372 99.594 88.1099 99.594 88.7782 99.594C88.8736 99.594 88.9691 99.6895 88.9691 99.785C88.9691 99.8804 88.9691 99.9759 88.9691 99.9759V106.945C88.9691 107.04 88.9691 107.04 88.9691 107.136C88.9691 107.231 88.9691 107.231 88.7782 107.231ZM85.2461 107.231C84.5779 107.231 83.8142 107.231 83.1459 107.231C82.955 107.231 82.8595 107.136 82.7641 107.04C82.2868 106.181 81.8095 105.322 81.3321 104.558C81.1412 104.176 80.8548 103.985 80.5685 103.699C80.5685 103.89 80.5685 103.985 80.5685 104.081C80.5685 105.035 80.5685 105.895 80.5685 106.849C80.5685 106.945 80.5685 107.04 80.5685 107.136C80.5685 107.231 80.473 107.326 80.3775 107.326C80.1866 107.326 79.9002 107.326 79.7093 107.326C79.3274 107.326 78.9456 107.326 78.5638 107.326C78.3728 107.326 78.3728 107.231 78.3728 107.136C78.3728 106.849 78.3728 106.563 78.3728 106.276C78.3728 104.176 78.3728 102.076 78.3728 99.9759V99.8804C78.3728 99.594 78.3728 99.594 78.6592 99.594C80.1866 99.594 81.714 99.594 83.2414 99.594C83.4323 99.594 83.6232 99.6895 83.7187 99.785C84.7688 100.644 84.8642 102.267 84.0051 103.317C83.8142 103.508 83.6232 103.699 83.4323 103.89C84.1005 105.035 84.8642 106.085 85.5325 107.231C85.437 107.326 85.3415 107.231 85.2461 107.231ZM76.6545 107.231C76.0818 107.231 75.4135 107.231 74.8407 107.231C74.5544 107.231 74.5544 107.231 74.4589 106.945C74.3634 106.754 74.3634 106.563 74.268 106.276C74.268 106.085 74.1725 106.085 73.9816 106.085C73.3134 106.085 72.6451 106.085 71.9769 106.085C71.786 106.085 71.786 106.181 71.6905 106.276C71.595 106.563 71.4996 106.754 71.4996 107.04C71.4996 107.136 71.4041 107.231 71.3087 107.231C70.6404 107.231 69.9722 107.231 69.2085 107.231C69.2085 107.04 69.304 107.04 69.304 106.945C70.0677 104.558 70.9268 102.172 71.6905 99.785C71.786 99.4031 71.786 99.4986 72.1678 99.4986C72.7406 99.4986 73.3134 99.4986 73.8861 99.4986C74.268 99.4986 74.1725 99.4986 74.3634 99.785C75.0317 101.79 75.7954 103.89 76.4636 105.895C76.6545 106.372 76.75 106.754 76.9409 107.136C76.8454 107.231 76.75 107.231 76.6545 107.231ZM67.9675 105.513C67.6811 106.085 67.3947 106.563 67.1083 107.136C67.0129 107.231 66.9174 107.326 66.822 107.326C65.4855 107.326 64.149 107.326 62.8126 107.326C62.5262 107.326 62.5262 107.326 62.5262 107.04C62.5262 104.654 62.5262 102.267 62.5262 99.8804C62.5262 99.594 62.5262 99.594 62.8126 99.594C63.3853 99.594 63.9581 99.594 64.5309 99.594C64.9127 99.594 64.9127 99.594 64.9127 99.8804C64.9127 100.644 64.9127 101.408 64.9127 102.172C64.9127 103.031 64.9127 103.985 64.9127 104.844C64.9127 104.94 64.9127 105.035 64.9127 105.131C64.9127 105.226 64.9127 105.226 65.0082 105.226C65.1036 105.226 65.1991 105.226 65.2946 105.226C66.1537 105.226 66.9174 105.226 67.7766 105.226C67.872 105.226 67.9675 105.226 68.063 105.226C68.063 105.417 68.063 105.417 67.9675 105.513ZM102.238 89.8569C102.334 89.666 102.429 89.4751 102.525 89.3796C102.811 88.9978 103.002 88.5205 103.193 88.0432C103.479 87.4704 103.766 86.8022 104.052 86.1339C104.148 85.943 104.148 85.943 103.861 85.8475C103.479 85.6566 103.193 85.4657 102.811 85.3702C102.716 85.3702 102.716 85.2748 102.62 85.2748C102.047 84.9884 101.57 84.6065 100.997 84.3202C100.711 84.2247 100.52 84.0338 100.329 83.8428C100.138 83.7474 100.043 83.7474 100.043 83.9383C100.043 84.2247 99.9472 84.4156 99.8517 84.702C99.6608 85.2748 99.4699 85.943 99.4699 86.5158C99.3744 86.8976 99.279 87.3749 99.3744 87.7568C99.3744 87.8522 99.279 87.8522 99.279 87.9477C99.1835 88.2341 99.088 88.5205 99.088 88.8069C98.9926 88.9978 98.9926 89.1887 98.9926 89.3796C98.8971 89.4751 98.8971 89.666 98.8971 89.8569C98.7062 90.4297 98.6107 91.0025 98.5153 91.6707C98.4198 91.9571 98.4198 92.148 98.4198 92.4344C98.3243 92.5299 98.3243 92.6253 98.3243 92.7208C98.2289 93.0072 98.2289 93.389 98.038 93.6754C98.038 93.7709 97.9425 93.7709 97.9425 93.8663C97.6561 94.4391 97.4652 94.9164 97.3697 95.4892C97.1788 96.062 96.9879 96.6347 96.797 97.303C96.2242 97.303 96.2242 97.2075 96.4151 96.7302C96.9879 95.3937 97.2743 94.0573 97.5606 92.6253C97.5606 92.5299 97.5606 92.3389 97.4652 92.2435C97.5606 92.0526 97.4652 91.8616 97.5606 91.5753C97.6561 90.8116 97.9425 90.1433 98.038 89.3796C98.038 89.2842 98.038 89.2842 98.1334 89.1887C98.3243 88.7114 98.4198 88.2341 98.5153 87.7568V87.6613C98.6107 87.2795 98.7062 86.8976 98.8017 86.5158C98.9926 85.7521 99.088 84.9884 99.279 84.2247C99.3744 84.1292 99.3744 84.0338 99.3744 83.9383C99.4699 83.3655 99.4699 82.7928 99.6608 82.22C99.8517 81.5518 99.8517 80.7881 100.043 80.1198C100.234 79.8335 100.234 79.5471 100.234 79.2607C100.234 78.6879 100.329 78.2106 100.424 77.6378C100.424 77.4469 100.52 77.1605 100.424 76.8741C100.329 77.0651 100.234 77.256 100.138 77.4469C99.8517 77.9242 99.4699 78.3061 99.1835 78.7834C98.7062 79.1652 98.4198 79.6425 98.038 80.1198C97.5606 80.5971 97.0833 81.0745 96.606 81.5518C96.3196 81.7427 96.0333 82.0291 95.7469 82.22C95.365 82.5064 94.8877 82.8882 94.5059 83.1746C94.5059 83.1746 94.5059 83.1746 94.4104 83.1746C94.4104 83.2701 94.3149 83.2701 94.2195 83.3655C94.0286 83.461 93.8376 83.6519 93.7422 83.7474C93.7422 83.7474 93.7422 83.7474 93.6467 83.7474C93.6467 83.8428 93.5513 83.8428 93.4558 83.9383C93.4558 83.9383 93.4558 83.9383 93.3603 83.9383C93.2649 84.0338 93.1694 84.1292 93.0739 84.3202C92.9785 84.3202 92.9785 84.3202 92.883 84.3202C92.883 84.3202 92.883 84.3202 92.7876 84.4156C92.5966 84.4156 92.5966 84.5111 92.5966 84.702C92.5966 84.8929 92.5966 85.0838 92.5966 85.2748C92.5966 89.0932 92.5966 92.8163 92.5966 96.6347C92.5966 96.8257 92.5966 96.9211 92.5966 97.112C92.5966 97.2075 92.5012 97.303 92.4057 97.303C92.3103 97.303 92.2148 97.2075 92.2148 97.112C92.2148 96.9211 92.2148 96.8257 92.2148 96.6347C92.2148 93.2936 92.2148 89.9524 92.2148 86.6112C92.2148 86.4203 92.2148 86.2294 92.2148 86.0385C92.2148 85.943 92.2148 85.8475 92.1193 85.7521C92.1193 85.7521 92.1193 85.7521 92.0239 85.7521C92.0239 85.5612 92.0239 85.3702 92.0239 85.1793C92.0239 84.8929 92.0239 84.702 92.0239 84.4156C92.0239 84.3202 92.0239 84.2247 92.1193 84.0338C92.1193 83.9383 92.2148 83.9383 92.2148 83.8428C92.5966 83.5565 92.9785 83.2701 93.3603 82.8882C93.3603 82.7928 93.4558 82.6973 93.6467 82.6973C93.8376 82.6018 94.0286 82.4109 94.2195 82.3155C94.4104 82.1245 94.6968 81.9336 94.8877 81.7427C95.0786 81.6472 95.1741 81.5518 95.2696 81.3608C95.6514 81.1699 95.9378 80.6926 96.2242 80.4062C96.606 80.0244 96.9879 79.6425 97.2743 79.2607C97.6561 78.8788 98.038 78.4015 98.4198 77.9242C98.7062 77.5424 99.088 77.1605 99.279 76.6832C99.3744 76.5877 99.279 76.3968 99.279 76.3014C99.1835 76.015 99.1835 75.7286 99.088 75.4422C98.9926 74.6785 98.8017 74.0103 98.5153 73.2466C98.5153 73.1511 98.5153 73.0557 98.4198 73.0557C98.3243 73.1511 98.4198 73.1511 98.4198 73.2466C98.4198 73.4375 98.4198 73.6284 98.3243 73.8194C98.2289 74.2012 98.1334 74.6785 98.038 75.0604C97.7516 75.6331 97.6561 76.3014 97.4652 76.8741C97.1788 77.3514 96.8924 77.8288 96.7015 78.3061C96.5106 78.5924 96.2242 78.8788 96.0333 79.2607L95.9378 79.3561C95.4605 79.9289 95.0786 80.5017 94.6013 81.0745V81.1699C94.4104 81.3608 94.124 81.5518 93.9331 81.7427C93.6467 82.0291 93.3603 82.22 93.1694 82.5064C92.883 82.7928 92.5966 82.9837 92.3102 83.2701C92.1193 83.3655 92.0239 83.461 91.8329 83.6519C91.7375 83.6519 91.7375 83.7474 91.642 83.7474C91.4511 83.9383 91.4511 84.1292 91.5466 84.4156C91.5466 84.4156 91.5466 84.4156 91.4511 84.4156C91.4511 84.5111 91.4511 84.5111 91.4511 84.6065C91.4511 86.3249 91.4511 87.9477 91.4511 89.666C91.4511 91.0025 91.4511 92.4344 91.4511 93.7709C91.4511 93.8663 91.4511 94.0573 91.4511 94.1527C91.4511 94.821 91.4511 95.4892 91.4511 96.1574C91.4511 96.5393 91.5466 96.9211 91.5466 97.303V97.3984H91.4511C91.1647 97.3984 90.9738 97.3984 90.6874 97.3984C90.6874 97.3984 90.6874 97.3984 90.6874 97.303C90.6874 96.5393 90.5919 95.6801 90.6874 94.9164C90.6874 94.3436 90.7829 93.7709 90.6874 93.1981C90.6874 93.0072 90.6874 92.8163 90.6874 92.6253C90.5919 92.6253 90.5919 92.7208 90.4965 92.7208C90.3056 92.9117 90.2101 93.1981 90.1146 93.389C89.8282 93.8663 89.6373 94.3436 89.3509 94.7255C89.2555 94.9164 89.0645 95.1073 88.9691 95.2983C88.7782 95.6801 88.5872 95.9665 88.3963 96.2529C88.3009 96.3483 88.2054 96.4438 88.1099 96.5393C87.8236 96.7302 87.5372 96.7302 87.3462 96.8257C87.0599 96.9211 86.7735 96.9211 86.4871 97.0166C86.3916 96.9211 86.2962 96.9211 86.0098 97.0166C85.3415 97.2075 84.5778 97.303 83.9096 97.112C83.5278 97.0166 83.1459 96.9211 82.7641 96.8257C82.4777 96.8257 82.1913 96.7302 81.9049 96.7302H81.8095C81.5231 96.6347 81.3321 96.5393 81.1412 96.3483C80.8548 96.062 80.6639 95.7756 80.473 95.3937C80.3775 95.1073 80.2821 94.9164 80.0911 94.63C79.9957 94.5346 79.9957 94.3436 79.9002 94.3436C79.7093 94.1527 79.6138 93.9618 79.4229 93.7709C79.3274 93.5799 79.232 93.2936 79.1365 93.1026C79.0411 93.0072 79.0411 92.8163 78.8501 92.7208C78.7547 92.9117 78.8501 93.1026 78.8501 93.2936C78.8501 93.6754 78.7547 93.9618 78.8501 94.3436C78.9456 94.821 78.9456 95.2983 78.9456 95.871C78.9456 96.4438 78.9456 96.9211 78.9456 97.4939H78.8501C78.5638 97.5893 78.2774 97.4939 77.991 97.5893C77.991 97.2075 77.991 96.8257 77.991 96.3483C78.0864 96.1574 78.0864 95.9665 78.0864 95.7756C78.0864 94.0573 78.0864 92.2435 78.0864 90.5252C78.0864 90.4297 78.0864 90.2388 78.0864 90.1433C78.0864 90.0479 78.0864 89.9524 78.0864 89.9524C78.0864 88.0432 77.991 86.2294 78.1819 84.3202C78.1819 84.2247 78.1819 84.1292 78.0864 84.1292C77.7046 83.8428 77.3228 83.5565 76.8454 83.1746C76.75 82.9837 76.4636 82.7928 76.3681 82.6973C75.8908 82.22 75.3181 81.8381 74.8407 81.2654C74.7453 81.1699 74.6498 80.979 74.5544 80.979C74.1725 80.4062 73.7907 79.9289 73.4088 79.4516C73.4088 79.3561 73.3134 79.2607 73.2179 79.1652C73.027 78.8788 72.836 78.5925 72.6451 78.2106C72.4542 77.8288 72.2633 77.3514 71.9769 76.9696C71.9769 76.7787 71.8814 76.6832 71.8814 76.4923C71.8814 76.3968 71.8814 76.2059 71.786 76.1104C71.6905 75.9195 71.595 75.7286 71.595 75.5377C71.595 75.5377 71.595 75.5377 71.595 75.4422C71.595 75.4422 71.595 75.4422 71.595 75.5377C71.595 75.4422 71.595 75.3467 71.595 75.3467C71.595 75.2513 71.595 75.2513 71.595 75.1558C71.4996 74.5831 71.3087 74.0103 71.3087 73.342C71.3087 73.342 71.3087 73.342 71.2132 73.342C70.8313 74.2967 70.6404 75.3467 70.354 76.3968C70.2586 76.5878 70.2586 76.7787 70.354 76.9696C70.4495 77.256 70.6404 77.5424 70.8313 77.7333C70.8313 77.8288 70.9268 77.9242 71.0223 78.0197C71.3087 78.4015 71.595 78.7834 71.9769 79.1652C72.2633 79.5471 72.5497 79.8335 72.836 80.1198C73.1224 80.5017 73.5043 80.8835 73.7907 81.2654C73.9816 81.4563 74.268 81.7427 74.5544 81.9336C74.6498 82.0291 74.6498 82.0291 74.7453 82.1245C75.2226 82.6018 75.7954 82.9837 76.3681 83.461C76.5591 83.5565 76.6545 83.7474 76.8454 83.8428C77.0364 84.0338 77.3227 84.2247 77.5137 84.5111C77.6091 84.6065 77.6091 84.702 77.6091 84.7975C77.6091 85.0838 77.6091 85.3702 77.6091 85.5612C77.6091 85.5612 77.6091 85.5612 77.5137 85.5612C77.3227 85.7521 77.4182 85.943 77.4182 86.1339C77.4182 87.3749 77.4182 88.5205 77.4182 89.7615C77.4182 92.148 77.4182 94.63 77.4182 97.0166C77.4182 97.2075 77.5137 97.5893 77.2273 97.5893C76.9409 97.5893 77.0364 97.2075 77.0364 97.0166C77.0364 96.5393 77.0364 96.062 77.0364 95.5846C77.0364 95.3937 77.0364 95.2983 76.9409 95.1073C76.9409 94.0573 76.9409 93.1026 76.9409 92.0526C76.9409 92.0526 76.9409 92.0526 76.8454 92.0526C76.8454 91.6707 76.8454 91.2889 76.8454 91.0025C76.8454 89.0932 76.8454 87.184 76.8454 85.2748C76.8454 85.0838 76.8454 84.8929 76.75 84.702L76.6545 84.6065C76.6545 84.5111 76.5591 84.4156 76.4636 84.4156C76.3681 84.3202 76.1772 84.2247 76.0817 84.1292C75.9863 84.1292 75.8908 84.0338 75.8908 84.0338C75.8908 84.0338 75.7954 84.0338 75.7954 83.9383C75.4135 83.6519 75.1271 83.3655 74.7453 83.0792C74.6498 83.0792 74.5544 82.9837 74.4589 82.8882C74.268 82.8882 74.1725 82.7928 74.1725 82.6018C74.1725 82.6018 74.077 82.6018 74.077 82.5064C73.7907 82.22 73.4088 81.9336 73.1224 81.6472C72.836 81.3608 72.5497 81.0745 72.3587 80.7881C72.1678 80.5971 71.9769 80.4062 71.786 80.3108C71.595 80.1198 71.4996 79.8335 71.3087 79.6425C71.0223 79.3561 70.7359 78.9743 70.4495 78.6879C70.1631 78.3061 69.8767 77.8288 69.6858 77.3514C69.5903 77.4469 69.6858 77.5424 69.6858 77.5424C69.6858 77.8288 69.7813 78.1151 69.7813 78.4015C69.8767 78.9743 69.8767 79.4516 69.9722 80.0244C70.0677 80.4062 70.1631 80.7881 70.1631 81.1699C70.2586 81.8382 70.354 82.5064 70.545 83.1746C70.545 83.461 70.6404 83.7474 70.6404 84.0338C70.7359 84.7975 70.9268 85.6566 71.1177 86.4203C71.2132 86.8976 71.3087 87.2795 71.4041 87.7568C71.4996 88.7114 71.8814 89.5706 72.0724 90.5252C72.1678 90.907 72.2633 91.2889 72.2633 91.6707C72.3587 92.148 72.3587 92.6253 72.4542 93.1026C72.3587 93.1981 72.3587 93.389 72.3587 93.4845C72.4542 94.0573 72.5497 94.7255 72.7406 95.2983C72.9315 95.9665 73.1224 96.6347 73.4088 97.2075C73.5997 97.5893 73.5043 97.6848 73.1224 97.6848H73.027C72.836 96.9211 72.6451 96.2529 72.3587 95.5846C72.3587 95.3937 72.2633 95.2028 72.1678 94.9164C71.9769 94.4391 71.6905 93.9618 71.595 93.389C71.4041 92.7208 71.3087 92.148 71.2132 91.4798C71.1177 91.0025 71.0223 90.5252 70.8313 90.0479C70.7359 89.666 70.7359 89.2842 70.6404 88.9023C70.545 88.5205 70.545 88.1386 70.4495 87.7568C70.4495 87.2795 70.354 86.8976 70.2586 86.4203C70.1631 85.6566 69.8767 85.0838 69.7813 84.3202C69.7813 84.1292 69.6858 84.1292 69.4949 84.2247C69.0176 84.5111 68.5403 84.7975 68.063 85.0838C67.6811 85.2748 67.2993 85.4657 67.0129 85.6566C66.8219 85.8475 66.631 85.943 66.3446 86.0385C66.2492 86.0385 66.1537 86.1339 66.0583 86.1339H65.9628C65.7719 86.2294 65.6764 86.2294 65.8673 86.5158C66.0583 86.9931 66.2492 87.5659 66.5356 88.0432V88.1386C66.5356 88.2341 66.631 88.3296 66.7265 88.425C66.822 88.7114 67.0129 88.9978 67.2038 89.2842C67.2993 89.3796 67.2993 89.5706 67.3947 89.666C67.6811 90.3343 68.063 91.0025 68.4448 91.5753C68.7312 92.148 69.113 92.7208 69.4949 93.1981C69.4949 93.2936 69.5903 93.389 69.5903 93.389C69.9722 94.0573 70.354 94.63 70.8313 95.2028C71.0223 95.2983 71.0223 95.3937 71.1177 95.5846C71.595 96.2529 72.0724 96.9211 72.5497 97.4939C72.0724 97.4939 71.595 97.4939 71.1177 97.4939H71.0223C70.9268 97.303 70.7359 97.112 70.6404 97.0166C70.4495 96.8257 70.354 96.7302 70.354 96.4438C70.354 96.2529 70.2586 96.1574 70.1631 95.9665C69.8767 95.4892 69.4949 95.0119 69.113 94.5346C69.0176 94.3436 68.9221 94.1527 68.7312 93.9618C68.7312 93.8663 68.6357 93.7709 68.6357 93.7709C68.6357 93.6754 68.5403 93.58 68.5403 93.58C68.5403 93.4845 68.4448 93.4845 68.4448 93.389C68.4448 93.2936 68.3493 93.1981 68.3493 93.1981C68.2539 93.0072 68.1584 92.8163 67.9675 92.6253C67.9675 92.5299 67.872 92.4344 67.7766 92.3389C67.6811 92.2435 67.6811 92.148 67.5857 92.0526C67.5857 91.9571 67.4902 91.8616 67.3947 91.7662C67.3947 91.6707 67.2993 91.5753 67.2993 91.5753C67.2038 91.3843 67.1083 91.2889 67.0129 91.0979C67.0129 91.0979 67.0129 91.0979 67.1083 91.0025C67.1083 90.907 67.1083 90.8116 67.1083 90.7161C66.9174 90.4297 66.7265 90.0479 66.5356 89.7615C66.5356 89.666 66.5356 89.5706 66.4401 89.4751C66.2492 89.0932 66.0583 88.8069 65.8673 88.425C65.7719 88.2341 65.6764 88.1386 65.4855 88.0432C65.4855 87.9477 65.39 87.8522 65.39 87.7568C65.1991 87.3749 65.0082 86.9931 64.7218 86.5158C64.5309 86.0385 64.2445 85.5612 64.0536 85.0838C63.9581 84.6065 63.6717 84.2247 63.5763 83.7474C63.4808 83.3655 63.2899 82.8882 63.0989 82.5064C63.0989 82.4109 63.0989 82.3155 63.0035 82.1245C62.908 81.8382 62.8126 81.5518 62.7171 81.2654C62.7171 81.1699 62.7171 81.0745 62.6216 80.979C62.6216 80.8835 62.6216 80.8835 62.6216 80.7881C62.6216 80.7881 62.6216 80.6926 62.5262 80.6926C62.5262 80.5971 62.5262 80.5017 62.5262 80.4062C62.4307 80.0244 62.3352 79.738 62.1443 79.3561C62.1443 79.2607 62.1443 79.1652 62.1443 79.0698C62.3352 78.7834 62.0489 78.497 62.0489 78.2106C62.0489 78.1151 62.0489 78.0197 61.9534 77.9242V77.8288C61.0942 77.4469 61.0942 77.256 60.9033 77.0651H60.8079C60.6169 77.0651 60.6169 77.256 60.5215 77.3514C60.426 78.0197 60.3305 78.7834 60.2351 79.4516C60.2351 80.0244 60.1396 80.6926 59.7578 81.2654C59.7578 81.6472 59.7578 82.1245 59.7578 82.5064C59.7578 84.7975 59.7578 87.0885 59.7578 89.3796C59.7578 89.4751 59.7578 89.5706 59.7578 89.666C59.7578 89.666 59.7578 89.666 59.8532 89.666C59.8532 89.666 59.8532 89.666 59.9487 89.666C60.1396 90.0479 60.0442 90.4297 60.0442 90.8116C60.0442 90.907 60.0442 91.0025 60.0442 91.0979C60.0442 91.6707 60.0442 92.3389 60.0442 92.9117C60.0442 93.1026 59.9487 93.1981 59.8532 93.389C59.8532 93.6754 59.8532 93.9618 59.8532 94.2482C59.8532 94.3436 59.8532 94.4391 59.7578 94.5346C59.6623 94.5346 59.6623 94.4391 59.5669 94.3436C59.2805 94.1527 59.2805 94.1527 59.0895 94.3436C59.0895 94.4391 58.8986 94.4391 58.8986 94.4391C58.7077 95.0119 58.8032 95.6801 58.8032 96.2529C58.8032 96.2529 58.8032 96.2529 58.8032 96.3483C58.8032 96.4438 58.8032 96.4438 58.8032 96.5393C58.8032 96.6347 58.8986 96.7302 58.9941 96.7302C58.9941 96.7302 58.9941 96.8257 59.0895 96.8257C59.185 96.8257 59.185 96.9211 59.2805 97.0166C59.4714 97.112 59.4714 97.112 59.4714 96.8257C59.4714 96.7302 59.6623 96.8256 59.6623 96.7302C59.6623 96.6347 59.7578 96.5393 59.7578 96.4438C59.8532 96.5393 59.8532 96.6347 59.8532 96.7302C59.8532 97.0166 59.8532 97.3984 59.8532 97.6848C59.8532 101.026 59.8532 104.272 59.8532 107.613C59.8532 107.708 59.8532 107.804 59.9487 107.899C60.0442 107.899 60.1396 107.899 60.2351 107.899C61.4761 107.899 62.7171 107.899 63.9581 107.899C65.1991 107.899 66.4401 107.899 67.5857 107.899C67.7766 107.995 67.9675 108.09 67.9675 108.281C67.9675 108.472 68.1584 108.567 68.3493 108.567C68.5403 108.567 68.8267 108.567 69.0176 108.567C69.2085 108.567 69.2085 108.472 69.113 108.281C69.0176 107.995 69.0176 107.995 69.2085 107.899C69.2085 107.899 69.2085 107.899 69.304 107.899C70.7359 107.899 72.1678 107.899 73.5997 107.899C73.6952 107.899 73.7907 107.899 73.8861 107.995C73.7907 108.09 73.7907 108.186 73.9816 108.281C74.077 108.377 74.5544 108.281 74.6498 108.186C74.7453 107.995 74.9362 107.995 75.1271 107.995C76.9409 107.995 78.7547 107.995 80.473 107.995C80.473 107.995 80.5685 107.995 80.5685 108.09C80.7594 107.995 80.9503 107.995 81.1412 107.995C82.7641 107.995 84.3869 107.995 86.1052 107.995C86.2007 107.995 86.3916 107.995 86.4871 107.995C86.678 107.995 86.8689 107.995 87.1553 107.995C87.0599 108.186 87.1553 108.377 87.3462 108.472C87.3462 108.281 87.2508 108.09 87.2508 107.995C87.4417 107.995 87.6326 107.995 87.8235 107.995C91.7375 107.995 95.7469 107.995 99.6608 107.995C100.711 107.995 101.761 107.995 102.811 107.995C102.907 107.995 103.002 107.995 103.097 107.995C103.67 107.995 104.338 107.804 104.911 107.899H105.007C105.102 107.804 105.102 107.804 105.198 107.899C105.293 107.995 105.293 107.995 105.389 107.899C105.389 107.804 105.579 107.804 105.675 107.804C105.77 107.804 105.866 107.804 105.866 107.995C105.866 108.09 105.961 108.09 106.057 108.186C106.248 108.186 106.534 108.186 106.82 108.186C106.725 107.995 106.439 107.995 106.343 107.804C106.534 107.708 106.725 107.804 106.916 107.708H107.011C107.107 107.708 107.202 107.708 107.393 107.708C107.68 107.613 107.871 107.708 108.157 107.899C108.252 107.995 108.252 107.995 108.348 107.995C108.443 107.995 108.539 107.995 108.634 108.186C108.73 108.281 108.825 108.281 108.921 108.281C109.016 108.281 109.016 108.186 109.016 108.09C109.016 107.708 109.016 107.708 109.398 107.708C109.398 107.804 109.302 107.804 109.398 107.899C109.589 107.995 109.493 108.186 109.398 108.281C109.493 108.377 109.589 108.377 109.684 108.281C109.78 108.186 109.78 108.09 109.78 107.995C109.78 106.945 109.78 105.895 109.78 104.94C109.78 102.553 109.78 100.071 109.78 97.6848C109.78 97.6848 109.78 97.6848 109.78 97.5893C109.971 97.4939 110.162 97.4939 110.257 97.2075C110.353 97.2075 110.448 97.2075 110.543 97.2075C110.448 97.112 110.448 97.0166 110.543 97.0166C110.543 97.0166 110.448 97.0166 110.448 96.9211C110.353 96.2529 110.353 95.6801 110.448 95.0119C110.448 94.9164 110.448 94.7255 110.353 94.63C110.353 94.7255 110.257 94.7255 110.257 94.821C110.257 94.9164 110.257 94.9164 110.257 94.9164C110.162 94.9164 110.162 94.9164 110.162 94.821C110.066 94.7255 109.971 94.63 109.875 94.4391C109.684 94.4391 109.78 94.2482 109.78 94.1527C109.875 94.1527 109.78 93.9618 109.875 93.9618C109.78 93.8663 109.684 93.8663 109.684 93.6754C109.684 93.6754 109.684 93.6754 109.78 93.6754C109.78 93.6754 109.875 93.6754 109.875 93.7709C109.875 93.7709 109.875 93.6754 109.78 93.58L109.684 93.4845C109.684 93.389 109.684 93.389 109.684 93.2936C109.684 92.2435 109.684 91.0979 109.684 90.0479C109.684 89.9524 109.684 89.7615 109.78 89.666C109.78 89.5706 109.875 89.4751 109.78 89.3796C109.684 89.2842 109.684 89.1887 109.78 89.1887C109.971 89.0932 110.066 88.9978 110.257 88.8069C110.353 88.7114 110.353 88.7114 110.353 88.6159C110.353 88.6159 110.353 88.6159 110.257 88.6159C110.066 88.6159 109.875 88.7114 109.875 88.425C109.875 88.3296 109.78 88.3296 109.78 88.3296C109.684 88.3296 109.684 88.2341 109.684 88.1386C109.684 88.1386 109.684 88.1386 109.684 88.0432C109.684 88.0432 109.684 88.0432 109.684 87.9477C109.684 87.9477 109.684 87.9477 109.684 87.8522C109.589 87.6613 109.684 87.4704 109.589 87.2795C109.589 87.0886 109.589 86.9931 109.589 86.8022C109.493 86.7067 109.398 86.5158 109.398 86.3249C109.398 85.943 109.398 85.6566 109.398 85.2748C109.493 85.1793 109.398 85.0839 109.398 84.8929C109.398 84.7975 109.398 84.6065 109.493 84.5111C109.302 84.2247 109.398 83.9383 109.398 83.6519C109.398 83.1746 109.398 82.6973 109.398 82.22C109.398 82.1245 109.398 82.0291 109.398 81.9336C109.207 81.6472 109.016 81.2654 109.016 80.979C109.016 80.5017 108.921 80.0244 108.825 79.4516C108.825 79.0698 108.73 78.6879 108.634 78.3061C108.539 78.1151 108.443 78.0197 108.252 78.2106C108.252 78.2106 108.252 78.2106 108.252 78.3061C108.252 78.4015 108.252 78.497 108.252 78.5924C108.252 78.6879 108.157 78.7834 108.252 78.7834C108.157 78.9743 108.157 79.1652 108.157 79.4516C108.157 79.5471 108.061 79.6425 108.061 79.6425C108.061 79.6425 108.061 79.6425 108.061 79.5471C108.061 79.5471 108.061 79.5471 108.061 79.6425C108.061 79.738 107.966 79.8334 107.966 79.9289C107.966 80.0244 107.966 80.1198 107.871 80.1198C107.775 80.2153 107.775 80.4062 107.775 80.5971C107.775 80.6926 107.775 80.6926 107.775 80.7881C107.584 81.2654 107.393 81.7427 107.298 82.22C107.107 82.6018 107.011 82.8882 106.916 83.2701C106.725 83.7474 106.534 84.2247 106.343 84.702C106.152 85.0838 105.961 85.5612 105.77 85.943C105.675 86.1339 105.579 86.2294 105.484 86.4203C105.389 86.5158 105.389 86.6112 105.389 86.7067C105.198 86.9931 105.102 87.2795 104.911 87.5659C104.816 87.5659 104.72 87.6613 104.72 87.6613C104.72 87.7568 104.625 87.7568 104.625 87.8522C104.625 87.9477 104.529 88.0432 104.529 88.1386C104.434 88.425 104.243 88.6159 104.148 88.9023C104.052 88.9978 104.052 89.0932 104.052 89.1887C103.957 89.2842 103.861 89.3796 103.766 89.4751C103.575 89.666 103.479 89.9524 103.288 90.2388C103.193 90.3343 103.193 90.4297 103.193 90.5252C103.097 90.5252 103.097 90.5252 103.002 90.6206L102.907 90.7161C102.811 90.8116 102.811 90.907 102.811 90.907C102.716 91.1934 102.429 91.2889 102.525 91.6707C102.429 91.7662 102.429 91.8616 102.334 91.9571C102.143 92.2435 101.952 92.5299 101.856 92.8163C101.761 92.9117 101.761 92.9117 101.761 93.0072C101.666 93.1026 101.666 93.1026 101.666 93.1981C101.57 93.2936 101.475 93.4845 101.379 93.58C101.188 93.7709 101.093 93.9618 100.997 94.1527C100.711 94.5346 100.425 94.9164 100.138 95.2028C99.9472 95.3937 99.7563 95.5847 99.8517 95.871C99.8517 95.9665 99.7563 96.062 99.6608 96.1574C99.4699 96.3483 99.279 96.6347 99.088 96.9211C98.6107 96.9211 98.1334 96.9211 97.6561 96.9211C97.7516 96.8257 97.847 96.7302 97.847 96.6347C98.2289 96.1574 98.6107 95.6801 98.9926 95.1073C99.088 95.1073 99.088 95.0119 99.088 94.9164C99.088 94.9164 99.088 94.9164 99.1835 94.821C99.279 94.7255 99.3744 94.63 99.4699 94.5346C99.8517 94.0573 100.234 93.58 100.52 93.0072C100.711 92.8163 100.806 92.6253 100.902 92.4344C100.997 92.4344 100.997 92.3389 100.997 92.2435C101.093 92.148 101.093 92.148 101.093 92.0526C101.093 91.9571 101.188 91.9571 101.188 91.8616C101.475 91.4798 101.761 91.0979 101.952 90.6206C102.143 90.3343 102.334 90.0479 102.429 89.666C102.238 90.0479 102.238 89.9524 102.238 89.8569Z" fill="white"/>
<path d="M87.345 66.4694C87.4405 66.5649 87.4405 66.6604 87.536 66.7558C88.2997 67.5195 88.9679 68.2832 89.6361 69.1424L89.7316 69.2378C89.8271 69.0469 89.9225 68.9514 90.1134 68.7605C90.3998 68.5696 90.3998 68.3787 90.2089 68.0923C90.2089 67.9968 90.1134 67.9968 90.1134 67.9014C89.8271 67.4241 89.4452 67.0422 89.1588 66.5649C88.8724 65.8967 88.4906 65.2284 88.0133 64.6557C88.0133 64.6557 88.0133 64.5602 87.9178 64.5602C87.536 63.892 87.1541 63.2237 86.6768 62.651C86.5814 62.5555 86.5813 62.46 86.4859 62.46V62.3646C86.3904 62.2691 86.295 62.1737 86.1995 61.9827C85.8177 61.3145 85.4358 60.7417 85.1494 60.0735C85.054 59.978 85.054 59.8826 84.9585 59.7871C84.863 59.8826 84.863 60.0735 84.863 60.2644C84.863 60.6463 84.863 61.1236 84.7676 61.5054C84.7676 61.7918 84.7676 62.0782 84.7676 62.3646C84.7676 62.46 84.7676 62.46 84.7676 62.5555C84.7676 62.7464 84.7676 62.9374 84.7676 63.0328C84.7676 63.2237 84.863 63.4147 84.9585 63.5101C85.1494 63.6056 85.1494 63.701 85.2449 63.892C85.4358 64.1784 85.6267 64.5602 85.8177 64.8466C85.9131 65.133 86.0086 65.4194 86.3904 65.5148C86.4859 65.5148 86.4859 65.6103 86.5813 65.7057C86.7723 65.8967 86.8677 66.1831 87.1541 66.374C87.1541 66.374 87.1541 66.374 87.2496 66.4694C87.2496 66.374 87.2496 66.4694 87.345 66.4694Z" fill="white"/>
<path d="M96.9883 60.2645C96.9883 60.3599 96.9883 60.4554 96.9883 60.6463C96.9883 61.2191 97.0837 61.6964 97.0837 62.2692C97.0837 62.3646 97.0837 62.3646 97.0837 62.4601C97.1792 62.651 97.0837 62.842 97.1792 63.1283C97.1792 63.3193 97.2747 63.4147 97.4656 63.4147H97.5611C97.6565 63.1283 97.9429 62.842 98.2293 62.651C98.6111 62.1737 98.993 61.7919 99.3748 61.41C99.6612 61.1236 99.9476 60.9327 100.139 60.5509C100.234 60.4554 100.234 60.4554 100.329 60.3599C101.093 59.5963 101.761 58.8326 102.525 58.0689C102.716 57.8779 102.811 57.687 103.002 57.4961C102.907 57.4961 102.907 57.4961 102.811 57.4961C102.334 57.7825 101.857 58.0689 101.38 58.2598C100.425 58.7371 99.6612 59.3099 98.8021 59.7872C98.5157 59.9781 98.2293 60.0736 97.8474 60.169C97.752 60.169 97.5611 60.2645 97.4656 60.169C97.4656 60.169 97.4656 60.169 97.4656 60.0736C97.2747 60.169 97.0837 60.169 96.9883 60.2645Z" fill="white"/>
<path d="M73.1219 102.458C73.1219 102.362 73.1219 102.362 73.0264 102.267C72.6446 103.508 72.2627 104.653 71.8809 105.799C72.0718 105.799 72.0718 105.703 72.0718 105.608C72.3582 105.321 72.5491 105.035 72.8355 104.749C72.9309 104.653 73.0264 104.558 73.2173 104.558C73.3128 104.558 73.3128 104.558 73.4082 104.558C73.6946 104.558 73.6946 104.558 73.5992 104.271C73.5037 103.699 73.3128 103.126 73.1219 102.458Z" fill="white"/>
<path d="M93.3594 105.894C93.6458 105.608 93.9321 105.322 94.1231 105.035C94.314 104.749 94.6004 104.558 94.9822 104.558C94.9822 104.558 95.0777 104.558 95.1731 104.558C94.9822 103.794 94.7913 103.031 94.5049 102.362C94.0276 103.603 93.7412 104.749 93.3594 105.894Z" fill="white"/>
</g>
</svg>
