<svg width="170" height="150" viewBox="0 0 170 150" fill="none" xmlns="http://www.w3.org/2000/svg">
<g opacity="0.6">
<path fill-rule="evenodd" clip-rule="evenodd" d="M82.4322 95.931C82.2402 95.9069 81.9566 95.8768 81.6556 95.8287C80.9332 96.4908 80.0062 97.454 79.1754 98.3388C78.1285 99.4765 77.261 100.464 77.261 100.47C77.2496 100.476 77.243 100.494 77.2309 100.506C76.5446 100.698 75.3767 101.018 74.6062 101.228C73.4563 101.547 72.4269 101.469 72.4269 102.221C72.4269 102.221 71.2349 102.859 71.5119 103.811C71.5119 103.811 73.8838 101.908 75.9246 101.583C75.7921 101.674 74.6965 102.456 74.8048 103.492C74.8048 103.492 76.4844 100.975 78.447 102.498C78.447 102.498 77.5747 101.312 77.9353 100.656C78.2549 100.301 78.8985 99.5728 79.6449 98.7722C80.6389 97.7068 81.7941 96.5089 82.493 95.9431L82.4985 95.937C82.4804 95.937 82.4563 95.931 82.4322 95.931ZM76.5807 67.8559L75.9848 68.0546C76.0215 68.1449 76.051 68.2412 76.051 68.3435C76.051 68.4278 76.0329 68.5121 75.9974 68.5843L76.2677 68.7468C76.1774 68.8973 76.0389 69.0177 75.8644 69.0899C75.762 69.1381 75.6537 69.1561 75.5459 69.1561C75.5032 69.1561 75.461 69.1501 75.4129 69.1441C75.3286 69.1321 75.2503 69.108 75.1721 69.0719C75.1299 69.0538 75.0944 69.0297 75.0577 69.0057C75.0216 68.9816 74.9921 68.9575 74.9553 68.9274C74.9252 68.8973 74.8951 68.8672 74.8711 68.8311C74.8416 68.801 74.8175 68.7649 74.7934 68.7227C74.7747 68.6987 74.7627 68.6806 74.7627 68.6565C74.7507 68.6385 74.7386 68.6144 74.7326 68.5963C74.7266 68.5843 74.7151 68.5662 74.7085 68.5542C74.7025 68.5361 74.7025 68.5181 74.6965 68.5L74.4376 68.5843C74.4858 68.7288 74.558 68.8552 74.6429 68.9695C74.6724 69.0057 74.7025 69.0358 74.7386 69.0719C74.853 69.1923 74.9921 69.2826 75.148 69.3428C75.3286 69.415 75.5272 69.4391 75.7259 69.409C75.7686 69.4029 75.8102 69.3909 75.8469 69.3789C75.8644 69.3729 75.8824 69.3668 75.9005 69.3608C75.9366 69.3488 75.9733 69.3367 76.0088 69.3187C76.1353 69.2645 76.2496 69.1802 76.3399 69.0779C76.3761 69.0358 76.4122 68.9996 76.4423 68.9515C76.4603 68.9214 76.4844 68.8853 76.5025 68.8491C76.5266 68.8191 76.5446 68.7769 76.5567 68.7408C76.665 68.4759 76.6831 68.1629 76.5807 67.8559ZM78.7118 75.3502L81.4028 69.427L81.4088 69.421C81.6255 69.8725 81.8182 70.3601 81.9934 70.8717V70.8777C82.0831 71.1306 82.1679 71.3894 82.2456 71.6603V71.6663C82.3239 71.9311 82.3961 72.208 82.469 72.491L78.7118 75.3502ZM88.1693 70.0169L88.1754 70.029H88.1693V70.0169ZM99.903 67.1637L88.1814 70.023L111.088 60.1148L92.2028 62.4263L102.311 55.0403L91.4804 59.2721L93.1178 55.9914L85.37 61.5715L85.3044 61.4511L96.291 37.7041L78.4229 58.8447L78.3145 47.3173L71.7593 62.7273L71.4155 58.1825L68.1888 70.0049H68.1954C68.1954 70.0049 68.6283 69.6798 69.2122 69.5053C69.3085 69.4752 69.4109 69.4511 69.5192 69.433C69.5313 69.433 69.5433 69.427 69.5554 69.427C69.5981 69.415 69.6457 69.409 69.6878 69.409V69.4029C69.736 69.4029 69.7841 69.3969 69.8323 69.3909H70.0189C70.0189 69.3909 70.0255 69.3909 70.037 69.3969C70.0496 69.3969 70.055 69.3969 70.0671 69.4029H70.0972C70.1279 69.4029 70.1634 69.409 70.1935 69.415C70.3024 69.427 70.4102 69.4571 70.5186 69.4932C71.6329 69.8905 72.5714 69.4932 72.5714 69.4932C72.5714 69.4932 72.7159 69.5896 72.8965 69.734C72.9928 69.8123 73.0891 69.8965 73.186 69.9929C73.2216 70.023 73.2577 70.0531 73.2818 70.0892C73.3058 70.1133 73.3239 70.1373 73.348 70.1674C73.5045 70.342 73.6135 70.5406 73.6135 70.7212H73.6068C73.6068 70.7212 72.2403 70.8055 72.2403 70.1975C72.2403 70.1975 70.8376 69.6979 68.7848 70.2457C68.6644 70.2758 68.5446 70.3119 68.4176 70.354C68.2978 70.3902 68.1768 70.4323 68.0503 70.4744L68.0449 70.4804V70.4865L71.265 71.8649V71.871L73.2035 72.7016C73.2035 72.7016 73.186 72.6415 73.1674 72.5391C73.1192 72.3465 73.065 72.0214 73.0951 71.7506C73.1012 71.7024 73.1072 71.6543 73.1192 71.6121C73.1313 71.564 73.1433 71.5218 73.162 71.4857C73.1794 71.4496 73.2035 71.4135 73.2276 71.3834C73.2517 71.3533 73.2757 71.3352 73.3058 71.3172C73.3239 71.3051 73.348 71.2931 73.3721 71.2871C73.3781 71.2871 73.3901 71.281 73.3961 71.281C73.4262 71.275 73.4563 71.269 73.4925 71.269C73.5653 71.269 73.649 71.2871 73.7453 71.3172C73.788 71.3292 73.8236 71.3352 73.8537 71.3352C73.8838 71.3352 73.9018 71.3292 73.9199 71.3172C73.9319 71.3111 73.944 71.3111 73.95 71.2991H73.956C73.9626 71.2931 73.968 71.281 73.968 71.275C73.9801 71.257 73.9921 71.2329 73.9981 71.2028C74.0222 71.1125 74.0102 70.974 73.968 70.8115C73.944 70.6971 73.9078 70.5707 73.8597 70.4323C73.8236 70.342 73.7935 70.2457 73.7573 70.1494C73.7212 70.047 73.6791 69.9447 73.6375 69.8424C73.6135 69.7882 73.5894 69.734 73.5707 69.6798C73.4804 69.4692 73.3841 69.2525 73.2818 69.0358C73.2577 68.9816 73.2336 68.9274 73.2101 68.8732C73.162 68.7709 73.1072 68.6625 73.0596 68.5662C73.0115 68.4639 72.9633 68.3676 72.9145 68.2713C72.8423 68.1268 72.7761 68.0004 72.7159 67.88C72.6376 67.7235 72.5654 67.585 72.5118 67.4887C72.445 67.3623 72.4095 67.2901 72.4095 67.2901C72.4095 67.2901 72.3487 67.2841 72.2463 67.2841C72.162 67.2841 72.0416 67.2901 71.8971 67.3021C71.8851 67.3021 71.8731 67.3081 71.861 67.3081C71.8075 67.3142 71.7527 67.3202 71.6925 67.3322C71.6329 67.3382 71.566 67.3503 71.4998 67.3683C71.4637 67.3744 71.4276 67.3804 71.3915 67.3924C71.3373 67.4045 71.2771 67.4165 71.2109 67.4346C70.94 67.5128 70.6329 67.6272 70.3199 67.7957C70.2001 67.8619 70.0731 67.9342 69.9467 68.0245C69.6818 68.199 69.4109 68.4218 69.1466 68.6987C69.0503 68.795 68.9533 68.9033 68.857 69.0177C68.8931 68.9515 68.9479 68.8612 69.0196 68.7528C69.0617 68.6926 69.1099 68.6264 69.158 68.5542C69.4109 68.2051 69.7962 67.7355 70.3079 67.3142C70.3921 67.2419 70.477 67.1757 70.5667 67.1155C70.6516 67.0433 70.7413 66.9831 70.8376 66.9229C70.9339 66.8627 71.0309 66.8025 71.1326 66.7423H71.1386C71.241 66.6821 71.3433 66.6279 71.4517 66.5858C71.5546 66.5316 71.6569 66.4895 71.7647 66.4534C71.8851 66.4052 72.0115 66.3631 72.144 66.327C72.3186 65.8996 72.144 66.0982 72.3788 65.9718C72.4095 65.9598 72.451 65.9357 72.4992 65.9056C72.4992 65.8996 72.5052 65.8996 72.5052 65.8996C72.5172 65.8334 72.5232 65.7671 72.5413 65.6889C72.5473 65.6528 72.5533 65.6106 72.56 65.5685C72.5714 65.4963 72.5895 65.418 72.6081 65.3337C72.6081 65.3217 72.6081 65.3097 72.6135 65.2916C72.6557 65.0869 72.7038 64.8582 72.7701 64.6114C72.8483 64.2924 72.9446 63.9493 73.0711 63.576C73.1192 63.4135 73.1794 63.245 73.2456 63.0704C73.3058 62.8958 73.3721 62.7213 73.4503 62.5407C73.487 62.4504 73.5226 62.3601 73.5653 62.2698C73.643 62.0892 73.7272 61.9026 73.8175 61.716C73.8904 61.5655 73.968 61.409 74.0523 61.2525C74.1426 61.0719 74.245 60.8974 74.3473 60.7168C74.3714 60.6686 74.4015 60.6205 74.4316 60.5723C74.5098 60.4399 74.5941 60.3074 74.6784 60.175C74.7808 60.0245 74.8831 59.868 74.9921 59.7115C75.1359 59.5068 75.2864 59.3022 75.449 59.0975C75.5634 58.9591 75.6777 58.8146 75.8042 58.6761C75.9908 58.4594 76.1894 58.2427 76.4062 58.0321C76.3339 58.1645 75.7801 59.26 75.7801 60.0426C75.7861 60.0366 75.7921 60.0305 75.7921 60.0245C75.8042 60.0065 75.8162 59.9824 75.8469 59.9523C75.8469 59.9523 75.8469 59.9463 75.8523 59.9402C75.8951 59.8801 75.9486 59.8018 76.0269 59.6995C76.1834 59.4828 76.4122 59.1878 76.6891 58.8688C76.8637 58.6701 77.0563 58.4594 77.267 58.2548C77.2255 58.3391 77.1165 58.5738 76.9841 58.8808C76.9359 59.0012 76.8763 59.1276 76.8155 59.2661C76.7794 59.3624 76.7373 59.4647 76.6891 59.567C76.6048 59.7777 76.5211 60.0004 76.4363 60.2171C76.3941 60.3255 76.358 60.4399 76.3225 60.5422C76.2075 60.8673 76.1238 61.1803 76.0751 61.4331C76.063 61.4873 76.057 61.5414 76.051 61.5956C76.0389 61.6859 76.0456 61.7521 76.051 61.8183V61.8545C76.051 61.8665 76.057 61.8665 76.057 61.8725L78.4229 59.7055V59.7115C78.4229 59.7175 78.4169 59.7235 78.4108 59.7356C78.3988 59.7476 78.3928 59.7597 78.3747 59.7777C78.3567 59.8078 78.3326 59.8379 78.2965 59.8801C78.2724 59.9162 78.2423 59.9583 78.2122 60.0004C78.1098 60.1509 77.9714 60.3436 77.8149 60.5663C77.4898 61.0298 77.0864 61.6197 76.7373 62.1855C76.7011 62.2457 76.665 62.3119 76.6289 62.3721C76.5627 62.4745 76.5025 62.5768 76.4489 62.6791C76.4423 62.6852 76.4423 62.6852 76.4423 62.6912C76.3821 62.7935 76.3279 62.8958 76.2797 62.9921C76.2743 62.9921 76.2743 62.9921 76.2797 62.9982C76.172 63.1908 76.0931 63.3654 76.0389 63.5219C76.0149 63.6001 75.9908 63.6724 75.9787 63.7325V63.7386L79.5854 61.1622C79.5667 61.1863 79.5071 61.2766 79.4282 61.391C79.3861 61.4511 79.3325 61.5294 79.2843 61.6077C79.2302 61.6799 79.1754 61.7642 79.1212 61.8424C79.0556 61.9508 78.9948 62.0531 78.9466 62.1434C78.8684 62.2879 78.8262 62.3782 78.8082 62.4323C78.7961 62.4684 78.7961 62.4865 78.7961 62.4985L78.8021 62.5106L80.7406 61.6799C80.7406 61.6799 80.6629 61.7762 80.5239 61.9267L79.8015 62.6611L78.3085 64.178L78.2844 64.2081L76.6349 65.8815C76.6349 65.8815 76.1112 66.4293 76.051 66.7122C75.9908 66.9711 76.2316 67.1336 76.2743 67.1637C76.5446 67.3142 76.7613 67.5429 76.8878 67.8258C76.9058 67.868 76.9245 67.9101 76.9359 67.9522C76.954 68.0185 76.9727 68.0847 76.9841 68.1569C76.9961 68.2231 77.0021 68.2954 77.0021 68.3676C77.0021 68.6987 76.8763 69.0057 76.6716 69.2525C76.4062 69.5595 76.0088 69.7581 75.5634 69.7581C75.3346 69.7581 75.1185 69.7039 74.9313 69.6136C74.859 69.5775 74.7868 69.5354 74.7206 69.4872C74.6911 69.4752 74.6604 69.4511 74.6363 69.427C74.6429 69.4391 74.6483 69.4511 74.6604 69.4631C74.6911 69.4993 74.7386 69.5474 74.8048 69.6016C74.8416 69.6317 74.8831 69.6678 74.9313 69.6919C74.968 69.722 75.0095 69.7461 75.0577 69.7701C75.0637 69.7762 75.0757 69.7822 75.0818 69.7822C75.1359 69.8123 75.1901 69.8364 75.2503 69.8544C75.2563 69.8604 75.2624 69.8604 75.269 69.8604C75.3226 69.8785 75.3767 69.8965 75.4369 69.9086C75.449 69.9086 75.461 69.9146 75.4791 69.9146C75.5032 69.9206 75.5272 69.9266 75.5513 69.9266C75.6115 69.9327 75.6723 69.9387 75.7379 69.9387C75.871 69.9387 76.0149 69.9206 76.172 69.8785C76.3339 69.8364 76.5025 69.7701 76.6831 69.6738L78.2965 68.494L80.0369 67.2239C80.4342 67.6874 80.8008 68.2472 81.1385 68.8792C80.8911 69.114 80.6021 69.3909 80.2771 69.7099C80.1266 69.8484 79.9761 69.9989 79.8135 70.1554C79.4463 70.5166 79.049 70.9078 78.6336 71.3232C78.3627 71.6001 78.0737 71.889 77.7848 72.19C77.5801 72.3947 77.3814 72.6053 77.1773 72.816C77.0383 72.9545 76.9004 73.0989 76.7674 73.2434C76.7011 73.3156 76.6349 73.3879 76.5687 73.4601C76.5266 73.5022 76.4904 73.5444 76.4489 73.5865C76.051 74.0079 75.6597 74.4413 75.2804 74.8687C74.7934 75.4104 74.3292 75.9582 73.9018 76.4879L74.5038 73.6648L74.552 73.436V73.43C74.546 73.436 74.5406 73.436 74.5339 73.4421L74.5279 73.4481C74.5219 73.4481 74.5165 73.4481 74.5098 73.4601C74.5098 73.4601 74.5038 73.4601 74.5038 73.4661C74.4978 73.4722 74.4858 73.4782 74.4797 73.4782C74.4797 73.4842 74.4737 73.4902 74.4683 73.4962C74.4617 73.4962 74.4496 73.5083 74.4436 73.5083C74.4376 73.5203 74.4316 73.5203 74.4195 73.5263C74.4141 73.5323 74.4075 73.5384 74.3955 73.5444L74.3714 73.5685C74.3593 73.5745 74.3533 73.5865 74.3419 73.5865C74.3353 73.5986 74.3232 73.6106 74.3178 73.6166C74.3052 73.6226 74.3052 73.6226 74.2991 73.6287C74.2931 73.6347 74.2871 73.6347 74.2811 73.6407V73.6467C74.269 73.6527 74.2636 73.6648 74.251 73.6708C74.2395 73.6828 74.2209 73.6889 74.2155 73.7069C74.1968 73.7129 74.1914 73.725 74.1787 73.731C74.1673 73.743 74.1486 73.7551 74.1366 73.7731C74.1246 73.7791 74.1065 73.7912 74.1005 73.8032C74.0824 73.8153 74.065 73.8333 74.0523 73.8514C74.0409 73.8634 74.0343 73.8694 74.0168 73.8815C73.9861 73.9056 73.9626 73.9357 73.9319 73.9658C73.9145 73.9718 73.9078 73.9898 73.8904 74.0019C73.8838 74.0079 73.8777 74.0139 73.8663 74.0259C73.8597 74.032 73.8476 74.044 73.8356 74.056C73.8175 74.0741 73.8055 74.0861 73.7935 74.0982C73.7694 74.1162 73.7513 74.1403 73.7399 74.1524C73.7212 74.1764 73.7032 74.1945 73.6911 74.2065C73.6731 74.2306 73.655 74.2487 73.6309 74.2667C73.6135 74.2908 73.6008 74.3028 73.5828 74.3209C73.5707 74.3329 73.5587 74.345 73.5527 74.357C73.5466 74.357 73.5406 74.363 73.5346 74.3691C73.5346 74.3751 73.5286 74.3811 73.5226 74.3871C73.5165 74.3931 73.5111 74.3931 73.5045 74.3992C73.5045 74.4052 73.4985 74.4052 73.4985 74.4112C73.487 74.4232 73.4744 74.4293 73.4684 74.4413C73.463 74.4533 73.4503 74.4654 73.4443 74.4774C73.4389 74.4834 73.4262 74.4955 73.4082 74.5075V74.5135C73.3961 74.5316 73.3781 74.5496 73.3606 74.5737C73.3365 74.5978 73.3179 74.6219 73.2938 74.646C73.2757 74.67 73.2577 74.6881 73.2396 74.7122C73.2155 74.7362 73.1975 74.7603 73.1734 74.7904C73.162 74.8145 73.1379 74.8326 73.1192 74.8566C73.1072 74.8687 73.0951 74.8867 73.0891 74.8988C73.0771 74.9108 73.065 74.9289 73.053 74.9469C73.0355 74.959 73.0169 74.9891 72.9988 75.0071C72.9747 75.0432 72.9507 75.0733 72.9206 75.1095C72.9025 75.1335 72.8905 75.1516 72.8724 75.1757C72.8423 75.2178 72.8128 75.2539 72.7821 75.2961C72.7701 75.3141 72.752 75.3322 72.74 75.3502C72.6978 75.4104 72.6557 75.4646 72.6135 75.5308L72.6081 75.5368C72.5654 75.597 72.5232 75.6572 72.4811 75.7235C72.463 75.7415 72.4576 75.7596 72.445 75.7837C72.4095 75.8318 72.3788 75.88 72.3487 75.9221C72.3306 75.9462 72.3186 75.9703 72.3005 75.9943C72.2764 76.0425 72.2403 76.0906 72.2162 76.1388C72.1982 76.1629 72.1801 76.187 72.1681 76.2171C72.138 76.2592 72.1085 76.3073 72.0778 76.3555C72.0657 76.3856 72.0477 76.4097 72.0296 76.4458C71.9995 76.4879 71.9754 76.5361 71.9453 76.5842C71.9339 76.6143 71.9098 76.6444 71.8971 76.6745C71.867 76.7287 71.8369 76.7769 71.8075 76.8311C71.8008 76.8431 71.7948 76.8611 71.7888 76.8732C71.7834 76.8852 71.7767 76.9033 71.7647 76.9213C71.7051 77.0237 71.6503 77.126 71.5961 77.2344C71.542 77.3427 71.4878 77.4511 71.4336 77.5654C71.4095 77.6076 71.3915 77.6497 71.3674 77.6918L70.7058 77.8062C70.7353 77.7219 70.7714 77.6377 70.8075 77.5534C70.8376 77.4751 70.8737 77.3909 70.9044 77.3186C70.94 77.2344 70.9761 77.1501 71.0122 77.0718C71.0483 76.9996 71.079 76.9334 71.1145 76.8611L71.0965 76.8852L70.0309 78.3841L71.1145 78.2757C70.1875 80.4067 69.5072 83.1937 69.5072 87.1606L70.3861 86.6068C71.1687 91.0311 74.8175 92.9814 74.8175 92.9814L74.8109 92.9513C76.7373 94.2155 79.061 95.1124 81.6195 95.5036C81.77 95.5277 81.9085 95.5458 82.0415 95.5638C82.0656 95.5698 82.0831 95.5698 82.1071 95.5698C82.1974 95.5819 82.2817 95.5879 82.354 95.5999C82.3961 95.612 82.4382 95.612 82.4744 95.612C82.5171 95.618 82.5526 95.624 82.5827 95.624C82.6008 95.63 82.6195 95.63 82.6309 95.63C82.649 95.63 82.661 95.6361 82.673 95.6361H82.7152H82.7212C82.77 95.6421 82.8115 95.6481 82.8597 95.6481C84.3231 95.7745 85.7372 95.7264 87.0978 95.5277C87.0917 95.5759 87.0917 95.63 87.0917 95.6842C87.0917 96.557 87.5794 97.2794 88.1994 97.3396C86.9232 99.5126 85.8877 102.39 85.8877 102.408C85.8396 102.54 85.7372 102.781 85.6349 102.859C85.3219 102.926 85.2918 102.944 84.9492 103.052V103.046C84.8342 102.932 83.8289 102.745 82.7995 103.13C82.7995 103.136 82.7995 103.136 82.8055 103.142C82.2275 103.395 81.6617 103.859 81.2704 104.629C81.6857 104.292 82.469 103.744 83.1005 103.823C82.3479 104.25 81.0536 105.069 80.9031 106.242C80.9031 106.242 85.4061 103.082 87.6275 103.666C87.6275 103.666 87.3024 104.033 88.067 105.4L88.4162 104.13C88.8141 102.896 87.2723 102.715 86.6282 102.691V102.673C86.6282 102.673 86.7004 102.474 86.8269 102.149C87.2067 101.162 88.0971 98.9829 89.0723 97.4299C89.091 97.3938 89.1024 97.3697 89.1151 97.3336L88.9279 97.0807C88.9339 97.0807 89.0603 96.9363 89.1325 96.8339C89.259 96.6293 89.4402 96.2802 89.4456 95.8227C89.4456 95.4675 89.3553 95.01 89.0964 94.4502L89.6743 94.1793C89.7044 94.2516 89.7412 94.3238 89.7707 94.39C89.7707 94.396 89.7767 94.4081 89.7767 94.4141C89.8068 94.4984 89.8435 94.5826 89.873 94.6669C89.885 94.7151 89.9031 94.7632 89.9212 94.8114C89.9212 94.8234 89.9272 94.8415 89.9272 94.8535C89.9272 94.8595 89.9332 94.8656 89.9332 94.8656L93.2322 93.8663L92.4977 93.2644H92.4917L79.9881 81.8814V81.8754C80.2048 81.9777 80.4215 82.0861 80.6443 82.1945C81.0904 82.4112 81.5419 82.6279 82.0108 82.8566C83.0583 83.3622 84.0697 83.8498 85.0516 84.3193C85.3285 84.4518 85.6054 84.5842 85.8938 84.7226C87.5192 85.4992 89.0543 86.2275 90.4937 86.9017C90.7399 87.0161 90.9927 87.1365 91.2516 87.2569C92.3412 87.7625 93.3707 88.2441 94.3459 88.6955C94.7252 88.8701 95.0924 89.0387 95.4536 89.2012C95.7004 89.3156 95.9412 89.4239 96.182 89.5383C96.772 89.8031 97.3379 90.062 97.8857 90.3088C98.0723 90.3931 98.2529 90.4713 98.4275 90.5556C98.7586 90.7061 99.0837 90.8505 99.4027 90.989C100.27 91.3802 101.076 91.7354 101.823 92.0665C102.082 92.1808 102.328 92.2892 102.569 92.3915C103.9 92.9754 105.025 93.451 105.953 93.8483C106.055 93.8904 106.157 93.9325 106.254 93.9747C106.392 94.0288 106.53 94.083 106.657 94.1432C106.801 94.2034 106.946 94.2576 107.078 94.3118C107.278 94.396 107.464 94.4743 107.638 94.5465C107.753 94.5947 107.867 94.6368 107.969 94.679C108.084 94.7271 108.192 94.7692 108.288 94.8114C108.306 94.8174 108.318 94.8234 108.336 94.8294C108.379 94.8475 108.427 94.8656 108.469 94.8836C108.53 94.9077 108.583 94.9318 108.644 94.9498C108.993 95.0883 109.221 95.1786 109.33 95.2207C109.354 95.2267 109.366 95.2327 109.378 95.2388C109.385 95.2388 109.385 95.2448 109.385 95.2448C109.396 95.2448 109.402 95.2508 109.409 95.2508H109.414C109.45 95.2328 109.486 95.2207 109.528 95.1966L84.3346 77.9206L99.903 67.1637ZM109.39 95.2568C109.264 95.2929 109.132 95.3291 108.993 95.3531C105.351 96.0574 97.4408 93.3968 95.875 92.9333L95.9713 93.3848L100.36 95.9732L101.468 96.6172L100.86 95.0522C104.478 96.1236 107.428 96.1838 109.39 95.2568Z" fill="white"/>
<path fill-rule="evenodd" clip-rule="evenodd" d="M50.3855 116.372C49.9851 116.265 49.3867 116.206 48.6084 116.206H46.9179V125.758L47.0979 125.633L48.4868 124.653L48.5367 124.617V121.914H49.0683C50.0477 121.914 50.8442 121.652 51.4287 121.144C52.0181 120.627 52.3148 119.925 52.3148 119.052C52.3148 118.235 52.0361 117.551 51.4871 117.011C51.1729 116.701 50.8038 116.485 50.3855 116.372ZM48.9768 120.537H48.5319V117.609H49.031C50.3084 117.609 50.9513 118.082 50.9513 119.026C50.9513 120.034 50.2909 120.537 48.9768 120.537ZM59.3763 121.685C59.9337 121.527 60.3973 121.225 60.7524 120.78C61.1437 120.294 61.3364 119.7 61.3364 119.026C61.3364 118.162 61.0233 117.451 60.4015 116.922C59.8446 116.45 58.9308 116.206 57.6907 116.206H55.9497V125.758L56.1243 125.633L57.5191 124.653L57.5691 124.617V121.882H57.6449L60.2444 125.606L60.307 125.701L60.4015 125.633L61.5176 124.827L61.6115 124.76L61.5447 124.666L59.3763 121.685ZM57.5691 120.537V120.442V117.745V117.609H58.0681C59.345 117.609 59.9885 118.082 59.9885 119.026C59.9885 120.034 59.3263 120.537 58.0146 120.537H57.5691ZM35.1055 116.489C34.5577 116.301 33.807 116.206 32.8758 116.206H30.8284V125.651H32.8523C33.7926 125.651 34.5306 125.565 35.052 125.39C35.6052 125.215 36.15 124.9 36.6575 124.455C37.6652 123.559 38.1824 122.377 38.1824 120.928C38.1824 119.494 37.6881 118.311 36.7165 117.425C36.2349 116.988 35.6955 116.674 35.1055 116.489ZM35.5607 123.29C35.241 123.577 34.8762 123.794 34.4765 123.923C34.0803 124.054 33.5674 124.118 32.9606 124.118H32.4477V117.745H32.9606C34.1074 117.745 34.9894 118.019 35.5697 118.555C36.2223 119.161 36.5455 119.957 36.5455 120.928C36.5455 121.895 36.2174 122.686 35.5607 123.29ZM24.9318 117.569C25.5308 117.569 26.1183 117.74 26.6944 118.077L26.7938 118.135L26.8473 118.036L27.5222 116.872L27.5818 116.773L27.4819 116.714C26.6944 116.261 25.8673 116.031 25.0311 116.031C23.4834 116.031 22.2053 116.61 21.2343 117.758C20.4433 118.698 20.043 119.777 20.043 120.974C20.043 122.304 20.524 123.466 21.4643 124.409C22.4178 125.345 23.5791 125.822 24.9234 125.822C25.8137 125.822 26.6716 125.587 27.4819 125.129L27.5408 125.093V124.999L27.5276 124.973L26.8473 123.798L26.7896 123.695L26.686 123.763C26.4964 123.884 26.3134 123.982 26.1418 124.054C25.8137 124.207 25.4092 124.283 24.9366 124.283C24.0276 124.283 23.2504 123.959 22.6201 123.32C21.9952 122.683 21.6756 121.886 21.6756 120.955C21.6756 120.011 21.9952 119.201 22.6201 118.555C23.245 117.897 24.0234 117.569 24.9318 117.569ZM131.378 117.745L131.41 117.712L132.692 116.404L132.885 116.206H127.411V125.651H131.41L131.44 125.619L132.695 124.31L132.88 124.118H129.03V121.185H130.217L130.249 121.149L131.549 119.845L131.742 119.647H129.03V117.745H131.378ZM103.675 117.745H105.795V125.758L105.973 125.633L107.363 124.653L107.413 124.617V117.745H109.527V116.206H103.675V117.745ZM69.4339 116.035C68.0794 116.035 66.9012 116.517 65.9393 117.466C64.967 118.414 64.4776 119.566 64.4776 120.888C64.4776 122.39 65.0176 123.627 66.0777 124.558C67.0415 125.395 68.148 125.822 69.361 125.822C70.7288 125.822 71.9159 125.34 72.8839 124.397C73.8507 123.456 74.3401 122.296 74.3401 120.943C74.3401 119.601 73.8549 118.432 72.8923 117.478C71.9346 116.521 70.7739 116.035 69.4339 116.035ZM71.7449 123.317C71.1032 123.959 70.3061 124.283 69.3755 124.283C68.5248 124.283 67.7561 123.964 67.1035 123.33C66.4425 122.701 66.1096 121.886 66.1096 120.902C66.1096 119.971 66.4341 119.174 67.0686 118.54C67.7025 117.897 68.4935 117.569 69.4152 117.569C70.3417 117.569 71.1291 117.897 71.7546 118.54C72.3891 119.179 72.7075 119.984 72.7075 120.928C72.7075 121.859 72.3848 122.665 71.7449 123.317ZM142.545 117.425C142.065 116.988 141.52 116.674 140.931 116.489C140.382 116.301 139.636 116.206 138.7 116.206H136.654V125.651H138.678C139.618 125.651 140.361 125.565 140.882 125.39C141.435 125.215 141.975 124.9 142.483 124.455C143.495 123.559 144.008 122.377 144.008 120.928C144.008 119.494 143.518 118.311 142.545 117.425ZM141.39 123.29C141.066 123.577 140.701 123.794 140.306 123.923C139.906 124.054 139.397 124.118 138.786 124.118H138.273V117.745H138.786C139.937 117.745 140.815 118.019 141.4 118.555C142.046 119.161 142.375 119.957 142.375 120.928C142.375 121.895 142.046 122.686 141.39 123.29ZM121.185 121.685C121.744 121.527 122.207 121.225 122.562 120.78C122.953 120.294 123.147 119.7 123.147 119.026C123.147 118.162 122.832 117.451 122.211 116.922C121.649 116.45 120.74 116.206 119.499 116.206H117.754V125.758L117.933 125.633L119.328 124.653L119.377 124.617V121.882H119.453L122.049 125.606L122.116 125.701L122.211 125.633L123.326 124.827L123.416 124.76L123.354 124.666L121.185 121.685ZM119.377 120.537V117.609H119.872C121.154 117.609 121.793 118.082 121.793 119.026C121.793 120.034 121.136 120.537 119.819 120.537H119.377ZM99.2502 116.242L95.8579 119.718V116.102L95.6785 116.233L94.2891 117.209L94.2392 117.245V125.758L94.424 125.633L95.8134 124.653L95.8579 124.617V121.77L96.0247 121.607L99.2628 125.61L99.326 125.691L99.4163 125.633L100.608 124.827L100.711 124.756L100.631 124.656L97.1799 120.501L101.274 116.404L101.467 116.206H99.2851L99.2502 116.242ZM79.3289 117.213L79.2801 117.25V122.282C79.2801 123.043 79.1989 123.577 79.0411 123.873C78.9021 124.153 78.654 124.283 78.2856 124.283C78.0147 124.283 77.7228 124.18 77.4085 123.97L77.305 123.902L77.2466 124.005L76.5585 125.192L76.5037 125.29L76.5982 125.35C77.1208 125.66 77.6866 125.822 78.2856 125.822C79.0863 125.822 79.7388 125.529 80.2241 124.963C80.4715 124.676 80.6473 124.321 80.755 123.906C80.8531 123.547 80.9073 123.015 80.9073 122.287V116.102L80.7237 116.233L79.3289 117.213ZM89.2811 117.745L89.319 117.712L90.6007 116.404L90.7897 116.206H85.32V125.651H89.3142L89.3503 125.619L90.6007 124.31L90.7843 124.118H86.9393V121.185H88.1223L88.1536 121.149L89.4533 119.845L89.6471 119.647H86.9393V117.745H89.2811Z" fill="white"/>
<path fill-rule="evenodd" clip-rule="evenodd" d="M147.095 119.335C146.183 119.335 145.443 118.594 145.443 117.683C145.443 116.764 146.183 116.032 147.095 116.032C148.013 116.032 148.747 116.764 148.747 117.683C148.747 118.594 148.013 119.335 147.095 119.335ZM147.095 116.28C146.316 116.28 145.692 116.897 145.692 117.683C145.692 118.454 146.316 119.085 147.095 119.085C147.874 119.085 148.497 118.454 148.497 117.683C148.497 116.897 147.874 116.28 147.095 116.28ZM147.547 118.633L147.055 117.886H146.729V118.633H146.463V116.741H147.235C147.554 116.741 147.85 116.966 147.85 117.317C147.85 117.738 147.477 117.877 147.366 117.877L147.874 118.633H147.547ZM147.235 116.975H146.729V117.644H147.235C147.398 117.644 147.578 117.512 147.578 117.317C147.578 117.107 147.398 116.975 147.235 116.975Z" fill="white"/>
</g>
</svg>
