<svg width="170" height="150" viewBox="0 0 170 150" fill="none" xmlns="http://www.w3.org/2000/svg">
<g opacity="0.6">
<path fill-rule="evenodd" clip-rule="evenodd" d="M151.79 75.5489H151.788H151.784C150.811 75.5481 149.929 75.1534 149.291 74.5165L149.292 74.5157C148.653 73.8772 148.257 72.995 148.256 72.0217V72.0201V72.0162C148.257 71.0445 148.652 70.1647 149.29 69.527C149.929 68.8885 150.813 68.493 151.786 68.4922H151.788H151.792C152.766 68.4938 153.647 68.8885 154.285 69.5246C154.925 70.1631 155.322 71.0453 155.322 72.0185V72.0201V72.0241C155.321 72.9958 154.926 73.8764 154.287 74.5141C153.649 75.1518 152.766 75.5489 151.79 75.5489ZM151.788 75.0798H151.79C152.635 75.079 153.402 74.7362 153.955 74.1833C154.508 73.6303 154.851 72.8672 154.851 72.0241V72.0201V72.0185C154.851 71.1739 154.508 70.4092 153.954 69.857C153.402 69.3057 152.637 68.9628 151.792 68.962H151.788H151.786C150.941 68.962 150.175 69.3049 149.622 69.857C149.07 70.41 148.727 71.1731 148.726 72.0162V72.0201V72.0217C148.726 72.8664 149.069 73.6311 149.622 74.1841H149.624C150.177 74.7362 150.941 75.079 151.784 75.0798H151.788Z" fill="white"/>
<path fill-rule="evenodd" clip-rule="evenodd" d="M152.125 71.8403C152.367 71.8403 152.808 71.7636 152.808 71.3273C152.808 70.9381 152.713 70.7511 152.194 70.7511H150.868V71.8403H152.125ZM149.965 69.9033H152.194C153.367 69.9033 153.64 70.9445 153.64 71.3241C153.64 71.8091 153.246 72.3725 152.811 72.5211L154.008 74.0977H153.018L152.026 72.641H150.868V74.0977H149.965V69.9033Z" fill="white"/>
<path fill-rule="evenodd" clip-rule="evenodd" d="M109.615 73.9091C107.192 73.9091 103.943 75.3235 103.943 80.9809C103.943 86.6464 106.839 88.0607 109.615 88.0607C112.383 88.0607 115.335 86.2868 115.335 80.9809C115.335 75.6751 112.032 73.9091 109.615 73.9091ZM109.615 73.9091C107.192 73.9091 103.943 75.3235 103.943 80.9809C103.943 86.6464 106.839 88.0607 109.615 88.0607C112.383 88.0607 115.335 86.2868 115.335 80.9809C115.335 75.6751 112.032 73.9091 109.615 73.9091ZM66.6955 74.3166V82.5151C66.6955 82.5151 72.2387 80.2138 72.2387 76.9696C72.2387 72.9662 66.6955 74.3166 66.6955 74.3166ZM109.615 73.9091C107.192 73.9091 103.943 75.3235 103.943 80.9809C103.943 86.6464 106.839 88.0607 109.615 88.0607C112.383 88.0607 115.335 86.2868 115.335 80.9809C115.335 75.6751 112.032 73.9091 109.615 73.9091ZM109.615 73.9091C107.192 73.9091 103.943 75.3235 103.943 80.9809C103.943 86.6464 106.839 88.0607 109.615 88.0607C112.383 88.0607 115.335 86.2868 115.335 80.9809C115.335 75.6751 112.032 73.9091 109.615 73.9091ZM66.6955 74.3166V82.5151C66.6955 82.5151 72.2387 80.2138 72.2387 76.9696C72.2387 72.9662 66.6955 74.3166 66.6955 74.3166ZM45.3275 81.0449H49.2227L47.2147 75.4433L45.3275 81.0449ZM66.6955 74.3166V82.5151C66.6955 82.5151 72.2387 80.2138 72.2387 76.9696C72.2387 72.9662 66.6955 74.3166 66.6955 74.3166ZM109.615 73.9091C107.192 73.9091 103.943 75.3235 103.943 80.9809C103.943 86.6464 106.839 88.0607 109.615 88.0607C112.383 88.0607 115.335 86.2868 115.335 80.9809C115.335 75.6751 112.032 73.9091 109.615 73.9091ZM145.064 90.6577H138.007V89.3872C138.007 89.3872 138.624 89.2993 138.832 89.0036C139.039 88.708 139.128 88.5322 139.071 88.0607C139.007 87.5893 137.328 76.8577 137.328 76.8577L134.256 86.3507H130.535L127.496 77.441L125.96 87.9409C125.96 87.9409 125.903 88.5721 126.143 88.9157C126.464 89.3872 127.056 89.3872 127.056 89.3872V90.6497H120.943V89.2993C120.943 89.2993 121.432 89.2194 121.783 88.8119C122.143 88.3963 122.199 87.869 122.199 87.869L124.432 74.021C124.432 74.021 124.56 73.5096 124.415 73.2699C124.256 73.0221 123.424 72.8144 123.424 72.8144V71.44H130.447L132.983 79.2709L135.703 71.432H143.047V72.5826C143.047 72.5826 142.56 72.7824 142.343 73.0541C142.079 73.3737 142.079 73.6135 142.135 74.0849C142.192 74.5564 144.088 87.3496 144.143 87.821C144.199 88.2925 144.264 88.5562 144.383 88.8838C144.496 89.2034 145.064 89.4751 145.064 89.4751V90.6577ZM109.615 91.2091C103.239 91.2091 98.6555 86.5585 98.6555 80.893C98.6555 75.2356 103.352 70.8487 109.615 70.8487C115.871 70.8487 120.567 75.2356 120.567 80.893C120.567 86.5585 115.983 91.2091 109.615 91.2091ZM89.7196 73.7014C86.1196 73.7014 84.5195 77.0655 84.5195 79.8382C84.5195 82.603 86.2316 87.6772 91.8467 87.6772C95.1027 87.6772 95.7988 85.8473 95.7988 85.8473H96.9196V90.6258H90.7828C83.4636 90.6258 79.3828 84.9044 79.3828 80.7812C79.3828 74.4525 84.8955 70.9366 89.8955 70.9366C94.7347 70.9366 97.6555 74.6363 97.6555 74.6363L94.3195 78.1282C94.3195 78.1282 94.1428 78.2161 93.9987 78.2161C93.8467 78.2161 93.6387 78.0643 93.6387 78.0643L93.2316 77.7127C93.2316 77.7127 93.1107 77.6887 93.1107 77.5689C93.1107 77.449 93.4388 77.1534 93.4388 76.594C93.4388 76.0347 93.3196 73.7014 89.7196 73.7014ZM72.4795 83.1065C69.9595 84.2651 66.6387 85.1681 66.6387 85.1681V88.2365C66.6387 88.2365 66.6635 88.4443 66.9595 88.7959C67.2547 89.1475 67.5827 89.2354 67.5827 89.2354V90.6497H60.7347V89.2673C60.7347 89.2673 61.1427 89.1794 61.4387 88.8838C61.7347 88.5881 61.7987 88.2365 61.7987 88.2365V74.3806C61.7987 74.3806 61.8227 73.7892 61.5915 73.5495C61.3507 73.3178 60.7915 72.9902 60.7915 72.9902V71.432H70.2387C73.7187 71.432 77.1987 72.6705 77.1987 76.6739C77.1987 80.6853 74.6635 82.0996 72.4795 83.1065ZM58.4315 90.6497H51.0227V89.2354C51.0227 89.2354 51.4955 89.2993 51.7347 88.8838C51.9667 88.4683 51.9668 88.1486 51.7915 87.7331C51.6147 87.3176 50.3747 84.0494 50.3747 84.0494H44.3188C44.3188 84.0494 43.0868 87.3496 42.9668 87.6452C42.8476 87.9409 42.8476 88.4123 42.9668 88.708C43.1595 89.1954 43.8475 89.2673 43.8475 89.2673V90.6497H37.9188V89.2673C37.9188 89.2673 38.4548 89.0835 38.8636 88.676C39.3027 88.2365 39.4548 87.7651 39.4548 87.7651L45.4707 71.432H50.5187L56.6635 87.4694C56.8387 87.9089 57.1348 88.3244 57.4315 88.676C57.7188 89.0276 58.4315 89.2673 58.4315 89.2673V90.6497ZM34.4067 90.5938H28.2635C20.9427 90.5938 16.8707 84.8724 16.8707 80.7492C16.8707 74.4205 22.3828 70.9046 27.3828 70.9046C32.2227 70.9046 35.1427 74.6043 35.1427 74.6043L31.8068 78.0963C31.8068 78.0963 31.6315 78.1842 31.4867 78.1842C31.3347 78.1842 31.1276 78.0323 31.1276 78.0323L30.7188 77.6807C30.7188 77.6807 30.5988 77.6488 30.5988 77.5289C30.5988 77.4171 30.9187 77.1214 30.9187 76.562C30.9187 76.0027 30.8068 73.6694 27.2068 73.6694C23.6068 73.6694 22.0067 77.0335 22.0067 79.8063C22.0067 82.5711 23.7188 87.6452 29.3275 87.6452C32.5916 87.6452 33.2868 85.8153 33.2868 85.8153H34.4067V90.5938ZM146.328 86.8781C146.047 86.6304 145.935 86.2868 145.864 85.9592L144.296 75.9388C144.296 75.9388 144.264 75.0198 144.439 74.7322C144.615 74.4365 145.264 74.2607 145.264 74.2607V69.1866H133.992L133.135 72.1112L131.983 69.1866H121.064V74.5564C118.967 70.9206 114.911 68.5713 110.056 68.5713C106.103 68.5713 101.783 70.0576 99.1028 73.2539C97.1827 70.3532 93.8236 68.6033 89.0708 68.6033C84.4468 68.6033 81.2067 70.6808 78.8548 73.8452C77.1507 70.7847 75.6387 69.1866 69.7667 69.1866H58.4315V74.3806C58.4315 74.3806 58.9667 74.5324 59.2867 74.892C59.4795 75.1157 59.5187 75.4513 59.5187 75.763C59.5187 76.0746 59.4955 87.0539 59.4955 87.0539C59.0227 86.8222 58.5507 85.9352 58.5507 85.9352L52.0547 69.1866H43.9667L36.8955 87.821V83.6578H31.8636C31.8636 83.6578 31.2796 85.4637 29.0316 85.4637C26.6148 85.4637 24.4228 83.4581 24.2867 79.9182C24.1748 76.8577 26.8868 75.2915 27.8547 76.0267C29.0955 76.9696 27.7347 78.2721 27.7347 78.2721L31.8636 81.1008L38.1276 74.5004C38.1276 74.5004 35.1115 68.6592 27.4956 68.6592C19.5275 68.6592 14.7188 74.3166 14.7188 80.9809C14.7188 87.6452 20.8868 92.8951 28.5596 92.8951H69.9987V87.9249C69.9987 87.9249 68.6707 87.7011 68.6707 87.0859C68.6707 86.7423 68.8315 86.6224 69.1427 86.5585C73.1827 85.6475 76.5596 83.2423 77.3188 82.5151C78.9348 89.2194 84.7028 92.8951 91.4316 92.8951H98.9827V88.7639C98.9827 88.7639 103.279 93.4865 109.703 93.4865C114.72 93.4865 118.615 90.0584 118.615 90.0584V92.9031H129.271V88.5322H135.76V92.8951H147.096V87.1178C147.096 87.1178 146.656 87.1658 146.328 86.8781ZM47.2147 75.4433L45.3275 81.0449H49.2227L47.2147 75.4433ZM66.6955 74.3166V82.5151C66.6955 82.5151 72.2387 80.2138 72.2387 76.9696C72.2387 72.9662 66.6955 74.3166 66.6955 74.3166ZM109.615 73.9091C107.192 73.9091 103.943 75.3235 103.943 80.9809C103.943 86.6464 106.839 88.0607 109.615 88.0607C112.383 88.0607 115.335 86.2868 115.335 80.9809C115.335 75.6751 112.032 73.9091 109.615 73.9091ZM109.615 73.9091C107.192 73.9091 103.943 75.3235 103.943 80.9809C103.943 86.6464 106.839 88.0607 109.615 88.0607C112.383 88.0607 115.335 86.2868 115.335 80.9809C115.335 75.6751 112.032 73.9091 109.615 73.9091ZM66.6955 74.3166V82.5151C66.6955 82.5151 72.2387 80.2138 72.2387 76.9696C72.2387 72.9662 66.6955 74.3166 66.6955 74.3166ZM47.2147 75.4433L45.3275 81.0449H49.2227L47.2147 75.4433ZM109.615 73.9091C107.192 73.9091 103.943 75.3235 103.943 80.9809C103.943 86.6464 106.839 88.0607 109.615 88.0607C112.383 88.0607 115.335 86.2868 115.335 80.9809C115.335 75.6751 112.032 73.9091 109.615 73.9091ZM109.615 73.9091C107.192 73.9091 103.943 75.3235 103.943 80.9809C103.943 86.6464 106.839 88.0607 109.615 88.0607C112.383 88.0607 115.335 86.2868 115.335 80.9809C115.335 75.6751 112.032 73.9091 109.615 73.9091Z" fill="white"/>
</g>
</svg>
