<svg width="51" height="51" viewBox="0 0 51 51" fill="none" xmlns="http://www.w3.org/2000/svg">
<g clip-path="url(#clip0_94_992)">
<path d="M38.7812 0.5H12.2188C5.74666 0.5 0.5 5.74666 0.5 12.2188V38.7812C0.5 45.2533 5.74666 50.5 12.2188 50.5H38.7812C45.2533 50.5 50.5 45.2533 50.5 38.7812V12.2188C50.5 5.74666 45.2533 0.5 38.7812 0.5Z" fill="white"/>
<path d="M38.7812 0.5H12.2188C5.74666 0.5 0.5 5.74666 0.5 12.2188V38.7812C0.5 45.2533 5.74666 50.5 12.2188 50.5H38.7812C45.2533 50.5 50.5 45.2533 50.5 38.7812V12.2188C50.5 5.74666 45.2533 0.5 38.7812 0.5Z" fill="#0A66C2"/>
<path d="M36.5771 43.0166H42.2939C42.5011 43.0166 42.6998 42.9343 42.8463 42.7878C42.9928 42.6414 43.0751 42.4427 43.0752 42.2355L43.0781 30.157C43.0781 23.8439 41.7178 18.9914 34.3402 18.9914C31.5357 18.8871 28.891 20.3328 27.4639 22.7469C27.4569 22.7586 27.4463 22.7677 27.4336 22.7728C27.421 22.778 27.407 22.7788 27.3938 22.7752C27.3807 22.7717 27.369 22.7639 27.3607 22.7531C27.3523 22.7423 27.3478 22.7291 27.3477 22.7154V20.3555C27.3477 20.1483 27.2653 19.9496 27.1188 19.803C26.9723 19.6565 26.7736 19.5742 26.5664 19.5742H21.1412C20.934 19.5742 20.7353 19.6565 20.5888 19.803C20.4423 19.9496 20.36 20.1483 20.36 20.3555V42.2344C20.36 42.4416 20.4423 42.6403 20.5888 42.7868C20.7353 42.9333 20.934 43.0156 21.1412 43.0156H26.8576C27.0648 43.0156 27.2635 42.9333 27.41 42.7868C27.5566 42.6403 27.6389 42.4416 27.6389 42.2344V31.4193C27.6389 28.3613 28.2189 25.3998 32.0102 25.3998C35.7475 25.3998 35.7959 28.899 35.7959 31.6174V42.2354C35.7959 42.4426 35.8782 42.6413 36.0247 42.7878C36.1712 42.9343 36.3699 43.0166 36.5771 43.0166ZM7.92188 12.1461C7.92188 14.4633 9.82949 16.3699 12.1469 16.3699C14.4637 16.3697 16.3701 14.4619 16.3701 12.1451C16.3697 9.82832 14.4631 7.92188 12.1461 7.92188C9.82852 7.92188 7.92188 9.82891 7.92188 12.1461ZM9.28105 43.0166H15.0051C15.2123 43.0166 15.411 42.9343 15.5575 42.7878C15.704 42.6413 15.7863 42.4426 15.7863 42.2354V20.3555C15.7863 20.1483 15.704 19.9496 15.5575 19.803C15.411 19.6565 15.2123 19.5742 15.0051 19.5742H9.28105C9.07385 19.5742 8.87514 19.6565 8.72863 19.803C8.58211 19.9496 8.4998 20.1483 8.4998 20.3555V42.2354C8.4998 42.4426 8.58211 42.6413 8.72863 42.7878C8.87514 42.9343 9.07385 43.0166 9.28105 43.0166Z" fill="white"/>
</g>
<defs>
<clipPath id="clip0_94_992">
<rect width="50" height="50" fill="white" transform="translate(0.5 0.5)"/>
</clipPath>
</defs>
</svg>
