<svg width="80" height="80" viewBox="0 0 80 80" fill="none" xmlns="http://www.w3.org/2000/svg">
<rect width="80" height="80" rx="40" fill="#225557"/>
<path d="M39 40C40.1046 40 41 39.3284 41 38.5C41 37.6716 40.1046 37 39 37C37.8954 37 37 37.6716 37 38.5C37 39.3284 37.8954 40 39 40Z" stroke="#00E122" stroke-width="5" stroke-linecap="round" stroke-linejoin="round"/>
<path d="M62 40C63.1046 40 64 39.3284 64 38.5C64 37.6716 63.1046 37 62 37C60.8954 37 60 37.6716 60 38.5C60 39.3284 60.8954 40 62 40Z" stroke="#00E122" stroke-width="5" stroke-linecap="round" stroke-linejoin="round"/>
<path d="M15 40C16.1046 40 17 39.3284 17 38.5C17 37.6716 16.1046 37 15 37C13.8954 37 13 37.6716 13 38.5C13 39.3284 13.8954 40 15 40Z" stroke="#00E122" stroke-width="5" stroke-linecap="round" stroke-linejoin="round"/>
</svg>
