<svg width="45" height="45" viewBox="0 0 45 45" fill="none" xmlns="http://www.w3.org/2000/svg">
<path d="M24.375 37.125C24.5821 37.125 24.75 37.2929 24.75 37.5V37.7461C24.4777 37.6165 24.2575 37.3973 24.1279 37.125H24.375ZM28.1445 31.7764C28.0708 32.11 28.0312 32.4567 28.0312 32.8125C28.0312 33.168 28.0709 33.5143 28.1445 33.8477C27.7387 33.4289 27.264 33.0781 26.7383 32.8125C27.2642 32.5468 27.7386 32.1953 28.1445 31.7764ZM37.4795 31.7764C37.8853 32.1954 38.3599 32.5468 38.8857 32.8125C38.3602 33.0781 37.8852 33.4289 37.4795 33.8477C37.5531 33.5142 37.5938 33.1681 37.5938 32.8125C37.5938 32.4566 37.5533 32.1101 37.4795 31.7764ZM36 27.75V28.125C36 28.5628 36.0543 28.9879 36.1553 29.3945C35.2932 28.5513 34.1137 28.0312 32.8125 28.0312C31.5111 28.0312 30.3309 28.551 29.4688 29.3945C29.5698 28.9879 29.625 28.5629 29.625 28.125V27.75H36ZM24.75 28.125C24.75 28.3321 24.5821 28.5 24.375 28.5H24.1279C24.2575 28.2276 24.4776 28.0075 24.75 27.8779V28.125ZM40.875 27.8779C41.1474 28.0075 41.3675 28.2276 41.4971 28.5H41.25C41.0429 28.5 40.875 28.3321 40.875 28.125V27.8779ZM29.625 37.5C29.625 37.0618 29.5699 36.6364 29.4688 36.2295C30.3309 37.0733 31.5108 37.5938 32.8125 37.5938C34.1139 37.5938 35.2931 37.073 36.1553 36.2295C36.0541 36.6364 36 37.0618 36 37.5V37.875H29.625V37.5ZM40.875 37.5C40.875 37.2929 41.0429 37.125 41.25 37.125H41.4971C41.3675 37.3973 41.1473 37.6165 40.875 37.7461V37.5Z" fill="white" stroke="#00E122" stroke-width="3"/>
</svg>
