<svg width="44" height="44" viewBox="0 0 44 44" fill="none" xmlns="http://www.w3.org/2000/svg">
<path d="M5.789 8.65C9.641 3.978 15.473 1 22 1C33.598 1 43 10.402 43 22C43 33.598 33.598 43 22 43C10.402 43 1 33.598 1 22C1 18.842 1.697 15.847 2.946 13.16" stroke="#00E122" stroke-opacity="0.56" stroke-width="2" stroke-linecap="round" stroke-linejoin="round"/>
<path d="M11.5004 8.63618H5.77344V2.90918" stroke="#00E122" stroke-opacity="0.56" stroke-width="2" stroke-linecap="round" stroke-linejoin="round"/>
<path fill-rule="evenodd" clip-rule="evenodd" d="M20.6967 35.9791V33.4831C19.0997 33.4551 17.4607 33.0691 16.2167 32.4861C15.6227 32.2081 15.3357 31.5281 15.5567 30.9101L15.5657 30.8851C15.8147 30.1891 16.6017 29.8591 17.2747 30.1671C18.4127 30.6871 19.7867 31.0401 21.2357 31.0401C23.7847 31.0401 25.5097 29.5671 25.5097 27.5201C25.5097 25.5441 24.1097 24.3231 21.4507 23.2461C17.7867 21.8091 15.5247 20.1571 15.5247 17.0321C15.5247 14.0501 17.6437 11.7881 20.9477 11.2491V8.73409C20.9477 8.12009 21.4467 7.62109 22.0617 7.62109C22.6757 7.62109 23.1747 8.12009 23.1747 8.73409V11.1051C24.6587 11.1541 25.8197 11.4421 26.7387 11.8161C27.3737 12.0751 27.6817 12.7941 27.4387 13.4351C27.1847 14.1051 26.4317 14.4191 25.7677 14.1481C24.9517 13.8151 23.8457 13.5121 22.4207 13.5121C19.6547 13.5121 18.6137 15.1641 18.6137 16.6011C18.6137 18.4681 19.9427 19.4021 23.0677 20.6951C26.7667 22.2041 28.6347 24.0721 28.6347 27.2691C28.6347 30.1061 26.6587 32.7641 22.9597 33.3751V35.9791C22.9597 36.6041 22.4527 37.1101 21.8277 37.1101C21.2027 37.1101 20.6967 36.6041 20.6967 35.9791Z" fill="#00E122" fill-opacity="0.56"/>
</svg>
