<svg width="45" height="45" viewBox="0 0 45 45" fill="none" xmlns="http://www.w3.org/2000/svg">
<path d="M19.3594 8.09438C20.1581 4.80188 24.8419 4.80188 25.6406 8.09438C25.7605 8.589 25.9954 9.04834 26.3263 9.435C26.6573 9.82166 27.0748 10.1247 27.545 10.3195C28.0152 10.5143 28.5247 10.5953 29.0321 10.556C29.5395 10.5167 30.0305 10.3581 30.465 10.0931C33.3581 8.33062 36.6713 11.6419 34.9088 14.5369C34.6442 14.9712 34.4858 15.4619 34.4466 15.969C34.4073 16.476 34.4883 16.9852 34.6829 17.4551C34.8774 17.925 35.1801 18.3423 35.5664 18.6732C35.9526 19.0041 36.4114 19.2392 36.9056 19.3594C40.1981 20.1581 40.1981 24.8419 36.9056 25.6406C36.411 25.7605 35.9517 25.9954 35.565 26.3263C35.1783 26.6573 34.8753 27.0748 34.6805 27.545C34.4857 28.0152 34.4047 28.5247 34.444 29.0321C34.4833 29.5395 34.6419 30.0305 34.9069 30.465C36.6694 33.3581 33.3581 36.6713 30.4631 34.9088C30.0288 34.6442 29.5381 34.4858 29.031 34.4466C28.524 34.4073 28.0148 34.4883 27.5449 34.6829C27.075 34.8774 26.6577 35.1801 26.3268 35.5664C25.9959 35.9526 25.7608 36.4114 25.6406 36.9056C24.8419 40.1981 20.1581 40.1981 19.3594 36.9056C19.2395 36.411 19.0046 35.9517 18.6737 35.565C18.3427 35.1783 17.9252 34.8753 17.455 34.6805C16.9848 34.4857 16.4753 34.4047 15.9679 34.444C15.4605 34.4833 14.9695 34.6419 14.535 34.9069C11.6419 36.6694 8.32875 33.3581 10.0912 30.4631C10.3558 30.0288 10.5142 29.5381 10.5534 29.031C10.5927 28.524 10.5117 28.0148 10.3171 27.5449C10.1226 27.075 9.81986 26.6577 9.43364 26.3268C9.04741 25.9959 8.58856 25.7608 8.09438 25.6406C4.80188 24.8419 4.80188 20.1581 8.09438 19.3594C8.589 19.2395 9.04834 19.0046 9.435 18.6737C9.82166 18.3427 10.1247 17.9252 10.3195 17.455C10.5143 16.9848 10.5953 16.4753 10.556 15.9679C10.5167 15.4605 10.3581 14.9695 10.0931 14.535C8.33062 11.6419 11.6419 8.32875 14.5369 10.0912C16.4119 11.2312 18.8419 10.2225 19.3594 8.09438Z" stroke="#00E122" stroke-width="4" stroke-linecap="round" stroke-linejoin="round"/>
<path d="M16.875 22.5C16.875 23.9918 17.4676 25.4226 18.5225 26.4775C19.5774 27.5324 21.0082 28.125 22.5 28.125C23.9918 28.125 25.4226 27.5324 26.4775 26.4775C27.5324 25.4226 28.125 23.9918 28.125 22.5C28.125 21.0082 27.5324 19.5774 26.4775 18.5225C25.4226 17.4676 23.9918 16.875 22.5 16.875C21.0082 16.875 19.5774 17.4676 18.5225 18.5225C17.4676 19.5774 16.875 21.0082 16.875 22.5Z" stroke="#00E122" stroke-width="4" stroke-linecap="round" stroke-linejoin="round"/>
</svg>
