<svg width="46" height="46" viewBox="0 0 46 46" fill="none" xmlns="http://www.w3.org/2000/svg">
<path fill-rule="evenodd" clip-rule="evenodd" d="M45 23C45 35.15 35.15 45 23 45C10.85 45 1 35.15 1 23C1 10.85 10.85 1 23 1C35.15 1 45 10.85 45 23Z" stroke="#00E122" stroke-opacity="0.56" stroke-width="2" stroke-linecap="round" stroke-linejoin="round"/>
<path d="M15.9304 30.0693L8.15039 37.8493" stroke="#00E122" stroke-opacity="0.56" stroke-width="2" stroke-linecap="round" stroke-linejoin="round"/>
<path d="M37.8493 8.14941L30.0703 15.9294" stroke="#00E122" stroke-opacity="0.56" stroke-width="2" stroke-linecap="round" stroke-linejoin="round"/>
<path d="M37.8493 37.8503L30.0703 30.0703" stroke="#00E122" stroke-opacity="0.56" stroke-width="2" stroke-linecap="round" stroke-linejoin="round"/>
<path d="M15.9304 15.9304L8.15039 8.15039" stroke="#00E122" stroke-opacity="0.56" stroke-width="2" stroke-linecap="round" stroke-linejoin="round"/>
<path fill-rule="evenodd" clip-rule="evenodd" d="M33 23C33 25.76 31.88 28.26 30.07 30.07C28.26 31.88 25.76 33 23 33C20.24 33 17.74 31.88 15.93 30.07C14.12 28.26 13 25.76 13 23C13 20.24 14.12 17.74 15.93 15.93C17.74 14.12 20.24 13 23 13C25.76 13 28.26 14.12 30.07 15.93C31.88 17.74 33 20.24 33 23Z" stroke="#00E122" stroke-opacity="0.56" stroke-width="2" stroke-linecap="round" stroke-linejoin="round"/>
<path fill-rule="evenodd" clip-rule="evenodd" d="M45 23C45 35.15 35.15 45 23 45C10.85 45 1 35.15 1 23C1 10.85 10.85 1 23 1C35.15 1 45 10.85 45 23Z" stroke="#00E122" stroke-opacity="0.56" stroke-width="2" stroke-linecap="round" stroke-linejoin="round"/>
<path d="M15.9304 30.0693L8.15039 37.8493" stroke="#00E122" stroke-opacity="0.56" stroke-width="2" stroke-linecap="round" stroke-linejoin="round"/>
<path d="M37.8493 8.14941L30.0703 15.9294" stroke="#00E122" stroke-opacity="0.56" stroke-width="2" stroke-linecap="round" stroke-linejoin="round"/>
<path d="M37.8493 37.8503L30.0703 30.0703" stroke="#00E122" stroke-opacity="0.56" stroke-width="2" stroke-linecap="round" stroke-linejoin="round"/>
<path d="M15.9304 15.9304L8.15039 8.15039" stroke="#00E122" stroke-opacity="0.56" stroke-width="2" stroke-linecap="round" stroke-linejoin="round"/>
<path fill-rule="evenodd" clip-rule="evenodd" d="M33 23C33 25.76 31.88 28.26 30.07 30.07C28.26 31.88 25.76 33 23 33C20.24 33 17.74 31.88 15.93 30.07C14.12 28.26 13 25.76 13 23C13 20.24 14.12 17.74 15.93 15.93C17.74 14.12 20.24 13 23 13C25.76 13 28.26 14.12 30.07 15.93C31.88 17.74 33 20.24 33 23Z" stroke="#00E122" stroke-opacity="0.56" stroke-width="2" stroke-linecap="round" stroke-linejoin="round"/>
</svg>
