<svg width="51" height="51" viewBox="0 0 51 51" fill="none" xmlns="http://www.w3.org/2000/svg">
<g clip-path="url(#clip0_94_997)">
<path d="M38.7812 0.5H12.2188C5.74666 0.5 0.5 5.74666 0.5 12.2188V38.7812C0.5 45.2533 5.74666 50.5 12.2188 50.5H38.7812C45.2533 50.5 50.5 45.2533 50.5 38.7812V12.2188C50.5 5.74666 45.2533 0.5 38.7812 0.5Z" fill="white"/>
<path d="M38.7812 0.5H12.2188C5.74666 0.5 0.5 5.74666 0.5 12.2188V38.7812C0.5 45.2533 5.74666 50.5 12.2188 50.5H38.7812C45.2533 50.5 50.5 45.2533 50.5 38.7812V12.2188C50.5 5.74666 45.2533 0.5 38.7812 0.5Z" fill="#1D9BF0"/>
<path d="M39.4789 18.3537C39.5004 18.6637 39.5004 18.9736 39.5004 19.2865C39.5004 28.8172 32.2449 39.809 18.9779 39.809V39.8031C15.0586 39.8088 11.2205 38.6863 7.92188 36.5697C8.49206 36.6381 9.06432 36.6728 9.63867 36.6738C12.8871 36.6765 16.0421 35.5869 18.5967 33.5803C17.0916 33.5517 15.633 33.0536 14.4249 32.1556C13.2167 31.2576 12.3194 30.0045 11.8582 28.5715C12.9388 28.7799 14.0529 28.7374 15.1145 28.4473C11.7496 27.7674 9.32871 24.8109 9.32871 21.3773V21.2859C10.3318 21.8447 11.4544 22.1543 12.6021 22.1887C9.43301 20.0705 8.45605 15.8543 10.3697 12.5578C12.1804 14.7862 14.4397 16.6088 17.0008 17.9071C19.5618 19.2053 22.3674 19.9502 25.2352 20.0934C24.9492 18.8626 24.9915 17.5783 25.3576 16.3689C25.7238 15.1596 26.4011 14.0676 27.3217 13.2021C30.2268 10.4713 34.7957 10.6113 37.5266 13.5148C39.1418 13.196 40.6908 12.6038 42.1068 11.7639C41.5684 13.4339 40.4416 14.8515 38.9361 15.7529C40.3659 15.5843 41.7622 15.2016 43.0781 14.6176C42.1102 16.0672 40.8914 17.3323 39.4789 18.3537Z" fill="white"/>
</g>
<defs>
<clipPath id="clip0_94_997">
<rect width="50" height="50" fill="white" transform="translate(0.5 0.5)"/>
</clipPath>
</defs>
</svg>
