<svg width="45" height="45" viewBox="0 0 45 45" fill="none" xmlns="http://www.w3.org/2000/svg">
<path d="M34.1826 19.7188H39.0938C39.2226 19.7188 39.3262 19.719 39.418 19.7246C40.8332 19.8109 42.0477 20.8732 42.1494 22.3135V22.3145C42.1559 22.406 42.1562 22.509 42.1562 22.626V29.874L42.1494 30.1855V30.1865C42.0477 31.6268 40.8332 32.6891 39.418 32.7754C39.3262 32.781 39.2226 32.7812 39.0938 32.7812H34.1826C30.3989 32.7812 27.2188 29.9171 27.2188 26.25C27.2188 22.5829 30.3989 19.7188 34.1826 19.7188ZM40.3438 22.4961C40.3436 22.4859 40.3429 22.4771 40.3428 22.4707V22.458L40.3418 22.4453L40.3408 22.4336L40.3311 22.3555C40.2599 21.9649 39.894 21.5688 39.3076 21.5332C39.3057 21.5331 39.3037 21.5333 39.3018 21.5332C39.2966 21.5329 39.2911 21.5324 39.2852 21.5322C39.2733 21.5318 39.2573 21.5315 39.2363 21.5312H34.1826C31.2698 21.5313 29.0313 23.7092 29.0312 26.25C29.0312 28.7908 31.2698 30.9687 34.1826 30.9688H39.2363C39.2571 30.9685 39.2734 30.9682 39.2852 30.9678C39.2909 30.9676 39.2961 30.967 39.3008 30.9668H39.3076C39.933 30.9288 40.3072 30.4805 40.3408 30.0664L40.3418 30.0547L40.3428 30.042V30.0293L40.3438 30.0029V22.4961Z" fill="#00E122" stroke="#00E122"/>
<path d="M33.75 24.875C34.5094 24.875 35.125 25.4906 35.125 26.25C35.125 27.0094 34.5094 27.625 33.75 27.625C32.9906 27.625 32.375 27.0094 32.375 26.25C32.375 25.4906 32.9906 24.875 33.75 24.875Z" fill="#00E122" stroke="#00E122"/>
<path d="M17.7529 5.85059C20.0289 4.34148 23.096 4.34147 25.3721 5.85059L32.376 10.4951C32.3888 10.5037 32.4018 10.5127 32.415 10.5225L32.5186 10.5996L32.6475 10.6162L32.7266 10.627V10.626C34.8689 10.9142 36.5248 11.5112 37.8193 12.8057C39.2834 14.2699 39.8598 16.2074 40.0996 18.8135C39.8966 18.7688 39.689 18.7394 39.4785 18.7266C39.35 18.7187 39.2136 18.7187 39.0938 18.7188H38.2705C38.034 16.4458 37.5339 15.0848 36.5371 14.0879C35.6353 13.1861 34.4253 12.6839 32.4834 12.4229C30.5154 12.1583 27.9356 12.1562 24.375 12.1562H18.75C15.1893 12.1562 12.6095 12.1583 10.6416 12.4229C8.69951 12.6839 7.48969 13.1861 6.58789 14.0879C5.6861 14.9897 5.18395 16.1995 4.92285 18.1416C4.6583 20.1095 4.65625 22.6893 4.65625 26.25C4.65625 29.8106 4.65832 32.3904 4.92285 34.3584C5.18395 36.3003 5.68609 37.5103 6.58789 38.4121C7.48968 39.3139 8.69947 39.8162 10.6416 40.0771C12.6095 40.3418 15.1893 40.3438 18.75 40.3438H24.375C27.9359 40.3438 30.5163 40.3418 32.4844 40.0771L32.4834 40.0762C34.4253 39.8152 35.6353 39.3139 36.5371 38.4121C37.5339 37.4153 38.034 36.0542 38.2705 33.7812H39.0938C39.2137 33.7813 39.35 33.7813 39.4785 33.7734C39.689 33.7606 39.8966 33.7302 40.0996 33.6855C39.8599 36.2922 39.2836 38.2299 37.8193 39.6943C36.5246 40.9889 34.8684 41.5858 32.7256 41.874C30.6304 42.1556 27.9396 42.1562 24.4805 42.1562H18.6445C15.1854 42.1562 12.4946 42.1556 10.3994 41.874C8.25652 41.5858 6.60035 40.9889 5.30566 39.6943C4.01103 38.3996 3.41409 36.7434 3.12598 34.6006C2.84428 32.5055 2.84371 29.8146 2.84375 26.3555V26.1445C2.84371 22.6854 2.84428 19.9946 3.12598 17.8994C3.41409 15.7565 4.01099 14.1004 5.30566 12.8057C6.59997 11.5114 8.25551 10.9142 10.3975 10.626L10.3984 10.627L10.4775 10.6162L10.6064 10.5996L10.71 10.5225C10.7224 10.5132 10.7346 10.5031 10.748 10.4941L10.749 10.4951L17.7529 5.85059ZM24.3701 7.36133C22.7012 6.25478 20.4237 6.25474 18.7549 7.36133L15.6299 9.43359L14.2285 10.3623L15.9102 10.3496L18.6445 10.3438H24.4805C25.4492 10.3437 26.3592 10.3433 27.2148 10.3496L28.8965 10.3623L27.4951 9.43359L24.3701 7.36133Z" fill="#00E122" stroke="#00E122"/>
<path d="M11.25 17.8438H18.75C19.2505 17.8438 19.6562 18.2495 19.6562 18.75C19.6562 19.2505 19.2505 19.6562 18.75 19.6562H11.25C10.7495 19.6562 10.3438 19.2505 10.3438 18.75C10.3438 18.2495 10.7495 17.8438 11.25 17.8438Z" fill="#00E122" stroke="#00E122"/>
<path d="M33.75 24.875C34.5094 24.875 35.125 25.4906 35.125 26.25C35.125 27.0094 34.5094 27.625 33.75 27.625C32.9906 27.625 32.375 27.0094 32.375 26.25C32.375 25.4906 32.9906 24.875 33.75 24.875Z" fill="#00E122" stroke="#00E122"/>
</svg>
