<svg width="45" height="45" viewBox="0 0 45 45" fill="none" xmlns="http://www.w3.org/2000/svg">
<path d="M21.5625 39.375H11.25C10.2554 39.375 9.30161 38.9799 8.59835 38.2766C7.89509 37.5734 7.5 36.6196 7.5 35.625V9.375C7.5 8.38044 7.89509 7.42661 8.59835 6.72335C9.30161 6.02009 10.2554 5.625 11.25 5.625H33.75C34.7446 5.625 35.6984 6.02009 36.4016 6.72335C37.1049 7.42661 37.5 8.38044 37.5 9.375V20.625" stroke="#00E122" stroke-width="4" stroke-linecap="round" stroke-linejoin="round"/>
<path d="M16.875 33.75H18.75" stroke="#00E122" stroke-width="4" stroke-linecap="round" stroke-linejoin="round"/>
<path d="M33.7502 41.2498L40.0315 35.0923C40.4167 34.7185 40.7231 34.2713 40.9326 33.7772C41.1421 33.283 41.2505 32.7519 41.2514 32.2152C41.2522 31.6785 41.1456 31.147 40.9377 30.6522C40.7298 30.1573 40.4248 29.7092 40.0408 29.3342C39.2573 28.5679 38.2056 28.1379 37.1097 28.1358C36.0138 28.1337 34.9604 28.5597 34.174 29.3229L33.754 29.7354L33.3358 29.3229C32.5524 28.5572 31.5011 28.1276 30.4056 28.1255C29.3102 28.1234 28.2572 28.549 27.4708 29.3117C27.0855 29.6853 26.779 30.1324 26.5693 30.6265C26.3596 31.1205 26.2511 31.6516 26.25 32.1883C26.249 32.7251 26.3555 33.2566 26.5632 33.7515C26.771 34.2464 27.0758 34.6946 27.4596 35.0698L33.7502 41.2498Z" stroke="#00E122" stroke-width="4" stroke-linecap="round" stroke-linejoin="round"/>
</svg>
